<svg width="319" height="166" viewBox="0 0 319 166" fill="none" xmlns="http://www.w3.org/2000/svg">
<path d="M137.234 153.96C133.154 157.44 127.394 160.14 119.954 162.06C112.634 164.1 103.154 165.12 91.5137 165.12C79.9937 165.12 70.5137 163.86 63.0737 161.34C55.6337 158.94 49.8137 155.7 45.6137 151.62C41.4137 147.54 38.5337 142.86 36.9737 137.58C35.4137 132.3 34.6337 126.84 34.6337 121.2V65.22C34.6337 59.58 35.4137 54.42 36.9737 49.74C38.5337 45.06 41.3537 41.04 45.4337 37.68L68.8337 18.06C72.9137 14.58 78.6137 11.88 85.9337 9.95999C93.3737 7.91999 102.974 6.89999 114.734 6.89999C126.254 6.89999 135.734 7.85999 143.174 9.77999C150.614 11.7 156.374 14.4 160.454 17.88C164.654 21.24 167.534 25.32 169.094 30.12C170.654 34.8 171.434 39.96 171.434 45.6V106.98C171.434 112.5 170.654 117.66 169.094 122.46C167.534 127.14 164.714 131.16 160.634 134.52L137.234 153.96ZM169.634 106.98V45.6C169.634 40.08 168.854 35.1 167.294 30.66C165.734 26.1 162.914 22.2 158.834 18.96C154.754 15.72 149.114 13.2 141.914 11.4C134.834 9.6 125.774 8.7 114.734 8.7C103.694 8.7 94.5737 9.6 87.3737 11.4C80.2937 13.2 74.7137 15.72 70.6337 18.96C66.5537 22.2 63.6737 26.1 61.9937 30.66C60.4337 35.1 59.6537 40.08 59.6537 45.6V106.98C59.6537 112.5 60.4337 117.54 61.9937 122.1C63.6737 126.54 66.5537 130.38 70.6337 133.62C74.7137 136.74 80.2937 139.2 87.3737 141C94.5737 142.8 103.694 143.7 114.734 143.7C125.774 143.7 134.834 142.8 141.914 141C149.114 139.2 154.754 136.74 158.834 133.62C162.914 130.38 165.734 126.54 167.294 122.1C168.854 117.54 169.634 112.5 169.634 106.98ZM79.0937 102.84V49.74C79.0937 46.14 79.6337 42.84 80.7137 39.84C81.7937 36.84 83.6537 34.32 86.2937 32.28C88.9337 30.12 92.5337 28.44 97.0937 27.24C101.774 26.04 107.594 25.44 114.554 25.44C128.474 25.44 137.894 27.72 142.814 32.28C147.854 36.84 150.374 42.66 150.374 49.74V102.84C150.374 110.04 147.854 115.92 142.814 120.48C137.894 124.92 128.474 127.14 114.554 127.14C107.594 127.14 101.774 126.54 97.0937 125.34C92.5337 124.14 88.9337 122.52 86.2937 120.48C83.6537 118.32 81.7937 115.74 80.7137 112.74C79.6337 109.74 79.0937 106.44 79.0937 102.84ZM114.554 27.24C101.714 27.24 92.8937 29.28 88.0937 33.36C83.2937 37.44 80.8937 42.9 80.8937 49.74V102.84C80.8937 109.68 83.2937 115.14 88.0937 119.22C92.8937 123.3 101.714 125.34 114.554 125.34C127.394 125.34 136.274 123.3 141.194 119.22C146.114 115.14 148.574 109.68 148.574 102.84V49.74C148.574 43.02 146.114 37.62 141.194 33.54C136.274 29.34 127.394 27.24 114.554 27.24ZM100.334 100.5V52.08C100.334 49.8 101.174 47.88 102.854 46.32C104.654 44.64 108.614 43.8 114.734 43.8C120.854 43.8 124.754 44.64 126.434 46.32C128.234 47.88 129.134 49.8 129.134 52.08V100.5C129.134 102.9 128.234 104.94 126.434 106.62C124.754 108.18 120.854 108.96 114.734 108.96C108.614 108.96 104.654 108.18 102.854 106.62C101.174 104.94 100.334 102.9 100.334 100.5ZM102.134 100.5C102.134 101.34 102.254 102.18 102.494 103.02C102.734 103.86 103.274 104.52 104.114 105V71.7C104.114 70.86 103.994 70.02 103.754 69.18C103.514 68.34 102.974 67.68 102.134 67.2V100.5ZM257.9 153.5C250.9 153.5 246.067 152.467 243.4 150.4C240.8 148.4 239.367 145.8 239.1 142.6L228 151.9C227.667 152.167 227.2 152.4 226.6 152.6C226.067 152.8 225.467 152.9 224.8 152.9H214.3C212.634 152.9 211.434 152.467 210.7 151.6C209.967 150.8 209.8 149.633 210.2 148.1L218.4 115L213.1 119.5C211.767 120.633 209.867 121.533 207.4 122.2C205 122.867 201.9 123.2 198.1 123.2C194.234 123.2 191.067 122.733 188.6 121.8C186.134 120.8 184.2 119.567 182.8 118.1C181.467 116.567 180.534 114.867 180 113C179.467 111.067 179.2 109.167 179.2 107.3V91.3C179.2 89.4333 179.467 87.7 180 86.1C180.534 84.5 181.5 83.1667 182.9 82.1L195.8 71.2C197.2 70.0667 199.134 69.1667 201.6 68.5C204.067 67.8333 207.2 67.5 211 67.5C218.067 67.5 222.867 68.5333 225.4 70.6C227.934 72.6 229.334 75.2333 229.6 78.5L241 69C241.334 68.7333 241.767 68.5 242.3 68.3C242.834 68.1 243.467 68 244.2 68H254.7C256.367 68 257.567 68.4333 258.3 69.3C259.034 70.1 259.2 71.2667 258.8 72.8L250.7 105.6L255.6 101.5C257 100.367 258.934 99.4667 261.4 98.8C263.867 98.1333 267 97.8 270.8 97.8C274.667 97.8 277.8 98.1333 280.2 98.8C282.667 99.4 284.567 100.267 285.9 101.4C287.3 102.533 288.234 103.9 288.7 105.5C289.234 107.1 289.5 108.833 289.5 110.7V129.7C289.5 131.567 289.234 133.3 288.7 134.9C288.167 136.5 287.2 137.833 285.8 138.9L272.9 149.8C271.567 150.933 269.667 151.833 267.2 152.5C264.8 153.167 261.7 153.5 257.9 153.5ZM228.7 99.4V80.4C228.7 78.6667 228.434 77.0667 227.9 75.6C227.434 74.0667 226.534 72.8 225.2 71.8C223.867 70.7333 222.034 69.9333 219.7 69.4C217.434 68.8 214.534 68.5 211 68.5C203.867 68.5 199.1 69.6 196.7 71.8C194.3 74 193.1 76.8667 193.1 80.4V99.4C193.1 102.933 194.3 105.8 196.7 108C199.1 110.2 203.867 111.3 211 111.3C214.534 111.3 217.434 111.033 219.7 110.5C222.034 109.9 223.867 109.1 225.2 108.1C226.534 107.033 227.434 105.767 227.9 104.3C228.434 102.767 228.7 101.133 228.7 99.4ZM224.1 137.4C223.834 138.6 223.967 139.5 224.5 140.1C225.034 140.7 225.934 141 227.2 141H237.7C238.967 141 239.9 140.7 240.5 140.1C241.1 139.5 241.534 138.6 241.8 137.4L257.8 72.6C258.067 71.4 257.934 70.5 257.4 69.9C256.867 69.3 255.967 69 254.7 69H244.2C242.934 69 242 69.3 241.4 69.9C240.8 70.5 240.367 71.4 240.1 72.6L224.1 137.4ZM222 82.7V97.3C222 100.167 221.134 102.2 219.4 103.4C217.734 104.6 214.934 105.2 211 105.2C207.134 105.2 204.3 104.6 202.5 103.4C200.767 102.2 199.9 100.167 199.9 97.3V82.7C199.9 79.8333 200.767 77.8 202.5 76.6C204.3 75.3333 207.134 74.7 211 74.7C214.934 74.7 217.734 75.3333 219.4 76.6C221.134 77.8 222 79.8333 222 82.7ZM211 104.2C214.4 104.2 216.9 103.7 218.5 102.7C220.167 101.7 221 99.9 221 97.3V82.7C221 80.1 220.167 78.3 218.5 77.3C216.9 76.2333 214.4 75.7 211 75.7C207.6 75.7 205.067 76.2333 203.4 77.3C201.734 78.3 200.9 80.1 200.9 82.7V97.3C200.9 99.9 201.734 101.7 203.4 102.7C205.067 103.7 207.6 104.2 211 104.2ZM234.8 132H233.8L247.1 78H248.1L234.8 132ZM207.6 96.3V83.5C207.6 83.1 207.8 82.7333 208.2 82.4C208.6 82 209.534 81.8 211 81.8C212.4 81.8 213.3 82 213.7 82.4C214.1 82.7333 214.3 83.1 214.3 83.5V96.3C214.3 96.7667 214.1 97.2 213.7 97.6C213.3 97.9333 212.4 98.1 211 98.1C209.534 98.1 208.6 97.9333 208.2 97.6C207.8 97.2 207.6 96.7667 207.6 96.3ZM288.5 129.7V110.7C288.5 108.967 288.234 107.367 287.7 105.9C287.234 104.367 286.334 103.1 285 102.1C283.667 101.033 281.834 100.233 279.5 99.7C277.234 99.1 274.334 98.8 270.8 98.8C263.667 98.8 258.9 99.9 256.5 102.1C254.1 104.3 252.9 107.167 252.9 110.7V129.7C252.9 133.233 254.1 136.1 256.5 138.3C258.9 140.5 263.667 141.6 270.8 141.6C274.334 141.6 277.234 141.333 279.5 140.8C281.834 140.2 283.667 139.4 285 138.4C286.334 137.333 287.234 136.067 287.7 134.6C288.234 133.067 288.5 131.433 288.5 129.7ZM282 113V127.6C282 130.467 281.134 132.5 279.4 133.7C277.734 134.9 274.934 135.5 271 135.5C267.134 135.5 264.3 134.9 262.5 133.7C260.767 132.5 259.9 130.467 259.9 127.6V113C259.9 110.133 260.767 108.1 262.5 106.9C264.3 105.633 267.134 105 271 105C274.934 105 277.734 105.633 279.4 106.9C281.134 108.1 282 110.133 282 113ZM271 134.5C274.4 134.5 276.9 134 278.5 133C280.167 132 281 130.2 281 127.6V113C281 110.4 280.167 108.6 278.5 107.6C276.9 106.533 274.4 106 271 106C267.6 106 265.067 106.533 263.4 107.6C261.734 108.6 260.9 110.4 260.9 113V127.6C260.9 130.2 261.734 132 263.4 133C265.067 134 267.6 134.5 271 134.5ZM267.4 126.6V113.8C267.4 113.4 267.6 113.033 268 112.7C268.4 112.3 269.334 112.1 270.8 112.1C272.2 112.1 273.1 112.3 273.5 112.7C273.9 113.033 274.1 113.4 274.1 113.8V126.6C274.1 127.067 273.9 127.5 273.5 127.9C273.1 128.233 272.2 128.4 270.8 128.4C269.334 128.4 268.4 128.233 268 127.9C267.6 127.5 267.4 127.067 267.4 126.6Z" fill="black"/>
</svg>
