<svg width="180" height="180" viewBox="0 0 180 180" fill="none" xmlns="http://www.w3.org/2000/svg">
<path d="M163.58 76.2841C163.58 89.1397 163.58 127 89.7902 127C16.4826 127 16 89.1397 16 76.2841C16 63.4285 49.0342 53 89.7902 53C130.546 53 163.58 63.4216 163.58 76.2841Z" fill="#161616"/>
<path d="M156.103 73.4027C156.073 74.6299 155.689 75.8223 154.998 76.8369C149.319 85.7826 122.384 94.2248 90.0347 94.2248C57.686 94.2248 30.7508 85.7826 25.0924 76.8369C24.4013 75.8223 24.0175 74.6299 23.9873 73.4027C23.9873 63.3238 53.5663 55.1475 90.0627 55.1475C126.559 55.1475 156.103 63.3238 156.103 73.4027Z" fill="#262626"/>
<path d="M156.103 73.4027C156.073 74.6299 155.689 75.8223 154.998 76.8369C149.319 85.7826 122.384 94.2248 90.0347 94.2248C57.686 94.2248 30.7508 85.7826 25.0924 76.8369C24.4013 75.8223 24.0175 74.6299 23.9873 73.4027C23.9873 63.3238 53.5663 55.1475 90.0627 55.1475C126.559 55.1475 156.103 63.3238 156.103 73.4027Z" fill="#848484"/>
<path d="M155.886 78.0677C155.856 79.296 155.47 80.4892 154.774 81.5019C149.095 90.4477 122.167 98.8898 89.8108 98.8898C57.455 98.8898 30.5058 90.4477 24.8264 81.5019C24.1261 80.4901 23.7327 79.2976 23.6934 78.0677C23.6934 67.9889 53.2724 59.8125 89.7688 59.8125C126.265 59.8125 155.886 67.9889 155.886 78.0677Z" fill="#FCF9EB"/>
<path d="M139.834 79.2845C136.218 79.6832 136.582 76.193 133.539 76.9834C130.497 77.7737 132.469 73.1785 129.406 74.4724C126.342 75.7664 126.937 73.6681 125.146 74.4374C123.355 75.2068 121.243 76.4378 121.243 76.4378C121.243 76.4378 116.2 75.8223 114.71 76.6127C113.137 77.3057 111.443 77.6835 109.723 77.7248C109.248 77.7907 108.792 77.9618 108.391 78.2255C107.989 78.4892 107.651 78.839 107.401 79.2495L114.228 79.9C117.417 80.2008 122.034 77.466 124.377 80.2637C126.72 83.0614 127.874 87.3699 131.882 85.4885C135.889 83.607 139.974 85.3696 141.352 85.6913C142.73 86.0131 143.821 83.1244 143.821 83.1244C143.821 83.1244 141.939 79.0537 139.834 79.2845Z" fill="#0E5110"/>
<path d="M136.918 81.5784C136.918 81.5784 126.573 76.7803 122.46 77.9134C118.348 79.0465 115.753 79.5081 115.753 79.5081C115.753 79.5081 125.545 79.0535 128.161 79.697C130.777 80.3404 136.918 81.5784 136.918 81.5784Z" fill="#377C37"/>
<path d="M163.58 75.235C163.576 75.8128 163.504 76.3881 163.363 76.9486H154.97C155.666 75.9359 156.052 74.7427 156.082 73.5144C156.082 63.4355 126.496 55.2592 90.0067 55.2592C53.5172 55.2592 23.9592 63.4355 23.9592 73.5144C23.9985 74.7443 24.3919 75.9368 25.0923 76.9486H16.6991C16.5609 76.3878 16.4905 75.8125 16.4893 75.235C16.4823 62.9739 49.4116 53 90.0346 53C130.658 53 163.58 62.9739 163.58 75.235Z" fill="#262626"/>
<path d="M136.575 85.1737C132.952 84.9289 133.778 81.5366 130.7 81.7814C127.623 82.0262 130.155 77.8366 126.951 78.571C123.748 79.3054 124.629 77.34 122.755 77.7807C121.356 78.1397 119.976 78.5692 118.621 79.0676C118.621 79.0676 113.725 77.5569 112.144 78.0744C110.469 78.4872 108.728 78.5586 107.024 78.2843C105.556 78.1024 104.527 76.5147 104.527 79.3754C104.527 82.2361 108.682 78.9627 111.186 81.2289C114.04 83.8168 118.453 82.7606 120.383 85.9431C122.314 89.1255 123.664 91.0349 127.853 89.8879C132.043 88.7408 135.869 91.2028 137.184 91.7623C138.499 92.3219 139.982 89.664 139.982 89.664C139.982 89.664 138.688 85.3206 136.575 85.1737Z" fill="#0E5110"/>
<path d="M133.379 86.9297C133.379 86.9297 123.825 80.3271 119.607 80.7467C115.39 81.1664 112.76 81.1314 112.76 81.1314C112.76 81.1314 122.489 82.4114 124.993 83.5095C127.497 84.6076 133.379 86.9297 133.379 86.9297Z" fill="#377C37"/>
<path d="M130.008 87.2723C126.385 87.0205 127.21 83.6353 124.126 83.8801C121.041 84.1249 123.587 79.9283 120.384 80.6697C117.18 81.4111 118.055 79.4317 116.187 79.8793C114.32 80.327 112.06 81.1593 112.06 81.1593C112.06 81.1593 107.164 79.6555 105.584 80.1731C103.905 80.5823 102.163 80.6536 100.457 80.3829C98.995 80.2011 97.9668 78.6133 97.9668 81.474C97.9668 84.3347 102.114 81.0614 104.618 83.3275C107.479 85.9154 111.886 84.8523 113.823 88.0417C115.76 91.2311 117.096 93.1336 121.293 91.9865C125.489 90.8394 129.301 93.3014 130.616 93.861C131.931 94.4205 133.414 91.7627 133.414 91.7627C133.414 91.7627 132.106 87.3982 130.008 87.2723Z" fill="#0E5110"/>
<path d="M126.777 89.0904C126.777 89.0904 117.222 82.4877 112.998 82.9004C108.773 83.3131 106.157 83.2851 106.157 83.2851C106.157 83.2851 115.879 84.572 118.383 85.6702C120.887 86.7683 126.777 89.0904 126.777 89.0904Z" fill="#377C37"/>
<path d="M73.0112 94.7908C73.0112 99.3092 58.1412 94.2243 50.4055 94.2243C42.6698 94.2243 45.7823 86.4886 49.0836 83.53C62.4567 71.5627 75.8229 78.0114 83.5586 78.0114C91.2944 78.0114 73.0112 90.2725 73.0112 94.7908Z" fill="#E55110"/>
<path d="M76.8505 81.4806C74.941 81.1029 64.4215 93.5668 63.2605 94.8957C62.3092 95.9938 62.2953 94.4901 62.3232 93.8816C62.3232 94.532 62.5191 95.2804 63.2605 94.3991C64.4215 93.0422 74.941 80.5993 76.8505 80.977C77.403 81.0819 77.9346 80.4944 78.0465 79.8789C78.2493 80.6203 77.5499 81.6135 76.8505 81.4806Z" fill="#E04E0E"/>
<path d="M78.0605 79.8794C77.9486 80.4949 77.417 81.0824 76.8644 80.9775C74.941 80.5998 64.4215 93.0427 63.2605 94.3996C62.5191 95.2529 62.3442 94.5325 62.3232 93.882C62.3232 93.7561 62.3232 93.6722 62.3232 93.6722C62.659 91.6858 72.6748 79.9983 75.9412 79.2499C77.3541 78.9142 77.9486 79.3268 78.0605 79.8794Z" fill="#F95A0B"/>
<path d="M74.1092 80.418C72.1927 80.0473 61.6733 92.4762 60.5052 93.8401C59.561 94.9312 59.547 93.4274 59.568 92.8259C59.568 93.4764 59.7638 94.2248 60.5052 93.3365C61.6733 91.9866 72.1927 79.5786 74.1092 79.9144C74.6617 80.0263 75.1933 79.4317 75.3122 78.8232C75.4871 79.5786 74.8156 80.5578 74.1092 80.418Z" fill="#E04E0E"/>
<path d="M75.3116 78.8227C75.1927 79.4313 74.6611 80.0258 74.1086 79.9139C72.1921 79.5781 61.6727 91.9861 60.5046 93.336C59.7632 94.1963 59.5954 93.4759 59.5674 92.8254C59.5674 92.6995 59.5674 92.6156 59.5674 92.6156C59.8961 90.6292 69.919 78.9417 73.1853 78.1933C74.5982 77.8575 75.1927 78.2632 75.3116 78.8227Z" fill="#F95A0B"/>
<path d="M79.1168 78.5151C79.7533 80.6134 70.7236 94.4832 69.7164 96.0009C68.926 97.2459 70.227 97.0151 70.7446 96.8892C70.185 96.9661 69.5276 96.8892 70.1501 95.917C71.1293 94.3852 80.1869 80.5295 79.5504 78.4312C79.4895 78.1283 79.5306 77.8137 79.6672 77.5366C79.8039 77.2595 80.0284 77.0355 80.3058 76.8994C80.1154 76.9125 79.9301 76.9669 79.7628 77.0589C79.5955 77.1508 79.4502 77.2781 79.3371 77.4319C79.2239 77.5856 79.1456 77.7621 79.1076 77.9492C79.0695 78.1363 79.0727 78.3294 79.1168 78.5151V78.5151Z" fill="#E04E0E"/>
<path d="M80.3059 76.9062C80.0285 77.0423 79.804 77.2664 79.6673 77.5435C79.5307 77.8206 79.4896 78.1351 79.5505 78.438C80.187 80.5363 71.1573 94.3991 70.1502 95.9238C69.5277 96.896 70.1502 96.973 70.7447 96.896L70.9265 96.8401C72.5912 96.1407 81.0753 82.9703 81.1942 79.1654C81.2572 77.5497 80.8025 76.9482 80.3059 76.9062Z" fill="#F95A0B"/>
<path d="M79.5783 82.9144C77.6549 82.5367 67.1354 94.9656 65.9743 96.3645C65.0231 97.4626 65.0091 95.9588 65.0371 95.3573C65.0371 96.0008 65.2329 96.7562 65.9743 95.8679C67.1354 94.518 77.6549 82.0681 79.5783 82.4458C80.1239 82.5577 80.6624 81.9632 80.7743 81.3477C80.9492 82.0541 80.2778 83.0753 79.5783 82.9144Z" fill="#E04E0E"/>
<path d="M80.7743 81.313C80.6624 81.9285 80.1239 82.523 79.5783 82.4111C77.6549 82.0334 67.1354 94.4833 65.9743 95.8332C65.2329 96.6865 65.0581 95.9661 65.0371 95.3226C65.0371 95.1967 65.0371 95.1128 65.0371 95.1128C65.3728 93.1264 75.3887 81.4389 78.6551 80.6905C80.0679 80.3477 80.6624 80.7604 80.7743 81.313Z" fill="#F95A0B"/>
<path d="M71.0242 80.3691C69.1078 79.9984 58.5883 92.4273 57.4203 93.7912C56.476 94.8824 56.462 93.3786 56.483 92.7771C56.483 93.4275 56.6789 94.1759 57.4203 93.2876C58.5883 91.9377 69.1078 79.4948 71.0242 79.8655C71.5768 79.9774 72.1083 79.3829 72.2272 78.7744C72.4021 79.5088 71.7306 80.509 71.0242 80.3691Z" fill="#E04E0E"/>
<path d="M72.2276 78.7741C72.1087 79.3826 71.5772 79.9771 71.0246 79.8652C69.1082 79.4945 58.5887 91.9374 57.4206 93.2873C56.6792 94.1476 56.5114 93.4272 56.4834 92.7768C56.4834 92.6509 56.4834 92.5669 56.4834 92.5669C56.8331 90.5596 66.856 78.879 70.1223 78.1236C71.5142 77.8089 72.1087 78.2146 72.2276 78.7741Z" fill="#F95A0B"/>
<path d="M42.376 72.8145C43.2023 71.7335 44.1936 70.7893 45.3136 70.0167C46.4403 69.212 47.6648 68.5539 48.9576 68.0583C50.2892 67.5235 51.7212 67.2848 53.1542 67.3589C53.9709 67.3978 54.7543 67.694 55.3924 68.2052C55.6574 68.4594 55.8921 68.7434 56.0919 69.0515C56.2885 69.264 56.5038 69.4583 56.7353 69.632C57.7285 70.3874 58.9246 71.0309 60.0506 71.8562C60.6501 72.2581 61.1935 72.7379 61.6663 73.2831C62.1946 73.89 62.4722 74.6752 62.4427 75.4793C62.3439 76.224 62.0221 76.9214 61.5195 77.4797C61.067 78.0059 60.5527 78.4756 59.9877 78.8785C58.8915 79.6719 57.7202 80.356 56.4905 80.9209C57.5923 80.1652 58.6416 79.3357 59.631 78.4379C60.105 78.0014 60.5317 77.5161 60.904 76.9901C61.2393 76.5336 61.4338 75.989 61.4635 75.4233C61.4635 74.3532 60.4144 73.4929 59.3652 72.8005C58.3161 72.108 57.0851 71.5065 55.924 70.6532C55.6146 70.4285 55.3287 70.1731 55.0707 69.8908C54.9045 69.6383 54.7123 69.4038 54.4972 69.1914C54.0743 68.9006 53.582 68.7269 53.0703 68.6878C52.4611 68.6335 51.8473 68.6594 51.2448 68.7647C50.6155 68.8604 49.9937 69.0007 49.3843 69.1844C46.8474 69.9596 44.4727 71.1896 42.376 72.8145V72.8145Z" fill="#E5E2DF"/>
<path d="M41.5856 71.0801C40.7183 71.4998 39.5782 73.0035 39.9489 73.9897C40.3196 74.9759 42.0472 75.0669 42.9215 74.6402C43.7958 74.2136 45.5723 73.3463 44.796 71.6187C44.2014 70.3037 42.4459 70.6534 41.5856 71.0801Z" fill="#EFD460"/>
<path d="M56.8116 89.6639C57.511 86.964 69.779 78.9136 71.1289 78.0113C72.2201 77.2699 71.3318 76.5565 70.9681 76.3047C71.3388 76.6404 71.6675 77.2 70.8282 77.7805C69.4853 78.6828 57.1823 86.7262 56.5108 89.426C56.322 90.2094 55.7204 90.6291 55.3008 90.5032C55.6575 91.0697 56.5668 90.657 56.8116 89.6639Z" fill="#E04E0E"/>
<path d="M55.3007 90.5037C55.7204 90.6296 56.3219 90.2099 56.5108 89.4265C57.2102 86.7267 69.4852 78.6832 70.8282 77.781C71.6885 77.2005 71.3387 76.6409 70.968 76.3052L70.8352 76.2282C69.4992 75.7386 57.8817 83.4744 55.9162 87.4192C55.0559 89.1118 55.021 90.07 55.3007 90.5037Z" fill="#F95A0B"/>
<path d="M50.3703 89.2231C51.0697 86.5373 63.4287 78.7316 64.7856 77.8433C65.8907 77.1439 65.0024 76.3885 64.6387 76.1367C65.0094 76.4794 65.3382 77.046 64.4919 77.6055C63.142 78.4868 50.769 86.2925 50.0696 88.9783C49.8737 89.7547 49.2652 90.1673 48.8525 90.0275C49.2092 90.608 50.1115 90.2093 50.3703 89.2231Z" fill="#E04E0E"/>
<path d="M48.8737 90.0278C49.2863 90.1677 49.8948 89.755 50.0907 88.9786C50.7901 86.2928 63.1631 78.4871 64.513 77.6059C65.3733 77.0463 65.0306 76.4798 64.6599 76.137L64.492 76.0811C63.1631 75.5635 51.4825 83.0754 49.4752 86.9922C48.6219 88.6709 48.5799 89.6081 48.8737 90.0278Z" fill="#F95A0B"/>
<path d="M54.6993 89.4617C55.3987 86.7619 67.6667 78.7114 69.0166 77.8092C70.1148 77.1097 69.2265 76.3543 68.8558 76.1025C69.2265 76.4383 69.5552 77.0048 68.7229 77.5783C67.373 78.4806 55.07 86.5311 54.3985 89.2309C54.2097 90.0073 53.6081 90.4339 53.1885 90.301C53.5452 90.8676 54.4684 90.4549 54.6993 89.4617Z" fill="#E04E0E"/>
<path d="M53.1892 90.301C53.6089 90.4339 54.2104 90.0072 54.3993 89.2309C55.0987 86.531 67.3737 78.4806 68.7236 77.5783C69.577 77.0048 69.2272 76.4382 68.8565 76.1025L68.7236 76.0326C67.3877 75.536 55.7702 83.2787 53.8047 87.2235C52.9444 88.9091 52.9165 89.8883 53.1892 90.301Z" fill="#F95A0B"/>
<path d="M129.183 62.0298C117.53 55.2523 108.2 68.3247 110.039 69.6326C111.879 70.9406 118.013 75.5498 119.062 75.382C120.111 75.2141 135.149 65.499 129.183 62.0298Z" fill="#D32E18"/>
<path d="M122.971 59.211C119.901 57.2805 111.696 69.9333 112.095 70.4019C112.494 70.8705 113.795 72.71 114.312 72.2904C114.83 71.8707 124.538 60.2042 122.971 59.211Z" fill="#FF3608"/>
<path d="M127.287 58.5951C124.16 56.7626 113.767 73.0244 114.138 73.57C114.508 74.1155 115.725 76.0599 116.341 75.4794C116.956 74.8989 128.889 59.5603 127.287 58.5951Z" fill="#FF3608"/>
<path d="M119.83 56.9311C116.55 55.6372 110.038 70.3602 110.5 70.7939C110.961 71.2275 112.472 72.7663 112.934 72.1927C113.396 71.6192 121.509 57.5886 119.83 56.9311Z" fill="#E03114"/>
<path d="M130.315 60.4695C126.762 58.1404 116.019 73.2412 116.48 73.8497C116.942 74.4582 118.362 76.6474 119.012 76.1158C119.663 75.5843 132.106 61.6586 130.315 60.4695Z" fill="#E03114"/>
<path d="M133.98 62.4354C130.812 59.6447 119.082 71.1853 119.446 71.8847C119.809 72.5842 120.971 74.7454 121.649 74.4167C122.327 74.088 135.603 63.8623 133.98 62.4354Z" fill="#FF3608"/>
<path d="M109.339 55.3571C112.416 57.3085 110.773 70.248 110.234 70.1081C109.696 69.9682 107.842 69.5695 107.737 68.9121C107.632 68.2546 107.765 54.3988 109.339 55.3571Z" fill="#E03114"/>
<path d="M114.508 57.763C111.13 57.1545 107.577 71.437 108.094 71.7517C108.612 72.0664 110.347 73.1855 110.682 72.619C111.018 72.0525 116.236 58.0708 114.508 57.763Z" fill="#FF3608"/>
<path d="M59.8755 58.8892C84.0898 53.8883 86.349 66.4151 83.6562 67.4223C80.9634 68.4295 71.7099 71.8917 70.367 71.6189C69.0241 71.3461 51.0207 60.6938 59.8755 58.8892Z" fill="#994F25"/>
<path d="M66.3594 56.2876C69.5768 55.2944 75.5569 66.1846 75.1023 66.5133C74.6477 66.8421 73.1089 68.0031 72.6543 67.6045C72.1997 67.2058 64.6598 56.7982 66.3594 56.2876Z" fill="#C1682D"/>
<path d="M63.5059 56.5396C66.8561 56.2179 71.0527 68.1502 70.5561 68.388C70.0595 68.6258 68.3669 69.4511 67.9962 68.9685C67.6255 68.4859 61.7853 56.7075 63.5059 56.5396Z" fill="#C1682D"/>
<path d="M55.8676 59.5961C59.141 58.5959 65.1211 69.4931 64.6595 69.7868C64.1979 70.0806 62.6731 71.2836 62.2394 70.8779C61.8058 70.4723 54.2239 60.1067 55.8676 59.5961Z" fill="#B25724"/>
<path d="M59.9878 57.3924C63.345 57.2245 67.108 69.3457 66.5974 69.5485C66.0868 69.7513 64.3732 70.5137 64.0235 70.0101C63.6738 69.5065 58.2602 57.4763 59.9878 57.3924Z" fill="#C1682D"/>
<path d="M82.9361 55.3434C79.6487 56.3296 79.6487 67.1988 80.2153 67.1918C80.7818 67.1848 82.6423 67.1918 82.8242 66.7022C83.006 66.2126 84.6147 54.8398 82.9361 55.3434Z" fill="#994F25"/>
<path d="M74.2485 55.4624C77.6477 55.6303 79.3684 67.9683 78.8228 68.1152C78.2772 68.262 76.4237 68.8496 76.158 68.318C75.8922 67.7864 72.4999 55.3715 74.2485 55.4624Z" fill="#C1682D"/>
<path d="M78.166 54.6364C81.5232 54.8532 84.2231 67.3311 83.6985 67.478C83.1739 67.6249 81.3973 68.1774 81.0966 67.6528C80.7958 67.1283 76.4454 54.5315 78.166 54.6364Z" fill="#B25724"/>
<path d="M71.78 54.7202C75.1862 54.8881 76.8998 67.2261 76.3543 67.38C75.8087 67.5338 73.9552 68.0794 73.6894 67.5758C73.4236 67.0722 70.0384 54.6293 71.78 54.7202Z" fill="#B25724"/>
<path d="M44.1727 64.7782C39.2207 64.946 33.8351 68.9748 31.4291 70.7863C29.023 72.5978 24.4347 76.3188 27.4633 79.83C30.4918 83.3411 37.8848 84.726 41.8436 86.1249C45.8024 87.5237 51.3419 81.9283 54.7062 80.5294C58.0705 79.1305 61.7845 77.284 62.5888 73.1154C63.9807 65.9252 51.3629 64.5264 44.1727 64.7782Z" fill="#E5E2DF"/>
<path d="M61.9665 70.961C60.7992 69.9695 59.4564 69.2055 58.0077 68.7088C56.5854 68.1821 55.1173 67.7887 53.6222 67.5338C52.1381 67.2632 50.6334 67.1205 49.1249 67.1071C47.6656 67.0426 46.2065 67.2392 44.8164 67.6876C44.5124 67.7952 44.2233 67.9409 43.9561 68.1213C43.6956 68.3254 43.4607 68.5602 43.2566 68.8207C42.7148 69.4599 42.0862 70.0202 41.3891 70.4854C40.0742 71.3666 38.7663 72.136 37.5912 73.0523C36.406 73.9365 35.4571 75.0992 34.8285 76.4375C34.2487 77.8422 34.009 79.364 34.129 80.8789C33.7127 79.3426 33.7272 77.7214 34.171 76.1927C34.6986 74.6504 35.631 73.2783 36.8708 72.22C38.0661 71.2228 39.3128 70.289 40.6058 69.4222C40.9205 69.1984 41.1933 68.9676 41.4871 68.7228C41.7389 68.4965 41.9727 68.2509 42.1865 67.9884C42.4584 67.6148 42.7783 67.2785 43.1377 66.9882C43.5015 66.7259 43.8991 66.5141 44.3198 66.3587C45.8821 65.8611 47.5235 65.6595 49.1598 65.7642C50.7438 65.8386 52.3162 66.0729 53.853 66.4636C55.3872 66.8307 56.8748 67.3704 58.2874 68.0723C59.7134 68.7495 60.9703 69.7364 61.9665 70.961Z" fill="#F4F4F4"/>
<path d="M61.8687 68.1011C62.8269 68.6117 64.0579 70.3533 63.6103 71.4444C63.1627 72.5355 61.2043 72.5565 60.246 72.0459C59.2878 71.5353 57.3084 70.4722 58.2457 68.5487C58.9521 67.1149 60.9175 67.5905 61.8687 68.1011Z" fill="#EFD460"/>
<path d="M60.1198 71.3182C58.9479 70.3385 57.606 69.5822 56.161 69.087C54.7367 68.5667 53.2692 68.1735 51.7755 67.912C50.2907 67.6472 48.7864 67.5068 47.2782 67.4923C45.8193 67.4256 44.3603 67.6198 42.9697 68.0659C42.6667 68.1787 42.378 68.3266 42.1094 68.5065C41.8472 68.7087 41.6121 68.9438 41.41 69.206C40.8548 69.8258 40.2198 70.3691 39.5215 70.8216C38.2065 71.6959 36.8986 72.4723 35.7166 73.3886C34.5405 74.2779 33.6013 75.4429 32.9818 76.7808C32.401 78.1852 32.1613 79.7073 32.2824 81.2222C31.8661 79.6859 31.8806 78.0646 32.3243 76.536C32.8572 75.0005 33.7919 73.6359 35.0311 72.5842C36.2202 71.5001 37.5701 70.6678 38.7731 69.7865C39.0878 69.5697 39.3606 69.3388 39.6544 69.087C39.9045 68.859 40.1382 68.6136 40.3538 68.3526C40.6148 67.998 40.9178 67.6763 41.2561 67.3944C41.6206 67.1294 42.021 66.9174 42.4451 66.7649C44.005 66.2674 45.6442 66.0658 47.2782 66.1704C48.8623 66.2438 50.4348 66.4781 51.9714 66.8698C53.507 67.2425 54.9966 67.7844 56.4128 68.4855C57.8433 69.143 59.1096 70.1107 60.1198 71.3182V71.3182Z" fill="#F4F4F4"/>
<path d="M60.0224 68.4575C60.9736 68.9681 62.2116 70.7097 61.7639 71.7938C61.3163 72.8779 59.3509 72.9129 58.3997 72.4023C57.4484 71.8917 55.4621 70.8286 56.3923 68.9052C57.1057 67.4713 59.0641 67.9469 60.0224 68.4575Z" fill="#EFD460"/>
<path d="M38.543 70.4862C39.1308 69.3401 39.9905 68.3554 41.0469 67.6185C42.0998 66.859 43.2691 66.2755 44.5091 65.8909C45.7673 65.4768 47.088 65.2851 48.412 65.3244C49.1065 65.3444 49.7934 65.4742 50.4473 65.709C51.191 65.9589 51.829 66.4516 52.2588 67.1079L52.5036 67.5346C52.5736 67.6465 52.6226 67.7654 52.7065 67.8773C52.8702 68.1204 53.0477 68.3539 53.2381 68.5767C53.6227 69.0174 54.0774 69.437 54.511 69.8847C55.4584 70.7745 56.2839 71.7858 56.966 72.8922C57.6371 74.0274 58.0547 75.2944 58.19 76.6062C58.3028 77.8783 58.2131 79.1602 57.9243 80.4041C57.9219 79.1668 57.7859 77.9333 57.5186 76.7251C57.2335 75.5641 56.7354 74.4661 56.0498 73.4867C55.3328 72.5165 54.5093 71.6297 53.5948 70.8429C53.1331 70.4162 52.6715 69.9826 52.1959 69.486C51.9611 69.2379 51.7437 68.9738 51.5454 68.6956C51.4441 68.5516 51.3507 68.4022 51.2657 68.248L51.0348 67.8563C50.7691 67.4608 50.3809 67.1634 49.9297 67.01C49.4048 66.8215 48.8564 66.7062 48.3001 66.6673C47.1263 66.5943 45.9481 66.6933 44.8029 66.961C42.3916 67.4326 40.1964 68.6688 38.543 70.4862V70.4862Z" fill="#F4F4F4"/>
<path d="M38.6124 67.5903C37.948 68.1009 37.0877 69.8425 37.3954 70.9336C37.7032 72.0247 39.081 72.0457 39.7805 71.5351C40.4799 71.0246 41.8228 69.9614 41.1793 68.038C40.6408 66.6041 39.2769 67.0798 38.6124 67.5903Z" fill="#EFD460"/>
<path d="M56.9447 66.2892C53.9832 65.9306 50.9794 66.2047 48.1318 67.0936C47.4412 67.3083 46.7679 67.5748 46.1174 67.8909C45.4838 68.1801 44.8912 68.5517 44.3549 68.996C43.8571 69.3886 43.4672 69.9013 43.2218 70.4858C43.1683 70.6209 43.1307 70.7617 43.1099 70.9055C43.1099 70.9614 43.1099 71.0943 43.0609 71.2062C43.012 71.3182 43.012 71.4301 42.984 71.535C42.881 71.9257 42.7453 72.3071 42.5783 72.6751C41.8789 74.1229 41.0605 75.3679 40.3751 76.6828C40.0239 77.315 39.7245 77.9747 39.4798 78.6552C39.237 79.2686 39.1786 79.9396 39.312 80.5856C39.4087 80.8916 39.5681 81.174 39.78 81.4148C39.992 81.6557 40.2518 81.8497 40.543 81.9845C41.1901 82.3121 41.8799 82.5475 42.5923 82.6839C44.072 82.9549 45.5716 83.1022 47.0757 83.1246C45.5602 83.3347 44.0261 83.3769 42.5014 83.2505C41.7103 83.1823 40.9343 82.9936 40.2002 82.6909C39.7875 82.5326 39.4125 82.2896 39.0993 81.9776C38.7861 81.6656 38.5417 81.2915 38.3817 80.8794C38.1293 80.0519 38.1293 79.168 38.3817 78.3405C38.5978 77.5804 38.8859 76.8426 39.242 76.1373C39.9415 74.7384 40.7108 73.4374 41.2984 72.1225C41.4466 71.8204 41.5706 71.507 41.6691 71.1853C41.6691 71.1083 41.6691 71.0384 41.718 70.9614L41.76 70.7027C41.7863 70.4641 41.8403 70.2294 41.9209 70.0032C42.2277 69.1719 42.7636 68.4444 43.4666 67.9049C44.7451 66.9192 46.2261 66.2289 47.8031 65.8836C49.3177 65.5148 50.8752 65.3524 52.4333 65.401C53.9773 65.4327 55.5039 65.7333 56.9447 66.2892V66.2892Z" fill="#E5E2DF"/>
<path d="M56.8817 64.0511C57.9308 63.9182 59.7843 64.6806 59.8962 65.8766C60.0081 67.0727 58.3435 68.2547 57.2663 68.3876C56.1892 68.5205 54.035 68.7793 53.965 66.5971C53.944 64.9324 55.8675 64.191 56.8817 64.0511Z" fill="#EFD460"/>
<path d="M33.1006 66.9261C34.5428 66.3798 36.0698 66.0909 37.6119 66.0728C39.17 66.0243 40.7276 66.1867 42.2422 66.5554C43.8202 66.8976 45.3019 67.5883 46.5787 68.5768C47.2808 69.1171 47.8166 69.8443 48.1244 70.6751C48.2033 70.9017 48.2572 71.1362 48.2853 71.3745L48.3272 71.6403C48.3272 71.7103 48.3272 71.7872 48.3762 71.8641C48.4639 72.1934 48.5809 72.514 48.7259 72.8224C49.3064 74.1373 50.1248 75.4452 50.7753 76.8371C51.1418 77.5322 51.4415 78.2606 51.6705 79.0123C51.923 79.8398 51.923 80.7238 51.6705 81.5513C51.5121 81.9601 51.2705 82.3315 50.9611 82.6421C50.6517 82.9527 50.2812 83.1958 49.873 83.3558C49.1399 83.6603 48.3633 83.8468 47.5719 83.9084C46.0469 84.0358 44.5125 83.9912 42.9976 83.7755C44.4989 83.757 45.9961 83.6143 47.4739 83.3488C48.1838 83.2113 48.8711 82.9759 49.5163 82.6494C49.8074 82.5146 50.0673 82.3206 50.2792 82.0797C50.4912 81.8388 50.6506 81.5564 50.7473 81.2505C50.8806 80.6044 50.8223 79.9335 50.5794 79.3201C50.3329 78.6391 50.036 77.9775 49.6911 77.3407C48.9917 76.0328 48.1594 74.7808 47.4809 73.3399C47.3029 72.9638 47.1578 72.573 47.0473 72.1719C47.0473 72.067 46.9983 71.9551 46.9703 71.8432C46.9424 71.7312 46.9703 71.5984 46.9214 71.5424C46.8997 71.3995 46.8645 71.259 46.8165 71.1227C46.5689 70.5374 46.1795 70.023 45.6834 69.6259C45.1452 69.1806 44.5501 68.809 43.9138 68.5208C43.2639 68.2035 42.5905 67.937 41.8995 67.7235C39.0559 66.8386 36.0569 66.5668 33.1006 66.9261V66.9261Z" fill="#E5E2DF"/>
<path d="M33.1641 64.7221C32.115 64.5892 30.2684 65.3446 30.1495 66.5477C30.0306 67.7507 31.7093 68.9257 32.7864 69.0866C33.8635 69.2475 36.0108 69.4783 36.0807 67.296C36.1017 65.5894 34.1853 64.848 33.1641 64.7221Z" fill="#EFD460"/>
<path d="M54.4688 67.9604C51.8361 67.6851 49.175 67.9517 46.6492 68.7437C46.0399 68.9308 45.4459 69.1647 44.8726 69.4432C44.313 69.6947 43.7906 70.0218 43.3199 70.4154C42.8897 70.7619 42.5511 71.2086 42.3337 71.7163C42.2913 71.8323 42.2586 71.9517 42.2358 72.073C42.2358 72.115 42.2358 72.2409 42.1938 72.3388C42.1518 72.4367 42.1518 72.5486 42.1239 72.6396C42.0277 73.0002 41.8989 73.3514 41.7392 73.6887C41.1307 74.9827 40.3403 76.0878 39.7668 77.2488C39.4538 77.8066 39.1872 78.3891 38.9694 78.9904C38.7597 79.5264 38.7064 80.1109 38.8155 80.6761C38.8959 80.9438 39.0322 81.1913 39.2155 81.4023C39.3988 81.6134 39.6249 81.783 39.8787 81.9001C40.4492 82.1884 41.0563 82.3978 41.6832 82.5226C42.9967 82.7678 44.3273 82.9105 45.663 82.9492C44.3155 83.1466 42.9502 83.1935 41.5923 83.0891C40.886 83.031 40.1926 82.8659 39.536 82.5995C39.1685 82.455 38.8348 82.2363 38.5557 81.9571C38.2765 81.6779 38.0578 81.3442 37.9133 80.9768C37.6891 80.2309 37.6891 79.4356 37.9133 78.6897C38.1052 78.0076 38.3604 77.3449 38.6756 76.7103C39.2772 75.4723 39.9766 74.3042 40.4942 73.1502C40.6201 72.8779 40.7208 72.5946 40.7949 72.3038C40.813 72.2395 40.827 72.1741 40.8369 72.108L40.8719 71.8772C40.9034 71.6683 40.9525 71.4624 41.0187 71.2617C41.2999 70.5122 41.7843 69.8558 42.4176 69.3662C43.5647 68.4848 44.8928 67.8686 46.3065 67.5617C47.6589 67.2359 49.0501 67.0994 50.4401 67.156C51.82 67.1836 53.1841 67.4559 54.4688 67.9604V67.9604Z" fill="#E5E2DF"/>
<path d="M54.4195 66.0024C55.3498 65.8905 56.9934 66.5619 57.0984 67.6251C57.2033 68.6882 55.6995 69.7234 54.7832 69.8632C53.867 70.0031 51.9156 70.213 51.8526 68.2685C51.8036 66.7927 53.4893 66.1213 54.4195 66.0024Z" fill="#EFD460"/>
<path d="M36.2832 85.3765C38.9159 85.6517 41.5771 85.3851 44.1029 84.5931C44.7122 84.406 45.3061 84.1722 45.8794 83.8937C46.439 83.6422 46.9615 83.315 47.4322 82.9215C47.8623 82.575 48.2009 82.1283 48.4184 81.6205C48.4607 81.5045 48.4935 81.3852 48.5163 81.2638C48.5163 81.2219 48.5163 81.096 48.5582 80.998C48.6002 80.9001 48.6002 80.7952 48.6282 80.6973C48.7244 80.3366 48.8531 79.9855 49.0129 79.6481C49.6214 78.3542 50.4117 77.2491 50.9853 76.088C51.2982 75.5303 51.5649 74.9478 51.7826 74.3464C51.9923 73.8104 52.0457 73.2259 51.9365 72.6608C51.8561 72.3931 51.7198 72.1455 51.5365 71.9345C51.3532 71.7235 51.1272 71.5538 50.8734 71.4368C50.3029 71.1485 49.6958 70.939 49.0688 70.8143C47.7553 70.5691 46.4247 70.4264 45.0891 70.3877C46.4368 70.1926 47.8021 70.148 49.1598 70.2548C49.8663 70.3069 50.5602 70.4698 51.2161 70.7374C51.5855 70.8819 51.9209 71.1013 52.2014 71.3817C52.4819 71.6622 52.7013 71.9977 52.8458 72.367C53.0704 73.1129 53.0704 73.9084 52.8458 74.6542C52.6549 75.3366 52.3996 75.9994 52.0834 76.6336C51.4819 77.8716 50.7824 79.0396 50.2649 80.1937C50.1389 80.466 50.0382 80.7493 49.9641 81.04C49.9461 81.1044 49.9321 81.1698 49.9221 81.2359L49.8872 81.4667C49.8556 81.6756 49.8065 81.8815 49.7403 82.0822C49.4591 82.8317 48.9747 83.488 48.3414 83.9776C47.1944 84.859 45.8662 85.4753 44.4526 85.7822C43.1001 86.1079 41.7089 86.2445 40.3189 86.1878C38.9362 86.1589 37.5697 85.8842 36.2832 85.3765V85.3765Z" fill="#E5E2DF"/>
<path d="M36.3325 87.3348C35.4022 87.4467 33.7586 86.7753 33.6536 85.7121C33.5487 84.649 35.0525 83.6138 35.9688 83.4809C36.885 83.3481 38.8364 83.1242 38.8994 85.0687C38.9484 86.5724 37.2627 87.2159 36.3325 87.3348Z" fill="#EFD460"/>
<path d="M34.6465 77.3476C36.7382 78.9723 39.1083 80.2024 41.6408 80.9777C42.2509 81.168 42.8754 81.3084 43.5083 81.3973C44.1086 81.5012 44.7195 81.5294 45.3268 81.4813C45.8454 81.4438 46.3448 81.2701 46.7747 80.9777C46.9936 80.7668 47.1883 80.5323 47.3552 80.2782C47.6134 79.9962 47.8992 79.7408 48.2085 79.5159C49.3695 78.6695 50.5726 78.117 51.6497 77.3756C52.7268 76.6342 53.748 75.8228 53.748 74.7457C53.7163 74.163 53.5117 73.603 53.1605 73.137C52.782 72.6117 52.3533 72.1245 51.8805 71.6822C50.8885 70.7904 49.842 69.9611 48.7471 69.1992C49.9784 69.7636 51.15 70.4501 52.2442 71.2486C52.8118 71.6509 53.3285 72.1206 53.783 72.6474C54.2915 73.2171 54.6179 73.926 54.7202 74.6828C54.7463 75.4876 54.4664 76.2724 53.9368 76.879C53.4857 77.4413 52.9584 77.9381 52.3701 78.3548C51.244 79.1661 50.048 79.8306 49.0548 80.579C48.822 80.7513 48.6086 80.9483 48.4183 81.1665C48.215 81.472 47.9806 81.7556 47.7189 82.0128C47.078 82.5182 46.2958 82.8115 45.4807 82.8521C44.0477 82.9253 42.6159 82.6867 41.2841 82.1527C39.9915 81.6614 38.7687 81.003 37.6471 80.1943C36.4997 79.4137 35.4864 78.4523 34.6465 77.3476V77.3476Z" fill="#E5E2DF"/>
<path d="M33.8567 79.0892C32.9964 78.6626 31.8493 77.1588 32.22 76.1796C32.5907 75.2004 34.3183 75.1025 35.1926 75.5221C36.0669 75.9418 37.8435 76.8231 37.0671 78.5507C36.4726 79.8656 34.717 79.5089 33.8567 79.0892Z" fill="#EFD460"/>
<path d="M34.29 74.7877C36.3791 76.4164 38.75 77.6469 41.2844 78.4178C41.8921 78.6081 42.5143 78.7484 43.1449 78.8374C43.7471 78.9451 44.3608 78.9733 44.9704 78.9213C45.5027 78.8825 46.0148 78.7013 46.4532 78.3968C46.6683 78.1843 46.8605 77.9499 47.0267 77.6973C47.2846 77.4129 47.5705 77.1552 47.88 76.928C49.0411 76.0816 50.2441 75.5291 51.3212 74.7877C52.3984 74.0463 53.4195 73.235 53.4195 72.1648C53.3926 71.579 53.1877 71.0154 52.832 70.5491C52.4593 70.0214 52.0301 69.5359 51.552 69.1013C50.5648 68.2018 49.5179 67.3699 48.4186 66.6113C49.6498 67.176 50.8214 67.8625 51.9157 68.6607C52.4808 69.0636 52.9951 69.5333 53.4475 70.0595C53.9602 70.6277 54.2829 71.3416 54.3708 72.1019C54.4013 72.9083 54.1237 73.696 53.5944 74.3051C53.1277 74.8566 52.5917 75.3456 51.9997 75.7599C50.8806 76.5713 49.6846 77.2287 48.6914 77.9841C48.4567 78.154 48.241 78.3487 48.0479 78.5646C47.8445 78.8701 47.6101 79.1537 47.3485 79.4109C46.7083 79.9175 45.9257 80.211 45.1103 80.2503C43.6772 80.3243 42.2452 80.0857 40.9137 79.5508C39.6188 79.0596 38.3938 78.4012 37.2696 77.5924C36.1326 76.8232 35.1266 75.8762 34.29 74.7877V74.7877Z" fill="#E5E2DF"/>
<path d="M33.4855 76.5287C32.6252 76.109 31.4851 74.5983 31.8488 73.6191C32.2125 72.6399 33.9471 72.5419 34.8284 72.9616C35.7097 73.3813 37.4793 74.2625 36.7029 75.9901C36.1154 77.3051 34.3598 76.9484 33.4855 76.5287Z" fill="#EFD460"/>
<path d="M40.7949 68.6814C41.623 67.602 42.6141 66.6581 43.7325 65.8836C44.8592 65.0789 46.0837 64.4208 47.3766 63.9252C48.7084 63.3913 50.1402 63.1526 51.5732 63.2258C52.3875 63.2657 53.1684 63.5619 53.8044 64.0721C54.0685 64.3271 54.3031 64.611 54.5038 64.9184C54.6962 65.1325 54.9094 65.327 55.1403 65.499C56.1335 66.2543 57.3295 66.8978 58.4556 67.7231C59.0527 68.1171 59.5939 68.59 60.0643 69.129C60.592 69.7367 60.8717 70.5207 60.8477 71.3252C60.752 72.0854 60.4304 72.7993 59.9244 73.3746C59.4699 73.9014 58.9533 74.3711 58.3857 74.7734C57.2915 75.5719 56.1199 76.2584 54.8885 76.8228C55.9867 76.0653 57.0335 75.2358 58.022 74.3398C58.493 73.8983 58.9215 73.4136 59.3019 72.892C59.6516 72.423 59.8537 71.8605 59.8824 71.2763C59.8824 70.1991 58.8333 69.3458 57.7841 68.6464C56.735 67.947 55.504 67.3524 54.3429 66.5061C54.0358 66.2813 53.7522 66.0258 53.4966 65.7438C53.3284 65.4908 53.1338 65.2563 52.9161 65.0443C52.4799 64.7345 51.967 64.5506 51.4333 64.5128C50.8237 64.4648 50.2104 64.493 49.6078 64.5967C48.9785 64.6924 48.3567 64.8326 47.7473 65.0163C45.2264 65.8055 42.8705 67.0474 40.7949 68.6814V68.6814Z" fill="#E5E2DF"/>
<path d="M40.0045 66.9471C39.1372 67.3667 37.9971 68.8705 38.3678 69.8567C38.7385 70.8429 40.4661 70.9268 41.3404 70.5072C42.2147 70.0875 43.9773 69.2132 43.2149 67.4786C42.6204 66.1707 40.8648 66.5204 40.0045 66.9471Z" fill="#EFD460"/>
<path d="M34.29 74.7802C35.1145 73.6975 36.1061 72.7531 37.2277 71.9824C38.3518 71.1736 39.5769 70.5153 40.8717 70.024C42.2042 69.4926 43.6355 69.2541 45.0683 69.3246C45.8836 69.37 46.6651 69.6655 47.3065 70.1709C47.5682 70.4281 47.8026 70.7118 48.0059 71.0172C48.199 71.2332 48.4148 71.4278 48.6494 71.5977C49.6426 72.3531 50.8386 72.9966 51.9577 73.8219C52.5497 74.2362 53.0857 74.7252 53.5524 75.2768C54.0818 75.8858 54.3593 76.6736 54.3288 77.48C54.241 78.2402 53.9182 78.9541 53.4055 79.5223C52.9531 80.0485 52.4388 80.5182 51.8738 80.9212C50.7794 81.7194 49.6078 82.4059 48.3766 82.9705C49.4759 82.212 50.5228 81.3801 51.5101 80.4805C51.9882 80.046 52.4173 79.5605 52.79 79.0327C53.1445 78.5658 53.3494 78.0026 53.3776 77.417C53.3776 76.3469 52.3284 75.4866 51.2793 74.7942C50.2301 74.1017 48.9991 73.5002 47.8381 72.6539C47.5359 72.4256 47.2571 72.1679 47.0057 71.8845C46.8395 71.632 46.6473 71.3975 46.4322 71.1851C45.9938 70.8806 45.4817 70.6994 44.9494 70.6605C44.3398 70.6085 43.7261 70.6367 43.1239 70.7444C42.4933 70.8334 41.8711 70.9738 41.2634 71.1641C38.7374 71.9331 36.3739 73.1587 34.29 74.7802V74.7802Z" fill="#E5E2DF"/>
<path d="M33.4855 73.0393C32.6252 73.4589 31.4851 74.9627 31.8488 75.9489C32.2125 76.9351 33.9471 77.026 34.8284 76.6064C35.7097 76.1867 37.4793 75.3054 36.7029 73.5778C36.1154 72.2629 34.3598 72.6196 33.4855 73.0393Z" fill="#EFD460"/>
<path d="M58.4622 75.5493C57.1232 75.9783 55.7332 76.2276 54.3286 76.2907C52.9134 76.3722 51.4937 76.3137 50.09 76.1159C48.6553 75.9288 47.2556 75.5329 45.9354 74.9408C45.2156 74.631 44.5643 74.1817 44.0189 73.6189C43.7063 73.2911 43.4678 72.8999 43.3195 72.4718L43.2006 71.9473C43.1672 71.8168 43.1203 71.6903 43.0607 71.5696C42.5151 70.4785 41.6059 69.3664 40.8505 68.1703C40.4305 67.558 40.0941 66.8923 39.8503 66.1909C39.7146 65.7979 39.6575 65.382 39.6824 64.9669C39.7089 64.5112 39.8833 64.0766 40.179 63.7289C40.7338 63.1621 41.4535 62.7852 42.2354 62.6518C42.9248 62.4967 43.6274 62.4077 44.3337 62.386C45.7359 62.3394 47.1396 62.4096 48.5303 62.5958C47.1314 62.6728 45.7325 62.7637 44.4036 62.9665C43.7375 63.066 43.0803 63.218 42.4382 63.4212C41.8549 63.57 41.329 63.889 40.9274 64.3374C40.7967 64.5639 40.7278 64.8208 40.7278 65.0823C40.7278 65.3438 40.7967 65.6007 40.9274 65.8272C41.1828 66.4151 41.5018 66.9734 41.8787 67.4919C42.2634 68.0444 42.683 68.583 43.1027 69.1425C43.5595 69.7184 43.96 70.3367 44.2987 70.989C44.3894 71.1792 44.4665 71.3755 44.5295 71.5766C44.5295 71.6815 44.5855 71.8214 44.5995 71.9123C44.6176 71.9624 44.6316 72.0138 44.6414 72.0662C44.7308 72.2965 44.8665 72.5059 45.0401 72.6817C45.4727 73.1058 45.9741 73.4534 46.5229 73.7098C47.7212 74.2609 48.9792 74.6717 50.2719 74.9338C52.9602 75.5177 55.7168 75.7249 58.4622 75.5493V75.5493Z" fill="#F4F4F4"/>
<path d="M58.3996 77.2423C59.4488 77.3402 61.2953 76.7597 61.4072 75.8434C61.5191 74.9272 59.8545 73.983 58.8053 73.913C57.7562 73.8431 55.5809 73.6123 55.511 75.3119C55.455 76.5639 57.3505 77.1444 58.3996 77.2423Z" fill="#EFD460"/>
<path d="M35.8428 73.4721C36.4274 72.3241 37.2848 71.337 38.3397 70.5974C39.4078 69.8419 40.5879 69.2589 41.8369 68.8698C43.0943 68.4626 44.4115 68.271 45.7328 68.3033C46.4292 68.3266 47.1179 68.4564 47.7751 68.688C48.5162 68.9393 49.1516 69.4318 49.5796 70.0868L49.8244 70.5135C49.9014 70.6254 49.9433 70.7443 50.0343 70.8562C50.198 71.0993 50.3755 71.3328 50.5658 71.5557C50.9435 71.9963 51.3982 72.416 51.8388 72.8636C52.7842 73.7553 53.6095 74.7663 54.2938 75.8712C54.9481 77.0093 55.3556 78.2723 55.4898 79.5782C55.5998 80.8506 55.5077 82.1324 55.2171 83.3761C55.2179 82.1385 55.0818 80.9047 54.8114 79.6971C54.5305 78.5337 54.0347 77.433 53.3496 76.4517C52.6269 75.4862 51.804 74.5999 50.8946 73.8078C50.4329 73.3812 49.9713 72.9545 49.4957 72.4579C49.2733 72.2017 49.0654 71.9332 48.8732 71.6536C48.768 71.5083 48.6722 71.3565 48.5864 71.1989L48.3556 70.8143C48.096 70.4159 47.7089 70.1175 47.2575 69.9679C46.7333 69.7769 46.1846 69.6615 45.6278 69.6252C44.454 69.5496 43.2754 69.6486 42.1307 69.919C39.7049 70.3901 37.498 71.6372 35.8428 73.4721V73.4721Z" fill="#E8E6E2"/>
<path d="M35.9059 70.6115C35.2414 71.1221 34.3811 72.8637 34.6959 73.9478C35.0106 75.0319 36.3745 75.0669 37.039 74.5563C37.7035 74.0457 39.0813 72.9826 38.4379 71.0591C37.9413 69.6253 36.5774 70.0939 35.9059 70.6115Z" fill="#EFD460"/>
<path d="M43.8797 75.9413C42.2299 74.114 40.0345 72.8679 37.6198 72.3882C36.475 72.1178 35.2964 72.0188 34.1226 72.0944C33.5635 72.13 33.0123 72.2454 32.4859 72.4372C32.0346 72.5867 31.6474 72.8851 31.3878 73.2835L31.157 73.6682C31.0712 73.8257 30.9754 73.9775 30.8702 74.1228C30.6708 74.3982 30.4559 74.662 30.2268 74.9132C29.7721 75.4098 29.3105 75.8364 28.8279 76.2631C27.9175 77.046 27.0923 77.9228 26.3659 78.8789C25.6809 79.8578 25.185 80.9561 24.9041 82.1173C24.6338 83.3273 24.4977 84.5635 24.4984 85.8033C24.2077 84.5597 24.1157 83.2778 24.2256 82.0054C24.3675 80.695 24.7846 79.4294 25.4496 78.2914C26.1316 77.1972 26.952 76.1958 27.8907 75.3118C28.3313 74.8642 28.7859 74.4445 29.1636 74.0039C29.354 73.7811 29.5315 73.5475 29.6952 73.3045C29.7727 73.195 29.8428 73.0805 29.905 72.9617L30.1498 72.5351C30.5797 71.8788 31.2177 71.3861 31.9613 71.1362C32.6161 70.9047 33.3026 70.7749 33.9967 70.7515C35.318 70.7193 36.6352 70.9108 37.8925 71.3181C39.1416 71.7072 40.3217 72.2901 41.3897 73.0457C42.4422 73.7947 43.2967 74.7885 43.8797 75.9413V75.9413Z" fill="#E8E6E2"/>
<path d="M43.8093 73.0803C44.5087 73.5908 45.334 75.3324 45.0193 76.4166C44.7045 77.5007 43.3406 77.5356 42.6762 77.0251C42.0117 76.5145 40.6338 75.4513 41.2773 73.5279C41.7739 72.0941 43.1448 72.5837 43.8093 73.0803Z" fill="#EFD460"/>
<path d="M27.3867 76.4382C28.2337 75.3951 29.3047 74.556 30.5202 73.9832C31.728 73.3721 33.0024 72.9027 34.3181 72.5844C35.6289 72.2355 36.9675 72.0015 38.3189 71.8849C39.6796 71.7697 41.0487 71.7978 42.4035 71.9689C43.8479 72.0849 45.2391 72.5663 46.4463 73.3677C46.6112 73.495 46.7635 73.6378 46.9009 73.7944C46.9708 73.8713 47.0338 73.9622 47.1037 74.0462L47.2296 74.214C47.4017 74.4365 47.5988 74.6383 47.8172 74.8155C48.2913 75.2091 48.8073 75.5492 49.3559 75.8297C49.9224 76.1375 50.51 76.4452 51.1045 76.781C51.7691 77.1118 52.3376 77.6079 52.7551 78.2218C52.9743 78.5821 53.0445 79.0136 52.951 79.4248C52.8611 79.7854 52.7019 80.1251 52.4824 80.425C52.0623 80.9568 51.5703 81.4276 51.0206 81.8239C51.4313 81.3145 51.7876 80.7636 52.0837 80.1802C52.2128 79.915 52.291 79.6279 52.3145 79.3339C52.3272 79.0813 52.2477 78.8327 52.0907 78.6345C51.6704 78.2248 51.1705 77.9058 50.6219 77.6972C50.0413 77.4314 49.4189 77.2006 48.8034 76.9069C48.1595 76.617 47.5477 76.2607 46.9778 75.8437C46.6787 75.6088 46.4066 75.3413 46.1665 75.0464L45.9916 74.8225C45.9497 74.7806 45.9217 74.7316 45.8797 74.6896C45.7954 74.601 45.7042 74.5192 45.6069 74.4448C44.5746 73.8195 43.4156 73.4324 42.2147 73.3118C39.6549 72.9931 37.062 73.0567 34.5209 73.5006C33.2394 73.7082 31.9797 74.0337 30.758 74.4728C29.5207 74.9103 28.377 75.5771 27.3867 76.4382V76.4382Z" fill="#F4F4F4"/>
<path d="M27.4844 73.5774C26.5332 74.0879 25.2952 75.8295 25.7429 76.9206C26.1905 78.0118 28.1559 78.0327 29.1071 77.5222C30.0584 77.0116 32.0447 75.9484 31.1145 74.025C30.4011 72.5842 28.4427 73.0668 27.4844 73.5774Z" fill="#EFD460"/>
<path d="M54.6578 76.6686C53.0118 74.8402 50.8182 73.5937 48.4049 73.1154C47.2601 72.8451 46.0816 72.7461 44.9078 72.8217C44.351 72.858 43.8023 72.9734 43.2781 73.1644C42.818 73.2997 42.4181 73.5885 42.145 73.9827L41.9142 74.3674C41.8284 74.5249 41.7326 74.6768 41.6274 74.822C41.4176 75.0948 41.2078 75.3746 40.9839 75.6124C40.5293 76.109 40.0677 76.5357 39.5851 76.9623C38.6757 77.7544 37.8527 78.6406 37.1301 79.6062C36.445 80.5875 35.9492 81.6882 35.6682 82.8515C35.4018 84.0737 35.2728 85.3217 35.2836 86.5725C34.9929 85.3289 34.9008 84.047 35.0108 82.7746C35.1527 81.4642 35.5698 80.1986 36.2348 79.0606C36.9191 77.9558 37.7444 76.9447 38.6898 76.053C39.1234 75.6054 39.5851 75.1858 39.9628 74.7451C40.1531 74.5223 40.3306 74.2888 40.4943 74.0457C40.5853 73.9338 40.6272 73.8149 40.7042 73.703L40.942 73.2763C41.3762 72.624 42.0126 72.1325 42.7535 71.8774C43.4105 71.6453 44.0994 71.5155 44.7958 71.4927C46.1171 71.4605 47.4343 71.652 48.6917 72.0593C49.9407 72.4484 51.1208 73.0314 52.1889 73.7869C53.2344 74.5318 54.082 75.5211 54.6578 76.6686V76.6686Z" fill="#F4F4F4"/>
<path d="M54.595 73.8084C55.2944 74.319 56.1198 76.0606 55.805 77.1447C55.4903 78.2289 54.1264 78.2638 53.4619 77.7532C52.7975 77.2427 51.4126 76.1795 52.0631 74.2561C52.5597 72.8222 53.9236 73.2839 54.595 73.8084Z" fill="#EFD460"/>
<path d="M28.5898 69.4642C30.0354 68.9212 31.5641 68.6325 33.1082 68.6109C34.6663 68.5624 36.2238 68.7247 37.7384 69.0935C39.315 69.4402 40.7957 70.1304 42.0749 71.1149C42.7779 71.6544 43.3138 72.3818 43.6207 73.2132C43.6977 73.4403 43.7516 73.6746 43.7815 73.9126L43.8235 74.1714C43.8235 74.2483 43.8235 74.3183 43.8725 74.3952C43.9608 74.7233 44.0754 75.0438 44.2152 75.3534C44.8027 76.6684 45.614 77.9763 46.2715 79.3682C46.6247 80.0749 46.9126 80.8124 47.1318 81.5714C47.3772 82.3999 47.3772 83.2818 47.1318 84.1103C46.9732 84.5074 46.736 84.8682 46.4342 85.1711C46.1325 85.4741 45.7726 85.7128 45.3762 85.8729C44.6422 86.1756 43.8662 86.3643 43.0751 86.4325C41.5503 86.559 40.0163 86.5167 38.5008 86.3066C40.0047 86.2862 41.5043 86.1412 42.9842 85.8729C43.6963 85.7354 44.3859 85.5 45.0335 85.1735C45.3238 85.0386 45.5827 84.8445 45.7935 84.6036C46.0043 84.3627 46.1624 84.0803 46.2575 83.7746C46.3823 83.1339 46.3191 82.4708 46.0757 81.8652C45.8364 81.1836 45.5392 80.5237 45.1874 79.8928C44.488 78.5778 43.6556 77.3259 42.9772 75.885C42.8141 75.5066 42.6808 75.1161 42.5785 74.717C42.5455 74.6092 42.5198 74.4994 42.5016 74.3882C42.5016 74.2763 42.5016 74.1434 42.4526 74.0875C42.4285 73.9444 42.391 73.8039 42.3407 73.6678C42.0904 73.0764 41.6902 72.5605 41.1796 72.171C40.6433 71.7267 40.0507 71.3551 39.4171 71.0659C38.7666 70.7498 38.0933 70.4833 37.4027 70.2686C34.5549 69.3808 31.5513 69.1066 28.5898 69.4642V69.4642Z" fill="#F4F4F4"/>
<path d="M28.6594 67.2611C27.6103 67.1282 25.7638 67.8906 25.6518 69.0866C25.5399 70.2826 27.2046 71.4647 28.2537 71.5976C29.3029 71.7305 31.4781 71.9892 31.5481 69.807C31.604 68.1424 29.7086 67.387 28.6594 67.2611Z" fill="#EFD460"/>
<path d="M28.1982 73.6265C29.6422 73.0862 31.1681 72.7975 32.7096 72.7732C34.268 72.7271 35.8255 72.8918 37.3398 73.2628C38.916 73.6069 40.3967 74.2947 41.6763 75.2772C42.3777 75.8183 42.9132 76.5452 43.2221 77.3755C43.3009 77.6021 43.3549 77.8366 43.3829 78.0749L43.4249 78.3337C43.4249 78.4106 43.4249 78.4876 43.4739 78.5645C43.5622 78.8926 43.6768 79.213 43.8166 79.5227C44.4041 80.8307 45.2154 82.1456 45.8729 83.5305C46.225 84.2401 46.5129 84.9798 46.7332 85.7407C46.9885 86.5562 47.003 87.4281 46.7752 88.2517C46.6168 88.6633 46.3746 89.0375 46.064 89.3505C45.7533 89.6636 45.381 89.9086 44.9706 90.0702C44.2363 90.3707 43.4602 90.557 42.6695 90.6227C41.145 90.7515 39.611 90.7116 38.0952 90.5038C39.5987 90.4768 41.0978 90.3319 42.5786 90.0702C43.2901 89.9306 43.9795 89.6953 44.6279 89.3707C44.9191 89.2359 45.1789 89.0419 45.3909 88.8011C45.6028 88.5602 45.7622 88.2778 45.8589 87.9719C45.9873 87.3232 45.9291 86.6514 45.6911 86.0345C45.4437 85.355 45.1444 84.6956 44.7958 84.062C44.0964 82.7471 43.264 81.5021 42.5926 80.0613C42.4142 79.6805 42.2691 79.285 42.1589 78.8793C42.1259 78.7739 42.1002 78.6664 42.082 78.5575C42.082 78.4386 42.082 78.3057 42.033 78.2568C42.0106 78.1133 41.9731 77.9726 41.9211 77.8371C41.6787 77.2489 41.2884 76.7333 40.788 76.3403C40.252 75.8937 39.6593 75.5198 39.0255 75.2282C38.3658 74.9131 37.6831 74.6488 36.9831 74.4379C34.1441 73.5544 31.151 73.2779 28.1982 73.6265V73.6265Z" fill="#F4F4F4"/>
<path d="M28.2541 71.4228C27.205 71.2969 25.3585 72.0523 25.2466 73.2484C25.1347 74.4444 26.7993 75.6334 27.8485 75.7593C28.8976 75.8852 31.0729 76.158 31.1428 73.9688C31.1987 72.3111 29.2893 71.5557 28.2541 71.4228Z" fill="#EFD460"/>
<path d="M34.7383 81.7679C37.4744 81.9411 40.2214 81.7339 42.9007 81.1524C44.2038 80.8926 45.4716 80.4794 46.6776 79.9214C47.2326 79.6623 47.7389 79.3098 48.1744 78.8792C48.3437 78.7014 48.4768 78.4924 48.5661 78.2637L48.608 78.1028C48.608 78.0189 48.65 77.872 48.685 77.7741C48.7445 77.5728 48.8193 77.3764 48.9088 77.1866C49.2462 76.5498 49.6419 75.9457 50.0908 75.382C50.5105 74.8225 50.9302 74.2839 51.3148 73.7314C51.6989 73.2126 52.0227 72.6517 52.2801 72.0597C52.4046 71.8309 52.4663 71.5731 52.4589 71.3127C52.4515 71.0522 52.3754 70.7984 52.2381 70.5769C51.8363 70.1272 51.3108 69.806 50.7273 69.6537C50.0843 69.4554 49.4273 69.3058 48.7619 69.206C47.412 69.0032 46.0271 68.9123 44.6423 68.8353C46.0328 68.6486 47.4366 68.5784 48.8388 68.6255C49.5454 68.6434 50.2484 68.7325 50.9371 68.8913C51.719 69.0247 52.4387 69.4017 52.9935 69.9684C53.2901 70.3086 53.4692 70.7354 53.5041 71.1854C53.5232 71.6008 53.4639 72.0161 53.3292 72.4095C53.0988 73.1087 52.7765 73.7743 52.371 74.3888C51.6086 75.5779 50.6993 76.697 50.1608 77.7881C50.1021 77.91 50.053 78.0363 50.0139 78.1658L49.895 78.6904C49.7477 79.1189 49.5091 79.5103 49.1956 79.8374C48.6496 80.3963 48.0014 80.8451 47.2861 81.1594C45.9522 81.7526 44.5381 82.1462 43.0895 82.3274C41.7 82.5252 40.2944 82.5861 38.8929 82.5093C37.4813 82.4474 36.0842 82.198 34.7383 81.7679V81.7679Z" fill="#F4F4F4"/>
<path d="M34.801 83.4605C33.7519 83.5584 31.9054 82.9779 31.7935 82.0617C31.6815 81.1454 33.3462 80.2291 34.3953 80.1312C35.4445 80.0333 37.6197 79.8305 37.6897 81.5301C37.7456 82.7821 35.8502 83.3626 34.801 83.4605Z" fill="#EFD460"/>
<path d="M57.364 79.69C55.7093 77.8509 53.4987 76.6032 51.0691 76.1369C49.9245 75.8657 48.7458 75.7667 47.572 75.8431C47.0151 75.8786 46.4663 75.994 45.9423 76.1858C45.4899 76.3369 45.101 76.6348 44.8372 77.0321L44.6064 77.4168C44.523 77.5742 44.4295 77.7261 44.3266 77.8715C44.1248 78.1469 43.9076 78.4108 43.6761 78.6618C43.2285 79.1584 42.7669 79.5851 42.2772 80.0117C41.366 80.802 40.5429 81.6884 39.8222 82.6556C39.15 83.6314 38.6618 84.7217 38.3814 85.873C38.1111 87.083 37.975 88.3191 37.9757 89.559C37.6874 88.315 37.5977 87.0331 37.71 85.7611C37.8462 84.4505 38.2611 83.1841 38.927 82.0471C39.6137 80.942 40.4413 79.931 41.389 79.0395C41.8226 78.5919 42.2772 78.1722 42.6549 77.7316C42.8475 77.5106 43.0251 77.2769 43.1865 77.0321C43.2656 76.9213 43.3358 76.8044 43.3963 76.6824L43.6411 76.2628C44.071 75.6065 44.709 75.1138 45.4527 74.8639C46.1052 74.648 46.7868 74.5325 47.474 74.5212C48.7953 74.4884 50.1126 74.6799 51.3699 75.0877C52.6195 75.4753 53.7999 76.0584 54.867 76.8153C55.9195 77.5576 56.7763 78.544 57.364 79.69V79.69Z" fill="#F4F4F4"/>
<path d="M57.2669 76.8228C57.9663 77.3404 58.7916 79.075 58.4839 80.1661C58.1761 81.2573 56.8052 81.2852 56.1338 80.7746C55.4623 80.2641 54.0914 79.2009 54.7349 77.2775C55.2595 75.8366 56.6304 76.3123 57.2669 76.8228Z" fill="#EFD460"/>
<path d="M99.7082 97.0643C97.6099 97.0643 95.3857 97.0643 93.1545 96.9943C87.2373 96.8614 81.2641 96.5047 77.5641 95.7144C74.6545 95.0989 73.1507 94.2106 74.2069 92.9516C74.4517 92.6578 74.7384 92.2522 75.0532 91.8325C75.6267 91.0352 76.3121 90.028 77.1095 88.9089L77.697 88.0905C77.9558 87.7338 78.2216 87.3911 78.5154 86.9994C83.3624 80.6066 91.343 72.6191 102.296 77.725C113.368 82.8798 113.172 82.9497 116.243 86.2301C124.244 94.7841 111.661 97.0643 99.7082 97.0643Z" fill="#E2C447"/>
<path d="M80.7607 87.1675C81.1035 89.8323 84.4607 90.8465 91.3222 85.3839C98.1836 79.9214 106.304 87.4193 105.744 89.1959C105.185 90.9724 109.675 88.6923 109.675 88.6923C109.675 88.6923 107.976 76.6201 94.6165 79.9214C81.2573 83.2227 80.7607 87.1675 80.7607 87.1675Z" fill="#FCDC59"/>
<path d="M103.226 90.8115C103.226 90.8115 102.82 93.9659 93.1541 97.0014C92.021 97.3512 90.769 97.7009 89.3701 98.0506C83.404 99.5264 79.7599 97.9317 77.5637 95.7215C76.4779 94.6066 75.6244 93.2871 75.0527 91.8396C75.7522 90.8534 76.6404 89.5455 77.6966 88.0977C78.1442 88.0977 78.396 88.2655 78.2421 88.7971C77.6826 90.5736 85.81 98.0716 92.6645 92.609C99.5189 87.1464 102.883 88.1396 103.226 90.8115Z" fill="#FCDC59"/>
<path d="M104.527 89.3211C104.527 89.3211 104.024 91.5383 90.6714 93.3988C81.306 94.7068 77.6689 91.7482 76.333 89.9017L76.9205 89.0833C77.1817 88.729 77.4544 88.3652 77.7389 87.9922C78.809 87.7824 79.8372 87.6985 79.5434 88.209C78.9909 89.2092 87.1113 93.4338 93.9727 90.3563C100.834 87.2788 104.184 87.8174 104.527 89.3211Z" fill="#E2C447"/>
<path d="M105.304 88.37C105.304 88.37 104.8 90.5872 91.4477 92.4477C82.0753 93.7556 78.4453 90.797 77.1094 88.9505L77.6969 88.1322C77.9557 87.7754 78.2215 87.4327 78.5152 87.041C79.5854 86.8312 80.6135 86.7473 80.3198 87.2579C79.7602 88.2581 87.8876 92.4826 94.7421 89.4051C101.597 86.3276 104.961 86.8662 105.304 88.37Z" fill="#FCDC59"/>
<path d="M87.3418 88.6223C87.6845 87.1185 91.0418 86.524 97.9032 89.6225C104.765 92.721 112.319 86.573 113.13 85.8735C115.305 83.8662 117.326 87.5382 117.326 87.5382C117.326 87.5382 114.529 94.5885 101.191 92.728C87.8524 90.8675 87.3418 88.6223 87.3418 88.6223Z" fill="#FCDC59"/>
<path d="M82.166 85.5511C82.5087 82.8793 85.866 81.8651 92.7275 87.3277C99.5889 92.7903 107.709 85.2923 107.157 83.5158C106.604 81.7392 111.081 84.0264 111.081 84.0264C111.081 84.0264 109.381 96.0916 96.0218 92.7903C82.6626 89.4889 82.166 85.5511 82.166 85.5511Z" fill="#EFD050"/>
<path d="M82.4463 84.9571C82.789 82.2852 86.1463 81.271 93.0077 86.7336C99.8692 92.1962 107.99 84.6983 107.437 82.9217C106.884 81.1452 112.823 82.2992 113.403 83.5302C113.984 84.7612 109.682 95.4975 96.323 92.1682C82.9639 88.8389 82.4463 84.9571 82.4463 84.9571Z" fill="#FCDC59"/>
<path d="M113.431 81.3764C113.124 78.7046 110.102 77.6904 103.926 83.153C97.75 88.6156 90.434 81.1246 90.9376 79.3411C91.4412 77.5575 87.3984 79.8517 87.3984 79.8517C87.3984 79.8517 88.9302 91.9169 100.953 88.6156C112.977 85.3143 113.431 81.3764 113.431 81.3764Z" fill="#EFD050"/>
<path d="M113.158 80.7817C112.85 78.1169 109.829 77.0957 103.653 82.5583C97.4766 88.0208 90.1675 80.5299 90.6641 78.7464C91.1607 76.9628 87.125 79.257 87.125 79.257C87.125 79.257 88.6638 91.3292 100.687 88.0208C112.71 84.7125 113.158 80.7817 113.158 80.7817Z" fill="#FCDC59"/>
<path d="M91.7415 62.3583C92.6368 66.6528 89.9579 66.6318 85.8803 67.3173C82.9217 67.8069 80.4736 65.4917 80.4736 63.2466C80.4736 61.0014 83.1455 58.2666 86.1251 58.2666C89.1046 58.2666 91.3918 60.6936 91.7415 62.3583Z" fill="#318446"/>
<path d="M91.0208 62.2396C91.8391 66.2264 89.3981 66.2054 85.6841 66.8419C82.9843 67.2965 80.7461 65.1493 80.7461 63.065C80.7461 60.9807 83.1801 58.4277 85.9009 58.4277C88.6217 58.4277 90.706 60.6939 91.0208 62.2396Z" fill="#9ACCA3"/>
<path d="M102.345 59.9942C103.044 64.2817 100.946 64.2677 97.7285 64.9462C95.3993 65.4428 93.4619 63.1276 93.4619 60.8825C93.4619 58.6373 95.5602 55.8955 97.9173 55.8955C100.274 55.8955 102.072 58.3016 102.345 59.9942Z" fill="#318446"/>
<path d="M101.779 59.8401C102.422 63.8268 100.499 63.8129 97.5822 64.4423C95.4839 64.904 93.6934 62.7497 93.6934 60.6654C93.6934 58.5811 95.6098 56.0352 97.7571 56.0352C99.9043 56.0352 101.527 58.2943 101.779 59.8401Z" fill="#9ACCA3"/>
<path d="M95.3161 59.8121C95.9805 63.1834 94.0011 63.1694 90.9796 63.701C90.5025 63.7836 90.0133 63.7644 89.5442 63.6446C89.075 63.5249 88.6365 63.3073 88.2574 63.0061C87.8782 62.7049 87.5671 62.327 87.3443 61.897C87.1216 61.4671 86.9923 60.995 86.9648 60.5116C86.9648 58.749 88.9442 56.5947 91.1614 56.5947C92.1032 56.6298 93.0104 56.959 93.7556 57.5361C94.5007 58.1131 95.0464 58.9091 95.3161 59.8121V59.8121Z" fill="#318446"/>
<path d="M94.7907 59.7141C95.3922 62.8476 93.5806 62.8336 90.8319 63.3302C90.393 63.4017 89.9439 63.3795 89.5142 63.2653C89.0844 63.151 88.6837 62.9472 88.3383 62.6671C87.9929 62.3871 87.7105 62.0372 87.5099 61.6404C87.3092 61.2435 87.1947 60.8088 87.1738 60.3646C87.2739 59.4032 87.7132 58.509 88.4132 57.8424C89.1131 57.1759 90.0276 56.7806 90.9927 56.7275C91.8587 56.7652 92.6911 57.0736 93.3725 57.6095C94.0538 58.1453 94.5499 58.8814 94.7907 59.7141V59.7141Z" fill="#9ACCA3"/>
<path d="M107.723 59.9526C108.241 63.086 106.695 63.072 104.352 63.5686C102.645 63.9323 101.232 62.2397 101.232 60.603C101.232 58.9664 102.771 56.959 104.492 56.959C106.212 56.959 107.52 58.7355 107.723 59.9526Z" fill="#318446"/>
<path d="M107.311 59.8617C107.779 62.7714 106.374 62.7644 104.233 63.226C102.681 63.5617 101.394 61.988 101.394 60.4632C101.394 58.9385 102.792 57.085 104.366 57.085C105.94 57.085 107.129 58.7356 107.311 59.8617Z" fill="#9ACCA3"/>
<path d="M108.444 64.6807C109.144 68.9752 107.045 68.9542 103.828 69.6327C101.499 70.1293 99.5615 67.8142 99.5615 65.569C99.5615 63.3238 101.66 60.582 104.017 60.582C106.374 60.582 108.172 63.0161 108.444 64.6807Z" fill="#318446"/>
<path d="M107.877 64.5549C108.521 68.5417 106.597 68.5277 103.681 69.1572C101.583 69.6188 99.792 67.4646 99.792 65.3802C99.792 63.2959 101.708 60.75 103.856 60.75C106.003 60.75 107.626 63.0092 107.877 64.5549Z" fill="#9ACCA3"/>
<path d="M103.604 62.8621C104.121 66.0025 102.582 65.9885 100.232 66.4851C98.5327 66.8418 97.1338 65.1562 97.1338 63.4915C97.1338 61.8269 98.6655 59.8545 100.386 59.8545C102.107 59.8545 103.429 61.652 103.604 62.8621Z" fill="#318446"/>
<path d="M103.198 62.7924C103.667 65.709 102.261 65.695 100.121 66.1566C98.5682 66.4924 97.2812 64.9186 97.2812 63.4009C97.2812 61.8831 98.6801 60.0156 100.247 60.0156C101.814 60.0156 103.01 61.6453 103.198 62.7924Z" fill="#9ACCA3"/>
<path d="M99.4279 64.2402C100.127 67.4996 98.078 67.4856 94.9865 68.0032C92.7414 68.3739 90.8809 66.6043 90.8809 64.9117C90.8809 63.2191 92.9022 61.1348 95.1684 61.1348C96.112 61.1498 97.0279 61.4563 97.7905 62.0122C98.5531 62.5682 99.125 63.3464 99.4279 64.2402V64.2402Z" fill="#318446"/>
<path d="M98.8895 64.1489C99.505 67.1705 97.6515 67.1565 94.8328 67.6461C94.3958 67.7268 93.9468 67.7149 93.5147 67.6112C93.0826 67.5074 92.6772 67.3142 92.3245 67.0439C91.9718 66.7736 91.6797 66.4323 91.4672 66.0421C91.2547 65.6518 91.1265 65.2213 91.0908 64.7784C91.0908 63.1977 92.9303 61.2812 95.0006 61.2812C95.8654 61.3002 96.7031 61.5859 97.3992 62.0993C98.0953 62.6126 98.6158 63.3285 98.8895 64.1489V64.1489Z" fill="#9ACCA3"/>
<path d="M137.24 71.7656C137.24 71.7656 113.76 80.2078 114.62 73.9828C114.809 72.5839 110.27 73.1785 112.949 72.8567C124.231 71.4998 134.827 62.5121 138.492 64.4635C147.941 69.5134 145.312 68.2754 137.24 71.7656Z" fill="#8E5229"/>
<path d="M133.064 79.1725C133.064 79.1725 157.677 79.6271 155.313 73.9058C154.781 72.6048 149.969 72.0313 147.304 72.437C138.324 73.8009 131.861 72.1572 128.839 75.2347C121.027 83.1593 124.454 78.4521 133.064 79.1725Z" fill="#773C22"/>
<path d="M129.798 76.578C129.798 76.578 154.397 75.5708 151.781 69.9963C151.18 68.7303 146.353 68.4435 143.71 69.0101C134.799 70.9056 128.273 69.6536 125.398 72.8919C117.956 81.2781 121.167 76.3751 129.798 76.578Z" fill="#512819"/>
<path d="M128.756 75.5847C128.756 75.5847 153.348 74.5705 150.732 69.003C150.137 67.7301 145.304 67.4433 142.66 68.0098C133.757 69.9053 127.224 68.6533 124.349 71.8917C116.907 80.2779 120.118 75.3819 128.756 75.5847Z" fill="#773C22"/>
<path d="M129.889 83.3901C129.889 83.3901 156.796 84.5372 154.432 78.8228C153.893 77.5218 157.705 74.9899 152.928 75.3886C141.786 76.3188 126.349 71.7655 123.363 74.829C115.55 82.7606 123.859 79.0186 129.889 83.3901Z" fill="#512819"/>
<path d="M146.171 79.5784C142.541 79.4385 143.304 76.0323 140.212 76.368C137.121 76.7037 139.583 72.4372 136.4 73.2695C133.218 74.1019 134.043 72.1085 132.204 72.6121C130.812 73.0062 129.441 73.4731 128.098 74.0109C128.098 74.0109 123.202 72.654 121.607 73.2136C119.942 73.6745 118.201 73.7982 116.488 73.5773C115.019 73.4444 114.019 76.7387 114.019 76.7387C114.019 76.7387 117.593 75.6336 120.712 76.396C123.832 77.1584 128.728 75.13 130.735 78.2565C132.742 81.383 133.414 85.8243 137.582 84.5514C141.751 83.2784 145.619 85.6215 146.948 86.1461C148.277 86.6707 149.69 83.9639 149.69 83.9639C149.69 83.9639 148.284 79.6414 146.171 79.5784Z" fill="#0E5110"/>
<path d="M143.017 81.4039C143.017 81.4039 133.309 75.109 129.098 75.6336C124.887 76.1582 122.271 76.2281 122.271 76.2281C122.271 76.2281 132.022 77.2143 134.547 78.2355C137.071 79.2567 143.017 81.4039 143.017 81.4039Z" fill="#377C37"/>
<path d="M142.304 82.4177C138.681 82.1729 139.506 78.7877 136.429 79.0255C133.351 79.2633 135.883 75.0807 132.68 75.8151C129.476 76.5495 130.358 74.5841 128.483 75.0317C127.084 75.3864 125.704 75.8136 124.349 76.3117C124.349 76.3117 119.453 74.8079 117.873 75.3185C116.198 75.7345 114.456 75.8059 112.753 75.5283C111.284 75.3465 110.256 73.7587 110.256 76.6264C110.256 79.4941 114.41 76.2137 116.914 78.4799C119.768 81.0678 124.182 80.0047 126.112 83.1871C128.042 86.3695 129.392 88.279 133.582 87.1319C137.772 85.9848 141.597 88.4538 142.912 89.0064C144.227 89.5589 145.71 86.9081 145.71 86.9081C145.71 86.9081 144.416 82.5646 142.304 82.4177Z" fill="#0E5110"/>
<path d="M139.1 84.1664C139.1 84.1664 129.545 77.5708 125.328 77.9834C121.11 78.3961 118.48 78.3681 118.48 78.3681C118.48 78.3681 128.21 79.6481 130.707 80.7462C133.204 81.8443 139.1 84.1664 139.1 84.1664Z" fill="#377C37"/>
<path d="M79.5989 64.2262C70.6532 63.2959 60.2876 70.3392 63.421 74.9555C66.5545 79.5717 75.752 79.6277 85.9428 80.5999C95.2522 81.4882 113.682 79.9704 115.389 75.2282C117.347 69.8146 107.646 68.094 104.198 66.5203C99.6447 64.464 89.1392 65.2194 79.5989 64.2262Z" fill="#FCFCFC"/>
<path d="M78.3477 70.9828C78.3477 69.4091 83.2437 66.4365 89.2448 66.4365C95.246 66.4365 100.149 69.4091 100.149 70.9828C100.149 72.5566 95.4628 73.1371 89.4407 73.1371C83.4185 73.1371 78.3477 72.5845 78.3477 70.9828Z" fill="#F9B938"/>
<path d="M97.911 70.3878C97.7851 71.0103 96.0715 71.6188 95.358 70.9193C95.1272 70.6955 96.9527 70.5207 97.0786 69.8982C97.2045 69.2757 95.1272 68.9889 95.8057 68.6602C96.2673 68.4433 98.0369 69.7863 97.911 70.3878Z" fill="#F9F1CA"/>
<path d="M163.37 76.8369C160.51 88.5664 128.762 100.436 90.0348 100.436C51.3072 100.436 19.5529 88.5664 16.6992 76.8369H25.0924C30.7788 85.7827 57.7 94.2248 90.0627 94.2248C122.425 94.2248 149.347 85.7827 155.026 76.8369H163.37Z" fill="#262626"/>
</svg>
