<svg width="180" height="180" viewBox="0 0 180 180" fill="none" xmlns="http://www.w3.org/2000/svg">
<path d="M59.601 101.77L29.391 110.93C28.531 111.2 28.001 111.67 28.001 112.17V128.17C28.001 128.91 29.111 129.53 30.571 129.61L130.001 135.2C131.711 135.3 133.211 134.63 133.211 133.76V118.19C133.211 117.61 132.531 117.09 131.481 116.86L62.261 101.68C61.3802 101.493 60.4672 101.524 59.601 101.77V101.77Z" fill="#F7D684"/>
<path d="M59.601 86.5903L29.391 95.7603C28.531 96.0003 28.001 96.4903 28.001 97.0003V113C28.001 113.74 29.111 114.36 30.571 114.44L130.001 120C131.711 120.1 133.211 119.43 133.211 118.56V103C133.211 102.43 132.531 101.91 131.481 101.68L62.261 86.5003C61.3797 86.3188 60.4679 86.3497 59.601 86.5903Z" fill="#F7F4F0"/>
<path d="M64.5404 72.8099L59.1904 72.5199L59.5904 72.3899C60.4608 72.1496 61.3758 72.1187 62.2604 72.2999L64.5404 72.8099Z" fill="#F7D684"/>
<path d="M133.221 90.27V104.38C133.221 105.25 131.721 105.92 130.011 105.82L30.571 100.26C29.111 100.18 28.001 99.56 28.001 98.82V84.71C28.001 85.45 29.111 86.07 30.571 86.15L130.001 91.72C131.721 91.81 133.221 91.14 133.221 90.27Z" fill="#F7D684"/>
<path d="M133.221 75.1803V90.2703C133.221 91.1403 131.721 91.8103 130.011 91.7203L30.5706 86.1503C29.1106 86.0703 28.0006 85.4503 28.0006 84.7103V69.5303C27.9898 69.8797 28.1169 70.2194 28.3546 70.4758C28.5923 70.7322 28.9214 70.8847 29.2706 70.9003L59.1906 72.5203L64.5406 72.8103L131.761 76.4303C131.939 76.4481 132.12 76.4295 132.291 76.3757C132.463 76.3219 132.621 76.234 132.758 76.1171C132.894 76.0003 133.005 75.8571 133.085 75.6961C133.165 75.5351 133.211 75.3596 133.221 75.1803Z" fill="#F7F4F0"/>
<path d="M133.221 74.7002V75.1802C133.211 75.3595 133.165 75.535 133.085 75.696C133.005 75.857 132.894 76.0002 132.758 76.1171C132.621 76.2339 132.463 76.3218 132.291 76.3756C132.12 76.4295 131.939 76.448 131.761 76.4302L64.5406 72.8102L59.1906 72.5202L29.2706 70.9002C28.9214 70.8846 28.5923 70.7321 28.3546 70.4757C28.1169 70.2193 27.9898 69.8796 28.0006 69.5302V68.6802C28.0006 68.1702 28.5306 67.6802 29.3906 67.4402L59.5906 58.2802C60.1944 58.1064 60.8237 58.0387 61.4506 58.0802C61.6283 58.0903 61.8052 58.1103 61.9806 58.1402H62.0706C62.1339 58.1346 62.1974 58.1346 62.2606 58.1402L131.491 73.3302C132.541 73.6002 133.221 74.1302 133.221 74.7002Z" fill="#FFFDF8"/>
<path d="M28.001 77.0596H35.411V129.74H30.361C29.7351 129.74 29.1348 129.491 28.6922 129.048C28.2496 128.606 28.001 128.005 28.001 127.38V77.0596Z" fill="#F7F4F0"/>
<path d="M85.4204 66.9998C83.7304 69.4198 80.5004 69.9998 76.8004 69.9998C71.3504 69.9998 66.9404 68.7098 66.9404 62.2098C66.9404 56.5998 70.2204 47.8498 74.6304 45.5898C71.4804 49.1598 69.3404 55.7098 69.3404 60.2398C69.3404 66.7398 73.7604 68.0198 79.2104 68.0198C81.3295 68.1271 83.447 67.7793 85.4204 66.9998Z" fill="#D32411"/>
<path d="M86.6708 62.19C86.7691 63.8848 86.3318 65.5675 85.4208 67C83.4459 67.7726 81.3285 68.1136 79.2108 68C73.7608 68 69.3408 66.72 69.3408 60.22C69.3408 55.69 71.4808 49.14 74.6308 45.57C75.296 45.2038 76.0415 45.008 76.8008 45C82.2508 45 86.6708 55.69 86.6708 62.19Z" fill="#ED3214"/>
</svg>
