<svg width="531" height="581" viewBox="0 0 531 581" fill="none" xmlns="http://www.w3.org/2000/svg">
<path d="M327.525 5H104.239C97.3878 5 91.834 10.5542 91.834 17.4055V67.0277C91.834 73.8791 97.3878 79.4333 104.239 79.4333H327.525C334.375 79.4333 339.929 73.8791 339.929 67.0277V17.4055C339.929 10.5542 334.375 5 327.525 5Z" stroke="#505056" stroke-width="9" stroke-linecap="round" stroke-linejoin="round"/>
<path d="M203.476 526.03H29.8095C23.2296 526.03 16.9192 523.416 12.2665 518.763C7.61384 514.11 5 507.799 5 501.219V54.622C5 48.0417 7.61384 41.7309 12.2665 37.078C16.9192 32.425 23.2296 29.811 29.8095 29.811H91.8334" stroke="#505056" stroke-width="9" stroke-linecap="round" stroke-linejoin="round"/>
<path d="M339.929 29.811H401.953C408.532 29.811 414.843 32.425 419.496 37.078C424.148 41.7309 426.762 48.0417 426.762 54.622V228.299" stroke="#505056" stroke-width="9" stroke-linecap="round" stroke-linejoin="round"/>
<path d="M515.592 398.812L488.723 393.44C486.454 385.817 483.407 378.446 479.63 371.445L494.814 348.656C496.475 346.169 497.223 343.182 496.929 340.205C496.635 337.228 495.318 334.445 493.201 332.331L471.592 310.721C469.478 308.604 466.695 307.286 463.718 306.992C460.742 306.698 457.755 307.446 455.268 309.108L432.381 324.354C425.415 320.559 418.078 317.487 410.486 315.186L405.115 288.328C404.527 285.393 402.94 282.751 400.624 280.854C398.308 278.956 395.407 277.919 392.413 277.92H361.86C358.868 277.922 355.969 278.96 353.655 280.857C351.342 282.755 349.757 285.395 349.17 288.328L343.798 315.137C336.193 317.424 328.844 320.487 321.867 324.28L299.017 309.058C296.528 307.396 293.539 306.648 290.56 306.942C287.581 307.236 284.796 308.554 282.68 310.671L261.083 332.281C258.967 334.395 257.649 337.177 257.353 340.153C257.056 343.13 257.801 346.117 259.458 348.607L274.716 371.495C270.932 378.456 267.877 385.79 265.599 393.378L238.693 398.762C235.757 399.35 233.116 400.937 231.218 403.253C229.321 405.569 228.284 408.471 228.285 411.466V442.007C228.284 445.002 229.321 447.904 231.218 450.22C233.116 452.536 235.757 454.123 238.693 454.711L265.562 460.082C267.831 467.706 270.878 475.077 274.654 482.077L259.458 504.866C257.801 507.356 257.056 510.343 257.353 513.319C257.649 516.296 258.967 519.078 261.083 521.192L282.68 542.802C284.796 544.919 287.581 546.237 290.56 546.531C293.539 546.825 296.528 546.077 299.017 544.415L321.892 529.168C328.863 532.961 336.203 536.033 343.798 538.336L349.17 565.194C349.757 568.128 351.342 570.768 353.655 572.665C355.969 574.563 358.868 575.6 361.86 575.602H392.413C395.407 575.603 398.308 574.567 400.624 572.669C402.94 570.771 404.527 568.13 405.115 565.194L410.486 538.324C418.11 536.054 425.48 533.007 432.48 529.23L455.268 544.415C457.755 546.077 460.742 546.824 463.718 546.53C466.695 546.236 469.478 544.918 471.592 542.802L493.201 521.192C495.318 519.077 496.635 516.294 496.929 513.317C497.223 510.34 496.475 507.354 494.814 504.866L479.568 481.978C483.363 475.011 486.435 467.674 488.736 460.082L515.592 454.711C518.528 454.123 521.169 452.536 523.066 450.22C524.964 447.904 526 445.002 525.999 442.007V411.466C525.989 408.48 524.947 405.589 523.051 403.284C521.154 400.978 518.519 399.398 515.592 398.812V398.812Z" stroke="#505056" stroke-width="9" stroke-linecap="round" stroke-linejoin="round"/>
<path d="M389.547 366C376.502 363.35 362.95 364.972 350.899 370.628C338.848 376.283 328.94 385.67 322.641 397.398C316.342 409.126 313.988 422.571 315.928 435.741C317.868 448.912 323.998 461.107 333.411 470.52C342.824 479.934 355.019 486.065 368.188 488.005C381.358 489.945 394.802 487.591 406.529 481.291C418.256 474.992 427.643 465.083 433.298 453.031C438.953 440.98 440.575 427.427 437.926 414.381" stroke="#505056" stroke-width="9" stroke-miterlimit="10" stroke-linecap="round"/>
<path d="M91.834 178.677H265.501" stroke="#505056" stroke-width="9" stroke-linecap="round" stroke-linejoin="round"/>
<path d="M91.834 277.92H191.072" stroke="#505056" stroke-width="9" stroke-linecap="round" stroke-linejoin="round"/>
<path d="M127 28.0136H137.999C140.631 27.8766 143.216 28.7807 145.25 30.5495C146.164 31.4173 146.884 32.4894 147.356 33.6875C147.829 34.8856 148.043 36.1798 147.983 37.4761C148.063 38.7758 147.859 40.0775 147.389 41.2812C146.918 42.485 146.192 43.5589 145.267 44.4205C143.179 46.1 140.593 46.9401 137.971 46.7906H132.006V57H127.011L127 28.0136ZM137.377 42.4534C141.118 42.4534 142.988 40.7943 142.988 37.4761C142.988 34.075 141.118 32.3745 137.377 32.3745H131.995V42.4476L137.377 42.4534Z" fill="black"/>
<path d="M153 28.0225H164.473C167.016 27.8478 169.528 28.6938 171.505 30.3909C172.363 31.2735 173.029 32.3423 173.456 33.5231C173.884 34.7039 174.063 35.9687 173.981 37.2297C174.037 39.1593 173.516 41.0586 172.493 42.6593C171.45 44.1862 169.959 45.3079 168.25 45.8507L173.824 57H168.722L163.417 46.3895H157.995V57H153V28.0225ZM163.575 42.0317C164.973 42.1114 166.356 41.6944 167.504 40.8474C168.011 40.4203 168.413 39.8696 168.674 39.2425C168.935 38.6154 169.047 37.9307 169.002 37.2474C169.002 34.0145 167.189 32.3981 163.58 32.3981H158.001V42.0494L163.575 42.0317Z" fill="black"/>
<path d="M184.596 55.1334C182.273 53.9188 180.344 52.084 179.032 49.8397C177.699 47.44 177 44.7488 177 42.0137C177 39.2786 177.699 36.5874 179.032 34.1877C180.351 31.9486 182.278 30.1155 184.596 28.8939C187.039 27.6495 189.75 27 192.5 27C195.251 27 197.961 27.6495 200.404 28.8939C202.724 30.1154 204.653 31.9484 205.974 34.1877C207.303 36.5845 208 39.2713 208 42.0018C208 44.7324 207.303 47.4194 205.974 49.8161C204.651 52.0539 202.723 53.8864 200.404 55.1099C197.981 56.3858 195.269 57.0354 192.521 56.9979C189.762 57.0417 187.037 56.4005 184.596 55.1334V55.1334ZM197.631 51.0159C199.165 50.1798 200.432 48.9394 201.289 47.434C202.22 45.7782 202.688 43.9086 202.645 42.0165C202.681 40.143 202.222 38.2925 201.313 36.6463C200.457 35.1379 199.195 33.8904 197.667 33.0407C196.094 32.1808 194.32 31.7409 192.521 31.7644C190.717 31.7441 188.938 32.1837 187.357 33.0407C185.822 33.8857 184.556 35.1341 183.7 36.6463C182.811 38.3095 182.346 40.1606 182.346 42.0401C182.346 43.9195 182.811 45.7708 183.7 47.434C184.562 48.9434 185.838 50.1843 187.381 51.0159C188.956 51.8424 190.713 52.2748 192.497 52.2748C194.282 52.2748 196.039 51.8424 197.613 51.0159H197.631Z" fill="black"/>
<path d="M217.477 55.1978C215.162 54.025 213.246 52.2078 211.967 49.9711C210.675 47.5199 210 44.7972 210 42.0338C210 39.2704 210.675 36.5477 211.967 34.0965C213.25 31.8569 215.164 30.033 217.477 28.8461C220.352 27.4807 223.53 26.8554 226.715 27.0281C229.901 27.2008 232.99 28.1659 235.696 29.8338V34.8195C232.965 32.6826 229.54 31.5983 226.059 31.7682C224.107 31.7285 222.175 32.1604 220.431 33.0264C218.857 33.831 217.554 35.0687 216.679 36.5894C215.798 38.2674 215.339 40.1294 215.339 42.0191C215.339 43.9087 215.798 45.7707 216.679 47.4487C217.56 48.9732 218.872 50.2113 220.455 51.0118C222.183 51.8759 224.099 52.3079 226.036 52.2699C227.899 52.2991 229.756 52.0412 231.539 51.5056C233.174 50.9877 234.69 50.1567 236 49.0598V54.0337C232.961 56.1471 229.288 57.1832 225.577 56.9734C222.771 57.0417 219.99 56.4322 217.477 55.1978V55.1978Z" fill="black"/>
<path d="M241 28H259V32.3612H245.837V40.3193H255.62V44.6807H245.837V52.6388H259V57H241.005L241 28Z" fill="black"/>
<path d="M267.311 56.4814C265.823 56.2443 264.373 55.8219 263 55.2251V50.7523C264.446 51.4115 265.967 51.908 267.533 52.2316C269.061 52.5527 270.619 52.7179 272.184 52.7246C273.725 52.8193 275.26 52.4608 276.581 51.6974C277.063 51.3833 277.455 50.9582 277.718 50.4615C277.982 49.9649 278.11 49.4127 278.09 48.8563C278.117 48.0979 277.874 47.3533 277.4 46.7432C276.851 46.1106 276.158 45.6047 275.374 45.2639C274.481 44.8413 273.12 44.2837 271.278 43.6028C268.983 42.8223 266.893 41.5743 265.156 39.9457C263.877 38.5633 263.199 36.7689 263.259 34.927C263.235 33.444 263.702 31.9917 264.595 30.7769C265.546 29.5307 266.846 28.5645 268.346 27.9887C270.104 27.3028 271.99 26.9672 273.89 27.0025C275.431 26.9865 276.97 27.1163 278.484 27.39C279.84 27.6557 281.162 28.0611 282.426 28.5992V32.9547C280.068 31.8364 277.472 31.2461 274.838 31.2289C273.347 31.1428 271.863 31.482 270.576 32.2032C270.096 32.4912 269.704 32.8946 269.439 33.3726C269.174 33.8507 269.046 34.3867 269.067 34.927C269.032 35.6747 269.274 36.4103 269.75 37.005C270.261 37.5745 270.89 38.0363 271.598 38.3609C272.362 38.7307 273.729 39.3117 275.719 40.1218C277.385 40.7481 278.981 41.5349 280.48 42.4699C281.567 43.1557 282.468 44.0768 283.11 45.1582C283.732 46.3193 284.035 47.612 283.991 48.9151C284.051 50.0536 283.819 51.189 283.317 52.2237C282.815 53.2584 282.057 54.1614 281.108 54.8554C278.577 56.4251 275.578 57.1668 272.565 56.9685C270.802 56.9634 269.043 56.8004 267.311 56.4814Z" fill="black"/>
<path d="M288.31 56.4812C286.822 56.2448 285.373 55.8223 284 55.2249V50.7521C285.443 51.4121 286.962 51.9087 288.526 52.2314C290.055 52.552 291.615 52.7172 293.181 52.7244C294.722 52.8191 296.257 52.4606 297.577 51.6972C298.059 51.3831 298.45 50.958 298.714 50.4614C298.978 49.9647 299.106 49.4125 299.086 48.8561C299.113 48.0978 298.87 47.3531 298.396 46.7431C297.845 46.1117 297.153 45.6062 296.37 45.2638C295.477 44.8411 294.111 44.2836 292.276 43.6026C289.98 42.8206 287.89 41.5728 286.149 39.9456C284.872 38.5627 284.196 36.7682 284.259 34.927C284.235 33.444 284.702 31.9917 285.595 30.7769C286.543 29.5283 287.843 28.5615 289.345 27.9887C291.102 27.3025 292.988 26.9669 294.886 27.0026C296.427 26.9859 297.966 27.1158 299.48 27.39C300.838 27.6553 302.161 28.0607 303.427 28.5992V32.9547C301.069 31.8364 298.474 31.2461 295.841 31.2289C294.348 31.1431 292.863 31.4822 291.574 32.2032C291.094 32.4912 290.702 32.8945 290.437 33.3726C290.172 33.8507 290.044 34.3867 290.065 34.927C290.03 35.6746 290.272 36.4103 290.749 37.0049C291.26 37.5732 291.889 38.0348 292.596 38.3608C293.359 38.7286 294.732 39.3156 296.715 40.1217C298.383 40.7494 299.979 41.5362 301.481 42.4698C302.566 43.1558 303.465 44.077 304.104 45.1581C304.728 46.3186 305.034 47.6113 304.991 48.9149C305.05 50.0539 304.818 51.1895 304.315 52.2242C303.812 53.259 303.053 54.1619 302.103 54.8552C299.575 56.4256 296.579 57.1674 293.569 56.9683C291.804 56.9641 290.043 56.8011 288.31 56.4812V56.4812Z" fill="black"/>
</svg>
