<svg width="428" height="442" viewBox="0 0 428 442" fill="none" xmlns="http://www.w3.org/2000/svg">
<path d="M248.782 85.9775L221.786 97.9033L223.138 120.439L251.353 129.088C253.296 134.598 255.859 139.87 258.991 144.802L248.344 172.32L265.229 187.304L291.288 173.465C296.559 175.99 302.102 177.907 307.807 179.179L319.734 206.173L342.272 204.821L350.909 176.62C356.419 174.671 361.691 172.104 366.625 168.971L394.158 179.629L409.142 162.746L395.291 136.677C397.816 131.409 399.737 125.871 401.016 120.171L428.001 108.233L426.661 85.6972L398.446 77.0604C396.505 71.5491 393.943 66.2771 390.807 61.3463L401.455 33.816L384.57 18.8692L358.511 32.7075C353.239 30.1825 347.697 28.2659 341.992 26.9944L330.065 0L307.527 1.33998L298.89 29.5524C293.38 31.4979 288.108 34.0601 283.174 37.1902L255.641 26.5436L240.657 43.4273L254.496 69.4958C251.976 74.7567 250.059 80.2857 248.782 85.9775V85.9775ZM278.155 68.9232L278.228 68.9964C280.395 66.0161 282.842 63.2503 285.537 60.7372L285.464 60.6641C285.866 60.2865 286.341 59.9941 286.756 59.6286C287.974 58.5445 289.277 57.5092 290.617 56.5225C291.263 56.0474 291.836 55.5358 292.542 55.0851C294.391 53.855 296.307 52.7284 298.28 51.7107C299.109 51.2843 299.962 50.8944 300.814 50.4925C302.483 49.725 304.201 49.0307 305.955 48.4216C306.674 48.178 307.381 47.9101 308.112 47.6787C310.264 47.0395 312.453 46.531 314.666 46.156C315.092 46.0707 315.494 45.9244 315.884 45.8513V45.961C318.836 45.4701 321.822 45.2134 324.814 45.1935C325.521 45.1935 326.203 45.2788 326.91 45.3032V45.1935C327.507 45.1935 328.128 45.3519 328.652 45.3885C330.394 45.4981 332.124 45.7052 333.829 45.961C334.645 46.095 335.486 46.1803 336.266 46.3387C338.491 46.8012 340.687 47.3908 342.844 48.1049C343.722 48.3972 344.574 48.7262 345.439 49.0551C347.047 49.6763 348.607 50.3586 350.142 51.1138C350.836 51.4549 351.555 51.7473 352.237 52.1127C354.184 53.1865 356.071 54.3657 357.89 55.6453C358.219 55.8646 358.572 56.0352 358.889 56.2667V56.3518C361.867 58.5217 364.633 60.969 367.149 63.6608V63.5755C367.526 63.9897 367.819 64.4526 368.184 64.8668C369.281 66.0849 370.304 67.4006 371.291 68.7284C371.766 69.374 372.278 69.9466 372.728 70.6531C373.959 72.5017 375.085 74.4171 376.103 76.3905C376.529 77.2311 376.931 78.0715 377.321 78.9242C378.089 80.6053 378.783 82.3108 379.392 84.065C379.636 84.7837 379.916 85.4903 380.135 86.2211C380.773 88.3743 381.285 90.5625 381.67 92.7748C381.744 93.2133 381.902 93.6032 381.963 93.993H381.865C382.346 96.9456 382.598 99.9306 382.621 102.922C382.621 103.628 382.548 104.323 382.511 105.029H382.621C382.621 105.614 382.462 106.174 382.426 106.759C382.316 108.513 382.121 110.231 381.853 111.936C381.719 112.765 381.646 113.593 381.476 114.373C381.02 116.599 380.43 118.796 379.709 120.951C379.417 121.84 379.088 122.693 378.759 123.557C378.137 125.165 377.455 126.725 376.7 128.26C376.359 128.954 376.066 129.661 375.701 130.343C374.633 132.297 373.454 134.188 372.168 136.007C371.937 136.324 371.778 136.689 371.547 136.994L371.474 136.933C369.303 139.91 366.856 142.676 364.164 145.192L364.237 145.265C363.823 145.643 363.336 145.959 362.909 146.325C361.707 147.381 360.452 148.392 359.145 149.358C358.438 149.882 357.768 150.43 357.037 150.917C355.237 152.115 353.37 153.209 351.445 154.194C350.593 154.633 349.74 155.035 348.863 155.412C347.218 156.168 345.525 156.85 343.795 157.447C343.027 157.715 342.284 157.995 341.517 158.226C339.395 158.854 337.239 159.359 335.06 159.737C334.621 159.81 334.207 159.968 333.768 160.041V160.175C330.815 160.656 327.83 160.908 324.838 160.931C324.132 160.931 323.45 160.858 322.743 160.833V160.931C322.146 160.931 321.525 160.784 320.977 160.748C319.259 160.626 317.553 160.431 315.884 160.175C315.031 160.041 314.179 159.956 313.35 159.798C311.134 159.331 308.946 158.741 306.796 158.031C305.907 157.739 305.042 157.398 304.165 157.069C302.569 156.448 301.022 155.778 299.499 155.035C298.804 154.694 298.073 154.389 297.391 154.011C295.439 152.947 293.551 151.767 291.738 150.479C291.409 150.26 291.056 150.089 290.739 149.858V149.784C287.759 147.618 284.993 145.17 282.48 142.476L282.419 142.549C282.029 142.147 281.736 141.672 281.371 141.245C280.287 140.027 279.275 138.809 278.301 137.432C277.801 136.762 277.265 136.117 276.802 135.422C275.584 133.597 274.473 131.701 273.477 129.746C273.038 128.918 272.636 128.065 272.258 127.2C271.491 125.531 270.809 123.826 270.199 122.084C269.956 121.353 269.676 120.646 269.456 119.903C268.82 117.754 268.308 115.57 267.921 113.362C267.848 112.923 267.69 112.521 267.629 112.082H267.726C267.246 109.126 266.993 106.137 266.971 103.141C266.971 102.435 267.044 101.753 267.068 101.046H266.971C266.971 100.449 267.117 99.8278 267.166 99.304C267.276 97.5621 267.471 95.8322 267.739 94.1268C267.873 93.3107 267.958 92.4823 268.116 91.6905C268.571 89.4602 269.161 87.2594 269.883 85.1003C270.175 84.2232 270.504 83.3707 270.833 82.5179C271.442 80.8978 272.136 79.3263 272.892 77.7792C273.233 77.0971 273.525 76.3906 273.891 75.7206C274.96 73.7603 276.143 71.8648 277.436 70.044C277.765 69.642 277.935 69.2888 278.155 68.972V68.9232Z" fill="#808080"/>
<path d="M293.26 110.486H293.589C294.663 115.094 296.743 119.408 299.68 123.118L299.521 123.301C301.831 126.183 304.611 128.655 307.745 130.61L307.952 130.39C311.977 132.89 316.51 134.459 321.219 134.983V135.214C324.893 135.861 328.666 135.669 332.256 134.654V134.325C336.867 133.256 341.182 131.176 344.89 128.234L345.072 128.393C347.984 126.092 350.48 123.311 352.455 120.17L352.224 119.975C354.721 115.945 356.29 111.409 356.816 106.697H357.06C357.251 105.487 357.373 104.267 357.426 103.043C357.406 100.542 357.091 98.0515 356.487 95.6241H356.158C355.09 91.0138 353.009 86.6991 350.067 82.992L350.226 82.8091C347.925 79.9014 345.144 77.4089 342.002 75.4393L341.795 75.6586C337.769 73.1611 333.237 71.5922 328.528 71.0661V70.8347C327.319 70.6332 326.098 70.5071 324.874 70.457C322.373 70.4822 319.883 70.797 317.454 71.395V71.724C312.844 72.7929 308.529 74.8734 304.821 77.8147L304.638 77.6441C301.73 79.9527 299.234 82.7371 297.255 85.879L297.487 86.0738C294.991 90.1004 293.422 94.6318 292.894 99.3396H292.65C292.004 103.014 292.196 106.786 293.211 110.376L293.26 110.486ZM303.213 98.8279C303.609 96.8014 304.29 94.8411 305.235 93.0051C306.975 89.5758 309.586 86.6644 312.806 84.5626C316.026 82.4609 319.742 81.2427 323.582 81.0306C327.525 80.8093 331.454 81.6507 334.961 83.4669C336.621 84.3163 338.165 85.3768 339.554 86.6219C340.948 87.85 342.177 89.2547 343.208 90.8002C344.365 92.5122 345.275 94.378 345.913 96.3429C346.474 98.1222 346.817 99.9627 346.936 101.825C347.043 103.684 346.92 105.55 346.571 107.379C345.802 111.247 344.019 114.841 341.405 117.795C338.784 120.748 335.419 122.944 331.659 124.153C329.887 124.726 328.049 125.07 326.189 125.177C322.246 125.404 318.315 124.562 314.811 122.74C309.6 120.063 305.659 115.435 303.846 109.864C303.272 108.093 302.928 106.254 302.823 104.395C302.723 102.53 302.854 100.66 303.213 98.8279V98.8279Z" fill="#808080"/>
<path d="M34.3306 303.64L1.59598 335.165L15.4598 367.057L60.8401 364.62C66.5721 371.563 73.0701 377.835 80.2105 383.319L79.3576 428.768L111.703 441.523L142.098 407.707C151.057 408.568 160.085 408.413 169.01 407.243L200.538 439.975L232.432 426.125L229.996 380.749C236.942 375.02 243.215 368.523 248.696 361.38L294.162 362.233L306.905 329.879L273.086 299.498C273.958 290.536 273.807 281.504 272.635 272.576L305.37 241.051L291.506 209.171L246.126 211.608C240.394 204.666 233.896 198.393 226.755 192.909L227.608 147.46L195.263 134.718L164.807 168.522C155.847 167.66 146.819 167.815 137.895 168.985L106.367 136.24L74.4725 150.103L76.909 195.479C69.9659 201.211 63.6927 207.708 58.2087 214.848L12.7553 213.995L0 246.35L33.8068 276.73C32.9664 285.691 33.1422 294.718 34.3306 303.64V303.64ZM67.8329 263.44L67.9791 263.501C69.5471 258.035 71.6358 252.732 74.2166 247.665H74.0704C74.4602 246.91 74.9841 246.228 75.3861 245.485C76.6044 243.255 77.9323 241.075 79.3333 238.955C80.0155 237.92 80.6368 236.848 81.3556 235.837C83.3833 233.086 85.5633 230.451 87.8855 227.943C88.8601 226.871 89.8713 225.86 90.8946 224.837C92.917 222.851 95.0245 220.951 97.2417 219.136C98.1554 218.393 99.0326 217.625 99.9828 216.919C102.758 214.86 105.65 212.965 108.645 211.242C109.229 210.901 109.729 210.463 110.326 210.134V210.28C114.346 208.022 118.533 206.076 122.85 204.457C123.873 204.08 124.909 203.836 125.932 203.507V203.361C126.797 203.069 127.674 202.971 128.551 202.715C131.134 201.96 133.741 201.327 136.348 200.815C137.566 200.559 138.858 200.242 140.112 200.048C143.58 199.535 147.074 199.226 150.577 199.122C152.003 199.122 153.416 199.122 154.829 199.122C157.485 199.122 160.116 199.329 162.723 199.597C163.942 199.731 165.099 199.78 166.281 199.95C169.668 200.465 173.024 201.173 176.331 202.07C176.916 202.228 177.55 202.277 178.098 202.447V202.581C183.565 204.151 188.869 206.243 193.935 208.83L193.996 208.684C194.751 209.062 195.434 209.598 196.177 210C198.406 211.218 200.575 212.534 202.707 213.934C203.742 214.629 204.802 215.238 205.813 215.969C208.568 217.992 211.208 220.168 213.72 222.486C214.78 223.46 215.803 224.471 216.814 225.507C218.812 227.521 220.713 229.636 222.516 231.853C223.259 232.767 224.026 233.632 224.733 234.582C226.794 237.359 228.69 240.255 230.41 243.255C230.763 243.828 231.19 244.34 231.519 244.924L231.385 244.997C233.641 249.016 235.584 253.203 237.196 257.52C237.573 258.543 237.817 259.579 238.158 260.602L238.304 260.541C238.585 261.406 238.682 262.283 238.938 263.148C239.705 265.743 240.327 268.337 240.838 270.944C241.094 272.162 241.411 273.453 241.606 274.72C242.125 278.182 242.434 281.673 242.532 285.172C242.532 286.609 242.532 288.01 242.532 289.436C242.532 292.091 242.325 294.71 242.044 297.329C241.923 298.548 241.862 299.766 241.691 300.874C241.189 304.268 240.481 307.628 239.571 310.936C239.425 311.521 239.376 312.154 239.206 312.702H239.06C237.492 318.169 235.403 323.471 232.822 328.538L232.968 328.599C232.579 329.367 232.03 330.061 231.616 330.829C230.398 333.009 229.18 335.129 227.766 337.212C227.023 338.332 226.341 339.49 225.537 340.574C223.57 343.267 221.447 345.841 219.178 348.285C218.191 349.369 217.155 350.404 216.108 351.44C214.122 353.413 212.039 355.277 209.858 357.055C208.896 357.847 207.957 358.651 206.959 359.394C204.225 361.424 201.378 363.295 198.431 364.998C197.846 365.339 197.334 365.778 196.725 366.119L196.664 365.972C192.646 368.232 188.459 370.179 184.14 371.795C183.117 372.173 182.082 372.416 181.046 372.745L181.119 372.904C180.23 373.184 179.34 373.293 178.463 373.549C175.905 374.292 173.347 374.913 170.764 375.425C169.546 375.681 168.206 376.01 166.914 376.205C163.464 376.72 159.985 377.025 156.498 377.118C155.048 377.118 153.623 377.118 152.185 377.118C149.554 377.118 146.959 376.911 144.364 376.643C143.146 376.522 141.928 376.461 140.77 376.29C137.382 375.776 134.027 375.068 130.72 374.17C130.135 374.012 129.501 373.963 128.941 373.793V373.659C123.473 372.09 118.17 369.997 113.104 367.41V367.556C112.336 367.166 111.654 366.643 110.898 366.228C108.693 365.01 106.549 363.719 104.442 362.33C103.357 361.611 102.261 360.966 101.213 360.21C98.4909 358.211 95.8837 356.06 93.4043 353.767C92.32 352.78 91.2966 351.757 90.2611 350.721C88.2875 348.711 86.3992 346.616 84.5961 344.399C83.8408 343.485 83.0733 342.596 82.3546 341.646C80.2986 338.874 78.4032 335.986 76.6775 332.997C76.3364 332.412 75.91 331.901 75.581 331.304H75.7272C73.4623 327.288 71.5153 323.101 69.904 318.781C69.5263 317.758 69.2826 316.722 68.9537 315.699L68.7953 315.76C68.5151 314.895 68.4055 314.018 68.1496 313.141C67.3943 310.559 66.773 307.964 66.2492 305.357C66.0055 304.139 65.6888 302.848 65.4939 301.593C64.975 298.123 64.6658 294.624 64.5679 291.117C64.5679 289.691 64.5679 288.291 64.5679 286.878C64.6167 284.222 64.7791 281.579 65.0553 278.947C65.1771 277.729 65.2258 276.596 65.4086 275.439C65.9122 272.038 66.6201 268.669 67.5284 265.353C67.5649 264.671 67.6623 264.074 67.8329 263.501V263.44Z" fill="#808080"/>
<path d="M111.653 315.564L112.116 315.369C116.126 321.469 121.439 326.603 127.673 330.401L127.539 330.742C132.42 333.736 137.776 335.874 143.377 337.065L143.547 336.638C150.694 338.117 158.079 337.993 165.172 336.273L165.318 336.602C167.15 336.245 168.961 335.781 170.739 335.213C174.346 333.861 177.784 332.095 180.985 329.95L180.778 329.488C186.884 325.481 192.02 320.162 195.811 313.92L196.164 314.066C199.152 309.184 201.286 303.829 202.475 298.23L202.048 298.059C203.534 290.91 203.409 283.52 201.683 276.425L202.012 276.279C201.658 274.447 201.198 272.637 200.635 270.858C199.283 267.252 197.513 263.818 195.36 260.625L194.897 260.82C190.888 254.72 185.574 249.586 179.34 245.788L179.474 245.447C174.593 242.453 169.237 240.315 163.637 239.125L163.466 239.551C156.319 238.07 148.932 238.199 141.842 239.929L141.696 239.588C139.859 239.945 138.045 240.408 136.262 240.976C132.66 242.332 129.226 244.097 126.029 246.239L126.236 246.714C120.13 250.716 114.994 256.031 111.203 262.27L110.849 262.124C107.86 267.006 105.721 272.361 104.526 277.96L104.965 278.118C103.486 285.268 103.61 292.657 105.331 299.753L105.002 299.899C105.361 301.729 105.821 303.539 106.378 305.32C107.729 308.929 109.5 312.367 111.653 315.564V315.564ZM119.877 293.443C119.386 290.302 119.333 287.108 119.718 283.953C120.83 275.001 125.442 266.855 132.547 261.295C134.817 259.535 137.297 258.062 139.929 256.91C142.557 255.754 145.32 254.936 148.152 254.474C151.296 253.971 154.496 253.918 157.655 254.315C163.375 255.026 168.823 257.172 173.492 260.552C176.071 262.415 178.372 264.634 180.327 267.143C182.086 269.407 183.555 271.883 184.7 274.512C185.849 277.146 186.667 279.912 187.137 282.747C188.08 288.751 187.402 294.898 185.172 300.552C182.942 306.206 179.242 311.162 174.455 314.906C172.209 316.661 169.753 318.13 167.145 319.28C164.514 320.437 161.747 321.256 158.91 321.716C152.908 322.664 146.762 321.987 141.111 319.755C136.952 318.125 133.157 315.688 129.943 312.586C126.73 309.483 124.161 305.776 122.386 301.677C121.207 299.049 120.364 296.282 119.877 293.443V293.443Z" fill="#808080"/>
</svg>
