<svg width="180" height="180" viewBox="0 0 180 180" fill="none" xmlns="http://www.w3.org/2000/svg">
<path d="M144.805 74.7587C144.805 106.998 132.258 128 90.406 128C47.4747 128 36 105.413 36 74.7587C36 74.6271 36 74.4955 36 74.3705C36.1579 71.0808 38.2502 69.6267 41.8558 69.2648C44.9221 69.0993 47.9974 69.267 51.0276 69.7649C46.1259 72.0348 42.6387 74.7653 41.0662 77.7524C45.5995 86.3518 65.9631 92.8327 90.4126 92.8327C114.862 92.8327 135.219 86.3518 139.759 77.7524C138.173 74.7653 134.693 72.0348 129.784 69.7649C132.813 69.2714 135.886 69.1082 138.95 69.278C142.555 69.6399 144.641 71.0742 144.799 74.3837C144.805 74.4955 144.805 74.6271 144.805 74.7587Z" fill="#753714"/>
<path d="M90.406 52C60.3442 52 36 61.9088 36 74.1335C36 74.2059 36 74.2848 36 74.3572C36 74.4296 36 74.3572 36 74.3572C36.0724 77.318 37.5791 80.1406 40.2504 82.7132C48.5011 90.6876 67.8514 96.2736 90.406 96.2736C112.961 96.2736 132.311 90.681 140.555 82.7198C143.22 80.1538 144.727 77.3311 144.799 74.3704C144.799 74.3704 144.799 74.219 144.799 74.1467C144.805 61.9088 120.448 52 90.406 52ZM90.406 92.8325C65.9631 92.8325 45.5995 86.3517 41.0596 77.7522C42.6387 74.7651 46.1259 72.0346 51.0276 69.7647C60.2389 65.4485 74.4573 62.6851 90.406 62.6851C106.355 62.6851 120.573 65.4485 129.784 69.7581C134.693 72.0544 138.173 74.7849 139.746 77.772C135.213 86.3517 114.842 92.8325 90.406 92.8325Z" fill="#753714"/>
<path d="M140.68 74.1336C140.669 75.3988 140.346 76.6418 139.74 77.7523C138.167 74.7652 134.693 72.0347 129.778 69.7648C120.567 65.4552 106.349 62.6918 90.3998 62.6918C74.4511 62.6918 60.2327 65.4289 51.0214 69.7648C46.1197 72.0347 42.6325 74.7652 41.06 77.7523C40.4535 76.6418 40.1303 75.3988 40.1191 74.1336C40.1584 72.3618 40.7675 70.6499 41.8561 69.2516C47.6264 61.2903 67.1741 55.4346 90.3998 55.4346C113.625 55.4346 133.167 61.2903 138.943 69.2516C140.032 70.6499 140.641 72.3618 140.68 74.1336Z" fill="#5E2C13"/>
<path d="M139.739 77.7519C135.212 86.3513 114.842 92.8321 90.3923 92.8321C65.9428 92.8321 45.5923 86.3513 41.0459 77.7519C42.625 74.7648 46.1055 72.0343 51.0139 69.7446C60.2252 65.4284 74.4369 62.665 90.3857 62.665C106.334 62.665 120.559 65.4284 129.771 69.738C134.692 72.0343 138.173 74.7648 139.739 77.7519Z" fill="#E09E3F"/>
<path d="M58.9297 80.0686C59.8003 79.749 60.7305 79.624 61.6546 79.7024C62.5787 79.7809 63.4745 80.0608 64.2788 80.5226C69.6543 83.5163 69.8056 85.9638 69.9043 86.5955C69.8701 87.2128 69.6264 87.8 69.2135 88.2601C71.5558 87.6021 72.1611 85.6283 72.0887 85.1611C71.99 84.5032 71.8387 82.0819 66.4632 79.0883C65.2771 78.3915 63.8926 78.1096 62.5284 78.2871C61.1642 78.4646 59.898 79.0915 58.9297 80.0686V80.0686Z" fill="#A8641A"/>
<path d="M65.4833 88.2865C66.7088 88.586 67.9884 88.586 69.2139 88.2865C69.6268 87.8263 69.8705 87.2391 69.9047 86.6218C69.806 85.9639 69.6547 83.5426 64.2793 80.5489C63.4749 80.0872 62.5792 79.8072 61.655 79.7288C60.7309 79.6504 59.8008 79.7754 58.9301 80.095C58.1552 80.9016 57.6574 81.934 57.5089 83.0426C56.9826 86.8719 60.0223 87.1877 65.4833 88.2865Z" fill="#B76F18"/>
<path d="M67.4505 72.252C67.49 72.4428 66.4307 73.6271 64.72 74.4364C64.0621 73.3968 61.2855 69.936 59.3906 69.8307C59.7742 69.5574 60.1924 69.3361 60.6342 69.1728C62.6475 68.4096 67.3913 71.9559 67.4505 72.252Z" fill="#D8A675"/>
<path d="M64.7195 74.4357C63.6322 74.9554 62.4372 75.2102 61.2324 75.1792C57.5874 75.0608 56.6925 74.9424 56.3965 74.1331C56.1464 73.4751 57.5281 71.1328 59.3901 69.8301C61.285 69.9354 64.0879 73.3962 64.7195 74.4357Z" fill="#E8B680"/>
<path d="M100.111 70.1005C100.111 70.2978 98.8868 71.3045 97.0709 71.8374C96.6103 70.7123 94.3798 66.8568 92.5244 66.4554C92.9401 66.2414 93.3827 66.0842 93.8403 65.9883C95.9655 65.5606 100.097 69.8044 100.111 70.1005Z" fill="#D8A675"/>
<path d="M97.0711 71.8371C95.9161 72.1798 94.6966 72.2452 93.5116 72.0279C89.9258 71.37 89.0638 71.0871 88.9059 70.2383C88.7612 69.5409 90.4916 67.4486 92.5312 66.4551C94.3801 66.8564 96.6105 70.712 97.0711 71.8371Z" fill="#E8B680"/>
<path d="M134.337 78.3707C134.337 78.5681 133.199 79.6866 131.422 80.3051C130.883 79.2129 128.402 75.5152 126.521 75.2454C126.932 75 127.374 74.8119 127.836 74.6862C129.896 74.1203 134.304 78.0746 134.337 78.3707Z" fill="#D65827"/>
<path d="M131.403 80.2921C130.273 80.7131 129.06 80.8619 127.863 80.7263C124.244 80.2789 123.362 80.0684 123.139 79.2525C122.948 78.5946 124.533 76.3641 126.501 75.2324C128.402 75.5153 130.883 79.213 131.403 80.2921Z" fill="#E2632B"/>
<path d="M78.8591 79.9365C79.4447 80.3444 79.9184 83.417 78.8591 84.0881C77.7998 84.7592 78.1091 81.6537 78.1091 81.6537C78.1091 81.6537 76.8787 85.2659 76.0562 84.9435C75.2338 84.6211 76.405 81.3379 76.6747 81.0616C76.9445 80.7852 73.7468 82.6472 73.7995 81.7195C73.8521 80.7918 77.1024 78.7193 78.8591 79.9365Z" fill="#488421"/>
<path d="M109.256 69.8309C111.658 69.8309 113.605 69.1062 113.605 68.2123C113.605 67.3184 111.658 66.5938 109.256 66.5938C106.854 66.5938 104.907 67.3184 104.907 68.2123C104.907 69.1062 106.854 69.8309 109.256 69.8309Z" fill="#994D2B"/>
<path d="M118.58 72.7253C120.037 72.7253 121.218 72.2864 121.218 71.745C121.218 71.2036 120.037 70.7646 118.58 70.7646C117.123 70.7646 115.941 71.2036 115.941 71.745C115.941 72.2864 117.123 72.7253 118.58 72.7253Z" fill="#994D2B"/>
<path d="M112.132 73.8309C112.946 73.8309 113.606 73.5835 113.606 73.2783C113.606 72.973 112.946 72.7256 112.132 72.7256C111.318 72.7256 110.658 72.973 110.658 73.2783C110.658 73.5835 111.318 73.8309 112.132 73.8309Z" fill="#994D2B"/>
<path d="M83.6422 87.5421C85.3501 87.5421 86.7346 87.0266 86.7346 86.3907C86.7346 85.7548 85.3501 85.2393 83.6422 85.2393C81.9343 85.2393 80.5498 85.7548 80.5498 86.3907C80.5498 87.0266 81.9343 87.5421 83.6422 87.5421Z" fill="#994D2B"/>
<path d="M90.2743 89.6019C91.3136 89.6019 92.1561 89.2896 92.1561 88.9045C92.1561 88.5193 91.3136 88.207 90.2743 88.207C89.2351 88.207 88.3926 88.5193 88.3926 88.9045C88.3926 89.2896 89.2351 89.6019 90.2743 89.6019Z" fill="#994D2B"/>
<path d="M85.6885 90.3848C86.2699 90.3848 86.7412 90.211 86.7412 89.9966C86.7412 89.7822 86.2699 89.6084 85.6885 89.6084C85.1071 89.6084 84.6357 89.7822 84.6357 89.9966C84.6357 90.211 85.1071 90.3848 85.6885 90.3848Z" fill="#994D2B"/>
<path d="M85.3469 67.9747C81.3992 64.5007 80.3333 75.7582 80.2741 76.3438C80.2149 76.9294 84.031 83.2063 93.0779 84.0616C102.125 84.9169 107.645 85.8315 107.994 83.4036C108.862 77.4821 90.1763 72.2119 85.3469 67.9747Z" fill="#B76F18"/>
<path d="M84.0306 67.3105C81.7935 67.3105 80.221 71.9557 84.8135 73.39C89.406 74.8244 106.94 84.9897 107.717 84.0883C108.493 83.1869 109.204 80.088 98.0515 74.6796C86.8992 69.2712 85.8399 67.3237 84.0306 67.3105Z" fill="#A8641A"/>
<path d="M109.144 79.4168C108.855 80.0748 110.381 83.2856 111.776 83.5487C113.171 83.8119 111.006 80.8182 111.006 80.8182C111.006 80.8182 114.48 83.9369 115.046 83.3053C115.612 82.6737 112.414 79.8576 111.973 79.68C111.532 79.5023 115.737 80.1274 115.112 79.2523C114.487 78.3772 110.006 77.5219 109.144 79.4168Z" fill="#488421"/>
</svg>
