<svg width="884" height="778" viewBox="0 0 884 778" fill="none" xmlns="http://www.w3.org/2000/svg">
<g clip-path="url(#clip0_370_263)">
<path d="M172.197 92.1816C217.852 92.7689 262.274 91.5028 307.838 99.9403C346.402 106.863 384.62 117.751 422.236 132.532C490.856 160.302 556.309 204.044 616.325 262.241C679.967 323.55 737.511 402.995 787.53 488.765C812.869 531.788 835.447 578.47 854.951 628.162C870.422 668.032 884.943 716.049 883.972 763.442C883.664 778.399 868.568 784.034 864.481 769.718C852.775 728.7 841.559 688.361 826.813 649.595C808.181 600.565 784.842 556.055 760.304 513.819C712.292 430.325 656.944 357.527 595.856 297.526C539.387 243.339 477.952 202.475 413.599 176.298C376.783 161.288 339.388 149.852 301.638 142.058C258.85 132.947 215.115 122.494 172.05 118.108C160.834 116.971 160.606 92.0523 172.18 92.2032L172.197 92.1816Z" fill="#1D1D1B"/>
<path d="M177.872 190.565C145.223 180.522 113.773 160.711 81.5105 147.888C67.7973 142.515 53.9027 138.303 39.8894 135.269C27.3523 132.494 12.7332 135.124 3.34351 120.232C2.48973 118.929 1.81696 117.373 1.36621 115.659C0.915459 113.944 0.696202 112.107 0.721441 110.258C0.74668 108.41 1.01603 106.588 1.51317 104.904C2.01032 103.221 2.72469 101.71 3.61327 100.463C20.9241 76.7563 63.7755 101.304 83.4838 109.515C117.636 123.744 153.547 142.139 184.559 168.54C193.504 176.158 186.518 193.227 177.872 190.565V190.565Z" fill="#1D1D1B"/>
<path d="M192.253 12.1496C183.091 29.4664 168.258 38.0493 155.657 48.3025C137.05 63.4426 117.846 77.3488 98.4114 89.7895C81.9243 100.404 64.9108 108.971 47.5338 115.409C33.6753 120.49 12.6634 128.825 2.32033 109.369C1.08055 107.451 0.29616 104.947 0.0933842 102.261C-0.109391 99.5749 0.281115 96.8619 1.20215 94.5579C8.88146 77.7637 22.3264 79.935 34.499 77.0417C53.939 71.5643 72.9259 62.8024 91.1142 50.9157C108.86 40.1668 126.279 28.1894 143.941 17.1334C157.382 8.71204 173.116 -2.53252 187.878 0.522436C191.078 1.17976 194.983 6.98797 192.249 12.1604L192.253 12.1496Z" fill="#1D1D1B"/>
</g>
<defs>
<clipPath id="clip0_370_263">
<rect width="884" height="778" fill="white" transform="matrix(-1 0 0 1 884 0)"/>
</clipPath>
</defs>
</svg>
