<svg width="180" height="180" viewBox="0 0 180 180" fill="none" xmlns="http://www.w3.org/2000/svg">
<path d="M66.8436 56.4617C46.5272 56.5116 29.7614 65.7351 27.1268 77.6479C27.1853 77.8458 27.2457 78.0503 27.3062 78.2549C30.4402 89.8545 47.0209 98.6709 66.9801 98.6261C86.9393 98.5813 103.473 89.6632 106.548 78.0508C106.602 77.8481 106.655 77.6387 106.697 77.4399C103.969 65.5408 87.1581 56.4051 66.8436 56.4617ZM81.8892 73.8958C81.8923 74.1779 81.8724 74.4597 81.8297 74.7384C81.1451 79.3887 74.7282 83.0428 66.9146 83.0635C59.1011 83.0842 52.656 79.4578 51.9515 74.8164C51.9106 74.5375 51.8897 74.2559 51.889 73.974C51.885 73.7649 51.895 73.5558 51.9192 73.3481C51.8941 73.1419 51.8831 72.9342 51.8862 72.7265C51.8898 71.8593 52.0881 71.0039 52.4665 70.2235V70.2235C54.2482 66.3969 60.0244 63.5849 66.8844 63.5662C73.7444 63.5475 79.5327 66.335 81.3345 70.1499C81.7 70.9325 81.8862 71.7867 81.8798 72.6503C81.8817 72.8594 81.8716 73.0684 81.8495 73.2762C81.876 73.4817 81.8893 73.6887 81.8892 73.8958V73.8958Z" fill="#DDA94E"/>
<path d="M81.8889 73.896C81.892 74.178 81.872 74.4598 81.8294 74.7386C81.1447 79.3888 74.7279 83.0429 66.9143 83.0637C59.1007 83.0844 52.6557 79.458 51.9511 74.8166C51.9102 74.5376 51.8894 74.2561 51.8887 73.9742C51.8846 73.7651 51.8947 73.556 51.9189 73.3483C51.936 73.4197 51.9568 73.4902 51.9813 73.5594C52.6858 78.2008 59.1224 81.8225 66.9445 81.8065C74.7666 81.7904 81.175 78.1316 81.8596 73.4814C81.8731 73.4057 81.88 73.3319 81.8888 73.2647C81.9026 73.4749 81.9026 73.6858 81.8889 73.896V73.896Z" fill="#CB9A4B"/>
<path d="M81.88 72.6504C81.882 72.8594 81.8718 73.0684 81.8498 73.2763C81.7654 72.6287 81.5792 71.9985 81.2979 71.4091V71.4091C79.4961 67.5942 73.7079 64.8067 66.8479 64.8254C59.9879 64.8441 54.2117 67.656 52.43 71.4827C52.1524 72.0734 51.9733 72.7055 51.8997 73.354C51.8746 73.1478 51.8635 72.9401 51.8667 72.7324C51.8756 71.8616 52.0807 71.0041 52.4667 70.2235V70.2235C54.2484 66.3969 60.0246 63.585 66.8847 63.5663C73.7447 63.5476 79.5329 66.335 81.3348 70.15C81.7002 70.9325 81.8865 71.7867 81.88 72.6504V72.6504Z" fill="#CB9A4B"/>
<path d="M106.839 76.6088C106.794 76.8946 106.739 77.1692 106.67 77.4476C103.969 65.5408 87.1581 56.4051 66.8436 56.4616C46.5291 56.5181 29.7613 65.7351 27.1267 77.6478C27.0468 77.3773 26.9998 77.097 26.9529 76.8168C28.9894 64.5069 46.0595 54.8562 66.8419 54.8049C87.6242 54.7536 104.745 64.307 106.839 76.6088Z" fill="#EAB259"/>
<path d="M107.047 79.1084C107.088 92.5978 89.1648 103.562 66.9471 103.636C44.7295 103.71 26.7709 92.804 26.7583 79.3134C26.7544 78.4772 26.8195 77.6421 26.953 76.8167C29.0443 89.1118 46.1714 98.6851 66.9537 98.6337C87.7361 98.5824 104.804 88.9252 106.839 76.6087C106.977 77.4347 107.047 78.2708 107.047 79.1084V79.1084Z" fill="#CB9A4B"/>
<path d="M103.562 73.7245C103.671 73.681 103.792 73.673 103.906 73.7016C105.482 74.0322 106.138 73.8023 105.765 73.0014C105.742 72.9223 105.68 72.7112 105.531 72.3534C104.299 69.1306 97.7469 54.997 67.4963 54.7618C34.1578 54.4922 31.9299 66.2273 27.6343 71.3063C26.6685 72.5427 26.1108 74.0487 26.0384 75.616C25.8379 78.4086 26.8664 81.3545 29.1849 82.4269C32.8445 84.1288 37.801 80.6552 38.5574 83.4089C38.64 83.7301 38.6913 84.0584 38.7109 84.3894C38.7864 85.4217 38.6615 86.6495 38.6149 87.8757L38.6266 87.9153C38.5518 90.0896 38.7624 92.2585 40.9263 93.269C44.6818 95.0287 51.3475 89.8375 53.3 90.1572C55.2526 90.4769 58.5309 98.3895 62.2999 99.1265C66.0689 99.8635 65.7911 90.5978 67.5756 89.7906C69.3601 88.9834 78.3267 98.0343 81.2775 96.9254C84.2283 95.8166 82.912 87.6973 83.5549 86.7899C84.1978 85.8824 95.0462 91.4214 96.5003 88.7677C97.9543 86.1141 96.1856 83.552 100.246 84.7409C104.306 85.9298 105.206 80.6709 104.941 79.0488C104.71 77.5605 102.756 74.1061 103.562 73.7245ZM55.6591 70.5637C55.6527 67.7749 61.1256 65.4902 67.8723 65.4763C74.6189 65.4624 80.097 67.7102 80.1088 70.4687C80.1106 70.7106 80.0698 70.9509 79.9885 71.1786C80.0643 71.398 80.1056 71.6278 80.1109 71.8598C80.1107 74.6506 74.651 76.9314 67.8977 76.9472C61.1445 76.963 55.673 74.7133 55.6612 71.9548C55.66 71.7162 55.699 71.4791 55.7768 71.2535C55.6985 71.0319 55.6588 70.7986 55.6591 70.5637V70.5637Z" fill="#F38EBB"/>
<path d="M80.0815 70.8146C80.0608 70.949 80.0278 71.0812 79.983 71.2096C79.1602 68.741 74.0483 66.8585 67.8821 66.8945C61.7159 66.9306 56.5926 68.7962 55.7864 71.2872C55.7355 71.1639 55.6976 71.0356 55.6733 70.9045C56.0216 68.2476 61.341 66.1231 67.8834 66.0978C74.4258 66.0726 79.7135 68.1614 80.0815 70.8146Z" fill="#E080AD"/>
<path d="M80.1029 70.5C80.1065 70.6054 80.0992 70.7109 80.0811 70.8149C79.7131 68.1617 74.3676 66.0469 67.8706 66.0802C61.3736 66.1136 56.0352 68.2222 55.6606 70.8869C55.641 70.7832 55.6315 70.6779 55.6322 70.5724C55.6258 67.7836 61.0987 65.499 67.8454 65.4851C74.592 65.4712 80.0965 67.7112 80.1029 70.5Z" fill="#F38EBB"/>
<path d="M47.6344 69.9226C47.4484 69.9228 47.2673 69.8631 47.1178 69.7525C46.4999 69.3256 45.7785 69.0729 45.0292 69.021V69.021C44.3215 69.1016 43.6244 69.2571 42.9496 69.485C42.8382 69.532 42.7182 69.5554 42.5973 69.5536C42.4763 69.5519 42.357 69.5251 42.247 69.4749C42.1369 69.4247 42.0386 69.3521 41.958 69.2619C41.8775 69.1717 41.8166 69.0657 41.7791 68.9507C41.7416 68.8357 41.7284 68.7142 41.7403 68.5939C41.7523 68.4735 41.7891 68.3569 41.8484 68.2515C41.9077 68.1461 41.9882 68.0542 42.0849 67.9815C42.1816 67.9089 42.2923 67.8571 42.41 67.8294C43.2751 67.5486 44.1685 67.364 45.0739 67.2789C46.1896 67.3348 47.2659 67.7087 48.1759 68.3565C48.3327 68.4614 48.451 68.6146 48.5128 68.7928C48.5746 68.971 48.5765 69.1645 48.5184 69.344C48.4603 69.5235 48.3452 69.679 48.1907 69.7872C48.0361 69.8953 47.8505 69.9501 47.662 69.9432L47.6344 69.9226Z" fill="#8E542D"/>
<path d="M45.4203 65.534C45.2326 65.5342 45.0502 65.472 44.9017 65.3572C44.2815 64.9329 43.5585 64.6832 42.8085 64.6343V64.6343C42.1008 64.7148 41.4037 64.8704 40.7289 65.0983C40.6175 65.1453 40.4975 65.1687 40.3766 65.1669C40.2556 65.1652 40.1364 65.1384 40.0264 65.0881C39.9163 65.0379 39.8179 64.9654 39.7374 64.8752C39.6568 64.785 39.5959 64.679 39.5584 64.564C39.5209 64.449 39.5077 64.3275 39.5196 64.2071C39.5316 64.0868 39.5684 63.9702 39.6277 63.8648C39.687 63.7594 39.7675 63.6675 39.8642 63.5948C39.9609 63.5221 40.0717 63.4703 40.1894 63.4427C41.0544 63.1619 41.9478 62.9773 42.8532 62.8921C43.9669 62.9499 45.0415 63.3211 45.9533 63.9632C46.1052 64.0708 46.2188 64.2241 46.2775 64.4008C46.3361 64.5774 46.3368 64.7683 46.2795 64.9454C46.2221 65.1225 46.1096 65.2767 45.9585 65.3854C45.8074 65.4941 45.6255 65.5517 45.4394 65.5498L45.4203 65.534Z" fill="#E76924"/>
<path d="M86.9875 66.7508C86.8 66.7496 86.6173 66.6909 86.4643 66.5826C85.8476 66.1532 85.1255 65.9003 84.3757 65.8511C83.6658 65.9321 82.9664 66.0883 82.2895 66.317C82.0762 66.366 81.8523 66.3331 81.6621 66.2249C81.4719 66.1168 81.3293 65.9412 81.2623 65.7329C81.1953 65.5246 81.2089 65.2987 81.3004 65.1C81.3919 64.9012 81.5547 64.744 81.7565 64.6595C82.6216 64.3787 83.515 64.1941 84.4204 64.109C85.5355 64.1675 86.6111 64.5412 87.5223 65.1866C87.6791 65.2915 87.7974 65.4447 87.8592 65.6229C87.921 65.8011 87.923 65.9946 87.8649 66.1741C87.8068 66.3536 87.6917 66.5091 87.5372 66.6173C87.3826 66.7254 87.197 66.7802 87.0084 66.7733L86.9875 66.7508Z" fill="#5B9741"/>
<path d="M89.0889 84.3725C88.9278 84.2774 88.8004 84.1345 88.7242 83.9637C88.3982 83.2857 87.8954 82.7081 87.2688 82.2919V82.2919C86.6159 82.0074 85.933 81.7977 85.2331 81.6668C85.1136 81.6513 84.9987 81.6113 84.8954 81.5493C84.7922 81.4873 84.7029 81.4046 84.6331 81.3064C84.5633 81.2082 84.5146 81.0967 84.49 80.9788C84.4654 80.8609 84.4654 80.7392 84.4901 80.6213C84.5147 80.5034 84.5636 80.3918 84.6334 80.2937C84.7032 80.1956 84.7925 80.1129 84.8958 80.051C84.9991 79.989 85.1141 79.9491 85.2335 79.9337C85.353 79.9183 85.4744 79.9277 85.59 79.9615C86.4799 80.143 87.3459 80.4263 88.1711 80.8056C89.1132 81.4042 89.8642 82.2603 90.3349 83.2725C90.4004 83.4398 90.4127 83.6234 90.3701 83.798C90.3275 83.9726 90.232 84.1298 90.0968 84.2482C89.9616 84.3667 89.7931 84.4405 89.6144 84.4597C89.4357 84.4788 89.2554 84.4424 89.0982 84.3554L89.0889 84.3725Z" fill="#5B9741"/>
<path d="M60.0747 61.5972C59.9821 61.5436 59.908 61.4628 59.8628 61.3657C59.6782 60.979 59.3924 60.6495 59.0357 60.4121V60.4121C58.6608 60.2436 58.2677 60.1191 57.8643 60.0409C57.7986 60.0281 57.7361 60.002 57.6808 59.9644C57.6254 59.9267 57.5783 59.8783 57.5422 59.8219C57.506 59.7655 57.4817 59.7024 57.4707 59.6363C57.4597 59.5703 57.4622 59.5027 57.478 59.4377C57.4891 59.3711 57.514 59.3076 57.5509 59.2511C57.5878 59.1946 57.636 59.1464 57.6925 59.1095C57.749 59.0725 57.8126 59.0477 57.8791 59.0366C57.9457 59.0254 58.0138 59.0282 58.0793 59.0447C58.5878 59.1505 59.083 59.3121 59.556 59.5266C60.088 59.8781 60.5101 60.3725 60.7739 60.953C60.8174 61.0489 60.8291 61.1562 60.8075 61.2593C60.7859 61.3623 60.732 61.4558 60.6536 61.5262C60.5752 61.5965 60.4765 61.6401 60.3717 61.6505C60.2669 61.6609 60.1615 61.6376 60.0708 61.584L60.0747 61.5972Z" fill="#E76924"/>
<path d="M54.7816 66.139C54.6867 66.0881 54.612 66.0065 54.5696 65.9075C54.3838 65.5193 54.0976 65.1877 53.7406 64.9473V64.9473C53.3647 64.7815 52.9719 64.657 52.5692 64.5761C52.4375 64.5482 52.3223 64.4692 52.2487 64.3565C52.175 64.2438 52.149 64.1066 52.1763 63.9748C52.1891 63.9091 52.2152 63.8466 52.2528 63.7913C52.2905 63.7359 52.3389 63.6887 52.3953 63.6526C52.4517 63.6165 52.5147 63.5922 52.5808 63.5812C52.6468 63.5702 52.7145 63.5726 52.7795 63.5885C53.2909 63.6903 53.7887 63.8513 54.2629 64.0683C54.7997 64.414 55.228 64.9041 55.4986 65.4823C55.5374 65.578 55.5457 65.6834 55.5225 65.784C55.4992 65.8846 55.4454 65.9756 55.3686 66.0446C55.2917 66.1136 55.1955 66.1572 55.0929 66.1695C54.9904 66.1818 54.8865 66.1622 54.7955 66.1134L54.7816 66.139Z" fill="#E76924"/>
<path d="M52.9624 60.1553C52.857 60.149 52.7552 60.1147 52.6676 60.0559C52.312 59.8114 51.8977 59.6664 51.4673 59.6358V59.6358C51.0616 59.68 50.6621 59.7692 50.2761 59.9018C50.15 59.941 50.0136 59.9289 49.8963 59.8683C49.779 59.8076 49.6903 59.7032 49.6494 59.5776C49.6292 59.5157 49.6214 59.4505 49.6265 59.3856C49.6315 59.3207 49.6492 59.2575 49.6787 59.1995C49.7082 59.1414 49.7489 59.0898 49.7984 59.0475C49.8478 59.0052 49.9051 58.973 49.967 58.9529C50.4623 58.7885 50.9752 58.6827 51.4952 58.6376C52.1325 58.6743 52.7469 58.8876 53.2699 59.2537C53.3732 59.3329 53.4413 59.4496 53.4592 59.5785C53.4772 59.7075 53.4436 59.8383 53.3659 59.9427C53.3198 60.0071 53.2593 60.0598 53.1893 60.0967C53.1193 60.1336 53.0415 60.1537 52.9624 60.1553V60.1553Z" fill="#5B9741"/>
<path d="M72.8368 59.3392C72.9222 59.2745 72.9836 59.1832 73.0112 59.0797C73.1387 58.6702 73.3748 58.3029 73.6943 58.0169V58.0169C74.0396 57.7999 74.4087 57.6234 74.7943 57.4909C74.8555 57.4683 74.9116 57.4338 74.9594 57.3894C75.0072 57.345 75.0459 57.2916 75.073 57.2322C75.1001 57.1729 75.1152 57.1088 75.1175 57.0436C75.1198 56.9784 75.1092 56.9133 75.0862 56.8522C75.0403 56.7281 74.9472 56.6271 74.8273 56.5712C74.7073 56.5153 74.5702 56.509 74.4456 56.5537C73.9592 56.7344 73.4942 56.9681 73.0589 57.2505C72.5796 57.6718 72.2268 58.2182 72.0402 58.8286C72.0063 58.9567 72.0245 59.093 72.0907 59.2078C72.1569 59.3226 72.2657 59.4067 72.3936 59.4415C72.4702 59.4617 72.5506 59.463 72.6278 59.4451C72.7051 59.4273 72.7768 59.391 72.8368 59.3392V59.3392Z" fill="#5156A5"/>
<path d="M67.0672 62.68C67.0694 62.5721 67.11 62.4686 67.1817 62.3879C67.4423 62.0466 67.6099 61.6436 67.6682 61.2182V61.2182C67.65 60.8126 67.5864 60.4103 67.4787 60.0188C67.4415 59.8928 67.4559 59.7572 67.5186 59.6418C67.5814 59.5263 67.6874 59.4406 67.8134 59.4034C67.9393 59.3661 68.075 59.3805 68.1904 59.4432C68.3058 59.506 68.3915 59.612 68.4288 59.738C68.5657 60.2405 68.6415 60.7577 68.6545 61.2783C68.588 61.9125 68.3398 62.514 67.9397 63.0104C67.8544 63.1101 67.7336 63.1724 67.6031 63.1842C67.4725 63.196 67.3425 63.1563 67.2409 63.0735C67.1834 63.0258 67.1378 62.9655 67.1077 62.8972C67.0776 62.8289 67.0636 62.7546 67.0672 62.68V62.68Z" fill="#5156A5"/>
<path d="M64.2749 59.2012C64.184 59.1453 64.1107 59.0651 64.063 58.9697C63.8747 58.5848 63.5848 58.2587 63.2247 58.0265V58.0265C62.8471 57.8597 62.452 57.7358 62.0467 57.6573C61.9173 57.6318 61.8034 57.5559 61.73 57.4465C61.6566 57.337 61.6298 57.2028 61.6553 57.0735C61.6808 56.9442 61.7566 56.8303 61.8661 56.7569C61.9756 56.6835 62.1098 56.6566 62.2391 56.6822C62.7504 56.7803 63.249 56.9362 63.7251 57.1469C64.265 57.4886 64.6991 57.9739 64.9787 58.5484C65.0193 58.6442 65.0291 58.7502 65.0068 58.8519C64.9844 58.9535 64.9311 59.0456 64.8541 59.1156C64.7772 59.1856 64.6803 59.23 64.577 59.2426C64.4738 59.2553 64.3692 59.2355 64.2776 59.186L64.2749 59.2012Z" fill="#8E542D"/>
<path d="M79.4158 60.9895C79.5348 60.9386 79.6346 60.8513 79.7009 60.7402C79.9732 60.2944 80.362 59.9315 80.8254 59.6905V59.6905C81.2995 59.5476 81.7882 59.4585 82.2822 59.4249C82.3616 59.4179 82.4389 59.3954 82.5096 59.3585C82.5803 59.3217 82.643 59.2713 82.6943 59.2102C82.7455 59.1491 82.7842 59.0784 82.8082 59.0024C82.8321 58.9263 82.8408 58.8463 82.8339 58.7669C82.8269 58.6875 82.8043 58.6102 82.7674 58.5395C82.7306 58.4688 82.6802 58.406 82.6191 58.3548C82.558 58.3036 82.4874 58.2649 82.4113 58.2409C82.3353 58.217 82.2552 58.2083 82.1758 58.2153C81.5451 58.2686 80.9223 58.3924 80.3193 58.5846C79.6198 58.9238 79.0304 59.4536 78.6188 60.1131C78.5774 60.1816 78.55 60.2576 78.5382 60.3368C78.5264 60.4159 78.5305 60.4967 78.5501 60.5743C78.5697 60.6519 78.6044 60.7248 78.6524 60.7889C78.7003 60.853 78.7605 60.9069 78.8295 60.9475C78.9161 61.0026 79.015 61.0352 79.1174 61.0425C79.2197 61.0498 79.3223 61.0316 79.4158 60.9895V60.9895Z" fill="#8E542D"/>
<path d="M53.7197 85.8728C53.8506 85.7393 53.9331 85.5659 53.9542 85.3802C54.0852 84.6395 54.4102 83.9469 54.8962 83.3728V83.3728C55.4525 82.9159 56.0582 82.5227 56.702 82.2007C56.8031 82.1473 56.8926 82.0745 56.9655 81.9864C57.0384 81.8984 57.0932 81.7969 57.1269 81.6877C57.1606 81.5785 57.1725 81.4637 57.1618 81.3499C57.1511 81.2362 57.1181 81.1256 57.0647 81.0246C57.0112 80.9235 56.9385 80.834 56.8504 80.7611C56.7624 80.6882 56.661 80.6333 56.5517 80.5997C56.4425 80.566 56.3277 80.5542 56.2139 80.5648C56.1001 80.5755 55.9896 80.6085 55.8886 80.6619C55.0814 81.0811 54.3247 81.5912 53.6332 82.1822C52.8955 83.021 52.4116 84.0522 52.2379 85.1557C52.215 85.3371 52.2495 85.5211 52.3367 85.6819C52.4239 85.8426 52.5594 85.9719 52.7239 86.0516C52.8885 86.1313 53.0739 86.1574 53.2541 86.1262C53.4342 86.0949 53.6001 86.0079 53.7282 85.8774L53.7197 85.8728Z" fill="#8E542D"/>
<path d="M33.1195 76.0782C33.2979 76.0229 33.4537 75.9114 33.5636 75.7604C34.017 75.1635 34.6244 74.7012 35.3207 74.4233V74.4233C36.0108 74.2865 36.7135 74.2231 37.417 74.2342C37.531 74.2344 37.644 74.2121 37.7495 74.1687C37.8549 74.1252 37.9508 74.0614 38.0316 73.9809C38.1124 73.9004 38.1765 73.8048 38.2203 73.6995C38.2642 73.5942 38.2868 73.4813 38.287 73.3673C38.2873 73.2532 38.2651 73.1402 38.2216 73.0348C38.1782 72.9293 38.1144 72.8334 38.0339 72.7527C37.9533 72.6719 37.8577 72.6077 37.7524 72.5639C37.6471 72.52 37.5342 72.4974 37.4201 72.4972C36.5104 72.4905 35.6028 72.5878 34.7151 72.7872C33.6727 73.1857 32.7635 73.8696 32.0916 74.7607C31.9573 74.949 31.9031 75.1829 31.941 75.4111C31.9788 75.6392 32.1056 75.8431 32.2936 75.978C32.4115 76.0632 32.5491 76.1171 32.6936 76.1346C32.838 76.1522 32.9846 76.1327 33.1195 76.0782V76.0782Z" fill="#5B9741"/>
<path d="M96.2068 70.3966C96.0183 70.4019 95.8337 70.3425 95.6836 70.2284C95.0657 69.8015 94.3443 69.5488 93.595 69.4969V69.4969C92.8861 69.5701 92.1882 69.7258 91.5154 69.9609C91.404 70.0079 91.284 70.0313 91.1631 70.0295C91.0421 70.0278 90.9228 70.001 90.8128 69.9508C90.7028 69.9005 90.6044 69.828 90.5238 69.7378C90.4433 69.6476 90.3824 69.5416 90.3449 69.4266C90.3074 69.3116 90.2942 69.1901 90.3061 69.0697C90.3181 68.9494 90.3549 68.8328 90.4142 68.7274C90.4735 68.622 90.554 68.5301 90.6507 68.4574C90.7474 68.3848 90.8581 68.333 90.9758 68.3053C91.8399 68.0207 92.7337 67.8359 93.6397 67.7548C94.7551 67.8125 95.8317 68.183 96.7464 68.8238C96.8382 68.8921 96.9155 68.978 96.9739 69.0763C97.0324 69.1747 97.0708 69.2836 97.087 69.3969C97.1031 69.5102 97.0967 69.6255 97.068 69.7363C97.0393 69.8471 96.989 69.9511 96.92 70.0423C96.8389 70.1549 96.7315 70.246 96.6072 70.3078C96.483 70.3695 96.3455 70.4 96.2068 70.3966V70.3966Z" fill="#5B9741"/>
<path d="M47.9967 80.95C47.8336 81.0447 47.6449 81.0855 47.4572 81.0664C46.7088 81.0157 45.9607 81.1698 45.2933 81.5123V81.5123C44.7241 81.94 44.2048 82.4303 43.7453 82.9741C43.6736 83.0719 43.5824 83.1536 43.4774 83.2141C43.3724 83.2747 43.256 83.3128 43.1355 83.3259C43.015 83.339 42.8931 83.327 42.7775 83.2905C42.662 83.2539 42.5553 83.1938 42.4643 83.1138C42.3732 83.0338 42.2998 82.9358 42.2486 82.8259C42.1975 82.716 42.1698 82.5967 42.1672 82.4756C42.1647 82.3544 42.1874 82.234 42.2339 82.1221C42.2804 82.0102 42.3497 81.9092 42.4373 81.8255C43.0353 81.1416 43.7078 80.5265 44.4422 79.9918C45.4318 79.4737 46.5469 79.2436 47.6607 79.3276C47.8423 79.3476 48.0131 79.424 48.149 79.5461C48.2849 79.6682 48.3792 79.8298 48.4184 80.0083C48.4577 80.1867 48.44 80.373 48.3679 80.5408C48.2958 80.7087 48.173 80.8498 48.0165 80.9442L47.9967 80.95Z" fill="#5B9741"/>
<path d="M88.203 62.1729C88.0709 62.1744 87.9422 62.1316 87.8372 62.0514C87.4028 61.7563 86.8981 61.5812 86.3743 61.544V61.544C85.8799 61.6018 85.3931 61.7121 84.9219 61.8728C84.8436 61.9075 84.7589 61.9255 84.6732 61.9254C84.5875 61.9254 84.5028 61.9074 84.4245 61.8726C84.3462 61.8377 84.2761 61.7869 84.2188 61.7232C84.1614 61.6596 84.118 61.5846 84.0914 61.5032C84.0648 61.4218 84.0556 61.3356 84.0644 61.2504C84.0732 61.1652 84.0997 61.0827 84.1424 61.0084C84.185 60.9341 84.2427 60.8696 84.3119 60.819C84.381 60.7684 84.4601 60.7329 84.5438 60.7147C85.1492 60.5159 85.7751 60.3863 86.4096 60.3283C87.1898 60.37 87.9426 60.6297 88.5825 61.0779C88.7113 61.1752 88.7965 61.3194 88.8196 61.4792C88.8426 61.639 88.8017 61.8014 88.7055 61.9311C88.6473 62.0087 88.5712 62.0712 88.4838 62.1133C88.3963 62.1553 88.3 62.1758 88.203 62.1729V62.1729Z" fill="#E76924"/>
<path d="M94.6497 64.7157C94.5181 64.7142 94.3903 64.6718 94.2839 64.5942C93.8509 64.2964 93.3455 64.1211 92.8211 64.0868V64.0868C92.3262 64.142 91.8386 64.2501 91.3667 64.409C91.2907 64.4343 91.2104 64.4443 91.1305 64.4384C91.0505 64.4325 90.9726 64.4107 90.9012 64.3744C90.8298 64.3382 90.7662 64.2881 90.7143 64.2271C90.6623 64.166 90.623 64.0953 90.5986 64.019C90.5493 63.8654 90.5627 63.6986 90.6357 63.5548C90.7087 63.411 90.8355 63.3018 90.9885 63.2509C91.5939 63.0521 92.2198 62.9225 92.8544 62.8645C93.633 62.9054 94.3841 63.166 95.0207 63.616C95.0855 63.6631 95.1403 63.7226 95.1819 63.791C95.2235 63.8594 95.2511 63.9354 95.2632 64.0146C95.2753 64.0938 95.2715 64.1746 95.2521 64.2523C95.2327 64.33 95.1981 64.4031 95.1503 64.4673C95.0926 64.5454 95.0171 64.6087 94.9301 64.6519C94.843 64.6951 94.7469 64.717 94.6497 64.7157V64.7157Z" fill="#5156A5"/>
<path d="M46.3653 77.0124C46.5426 76.9524 46.697 76.8391 46.8075 76.688C47.2623 76.0932 47.8703 75.6333 48.5665 75.3575V75.3575C49.2561 75.2175 49.9592 75.1541 50.6628 75.1684C50.8935 75.1669 51.1143 75.0742 51.2769 74.9106C51.4396 74.7469 51.5309 74.5256 51.531 74.2948C51.5314 74.1807 51.5093 74.0676 51.4659 73.9621C51.4225 73.8565 51.3587 73.7606 51.2782 73.6798C51.1976 73.5989 51.1019 73.5348 50.9965 73.491C50.8911 73.4472 50.7782 73.4247 50.664 73.4247C49.7547 73.4209 48.8479 73.5205 47.961 73.7214C46.9151 74.1135 46.0042 74.7986 45.3375 75.6948C45.2291 75.8433 45.1707 76.0225 45.1708 76.2063C45.1709 76.3902 45.2294 76.5692 45.338 76.7176C45.4465 76.866 45.5994 76.9761 45.7746 77.0319C45.9498 77.0877 46.1382 77.0863 46.3125 77.028L46.3653 77.0124Z" fill="#5156A5"/>
<path d="M94.6111 78.2502C94.7969 78.2561 94.9796 78.2021 95.1324 78.0962C95.7489 77.6633 96.4721 77.4074 97.2237 77.3561V77.3561C97.9327 77.4329 98.6318 77.5847 99.3088 77.8088C99.4176 77.8436 99.532 77.8566 99.6458 77.8471C99.7595 77.8376 99.8703 77.8058 99.9717 77.7535C100.073 77.7012 100.163 77.6294 100.237 77.5423C100.311 77.4551 100.367 77.3543 100.401 77.2456C100.436 77.1369 100.449 77.0224 100.44 76.9086C100.43 76.7949 100.398 76.6841 100.346 76.5827C100.294 76.4812 100.222 76.391 100.135 76.3173C100.048 76.2436 99.9469 76.1878 99.8381 76.153C98.9736 75.8731 98.0801 75.6919 97.1748 75.613C96.0602 75.6802 94.9865 76.0571 94.0745 76.7014C93.9828 76.77 93.9055 76.856 93.8473 76.9546C93.789 77.0532 93.7509 77.1623 93.7351 77.2757C93.7192 77.3891 93.726 77.5046 93.755 77.6153C93.784 77.7261 93.8347 77.8301 93.9041 77.9211C93.9869 78.0287 94.0944 78.1147 94.2175 78.172C94.3405 78.2293 94.4755 78.2561 94.6111 78.2502V78.2502Z" fill="#8E542D"/>
<path d="M77.4139 86.6684C77.2822 86.5336 77.198 86.3595 77.1741 86.1725C77.0403 85.4332 76.7125 84.7428 76.2241 84.1719V84.1719C75.677 83.7196 75.0806 83.3303 74.4463 83.0114C74.2605 82.8945 74.1255 82.7118 74.0682 82.4999C74.011 82.2879 74.0356 82.0621 74.1372 81.8675C74.2389 81.6728 74.41 81.5236 74.6167 81.4495C74.8234 81.3754 75.0505 81.3818 75.2527 81.4675C76.055 81.8781 76.8089 82.3772 77.5003 82.9554C78.2452 83.7896 78.7362 84.8194 78.9155 85.9233C78.9394 86.1043 78.906 86.2882 78.82 86.4493C78.734 86.6103 78.5998 86.7404 78.4361 86.8212C78.2724 86.902 78.0875 86.9296 77.9073 86.8999C77.7272 86.8703 77.5609 86.785 77.4318 86.6559L77.4139 86.6684Z" fill="#8E542D"/>
<path d="M86.9937 75.8518C86.8128 75.7991 86.6553 75.6862 86.5475 75.5317C86.0839 74.9395 85.4707 74.4817 84.7711 74.2058V74.2058C84.0732 74.0666 83.362 74.0049 82.6506 74.0218C82.5334 74.0269 82.4164 74.0083 82.3065 73.9671C82.1966 73.926 82.0961 73.8631 82.011 73.7823C81.926 73.7015 81.8581 73.6044 81.8114 73.4967C81.7647 73.3891 81.7401 73.2732 81.7392 73.1558C81.7383 73.0385 81.7609 72.9222 81.8059 72.8138C81.8509 72.7055 81.9172 72.6073 82.001 72.5251C82.0847 72.443 82.1842 72.3785 82.2934 72.3356C82.4026 72.2927 82.5193 72.2723 82.6366 72.2755C83.5455 72.2641 84.4527 72.3596 85.3393 72.56C86.3856 72.9526 87.3 73.6321 87.9777 74.5207C88.0447 74.6135 88.0927 74.7185 88.1189 74.8299C88.1451 74.9413 88.1489 75.0568 88.1302 75.1697C88.1116 75.2826 88.0708 75.3906 88.0102 75.4877C87.9496 75.5847 87.8703 75.6688 87.777 75.7351C87.6658 75.8169 87.5364 75.8704 87.3998 75.8907C87.2633 75.9111 87.1239 75.8977 86.9937 75.8518V75.8518Z" fill="#E76924"/>
<path d="M68.745 85.471C68.5783 85.3819 68.4473 85.2383 68.3737 85.0642C68.0496 84.3873 67.5471 83.8116 66.9202 83.3989V83.3989C66.2643 83.1171 65.5795 82.9081 64.878 82.7757C64.6668 82.7141 64.4866 82.5751 64.3734 82.3864C64.2602 82.1977 64.2224 81.9733 64.2674 81.758C64.3125 81.5426 64.4372 81.3522 64.6165 81.2247C64.7959 81.0973 65.0167 81.0422 65.2348 81.0705C66.1257 81.25 66.9931 81.5304 67.8205 81.9061C68.7582 82.5134 69.5082 83.3698 69.9864 84.3795C70.0519 84.5469 70.0642 84.7304 70.0216 84.905C69.979 85.0796 69.8836 85.2369 69.7483 85.3553C69.6131 85.4737 69.4446 85.5475 69.2659 85.5667C69.0872 85.5859 68.907 85.5494 68.7497 85.4624L68.745 85.471Z" fill="#5156A5"/>
<path d="M114.12 78.1873C93.8054 78.2438 77.0376 87.4608 74.3964 99.3754C74.4569 99.5799 74.5173 99.7845 74.5778 99.989C77.7099 111.582 94.2924 120.405 114.25 120.354C134.207 120.302 150.744 111.397 153.819 99.785C153.872 99.5756 153.927 99.3729 153.973 99.1655C151.255 87.2994 134.442 78.1571 114.12 78.1873ZM129.167 95.6281C129.164 95.9098 129.144 96.1912 129.108 96.4706C128.421 101.114 122.006 104.775 114.184 104.791C106.362 104.807 99.9341 101.19 99.221 96.544C99.18 96.2673 99.1598 95.9879 99.1605 95.7082C99.1596 95.4983 99.172 95.2886 99.1974 95.0803C99.1667 94.8752 99.1535 94.668 99.1577 94.4607C99.1565 93.5937 99.3496 92.7375 99.7229 91.9549V91.9549C101.465 88.14 107.279 85.3098 114.132 85.2931C120.986 85.2763 126.787 88.0598 128.584 91.8833C128.958 92.6636 129.154 93.5173 129.158 94.3826C129.162 94.5895 129.152 94.7965 129.126 95.0018C129.153 95.2162 129.169 95.4318 129.173 95.6479L129.167 95.6281Z" fill="#DDA94E"/>
<path d="M129.174 95.6483C129.17 95.93 129.151 96.2114 129.114 96.4908C128.428 101.134 122.013 104.795 114.191 104.811C106.369 104.827 99.9406 101.21 99.2275 96.5642C99.1866 96.2875 99.1663 96.0081 99.1671 95.7284C99.1661 95.5185 99.1785 95.3088 99.2039 95.1005L99.2248 95.3167C99.9379 99.9628 106.368 103.586 114.188 103.564C122.008 103.541 128.425 99.887 129.112 95.2434L129.132 95.022C129.157 95.2299 129.171 95.4389 129.174 95.6483V95.6483Z" fill="#CB9A4B"/>
<path d="M129.197 94.3923C129.202 94.5992 129.191 94.8062 129.165 95.0116C129.084 94.3632 128.898 93.7324 128.613 93.1444V93.1444C126.816 89.3209 121.021 86.5354 114.161 86.5541C107.301 86.5728 101.525 89.3848 99.7516 93.216C99.4701 93.8074 99.2916 94.4425 99.2234 95.0939C99.1927 94.8889 99.1795 94.6816 99.1837 94.4743C99.1825 93.6073 99.3755 92.7511 99.7488 91.9686V91.9686C101.491 88.1537 107.305 85.3234 114.158 85.3067C121.012 85.2899 126.813 88.0735 128.61 91.897C128.988 92.675 129.189 93.5273 129.197 94.3923V94.3923Z" fill="#CB9A4B"/>
<path d="M154.115 98.3567C154.068 98.6359 154.013 98.9105 153.951 99.187C151.256 87.2999 134.443 78.1576 114.12 78.1877C93.7981 78.2179 77.0381 87.4612 74.3969 99.3759C74.317 99.1054 74.2786 98.8298 74.2316 98.5495C76.2616 86.2416 93.3316 76.5909 114.112 76.533C134.892 76.4751 152.021 86.0549 154.115 98.3567Z" fill="#EAB259"/>
<path d="M154.331 100.86C154.363 114.345 136.447 125.308 114.229 125.381C92.0117 125.455 74.0551 114.556 74.0425 101.065C74.0376 100.228 74.105 99.3922 74.2438 98.5667C76.3352 110.862 93.4536 120.43 114.236 120.379C135.018 120.328 152.088 110.677 154.123 98.3606C154.261 99.1867 154.33 100.023 154.331 100.86V100.86Z" fill="#CB9A4B"/>
<path d="M150.844 95.4706C150.953 95.4304 151.072 95.4254 151.184 95.4561C152.758 95.7802 153.416 95.5569 153.05 94.7541C153.026 94.6749 152.962 94.4572 152.818 94.1409C151.586 90.9181 145.041 76.7826 114.79 76.5474C81.4454 76.2797 79.2155 88.0083 74.9199 93.0872C73.9608 94.3274 73.4039 95.8312 73.324 97.397C73.1235 100.19 74.1519 103.135 76.4724 104.214C80.1366 105.908 85.0865 102.436 85.8515 105.195C85.933 105.514 85.9837 105.84 86.003 106.168C86.0719 107.203 85.9536 108.429 85.9005 109.657L85.9122 109.696C85.8374 111.871 86.0545 114.037 88.2118 115.05C91.979 116.849 98.6331 111.618 100.586 111.938C102.538 112.258 105.825 120.175 109.587 120.914C113.35 121.653 113.128 112.335 114.928 111.53C116.728 110.726 125.677 119.767 128.628 118.659C131.579 117.55 130.262 109.43 130.912 108.521C131.561 107.612 142.405 113.159 143.857 110.499C145.309 107.839 143.536 105.285 147.605 106.479C151.674 107.672 152.556 102.404 152.3 100.787C151.984 99.2802 150.034 95.8607 150.844 95.4706ZM102.943 92.3163C102.935 89.5209 108.403 87.2448 115.148 87.2243C121.893 87.2038 127.373 89.4582 127.385 92.2167C127.387 92.4554 127.348 92.6927 127.269 92.918C127.343 93.1382 127.383 93.3688 127.385 93.6012C127.393 96.3966 121.925 98.6727 115.18 98.6932C108.435 98.7137 102.947 96.4547 102.944 93.7008C102.945 93.4612 102.986 93.2234 103.066 92.9975C102.987 92.7789 102.946 92.5486 102.943 92.3163V92.3163Z" fill="#6B3C1B"/>
<path d="M127.36 92.5684C127.339 92.6995 127.308 92.8287 127.266 92.9548C126.437 90.4882 121.327 88.6122 115.159 88.6417C108.991 88.6711 103.876 90.5414 103.07 93.0324C103.021 92.9057 102.983 92.7756 102.955 92.6431C103.309 89.9843 108.629 87.8598 115.167 87.843C121.704 87.8263 126.997 89.9066 127.36 92.5684Z" fill="#E080AD"/>
<path d="M127.381 92.2533C127.385 92.3587 127.378 92.4643 127.36 92.5682C126.996 89.9065 121.646 87.8002 115.156 87.8316C108.665 87.863 103.318 89.967 102.944 92.6317C102.926 92.5294 102.92 92.4255 102.924 92.3219C102.916 89.5265 108.384 87.2503 115.129 87.2299C121.873 87.2094 127.373 89.4579 127.381 92.2533Z" fill="#F38EBB"/>
<path d="M94.9203 91.6746C94.7313 91.6728 94.5476 91.6117 94.3952 91.4998C93.7794 91.0712 93.0574 90.8204 92.3085 90.7749V90.7749C91.6007 90.855 90.9036 91.0105 90.2289 91.2389C90.1172 91.2857 89.9971 91.3087 89.8761 91.3066C89.7551 91.3045 89.6358 91.2772 89.5259 91.2266C89.4159 91.176 89.3177 91.1031 89.2374 91.0125C89.1572 90.9219 89.0966 90.8156 89.0596 90.7004C89.0225 90.5852 89.0098 90.4635 89.0223 90.3431C89.0347 90.2227 89.072 90.1062 89.1319 90.001C89.1917 89.8958 89.2727 89.8042 89.3698 89.732C89.4669 89.6597 89.578 89.6084 89.696 89.5814C90.5578 89.2974 91.4494 89.1133 92.3532 89.0328C93.4685 89.0909 94.545 89.4614 95.4599 90.1018C95.6118 90.2094 95.7254 90.3628 95.7841 90.5394C95.8427 90.7161 95.8434 90.9069 95.7861 91.084C95.7287 91.2612 95.6163 91.4153 95.4652 91.524C95.3141 91.6328 95.1321 91.6904 94.946 91.6885L94.9203 91.6746Z" fill="#8E542D"/>
<path d="M92.7019 87.2794C92.5135 87.2847 92.3288 87.2254 92.1787 87.1112C91.5608 86.6843 90.8394 86.4316 90.0901 86.3797V86.3797C89.3812 86.4529 88.6832 86.6087 88.0104 86.8437C87.899 86.8907 87.779 86.9141 87.6581 86.9124C87.5372 86.9106 87.4179 86.8838 87.3079 86.8336C87.1979 86.7834 87.0995 86.7108 87.0189 86.6206C86.9384 86.5304 86.8775 86.4244 86.84 86.3094C86.8025 86.1944 86.7893 86.0729 86.8013 85.9526C86.8132 85.8322 86.8499 85.7157 86.9092 85.6102C86.9685 85.5048 87.0491 85.4129 87.1458 85.3402C87.2425 85.2676 87.3532 85.2158 87.471 85.1881C88.335 84.9035 89.2287 84.7188 90.1348 84.6376C91.2501 84.6954 92.3267 85.0658 93.2414 85.7066C93.3332 85.775 93.4106 85.8608 93.469 85.9591C93.5275 86.0575 93.5659 86.1665 93.582 86.2797C93.5981 86.393 93.5917 86.5084 93.563 86.6191C93.5344 86.7299 93.4841 86.8339 93.415 86.9252C93.3339 87.0377 93.2266 87.1288 93.1024 87.1906C92.9781 87.2523 92.8407 87.2828 92.7019 87.2794V87.2794Z" fill="#E76924"/>
<path d="M134.266 88.5049C134.078 88.5026 133.897 88.4407 133.747 88.3281C133.13 87.9014 132.409 87.6508 131.66 87.6033V87.6033C130.953 87.6838 130.256 87.8393 129.581 88.0672C129.469 88.1143 129.349 88.1377 129.228 88.1359C129.108 88.1342 128.988 88.1073 128.878 88.0571C128.768 88.0069 128.67 87.9344 128.589 87.8442C128.509 87.754 128.448 87.648 128.41 87.533C128.373 87.418 128.36 87.2965 128.372 87.1761C128.383 87.0558 128.42 86.9392 128.48 86.8338C128.539 86.7284 128.619 86.6364 128.716 86.5638C128.813 86.4911 128.924 86.4393 129.041 86.4117C129.905 86.1273 130.799 85.9425 131.705 85.8611C132.819 85.9189 133.893 86.2901 134.805 86.9321C134.897 86.9999 134.975 87.0853 135.034 87.1832C135.093 87.2812 135.132 87.3899 135.148 87.5029C135.165 87.616 135.159 87.7312 135.131 87.8421C135.103 87.9529 135.054 88.0571 134.985 88.1487C134.902 88.2605 134.793 88.351 134.668 88.4129C134.543 88.4747 134.405 88.5063 134.266 88.5049V88.5049Z" fill="#5B9741"/>
<path d="M136.372 106.118C136.207 106.027 136.077 105.884 136.001 105.711C135.677 105.035 135.174 104.459 134.547 104.046V104.046C133.89 103.765 133.205 103.554 132.503 103.416C132.292 103.355 132.112 103.216 131.998 103.027C131.885 102.838 131.847 102.614 131.892 102.399C131.938 102.183 132.062 101.993 132.242 101.865C132.421 101.738 132.642 101.683 132.86 101.711C133.751 101.893 134.619 102.176 135.447 102.553C136.386 103.159 137.136 104.016 137.613 105.027C137.679 105.194 137.691 105.378 137.649 105.552C137.606 105.727 137.511 105.884 137.375 106.003C137.24 106.121 137.072 106.195 136.893 106.214C136.714 106.233 136.534 106.197 136.377 106.11L136.372 106.118Z" fill="#5B9741"/>
<path d="M107.353 83.3509C107.262 83.2963 107.19 83.2147 107.148 83.1174C106.961 82.7281 106.673 82.3969 106.312 82.1591V82.1591C105.937 81.9915 105.544 81.867 105.141 81.7879C105.077 81.7743 105.016 81.7482 104.963 81.7112C104.909 81.6742 104.863 81.6269 104.827 81.5721C104.792 81.5173 104.768 81.4561 104.756 81.3919C104.744 81.3277 104.745 81.2617 104.758 81.1979C104.772 81.134 104.798 81.0735 104.835 81.0197C104.872 80.9659 104.919 80.92 104.974 80.8845C105.029 80.849 105.09 80.8246 105.154 80.8128C105.219 80.8009 105.285 80.8018 105.348 80.8155C105.858 80.9184 106.353 81.08 106.825 81.2973C107.362 81.6391 107.79 82.1274 108.059 82.7047C108.086 82.7642 108.1 82.8283 108.102 82.8935C108.104 82.9587 108.093 83.0236 108.07 83.0845C108.046 83.1453 108.011 83.201 107.966 83.2483C107.921 83.2956 107.868 83.3335 107.808 83.36C107.737 83.3943 107.659 83.4114 107.58 83.4098C107.501 83.4082 107.423 83.388 107.353 83.3509V83.3509Z" fill="#E76924"/>
<path d="M102.058 87.8867C101.967 87.8321 101.895 87.7505 101.852 87.6532C101.667 87.2656 101.378 86.9364 101.019 86.7015V86.7015C100.643 86.5339 100.25 86.4094 99.8472 86.3303C99.7273 86.2936 99.6255 86.2134 99.5617 86.1054C99.4979 85.9975 99.4768 85.8695 99.5025 85.7468C99.5283 85.6241 99.5992 85.5154 99.701 85.4422C99.8028 85.369 99.9283 85.3366 100.053 85.3513C100.561 85.457 101.057 85.6186 101.53 85.8331C102.069 86.1758 102.498 86.6667 102.765 87.247C102.792 87.307 102.807 87.3718 102.808 87.4374C102.81 87.5031 102.798 87.5685 102.774 87.6296C102.75 87.6908 102.714 87.7466 102.668 87.7937C102.623 87.8409 102.568 87.8785 102.508 87.9043C102.436 87.9366 102.359 87.9518 102.281 87.9487C102.202 87.9457 102.126 87.9244 102.058 87.8867V87.8867Z" fill="#E76924"/>
<path d="M100.245 81.9008C100.137 81.9027 100.031 81.8684 99.9437 81.8033C99.5934 81.5557 99.1804 81.4117 98.752 81.3879V81.3879C98.3491 81.4347 97.9521 81.5232 97.5674 81.6519C97.5051 81.6704 97.4397 81.6763 97.375 81.6695C97.3103 81.6627 97.2475 81.6432 97.1904 81.6121C97.1332 81.581 97.0827 81.539 97.0418 81.4884C97.0009 81.4378 96.9704 81.3797 96.9519 81.3173C96.9335 81.2549 96.9275 81.1895 96.9344 81.1248C96.9412 81.0601 96.9608 80.9974 96.9918 80.9403C97.0229 80.8831 97.065 80.8327 97.1156 80.7917C97.1661 80.7508 97.2243 80.7203 97.2867 80.7019C97.7799 80.5384 98.2905 80.4332 98.8082 80.3885C99.4454 80.4173 100.061 80.6289 100.581 80.9981C100.666 81.0595 100.73 81.1466 100.763 81.2467C100.796 81.3467 100.795 81.4546 100.763 81.5547C100.73 81.6547 100.666 81.7417 100.58 81.803C100.495 81.8644 100.392 81.8968 100.287 81.8957L100.245 81.9008Z" fill="#5B9741"/>
<path d="M120.116 81.0933C120.198 81.0249 120.258 80.9349 120.291 80.8337C120.414 80.4207 120.649 80.0503 120.972 79.7643V79.7643C121.318 79.548 121.686 79.3695 122.07 79.2318C122.131 79.2094 122.187 79.1753 122.235 79.1312C122.283 79.0871 122.322 79.034 122.35 78.975C122.377 78.9159 122.393 78.8519 122.396 78.7868C122.398 78.7217 122.388 78.6567 122.366 78.5954C122.344 78.5342 122.309 78.478 122.265 78.43C122.221 78.3819 122.168 78.3431 122.109 78.3156C122.05 78.2881 121.986 78.2725 121.921 78.2697C121.856 78.2669 121.791 78.2769 121.73 78.2993C121.24 78.477 120.772 78.7092 120.334 78.9914C119.854 79.4122 119.504 79.9612 119.324 80.5741C119.307 80.6708 119.32 80.7705 119.36 80.8602C119.4 80.95 119.465 81.0258 119.548 81.0782C119.632 81.1305 119.728 81.1569 119.827 81.1541C119.925 81.1512 120.02 81.1193 120.1 81.0623L120.116 81.0933Z" fill="#5156A5"/>
<path d="M114.341 84.4209C114.348 84.3141 114.388 84.2121 114.456 84.1288C114.723 83.7918 114.892 83.3867 114.942 82.9591C114.918 82.552 114.851 82.1485 114.744 81.755C114.723 81.6338 114.748 81.5091 114.813 81.4046C114.878 81.3001 114.979 81.2232 115.097 81.1883C115.215 81.1534 115.341 81.1631 115.453 81.2154C115.564 81.2678 115.652 81.3592 115.701 81.4723C115.83 81.9762 115.906 82.4926 115.926 83.0126C115.851 83.6464 115.602 84.2468 115.205 84.7467C115.163 84.7966 115.111 84.8377 115.053 84.8675C114.995 84.8974 114.931 84.9155 114.866 84.9208C114.801 84.926 114.736 84.9183 114.673 84.8981C114.611 84.8779 114.554 84.8456 114.504 84.8031C114.451 84.7548 114.409 84.6956 114.381 84.6297C114.353 84.5638 114.339 84.4926 114.341 84.4209V84.4209Z" fill="#5156A5"/>
<path d="M111.591 80.9431C111.496 80.8922 111.422 80.8106 111.379 80.7116C111.189 80.3242 110.896 79.9964 110.533 79.7638V79.7638C110.157 79.598 109.764 79.4736 109.361 79.3927C109.297 79.38 109.236 79.3549 109.182 79.3187C109.127 79.2825 109.081 79.236 109.044 79.1818C109.008 79.1276 108.983 79.0668 108.97 79.0028C108.957 78.9388 108.957 78.8729 108.97 78.8089C108.982 78.7448 109.007 78.6839 109.044 78.6296C109.08 78.5753 109.126 78.5286 109.181 78.4923C109.235 78.4559 109.296 78.4306 109.36 78.4178C109.424 78.405 109.489 78.4049 109.554 78.4175C110.063 78.5155 110.559 78.6721 111.033 78.8842C111.573 79.2227 112.006 79.706 112.285 80.2791C112.312 80.3388 112.328 80.4035 112.33 80.4693C112.333 80.5351 112.322 80.6007 112.299 80.6624C112.276 80.724 112.241 80.7804 112.195 80.8282C112.15 80.8761 112.096 80.9144 112.035 80.941C111.966 80.9749 111.891 80.9927 111.814 80.9931C111.737 80.9934 111.661 80.9764 111.591 80.9431V80.9431Z" fill="#8E542D"/>
<path d="M126.694 82.7426C126.815 82.6919 126.915 82.6017 126.977 82.4868C127.253 82.0438 127.641 81.6817 128.102 81.437V81.437C128.577 81.2975 129.065 81.2085 129.559 81.1715C129.641 81.1694 129.722 81.1506 129.797 81.1161C129.872 81.0816 129.939 81.0323 129.994 80.971C130.049 80.9098 130.091 80.838 130.117 80.7599C130.143 80.6819 130.153 80.5993 130.147 80.5173C130.14 80.4352 130.117 80.3553 130.078 80.2826C130.04 80.2098 129.987 80.1457 129.922 80.0942C129.858 80.0426 129.784 80.0047 129.705 79.9828C129.625 79.9608 129.542 79.9553 129.461 79.9665C128.83 80.0201 128.207 80.144 127.604 80.3358C126.902 80.6715 126.312 81.2021 125.904 81.8643C125.865 81.9337 125.841 82.0102 125.832 82.0891C125.824 82.168 125.831 82.2478 125.853 82.324C125.876 82.4001 125.913 82.471 125.963 82.5326C126.014 82.5941 126.076 82.645 126.146 82.6824C126.226 82.7352 126.317 82.7682 126.413 82.7787C126.508 82.7892 126.605 82.7768 126.694 82.7426V82.7426Z" fill="#8E542D"/>
<path d="M100.997 107.627C101.128 107.492 101.213 107.318 101.239 107.132C101.358 106.39 101.682 105.696 102.174 105.127V105.127C102.732 104.672 103.338 104.279 103.98 103.955C104.184 103.847 104.337 103.662 104.405 103.442C104.473 103.221 104.45 102.983 104.343 102.779C104.235 102.574 104.05 102.422 103.83 102.354C103.609 102.286 103.37 102.308 103.166 102.416C102.362 102.838 101.608 103.349 100.92 103.941C100.182 104.777 99.6978 105.806 99.5223 106.908C99.5068 107.022 99.514 107.137 99.5433 107.248C99.5726 107.359 99.6236 107.464 99.6932 107.555C99.7629 107.646 99.8498 107.723 99.9492 107.781C100.049 107.839 100.158 107.876 100.272 107.891C100.405 107.904 100.539 107.886 100.665 107.841C100.79 107.795 100.904 107.722 100.997 107.627V107.627Z" fill="#8E542D"/>
<path d="M80.3976 97.8317C80.5764 97.7748 80.7317 97.6608 80.8397 97.5074C81.2945 96.9125 81.9026 96.4526 82.5987 96.1768V96.1768C83.2884 96.0368 83.9914 95.9734 84.695 95.9877C84.9163 95.9732 85.1237 95.8751 85.2753 95.7133C85.4269 95.5516 85.5113 95.3382 85.5115 95.1165C85.5116 94.8948 85.4275 94.6813 85.2761 94.5193C85.1247 94.3573 84.9174 94.2589 84.6962 94.2441C83.787 94.2424 82.8804 94.3419 81.9932 94.5408C80.9499 94.9376 80.0403 95.6218 79.3697 96.5142C79.2613 96.6627 79.2029 96.8418 79.203 97.0257C79.2031 97.2095 79.2616 97.3886 79.3702 97.537C79.4787 97.6854 79.6317 97.7954 79.8068 97.8512C79.982 97.907 80.1704 97.9056 80.3447 97.8473L80.3976 97.8317Z" fill="#5B9741"/>
<path d="M143.485 92.1502C143.297 92.149 143.114 92.0903 142.961 91.982C142.345 91.5526 141.623 91.2997 140.873 91.2505V91.2505C140.163 91.3315 139.463 91.4877 138.787 91.7164C138.573 91.7654 138.349 91.7325 138.159 91.6243C137.969 91.5162 137.826 91.3406 137.759 91.1323C137.692 90.924 137.706 90.6981 137.798 90.4994C137.889 90.3006 138.052 90.1434 138.254 90.0589C139.119 89.7781 140.012 89.5935 140.917 89.5084C142.033 89.567 143.108 89.9406 144.019 90.586C144.176 90.6909 144.295 90.8441 144.356 91.0223C144.418 91.2005 144.42 91.394 144.362 91.5735C144.304 91.7529 144.189 91.9085 144.034 92.0167C143.88 92.1248 143.694 92.1796 143.506 92.1727L143.485 92.1502Z" fill="#5B9741"/>
<path d="M95.272 102.697C95.1125 102.793 94.9264 102.835 94.741 102.818C93.9903 102.766 93.2396 102.919 92.5686 103.259V103.259C91.9972 103.687 91.4757 104.178 91.014 104.723C90.856 104.874 90.6472 104.96 90.4287 104.965C90.2103 104.969 89.9981 104.892 89.834 104.748C89.6698 104.604 89.5656 104.403 89.5419 104.186C89.5182 103.969 89.5768 103.751 89.706 103.574C90.3018 102.888 90.9745 102.273 91.7108 101.741C92.6982 101.218 93.8134 100.985 94.9274 101.07C95.1575 101.096 95.3681 101.211 95.5139 101.391C95.6597 101.57 95.7289 101.8 95.7064 102.031C95.693 102.168 95.6465 102.301 95.5709 102.417C95.4952 102.533 95.3927 102.629 95.272 102.697V102.697Z" fill="#5B9741"/>
<path d="M135.477 83.9132C135.345 83.9118 135.217 83.8693 135.111 83.7918C134.68 83.4892 134.173 83.3133 133.648 83.2843V83.2843C133.151 83.3403 132.661 83.449 132.187 83.6085C132.108 83.6414 132.022 83.6573 131.936 83.6551C131.851 83.6528 131.766 83.6326 131.689 83.5956C131.611 83.5587 131.542 83.5058 131.487 83.4405C131.431 83.3752 131.389 83.2989 131.365 83.2165C131.341 83.1341 131.334 83.0476 131.345 82.9624C131.357 82.8773 131.386 82.7955 131.431 82.7224C131.476 82.6492 131.535 82.5863 131.606 82.5378C131.677 82.4893 131.757 82.4562 131.842 82.4407C132.445 82.2423 133.069 82.1133 133.701 82.0562C134.481 82.0983 135.234 82.3579 135.874 82.8058C135.983 82.8824 136.064 82.9925 136.105 83.1194C136.145 83.2462 136.144 83.3829 136.1 83.5087C136.056 83.6345 135.972 83.7425 135.861 83.8163C135.75 83.8902 135.618 83.9258 135.485 83.9179L135.477 83.9132Z" fill="#E76924"/>
<path d="M141.921 86.4708C141.789 86.4723 141.66 86.4295 141.555 86.3493C141.121 86.0545 140.616 85.8795 140.092 85.8419V85.8419C139.597 85.8935 139.109 86.0016 138.638 86.1641C138.559 86.197 138.473 86.2129 138.388 86.2106C138.302 86.2084 138.217 86.1882 138.14 86.1512C138.062 86.1143 137.993 86.0614 137.938 85.9961C137.882 85.9308 137.841 85.8544 137.816 85.7721C137.792 85.6897 137.785 85.6032 137.796 85.5181C137.808 85.4329 137.837 85.3511 137.882 85.2779C137.927 85.2048 137.987 85.1419 138.057 85.0934C138.128 85.0448 138.209 85.0118 138.293 84.9963C138.896 84.7981 139.52 84.6692 140.152 84.6118C140.932 84.6535 141.685 84.9132 142.325 85.3614C142.454 85.4587 142.539 85.6029 142.562 85.7627C142.585 85.9225 142.544 86.0849 142.448 86.2146C142.389 86.2984 142.31 86.3659 142.218 86.4107C142.126 86.4555 142.024 86.4761 141.921 86.4708V86.4708Z" fill="#5156A5"/>
<path d="M93.6425 98.7603C93.8233 98.7072 93.9798 98.5924 94.0847 98.4359C94.5449 97.8465 95.1513 97.3878 95.8437 97.1054C96.5338 96.9686 97.2365 96.9052 97.94 96.9163C98.0541 96.9167 98.1672 96.8946 98.2727 96.8512C98.3783 96.8078 98.4742 96.744 98.5551 96.6635C98.6359 96.5829 98.7 96.4872 98.7438 96.3818C98.7875 96.2765 98.8101 96.1634 98.81 96.0493C98.8108 95.8179 98.7198 95.5957 98.5569 95.4313C98.394 95.2669 98.1726 95.1739 97.9412 95.1726C97.0319 95.1709 96.1254 95.2704 95.2381 95.4693C94.1957 95.8678 93.2865 96.5517 92.6146 97.4427C92.5478 97.536 92.5003 97.6416 92.4746 97.7533C92.4489 97.8651 92.4457 97.9809 92.4651 98.0939C92.4845 98.207 92.5261 98.3151 92.5876 98.4119C92.6491 98.5087 92.7291 98.5924 92.8232 98.6581C92.9396 98.7437 93.0761 98.798 93.2195 98.8159C93.3629 98.8338 93.5086 98.8146 93.6425 98.7603V98.7603Z" fill="#5156A5"/>
<path d="M141.89 100.003C142.078 100.009 142.263 99.9539 142.417 99.8473C143.034 99.4205 143.754 99.1657 144.502 99.1092V99.1092C145.209 99.1854 145.906 99.3379 146.581 99.5639C146.796 99.6177 147.024 99.5873 147.218 99.4789C147.413 99.3705 147.558 99.1922 147.625 98.9804C147.692 98.7685 147.676 98.5389 147.58 98.3385C147.484 98.1381 147.315 97.9818 147.108 97.9014C146.243 97.6255 145.351 97.4466 144.447 97.368C143.331 97.4282 142.255 97.8058 141.346 98.4564C141.202 98.5675 141.096 98.7207 141.043 98.8948C140.991 99.0689 140.993 99.2551 141.052 99.4275C141.11 99.5999 141.22 99.7499 141.367 99.8565C141.515 99.9632 141.692 100.021 141.874 100.022L141.89 100.003Z" fill="#8E542D"/>
<path d="M124.729 108.404C124.596 108.273 124.51 108.102 124.485 107.917C124.356 107.176 124.028 106.484 123.535 105.916V105.916C122.985 105.467 122.389 105.078 121.757 104.756C121.571 104.639 121.436 104.456 121.379 104.244C121.322 104.032 121.346 103.806 121.448 103.612C121.549 103.417 121.721 103.268 121.927 103.194C122.134 103.119 122.361 103.126 122.563 103.212C123.366 103.624 124.122 104.122 124.817 104.698C125.557 105.532 126.045 106.56 126.224 107.661C126.25 107.842 126.218 108.026 126.133 108.188C126.048 108.35 125.914 108.481 125.75 108.562C125.587 108.643 125.401 108.67 125.221 108.639C125.041 108.609 124.875 108.522 124.747 108.392L124.729 108.404Z" fill="#8E542D"/>
<path d="M134.272 97.6063C134.093 97.5494 133.937 97.4374 133.826 97.2862C133.366 96.6925 132.754 96.2338 132.056 95.9584V95.9584C131.356 95.82 130.642 95.759 129.929 95.7763C129.808 95.7865 129.687 95.7717 129.573 95.7327C129.459 95.6937 129.354 95.6315 129.265 95.55C129.176 95.4684 129.105 95.3693 129.056 95.2589C129.007 95.1485 128.982 95.0291 128.981 94.9084C128.981 94.7877 129.006 94.6682 129.054 94.5575C129.102 94.4467 129.172 94.3472 129.261 94.2651C129.349 94.183 129.454 94.1201 129.568 94.0805C129.682 94.0408 129.803 94.0252 129.923 94.0346C130.831 94.0262 131.737 94.1194 132.624 94.3126C133.67 94.7034 134.583 95.3842 135.256 96.2752C135.323 96.3675 135.371 96.4721 135.398 96.5831C135.424 96.694 135.428 96.8091 135.41 96.9217C135.392 97.0343 135.352 97.1423 135.293 97.2394C135.233 97.3365 135.154 97.4209 135.062 97.4876C134.949 97.5683 134.818 97.6211 134.681 97.6417C134.544 97.6623 134.404 97.6502 134.272 97.6063V97.6063Z" fill="#E76924"/>
<path d="M116.022 107.225C115.86 107.132 115.732 106.989 115.658 106.816C115.332 106.141 114.83 105.565 114.204 105.151V105.151C113.55 104.867 112.867 104.655 112.167 104.519C112.047 104.504 111.932 104.464 111.829 104.402C111.726 104.34 111.636 104.257 111.567 104.159C111.497 104.061 111.448 103.949 111.424 103.831C111.399 103.713 111.399 103.592 111.424 103.474C111.448 103.356 111.497 103.244 111.567 103.146C111.637 103.048 111.726 102.965 111.829 102.904C111.933 102.842 112.048 102.802 112.167 102.786C112.287 102.771 112.408 102.78 112.524 102.814C113.413 102.997 114.279 103.281 115.105 103.658C116.044 104.261 116.794 105.116 117.269 106.125C117.334 106.292 117.346 106.476 117.304 106.651C117.261 106.825 117.166 106.982 117.03 107.101C116.895 107.219 116.727 107.293 116.548 107.312C116.369 107.331 116.189 107.295 116.032 107.208L116.022 107.225Z" fill="#5156A5"/>
</svg>
