<svg width="180" height="180" viewBox="0 0 180 180" fill="none" xmlns="http://www.w3.org/2000/svg">
<path d="M101.903 58.5953C116.149 58.8198 116.574 64.1259 117.898 67.423C119.145 70.5251 121.201 74.9095 118.855 78.6911C114.536 85.6576 100.922 91.5723 88.5075 96.5593C78.9294 100.436 64.1632 108.82 58.5026 109.836C51.6366 111.089 30.5362 115.627 29.3604 100.158C28.474 88.4997 35.0919 84.3636 46.3423 79.607C54.2305 76.2685 92.8505 58.483 101.903 58.5953Z" fill="#CEA847"/>
<path d="M36.0316 88.9901C36.1866 88.7567 36.3868 88.5566 36.6204 88.4018C36.854 88.247 37.1162 88.1406 37.3916 88.0888C37.667 88.0371 37.95 88.041 38.2238 88.1004C38.4977 88.1598 38.7568 88.2735 38.986 88.4347C39.8487 89.126 41.9995 90.6682 41.2491 91.6845C40.4987 92.7009 37.1129 92.7599 36.2266 92.0745C35.8035 91.6895 35.5461 91.1555 35.5087 90.5847C35.4712 90.0138 35.6565 89.4507 36.0257 89.0138L36.0316 88.9901Z" fill="#664328"/>
<path d="M39.482 87.6611C35.6767 85.2385 30.0279 91.7972 29.5079 95.0707C29.1061 97.6647 29.567 101.57 30.0988 103.698C30.4481 105.186 31.2789 106.517 32.4623 107.485C32.8405 107.674 33.2127 102.114 37.2898 102.853C38.8615 103.148 43.559 90.255 39.482 87.6611Z" fill="#C09C41"/>
<path d="M45.5738 103.319C44.4744 102.006 42.9469 101.123 41.2604 100.826C38.6487 100.489 33.9098 102.397 35.4343 105.234C36.9588 108.07 43.5589 110.634 47.8428 108.82C50.6258 107.638 45.5738 103.319 45.5738 103.319Z" fill="#CB7329"/>
<path d="M40.185 98.5975C42.3595 97.8589 47.4706 98.562 48.0083 100.258C48.546 101.954 48.4337 105.978 46.2356 106.722C44.0376 107.467 37.7506 104.719 37.2129 103.017C36.6752 101.316 37.9928 99.3479 40.1673 98.6093L40.185 98.5975Z" fill="#664328"/>
<path d="M34.9083 98.1312C36.6219 97.5403 38.3472 98.1312 38.755 99.4193C39.1627 100.707 41.3371 103.703 39.6117 104.294C37.8864 104.885 32.9289 102.829 32.5448 101.541C32.1607 100.252 33.1948 98.722 34.9083 98.143V98.1312Z" fill="#664328"/>
<path d="M32.7813 95.6557C33.0186 95.4448 33.2959 95.2838 33.5968 95.1824C33.8976 95.081 34.2158 95.0412 34.5324 95.0655C34.8489 95.0898 35.1573 95.1776 35.4392 95.3236C35.7211 95.4697 35.9706 95.6711 36.173 95.9157C36.9175 96.9261 38.826 99.2483 37.6915 100.123C36.5571 100.997 32.8345 100.076 32.09 99.0651C31.7405 98.5202 31.616 97.861 31.7427 97.2262C31.8695 96.5914 32.2376 96.0305 32.7695 95.6616L32.7813 95.6557Z" fill="#664328"/>
<path d="M57.0846 100.612C55.514 99.9277 53.7523 99.8189 52.1094 100.305C49.6277 101.168 46.236 104.985 48.8595 106.846C51.4831 108.708 58.5441 108.063 61.5576 104.542C63.5311 102.226 57.0846 100.612 57.0846 100.612Z" fill="#CB7329"/>
<path d="M58.8688 98.125C59.1554 97.9113 59.4817 97.7569 59.8287 97.6708C60.1757 97.5848 60.5363 97.5688 60.8896 97.6238C61.2428 97.6789 61.5815 97.8038 61.8859 97.9913C62.1903 98.1788 62.4542 98.4251 62.6622 98.7158C63.4126 99.8976 64.0862 101.339 63.3595 102.781C61.6991 106.096 58.5556 103.118 57.8052 101.912C57.4585 101.271 57.3744 100.52 57.5706 99.818C57.7668 99.1159 58.228 98.5173 58.857 98.1486L58.8688 98.125Z" fill="#664328"/>
<path d="M66.4197 95.3308C66.6769 95.5786 66.8821 95.8753 67.0231 96.2035C67.1641 96.5317 67.2382 96.8848 67.241 97.242C67.2437 97.5992 67.1751 97.9533 67.0391 98.2836C66.9032 98.614 66.7026 98.9138 66.4492 99.1656C65.3857 100.099 62.9571 102.469 61.864 101.275C60.7709 100.081 61.4563 95.8212 62.5199 94.8817C63.0979 94.4357 63.8268 94.2319 64.5524 94.3135C65.2779 94.3951 65.9433 94.7557 66.4079 95.319L66.4197 95.3308Z" fill="#664328"/>
<path d="M35.4992 90.9168C35.7775 90.8875 36.0588 90.9141 36.3268 90.9949C36.5947 91.0757 36.8438 91.2091 37.0595 91.3874C37.2752 91.5657 37.4532 91.7852 37.583 92.0332C37.7128 92.2811 37.7918 92.5524 37.8154 92.8313C37.8154 93.9421 38.034 96.5893 36.7755 96.6425C35.5169 96.6956 33.2893 94.1371 33.2656 93.0322C33.2901 92.4611 33.5355 91.9219 33.95 91.5283C34.3646 91.1348 34.9158 90.9176 35.4873 90.9227L35.4992 90.9168Z" fill="#563722"/>
<path d="M39.0451 93.2325C39.0451 93.2325 37.2311 92.0507 36.2679 93.0493C35.3048 94.0479 35.0862 98.2136 37.2252 100.14C39.3641 102.066 41.8754 98.3672 43.0394 97.3036C44.2035 96.24 39.0451 93.2325 39.0451 93.2325Z" fill="#C9632B"/>
<path d="M47.8493 97.4631C47.8493 97.4631 46.9689 95.5309 45.3203 95.4718C43.6718 95.4127 40.4278 97.7467 41.1251 100.347C41.8223 102.946 46.8566 102.432 48.7415 102.58C50.6264 102.728 47.8493 97.4631 47.8493 97.4631Z" fill="#CB7329"/>
<path d="M57.8522 93.759C57.8522 93.759 56.9718 91.8268 55.3233 91.7677C53.6747 91.7086 50.4308 94.0367 51.128 96.6366C51.8252 99.2364 56.8595 98.7224 58.7504 98.876C60.6412 99.0296 57.8522 93.759 57.8522 93.759Z" fill="#CB7329"/>
<path d="M39.5529 90.6087C41.2547 89.5097 43.2991 89.6988 44.1263 91.0401C44.9536 92.3814 48.1975 95.1762 46.4899 96.2635C44.7822 97.3507 38.8084 96.3698 37.9575 95.0344C37.1067 93.699 37.8394 91.7196 39.5352 90.6206L39.5529 90.6087Z" fill="#664328"/>
<path d="M39.4111 87.6729C39.594 87.4 39.8293 87.1662 40.1035 86.9851C40.3777 86.804 40.6851 86.6794 41.0079 86.6183C41.3308 86.5573 41.6625 86.5611 41.9838 86.6295C42.3052 86.698 42.6097 86.8297 42.8796 87.0171C43.9018 87.8325 46.4249 89.6465 45.5445 90.8282C44.664 92.01 40.6638 92.0927 39.6356 91.2832C39.1389 90.8314 38.8368 90.2046 38.7927 89.5346C38.7486 88.8646 38.9661 88.2037 39.3993 87.6907L39.4111 87.6729Z" fill="#664328"/>
<path d="M45.0595 91.0461C45.0595 91.0461 43.6236 90.1066 42.8496 90.8984C42.0755 91.6901 41.8982 95.0345 43.6177 96.5235C45.3372 98.0126 47.3107 95.1172 48.2384 94.2664C49.1661 93.4155 45.0595 91.0461 45.0595 91.0461Z" fill="#C9632B"/>
<path d="M43.6061 88.9603C44.9592 88.0799 46.5605 88.2336 47.2459 89.3031C47.9313 90.3725 50.4839 92.5706 49.1249 93.4392C47.7659 94.3078 42.9916 93.5219 42.3357 92.4584C41.6798 91.3948 42.2411 89.823 43.5884 88.9485L43.6061 88.9603Z" fill="#664328"/>
<path d="M48.7882 92.5354C50.9626 92.1218 52.9598 93.1558 53.2375 94.8458C53.5153 96.5357 54.4193 100.53 52.2449 100.944C50.0704 101.357 45.6329 98.0306 45.3493 96.3466C45.0656 94.6626 46.596 92.9549 48.7646 92.5413L48.7882 92.5354Z" fill="#563722"/>
<path d="M55.4591 96.2402C57.6335 95.8325 59.6307 96.8665 59.9084 98.5565C60.1861 100.246 61.0902 104.235 58.9157 104.648C56.7413 105.062 52.3038 101.729 52.0438 100.051C51.7838 98.3733 53.2906 96.6597 55.4591 96.2461V96.2402Z" fill="#563722"/>
<path d="M63.0402 87.4542C63.0402 87.4542 62.1657 85.528 60.5171 85.4689C58.8685 85.4098 55.6246 87.7379 56.3159 90.3377C57.0073 92.9376 62.0534 92.4235 63.9383 92.5772C65.8232 92.7308 63.0402 87.4542 63.0402 87.4542Z" fill="#CB7329"/>
<path d="M60.6414 87.3887C62.4791 88.6236 63.1704 90.7626 62.1836 92.163C61.1969 93.5634 59.052 97.0496 57.1966 95.8028C55.3412 94.5561 54.5317 89.0904 55.5126 87.69C56.4934 86.2896 58.7802 86.1478 60.6178 87.3769L60.6414 87.3887Z" fill="#563722"/>
<path d="M64.2695 91.3774C66.1131 92.6123 66.8044 94.7454 65.8177 96.1517C64.8309 97.558 62.6801 101.032 60.8306 99.7915C58.9812 98.5507 58.1657 93.0732 59.1348 91.6846C60.1038 90.2961 62.4024 90.1483 64.24 91.3774H64.2695Z" fill="#563722"/>
<path d="M48.8828 91.7377C49.0896 90.1364 50.2122 88.9723 51.4531 89.1437C52.6939 89.315 56.0383 88.7123 55.8552 90.3255C55.672 91.9386 52.044 95.1175 50.7972 94.952C49.5505 94.7866 48.6996 93.3567 48.8769 91.7554L48.8828 91.7377Z" fill="#664328"/>
<path d="M45.0832 84.5589C46.8559 83.2235 49.0953 83.2708 50.0998 84.6594C51.1043 86.0479 53.6864 89.221 51.9079 90.5682C50.1293 91.9154 44.6873 90.8932 43.6887 89.5046C42.6902 88.116 43.2988 85.9061 45.0655 84.5944L45.0832 84.5589Z" fill="#563722"/>
<path d="M50.035 99.4308C50.3078 99.3568 50.5928 99.3385 50.8729 99.3771C51.153 99.4157 51.4224 99.5103 51.6651 99.6554C51.9078 99.8004 52.1188 99.9929 52.2854 100.221C52.452 100.45 52.5708 100.709 52.6348 100.985C52.818 102.084 53.3912 104.672 52.1503 104.908C50.9095 105.145 48.3155 102.911 48.1323 101.842C48.0748 101.273 48.2396 100.705 48.5921 100.255C48.9446 99.8059 49.4575 99.5104 50.0231 99.4308H50.035Z" fill="#563722"/>
<path d="M48.2805 101.883C48.632 101.818 48.993 101.823 49.3423 101.9C49.6917 101.976 50.0222 102.121 50.3145 102.327C50.6068 102.533 50.855 102.795 51.0445 103.099C51.234 103.402 51.361 103.74 51.418 104.093C51.5539 105.505 51.5244 107.083 50.2363 108.046C47.2819 110.273 45.7869 106.208 45.651 104.796C45.6263 104.067 45.8852 103.356 46.3734 102.814C46.8615 102.272 47.5409 101.94 48.2686 101.889L48.2805 101.883Z" fill="#664328"/>
<path d="M56.2811 102.746C56.4016 103.082 56.4537 103.439 56.4343 103.795C56.4149 104.152 56.3243 104.501 56.1679 104.822C56.0116 105.143 55.7925 105.43 55.5238 105.665C55.255 105.9 54.9419 106.079 54.603 106.191C53.2321 106.551 50.0059 107.591 49.5568 106.037C49.1078 104.483 51.6249 100.967 52.9958 100.601C53.7121 100.463 54.4542 100.607 55.0666 101.003C55.679 101.4 56.1142 102.018 56.2811 102.728V102.746Z" fill="#664328"/>
<path d="M33.1833 86.5439C30.5894 89.1438 28.4977 97.5934 29.1063 97.6643C29.7149 97.7352 33.3488 86.8807 39.4821 87.6607C47.589 88.6888 45.3909 89.1438 57.2735 89.8824C65.15 90.3728 109.62 78.0116 113.608 72.4632C123.984 58.0044 104.751 58.3825 99.1552 58.0044C93.5595 57.6262 37.8927 81.8346 33.1833 86.5439Z" fill="#EDC55D"/>
<path d="M120.279 76.9121C119.954 77.9344 118.364 81.2433 112.497 85.0663C95.2905 96.2458 57.8228 114.226 51.3408 110.634L51.8076 110.362C54.112 108.985 64.0211 102.645 62.0889 96.9253C59.9086 90.461 54.307 90.2542 55.0516 84.3218C55.3884 81.6037 57.5569 79.2166 60.8363 77.119C72.4412 69.6916 97.8786 65.8922 105.064 64.3205C115.073 62.0988 115.445 62.4651 116.184 63.5819C116.923 64.6986 121.549 72.8942 120.279 76.9121Z" fill="#EDC55D"/>
<path d="M51.8075 110.362C51.0111 110.401 50.2169 110.249 49.4912 109.919C49.4912 109.919 62.0888 103.082 59.9734 97.0023C57.8581 90.9221 52.3806 90.6917 53.1015 85.096C53.5033 82.0116 56.4931 79.3645 60.8361 77.1191C57.5567 79.2168 55.3882 81.6039 55.0514 84.322C54.3069 90.2308 59.9084 90.4612 62.0888 96.9255C64.021 102.645 54.1119 108.985 51.8075 110.362Z" fill="#D3A93F"/>
<path opacity="0.9" d="M81.5886 63.8187C81.5886 63.8187 55.4717 73.3673 54.3313 75.5004C53.1909 77.6334 61.9182 75.8608 66.2671 87.1348C70.6159 98.4088 69.4519 107.491 72.814 108.696C76.1761 109.901 73.5526 108.59 78.7228 109.429C83.893 110.268 96.2779 119.356 104.928 110.362C113.579 101.369 120.049 90.6092 110.146 86.538C100.243 82.4668 110.613 68.3862 101.72 66.5308C92.8272 64.6754 89.9318 59.2511 81.5886 63.8187Z" fill="#C64224"/>
<path d="M77.2861 74.6845C77.2861 74.6845 82.6986 72.1497 85.9189 72.1201C87.6916 72.1201 85.2571 72.7583 82.4741 73.5737C80.1224 74.265 77.2861 75.0568 77.2861 74.6845Z" fill="#F0C52E"/>
<path d="M79.9812 71.4355C79.9812 71.4355 85.63 74.7208 87.0717 77.6103C87.8458 79.1761 85.9491 77.4094 83.686 75.4181C81.7538 73.7282 79.5026 71.666 79.9812 71.4355Z" fill="#F0C52E"/>
<path d="M73.4339 72.7001C73.4339 72.7001 79.2245 71.211 82.3916 71.7783C84.1111 72.0856 81.6176 72.2805 78.7341 72.5701C76.2701 72.8123 73.363 73.0664 73.4339 72.7001Z" fill="#F0C52E"/>
<path d="M75.4316 75.8018C75.4316 75.8018 80.8677 73.2551 84.1058 73.2256C85.8784 73.2256 83.4381 73.8696 80.6432 74.6851C78.2797 75.3823 75.4316 76.1741 75.4316 75.8018Z" fill="#F0C52E"/>
<path d="M75.1651 71.8076C75.1651 71.8076 80.814 75.0929 82.2557 77.9823C83.0357 79.5482 81.139 77.7814 78.87 75.7842C76.9378 74.0943 74.6806 72.0381 75.1651 71.8076Z" fill="#F0C52E"/>
<path d="M75.4316 79.8673C75.4316 79.8673 80.8677 77.3206 84.1058 77.291C85.8784 77.291 83.4381 77.9351 80.6432 78.7505C78.2797 79.4595 75.4316 80.2513 75.4316 79.8673Z" fill="#F0C52E"/>
<path d="M75.1651 75.8848C75.1651 75.8848 80.814 79.1701 82.2557 82.0595C83.0357 83.6253 81.139 81.8586 78.87 79.8614C76.9378 78.1715 74.6806 76.1152 75.1651 75.8848Z" fill="#F0C52E"/>
<path d="M71.5784 73.8104C71.5784 73.8104 77.3631 72.3214 80.5362 72.8886C82.2556 73.1959 79.768 73.3909 76.8845 73.6804C74.4383 73.9227 71.5075 74.1768 71.5784 73.8104Z" fill="#F0C52E"/>
<path d="M78.043 73.2021C78.043 73.2021 83.4495 70.6672 86.6757 70.6377C88.4484 70.6377 86.008 71.2758 83.2309 72.0913C80.8615 72.7767 78.043 73.5744 78.043 73.2021Z" fill="#F0C52E"/>
<path d="M83.6915 70.3242C83.6915 70.3242 89.3344 73.6095 90.7821 76.4989C91.5561 78.0648 89.6653 76.298 87.3963 74.3068C85.4642 72.6109 83.207 70.5547 83.6915 70.3242Z" fill="#F0C52E"/>
<path d="M69.4517 79.1693C69.4517 79.1693 75.9514 78.803 78.764 80.422C80.2707 81.3024 77.7181 80.8711 74.7283 80.4575C72.1934 80.1029 69.1799 79.6302 69.4517 79.1693Z" fill="#F0C52E"/>
<path d="M64.7604 73.8047C64.7604 73.8047 71.2601 74.1829 73.8659 76.1091C75.2722 77.1491 72.7787 76.4341 69.8538 75.6837C67.4075 75.0455 64.4531 74.2301 64.7604 73.8047Z" fill="#F0C52E"/>
<path d="M74.1722 71.2167C74.1722 71.2167 79.9569 69.7276 83.1299 70.2949C84.8494 70.6022 82.3618 70.7971 79.4783 71.0867C77.032 71.3289 74.1013 71.5948 74.1722 71.2167Z" fill="#F0C52E"/>
<path d="M72.542 73.651C72.542 73.651 75.6087 69.9166 78.2676 68.5812C79.7094 67.8603 78.0726 69.2371 76.2232 70.862C74.6573 72.2388 72.7547 73.8696 72.542 73.651Z" fill="#F0C52E"/>
<path d="M70.0717 71.3587C70.0717 71.3587 76.6128 71.0337 79.4254 72.1859C80.9499 72.8063 78.3854 72.5168 75.3778 72.245C72.8311 72.0086 69.7999 71.6955 70.0717 71.3587Z" fill="#F0C52E"/>
<path d="M66.2726 74.4014C66.2726 74.4014 71.9155 77.6867 73.3631 80.5761C74.1372 82.1419 72.2464 80.3752 69.9774 78.378C68.0452 76.6881 65.788 74.6318 66.2726 74.4014Z" fill="#F0C52E"/>
<path d="M62.6798 76.4042C62.6798 76.4042 68.4645 74.9151 71.6375 75.4824C73.357 75.7897 70.8635 75.9846 67.98 76.2742C65.5455 76.5164 62.6148 76.7705 62.6798 76.4042Z" fill="#F0C52E"/>
<path d="M63.6494 76.2447C63.6494 76.2447 66.7102 72.5104 69.375 71.175C70.8109 70.4541 69.1801 71.8308 67.3306 73.4558C65.7648 74.8325 63.8621 76.4633 63.6494 76.2447Z" fill="#F0C52E"/>
<path d="M61.1792 73.9583C61.1792 73.9583 67.7143 73.6333 70.5328 74.7855C72.0573 75.4059 69.4929 75.1164 66.4853 74.8446C63.9386 74.6023 60.9074 74.2892 61.1792 73.9583Z" fill="#F0C52E"/>
<path d="M68.2227 74.0229C68.2227 74.0229 72.1875 70.7672 75.1419 69.8218C76.7432 69.3077 74.7873 70.4127 72.5538 71.7894C70.663 72.9239 68.3704 74.2711 68.2227 74.0229Z" fill="#F0C52E"/>
<path d="M80.8848 69.8513C80.8848 69.8513 85.4168 68.1851 88.389 68.3859C89.9961 68.4982 87.8867 68.8527 85.47 69.3195C83.4256 69.7095 80.9557 70.1468 80.8848 69.8513Z" fill="#F0C52E"/>
<path d="M83.8516 66.868C83.8516 66.868 88.3836 65.2077 91.3558 65.4026C92.963 65.5149 90.8535 65.8694 88.4368 66.3362C86.3923 66.7439 83.952 67.1871 83.8516 66.868Z" fill="#F0C52E"/>
<path d="M80.4477 71.0042C80.4477 71.0042 86.9887 70.6792 89.8072 71.8314C91.3317 72.4518 88.7614 72.1682 85.7597 71.8905C83.213 71.6423 80.1759 71.3233 80.4477 71.0042Z" fill="#F0C52E"/>
<path d="M77.8594 70.6909C77.8594 70.6909 81.8242 67.4587 84.7786 66.4779C86.3799 65.9638 84.4181 67.0983 82.1905 68.4455C80.2997 69.5918 78.0071 70.939 77.8594 70.6909Z" fill="#F0C52E"/>
<path d="M65.4507 71.3821C65.4507 71.3821 71.2472 69.9581 74.4203 70.5608C76.1338 70.8858 73.6403 71.0512 70.7568 71.3112C68.3106 71.5299 65.3739 71.7485 65.4507 71.3821Z" fill="#F0C52E"/>
<path d="M62.4847 75.4593C62.4847 75.4593 68.2871 74.0353 71.4542 74.638C73.1678 74.9629 70.6743 75.1284 67.7908 75.3884C65.3445 75.6011 62.4138 75.8256 62.4847 75.4593Z" fill="#F0C52E"/>
<path d="M63.596 78.053C63.596 78.053 69.3984 76.629 72.5656 77.2317C74.2791 77.5567 71.7856 77.7221 68.9021 77.9821C66.4558 78.2008 63.5251 78.4194 63.596 78.053Z" fill="#F0C52E"/>
<path d="M68.0455 75.4593C68.0455 75.4593 73.842 74.0353 77.0151 74.638C78.7286 74.9629 76.2351 75.1284 73.3516 75.3884C70.9054 75.6011 67.9982 75.8256 68.0455 75.4593Z" fill="#F0C52E"/>
<path d="M63.4482 71.1045C63.4482 71.1045 69.422 71.2049 72.3114 72.5994C73.9068 73.3676 71.4487 72.8771 68.5888 72.3867C66.1721 71.9731 63.2709 71.4354 63.4482 71.1045Z" fill="#F0C52E"/>
<path d="M66.6386 69.29C66.6386 69.29 72.6124 69.3964 75.5018 70.7909C77.0795 71.5472 74.6214 71.0686 71.7675 70.5782C69.3685 70.1645 66.4732 69.6268 66.6386 69.29Z" fill="#F0C52E"/>
<path d="M70.3613 69.7687C70.3613 69.7687 75.047 67.6829 78.1491 67.5529C79.8154 67.4584 77.6114 68.0493 75.0884 68.7583C72.973 69.3551 70.4086 70.0465 70.3613 69.7687Z" fill="#F0C52E"/>
<path d="M85.47 70.1347C85.47 70.1347 91.4202 69.7624 94.4573 70.5424C96.0999 70.9678 93.6123 70.8083 90.7229 70.6724C88.2708 70.5542 85.34 70.4124 85.47 70.1347Z" fill="#F0C52E"/>
<path d="M82.5334 67.8311C82.5334 67.8311 88.4777 68.2565 91.2607 69.4323C92.7675 70.0705 90.3626 69.5801 87.5559 69.0601C85.1805 68.6406 82.3443 68.0497 82.5334 67.8311Z" fill="#F0C52E"/>
<path d="M89.9194 66.2764C89.9194 66.2764 94.0851 69.9103 94.4396 72.2265C94.6287 73.4792 93.4587 71.8129 92.017 69.8926C90.7939 68.244 89.3876 66.2764 89.9194 66.2764Z" fill="#F0C52E"/>
<path d="M81.9669 65.792C81.9669 65.792 88.2184 67.1983 90.4637 68.6814C91.6809 69.4791 89.3706 68.6459 86.6407 67.7124C84.3304 66.9206 81.5887 65.9515 81.9669 65.792Z" fill="#F0C52E"/>
<path d="M89.5059 67.2748C89.5059 67.2748 94.3511 66.0576 97.4532 66.1462C99.1313 66.1935 96.9037 66.4771 94.3452 66.8316C92.1766 67.1389 89.559 67.458 89.5059 67.2748Z" fill="#F0C52E"/>
<path d="M83.5498 64.9355C83.5498 64.9355 88.5368 64.7051 91.5621 65.4082C93.1989 65.7864 90.9713 65.621 88.3773 65.4614C86.191 65.3314 83.5616 65.1483 83.5498 64.9355Z" fill="#F0C52E"/>
<path d="M76.5068 66.0459C76.5068 66.0459 81.4939 65.8154 84.5192 66.5186C86.1559 66.9027 83.9283 66.7313 81.3343 66.5777C79.1481 66.4418 76.5187 66.2763 76.5068 66.0459Z" fill="#F0C52E"/>
<path d="M75.0234 68.2735C75.0234 68.2735 80.0164 68.0372 83.0358 68.7403C84.6725 69.1244 82.4449 68.9531 79.8509 68.7994C77.6706 68.6399 75.0353 68.4804 75.0234 68.2735Z" fill="#F0C52E"/>
<path d="M132.292 66.034C146.544 66.2527 146.963 71.5588 148.293 74.8618C149.533 77.958 151.59 82.3423 149.244 86.1299C144.925 93.0964 131.311 99.0052 118.896 103.998C109.318 107.845 94.558 116.218 88.8914 117.252C82.0254 118.498 60.9073 123.042 59.7255 107.567C58.8392 95.9149 65.463 91.7787 76.7134 87.0162C84.6253 83.6777 123.245 65.8922 132.292 66.034Z" fill="#CEA847"/>
<path d="M66.4206 96.4117C66.5756 96.1784 66.7757 95.9784 67.0091 95.8235C67.2425 95.6686 67.5045 95.5619 67.7797 95.5096C68.0549 95.4573 68.3378 95.4605 68.6117 95.5191C68.8856 95.5776 69.1451 95.6902 69.375 95.8503C70.2495 96.5417 72.4062 98.0839 71.6439 99.0943C70.8817 100.105 67.5078 100.17 66.6215 99.4784C66.1958 99.094 65.9362 98.5591 65.8976 97.9869C65.859 97.4146 66.0444 96.8497 66.4146 96.4117H66.4206Z" fill="#664328"/>
<path d="M69.8765 95.0702C66.0713 92.6476 60.4224 99.2064 59.8966 102.486C59.4948 105.08 59.9556 108.985 60.4874 111.107C60.8309 112.597 61.6629 113.931 62.851 114.894C63.235 115.083 63.6014 109.523 67.6785 110.268C69.2561 110.557 73.9536 97.6642 69.8765 95.0702Z" fill="#C09C41"/>
<path d="M75.9635 110.729C74.865 109.414 73.3374 108.529 71.65 108.23C69.0383 107.899 64.2995 109.801 65.824 112.638C67.3484 115.474 73.9545 118.044 78.2324 116.23C80.9978 115.043 75.9635 110.729 75.9635 110.729Z" fill="#CB7329"/>
<path d="M70.5803 106.013C72.7252 105.275 77.86 105.972 78.3977 107.674C78.9354 109.376 78.8231 113.394 76.625 114.138C74.427 114.883 68.1282 112.129 67.5905 110.433C67.0528 108.737 68.3763 106.758 70.5449 106.019L70.5803 106.013Z" fill="#664328"/>
<path d="M65.2918 105.546C67.0113 104.955 68.7307 105.546 69.1443 106.829C69.558 108.111 71.7206 111.118 69.9952 111.703C68.2698 112.288 63.3242 110.244 62.9046 108.95C62.4851 107.656 63.5546 106.137 65.2682 105.552L65.2918 105.546Z" fill="#664328"/>
<path d="M63.1703 103.065C63.4076 102.854 63.6849 102.693 63.9858 102.592C64.2866 102.49 64.6048 102.45 64.9214 102.475C65.2379 102.499 65.5463 102.587 65.8282 102.733C66.1101 102.879 66.3596 103.08 66.562 103.325C67.3065 104.335 69.215 106.663 68.0864 107.538C66.9579 108.412 63.2235 107.491 62.479 106.474C62.1313 105.93 62.0078 105.272 62.1345 104.639C62.2612 104.005 62.6282 103.445 63.1585 103.077L63.1703 103.065Z" fill="#664328"/>
<path d="M87.497 108.029C85.9267 107.344 84.1656 107.233 82.5218 107.715C80.0342 108.584 76.613 112.401 79.272 114.256C81.9309 116.112 88.9506 115.48 91.9641 111.952C93.9199 109.642 87.497 108.029 87.497 108.029Z" fill="#CB7329"/>
<path d="M89.2698 105.541C89.5556 105.327 89.8814 105.172 90.2281 105.085C90.5747 104.999 90.9351 104.983 91.2881 105.038C91.6411 105.093 91.9795 105.218 92.2833 105.406C92.5872 105.594 92.8503 105.841 93.0573 106.132C93.8136 107.314 94.4813 108.761 93.7604 110.203C92.0942 113.512 88.9566 110.534 88.2003 109.334C87.8493 108.688 87.7647 107.931 87.9645 107.223C88.1643 106.516 88.6327 105.914 89.2698 105.547V105.541Z" fill="#664328"/>
<path d="M96.8096 102.746C97.8909 103.928 97.9086 105.642 96.8096 106.575C95.7105 107.509 93.3175 109.878 92.2244 108.69C91.1312 107.503 91.8167 103.225 92.8802 102.291C93.4596 101.847 94.1885 101.645 94.9137 101.728C95.6388 101.811 96.3036 102.171 96.7682 102.734L96.8096 102.746Z" fill="#664328"/>
<path d="M65.8713 98.3319C66.1488 98.3026 66.4294 98.329 66.6966 98.4095C66.9638 98.49 67.2123 98.623 67.4275 98.8007C67.6426 98.9785 67.8201 99.1974 67.9496 99.4446C68.0791 99.6918 68.158 99.9624 68.1816 100.24C68.1816 101.351 68.4002 103.998 67.1417 104.058C65.8831 104.117 63.6614 101.552 63.6318 100.441C63.6563 99.8703 63.9017 99.3311 64.3162 98.9375C64.7308 98.5439 65.282 98.3268 65.8535 98.3319H65.8713Z" fill="#563722"/>
<path d="M69.4455 100.649C69.4455 100.649 67.6374 99.4668 66.6683 100.459C65.6993 101.452 65.4866 105.63 67.6315 107.55C69.7764 109.47 72.2758 105.777 73.4398 104.714C74.6039 103.65 69.4455 100.649 69.4455 100.649Z" fill="#C9632B"/>
<path d="M78.2377 104.873C78.2377 104.873 77.3573 102.947 75.7087 102.912C74.0601 102.876 70.8162 105.157 71.543 107.757C72.2698 110.357 77.2745 109.843 79.1653 109.996C81.0562 110.15 78.2377 104.873 78.2377 104.873Z" fill="#CB7329"/>
<path d="M88.2475 101.168C88.2475 101.168 87.3671 99.2418 85.7245 99.1827C84.0818 99.1237 80.832 101.452 81.5292 104.052C82.2265 106.651 87.2608 106.137 89.1457 106.291C91.0306 106.445 88.2475 101.168 88.2475 101.168Z" fill="#CB7329"/>
<path d="M69.9416 98.0248C71.6433 96.9198 73.6937 97.1148 74.515 98.4502C75.3363 99.7856 78.5921 102.586 76.8785 103.674C75.165 104.761 69.1971 103.786 68.3462 102.445C67.4953 101.103 68.228 99.1356 69.9239 98.0366L69.9416 98.0248Z" fill="#664328"/>
<path d="M69.8056 95.0884C69.9869 94.8144 70.2212 94.5795 70.4948 94.3976C70.7683 94.2157 71.0756 94.0904 71.3984 94.0293C71.7212 93.9681 72.053 93.9723 72.3741 94.0416C72.6953 94.1109 72.9993 94.2438 73.2682 94.4326C74.2904 95.2421 76.8135 97.0561 75.939 98.2378C75.0645 99.4196 71.0524 99.5082 70.0302 98.6928C69.5335 98.241 69.2313 97.6142 69.1872 96.9442C69.1432 96.2742 69.3606 95.6132 69.7938 95.1003L69.8056 95.0884Z" fill="#664328"/>
<path d="M75.4549 98.4561C75.4549 98.4561 74.0132 97.5166 73.245 98.3143C72.4769 99.112 72.2878 102.45 74.0073 103.94C75.7267 105.429 77.7062 102.527 78.6339 101.682C79.5616 100.837 75.4549 98.4561 75.4549 98.4561Z" fill="#C9632B"/>
<path d="M73.9952 96.37C75.3484 95.4955 76.9496 95.6492 77.6351 96.7128C78.3205 97.7763 80.8731 99.9862 79.5141 100.849C78.155 101.712 73.3866 100.955 72.7248 99.8917C72.0631 98.8281 72.6303 97.2564 73.9834 96.3819L73.9952 96.37Z" fill="#664328"/>
<path d="M79.1838 99.9573C81.3582 99.5437 83.3199 100.578 83.6331 102.268C83.9462 103.958 84.8148 107.946 82.6404 108.36C80.466 108.773 76.0225 105.452 75.7389 103.763C75.4553 102.073 76.9857 100.371 79.1601 99.9573H79.1838Z" fill="#563722"/>
<path d="M85.8547 103.656C88.0291 103.243 89.9908 104.247 90.304 105.967C90.6172 107.686 91.4858 111.645 89.3113 112.065C87.1369 112.484 82.6934 109.151 82.4098 107.462C82.1262 105.772 83.6566 104.094 85.831 103.662L85.8547 103.656Z" fill="#563722"/>
<path d="M93.4352 94.8693C93.4352 94.8693 92.5548 92.9371 90.9063 92.8781C89.2577 92.819 86.0138 95.147 86.711 97.7528C87.4083 100.359 92.4426 99.8327 94.3275 99.9863C96.2124 100.14 93.4352 94.8693 93.4352 94.8693Z" fill="#CB7329"/>
<path d="M91.0423 94.8048C92.88 96.0397 93.5713 98.1728 92.5904 99.5732C91.6096 100.974 89.4528 104.46 87.6034 103.219C85.7539 101.978 84.9326 96.5006 85.9194 95.1002C86.9062 93.6998 89.187 93.558 91.0246 94.793L91.0423 94.8048Z" fill="#563722"/>
<path d="M94.6649 98.7754C96.5025 100.004 97.1938 102.143 96.2071 103.544C95.2203 104.944 93.0754 108.43 91.22 107.19C89.3647 105.949 88.5552 100.471 89.536 99.0709C90.5169 97.6705 92.8036 97.5287 94.6412 98.7577L94.6649 98.7754Z" fill="#563722"/>
<path d="M79.2722 99.1536C79.4554 97.5523 80.6076 96.3883 81.8426 96.5537C83.0775 96.7192 86.4278 96.1224 86.2505 97.7355C86.0733 99.3486 82.4335 102.533 81.1926 102.362C79.9518 102.191 79.095 100.767 79.2722 99.1714V99.1536Z" fill="#664328"/>
<path d="M75.4789 91.9678C77.2515 90.6383 79.4909 90.6797 80.4895 92.0682C81.4881 93.4568 84.0762 96.6357 82.2976 97.977C80.5191 99.3183 75.0889 98.2961 74.0785 96.9075C73.0681 95.519 73.6944 93.315 75.4552 91.9855L75.4789 91.9678Z" fill="#563722"/>
<path d="M80.4068 106.841C80.6777 106.772 80.9598 106.757 81.2364 106.798C81.513 106.839 81.7786 106.936 82.0175 107.081C82.2565 107.226 82.4639 107.418 82.6277 107.645C82.7915 107.871 82.9083 108.128 82.9712 108.401C83.1544 109.494 83.7335 112.088 82.4926 112.324C81.2518 112.561 78.6814 110.351 78.4983 109.252C78.4412 108.681 78.6086 108.111 78.9649 107.662C79.3212 107.213 79.8384 106.921 80.4068 106.847V106.841Z" fill="#563722"/>
<path d="M78.6694 109.293C80.2648 109.104 81.6652 110.09 81.807 111.503C81.9488 112.915 81.9133 114.457 80.6252 115.456C77.6708 117.677 76.1759 113.612 76.0341 112.2C75.8922 110.788 77.0681 109.494 78.6576 109.299L78.6694 109.293Z" fill="#664328"/>
<path d="M86.6756 110.155C87.1188 111.698 86.3684 113.24 84.9916 113.6C83.6149 113.961 80.3946 115.001 79.9455 113.452C79.4964 111.904 82.0136 108.377 83.3844 108.016C84.1002 107.875 84.8431 108.017 85.4561 108.413C86.0691 108.808 86.5043 109.427 86.6697 110.138L86.6756 110.155Z" fill="#664328"/>
<path d="M63.572 93.9598C60.978 96.5538 58.8863 105.009 59.4949 105.08C60.1035 105.151 63.7434 94.2907 69.8767 95.0707C77.9836 96.0988 75.7855 96.5538 87.6622 97.2924C95.5446 97.7887 140.014 85.4275 143.997 79.8732C154.379 65.4203 135.134 65.7925 129.544 65.4203C123.954 65.048 68.2813 89.2505 63.572 93.9598Z" fill="#EDC55D"/>
<path d="M150.667 84.3225C150.348 85.3447 148.759 88.6595 142.886 92.4766C125.679 103.656 88.2114 121.643 81.7354 118.05L82.2021 117.778C84.5007 116.395 94.4157 110.055 92.4835 104.336C90.2972 97.8773 84.7016 97.6646 85.4402 91.738C85.7829 89.02 87.9514 86.6269 91.2249 84.5293C102.859 77.0901 128.267 73.3203 135.476 71.719C145.48 69.4973 145.852 69.8695 146.585 71.004C147.317 72.1385 151.944 80.3045 150.667 84.3225Z" fill="#EDC55D"/>
<path d="M82.1786 117.778C81.3806 117.814 80.5853 117.662 79.8564 117.335C79.8564 117.335 92.4717 110.493 90.3446 104.395C88.2174 98.2968 82.7695 98.1018 83.4963 92.5062C83.8922 89.4218 86.882 86.7806 91.225 84.5293C87.9515 86.6269 85.783 89.02 85.4403 91.738C84.7017 97.6469 90.2973 97.8773 92.4836 104.336C94.4157 110.055 84.5008 116.395 82.1786 117.778Z" fill="#D3A93F"/>
<path opacity="0.9" d="M111.965 71.228C111.965 71.228 85.8604 80.7589 84.7259 82.9097C83.5914 85.0605 92.3069 83.2701 96.6558 94.5441C101.005 105.818 95.7914 109.394 100 114.5C103.791 120.394 105.824 123.667 111 124.5C116.176 125.333 126.667 126.765 135.317 117.778C143.968 108.79 150.444 98.0185 140.535 93.9532C130.626 89.888 141.007 75.7955 132.109 73.946C123.21 72.0966 120.326 66.6664 111.965 71.228Z" fill="#C64224"/>
<path d="M107.676 82.1006C107.676 82.1006 113.088 79.5598 116.314 79.5361C118.058 79.5361 115.647 80.1684 112.87 80.9897C110.542 81.681 107.676 82.4669 107.676 82.1006Z" fill="#F0C52E"/>
<path d="M110.376 78.8447C110.376 78.8447 116.019 82.1359 117.467 85.0253C118.241 86.5912 116.35 84.8244 114.081 82.8273C112.149 81.1373 109.892 79.0811 110.376 78.8447Z" fill="#F0C52E"/>
<path d="M103.823 80.1092C103.823 80.1092 109.607 78.6202 112.78 79.1875C114.5 79.4947 112.012 79.6897 109.129 79.9793C106.682 80.2215 103.752 80.4579 103.823 80.1092Z" fill="#F0C52E"/>
<path d="M105.814 83.2169C105.814 83.2169 111.245 80.6702 114.483 80.6406C116.255 80.6406 113.815 81.2788 111.026 82.1001C108.668 82.821 105.814 83.5891 105.814 83.2169Z" fill="#F0C52E"/>
<path d="M105.554 79.2168C105.554 79.2168 111.203 82.508 112.645 85.3974C113.419 86.9573 111.522 85.1906 109.259 83.1993C107.327 81.5094 105.076 79.4472 105.554 79.2168Z" fill="#F0C52E"/>
<path d="M105.814 87.294C105.814 87.294 111.245 84.7473 114.483 84.7178C116.255 84.7178 113.815 85.3559 111.026 86.1772C108.668 86.8686 105.814 87.6663 105.814 87.294Z" fill="#F0C52E"/>
<path d="M105.554 83.2939C105.554 83.2939 111.203 86.5851 112.645 89.4746C113.419 91.0345 111.522 89.2677 109.259 87.2765C107.327 85.5866 105.076 83.5244 105.554 83.2939Z" fill="#F0C52E"/>
<path d="M101.968 81.2261C101.968 81.2261 107.753 79.7311 110.932 80.2984C112.651 80.6116 110.157 80.8066 107.274 81.0902C104.834 81.3383 101.903 81.5865 101.968 81.2261Z" fill="#F0C52E"/>
<path d="M108.42 80.6172C108.42 80.6172 113.826 78.0941 117.041 78.0527C118.814 78.0527 116.373 78.685 113.596 79.5063C111.25 80.1976 108.42 80.9894 108.42 80.6172Z" fill="#F0C52E"/>
<path d="M114.086 77.7344C114.086 77.7344 119.735 81.0256 121.177 83.915C121.957 85.4749 120.06 83.7141 117.791 81.7169C115.859 80.027 113.596 77.9648 114.086 77.7344Z" fill="#F0C52E"/>
<path d="M99.8401 86.5854C99.8401 86.5854 106.34 86.219 109.152 87.838C110.665 88.7125 108.107 88.2871 105.117 87.838C102.582 87.5485 99.5624 87.0403 99.8401 86.5854Z" fill="#F0C52E"/>
<path d="M95.1786 81.2197C95.1786 81.2197 101.678 81.592 104.29 83.5182C105.69 84.5641 103.203 83.8432 100.278 83.0928C97.7667 82.4547 94.8241 81.6393 95.1786 81.2197Z" fill="#F0C52E"/>
<path d="M104.562 78.6323C104.562 78.6323 110.352 77.1374 113.525 77.7046C115.245 78.0178 112.751 78.2069 109.868 78.4964C107.427 78.7387 104.497 78.9928 104.562 78.6323Z" fill="#F0C52E"/>
<path d="M102.937 81.0484C102.937 81.0484 105.997 77.314 108.656 75.9845C110.098 75.2637 108.461 76.6404 106.618 78.2653C105.052 79.6539 103.143 81.2847 102.937 81.0484Z" fill="#F0C52E"/>
<path d="M100.461 78.7679C100.461 78.7679 107.002 78.4429 109.821 79.5951C111.345 80.2214 108.775 79.9319 105.773 79.6542C103.227 79.4237 100.19 79.1047 100.461 78.7679Z" fill="#F0C52E"/>
<path d="M96.6612 81.8105C96.6612 81.8105 102.31 85.1018 103.752 87.9912C104.532 89.5511 102.635 87.7903 100.366 85.7931C98.4339 84.1032 96.1767 82.041 96.6612 81.8105Z" fill="#F0C52E"/>
<path d="M93.0745 83.8202C93.0745 83.8202 98.8592 82.3253 102.032 82.8985C103.752 83.2057 101.264 83.4007 98.3806 83.6843C95.9344 83.9325 93.0036 84.1807 93.0745 83.8202Z" fill="#F0C52E"/>
<path d="M94.0381 83.6548C94.0381 83.6548 97.0989 79.9205 99.7637 78.591C101.205 77.8701 99.5687 79.2469 97.7193 80.8718C96.1534 82.2308 94.2508 83.8794 94.0381 83.6548Z" fill="#F0C52E"/>
<path d="M91.5678 81.3616C91.5678 81.3616 98.1325 81.0485 100.921 82.1889C102.446 82.8152 99.8815 82.5257 96.8739 82.2479C94.3272 82.0175 91.296 81.6984 91.5678 81.3616Z" fill="#F0C52E"/>
<path d="M98.6172 81.4391C98.6172 81.4391 102.576 78.1833 105.536 77.2261C107.132 76.712 105.176 77.817 102.942 79.1937C101.052 80.34 98.7649 81.6872 98.6172 81.4391Z" fill="#F0C52E"/>
<path d="M111.28 77.2673C111.28 77.2673 115.812 75.6011 118.779 75.802C120.386 75.9083 118.282 76.2688 115.866 76.7296C113.815 77.1255 111.345 77.5628 111.28 77.2673Z" fill="#F0C52E"/>
<path d="M114.246 74.3006C114.246 74.3006 118.778 72.6343 121.744 72.8352C123.352 72.9415 121.248 73.302 118.831 73.7628C116.781 74.1587 114.311 74.596 114.246 74.3006Z" fill="#F0C52E"/>
<path d="M110.837 78.3958C110.837 78.3958 117.378 78.0708 120.196 79.223C121.721 79.8494 119.156 79.5598 116.149 79.288C113.602 79.0517 110.571 78.7326 110.837 78.3958Z" fill="#F0C52E"/>
<path d="M108.249 78.0943C108.249 78.0943 112.214 74.8385 115.168 73.8872C116.77 73.3732 114.814 74.4781 112.58 75.8549C110.689 77.0012 108.397 78.3484 108.249 78.0943Z" fill="#F0C52E"/>
<path d="M95.8401 78.7977C95.8401 78.7977 101.643 77.3678 104.81 77.9705C106.523 78.2955 104.03 78.4668 101.146 78.7209C98.7236 78.9395 95.7692 79.1582 95.8401 78.7977Z" fill="#F0C52E"/>
<path d="M92.8739 82.8749C92.8739 82.8749 98.6764 81.4449 101.843 82.0476C103.557 82.3726 101.069 82.544 98.18 82.7981C95.7338 83.0167 92.8148 83.2353 92.8739 82.8749Z" fill="#F0C52E"/>
<path d="M93.9968 85.4686C93.9968 85.4686 99.7993 84.0387 102.966 84.6414C104.686 84.9664 102.192 85.1377 99.3029 85.3918C96.8449 85.6104 93.9141 85.8291 93.9968 85.4686Z" fill="#F0C52E"/>
<path d="M98.4339 82.8749C98.4339 82.8749 104.236 81.4449 107.403 82.0476C109.117 82.3726 106.623 82.544 103.74 82.7981C101.294 83.0167 98.363 83.2353 98.4339 82.8749Z" fill="#F0C52E"/>
<path d="M93.8369 78.5137C93.8369 78.5137 99.8107 78.62 102.7 80.0145C104.278 80.7649 101.826 80.2922 98.9657 79.8018C96.5667 79.3823 93.6714 78.8505 93.8369 78.5137Z" fill="#F0C52E"/>
<path d="M97.0278 76.7061C97.0278 76.7061 103.002 76.8124 105.891 78.201C107.469 78.9573 105.017 78.4846 102.157 77.9942C99.7577 77.5746 96.8683 77.0369 97.0278 76.7061Z" fill="#F0C52E"/>
<path d="M100.721 77.1788C100.721 77.1788 105.412 75.0989 108.514 74.963C110.193 74.8921 108.006 75.4652 105.495 76.1447C103.368 76.7711 100.798 77.4565 100.721 77.1788Z" fill="#F0C52E"/>
<path d="M115.86 77.5451C115.86 77.5451 121.81 77.1729 124.847 77.9587C126.495 78.3783 124.002 78.2246 121.113 78.0828C118.666 77.9647 115.73 77.7992 115.86 77.5451Z" fill="#F0C52E"/>
<path d="M112.905 75.2402C112.905 75.2402 118.849 75.6716 121.638 76.8474C123.145 77.4797 120.74 76.9951 117.933 76.4693C115.57 76.032 112.734 75.4707 112.905 75.2402Z" fill="#F0C52E"/>
<path d="M120.308 73.6631C120.308 73.6631 124.48 77.297 124.829 79.6073C125.018 80.86 123.848 79.1937 122.406 77.2793C121.177 75.6544 119.777 73.6985 120.308 73.6631Z" fill="#F0C52E"/>
<path d="M112.355 73.2021C112.355 73.2021 118.607 74.6084 120.852 76.0916C122.07 76.9129 119.759 76.062 117.041 75.1402C114.725 74.3366 111.983 73.3676 112.355 73.2021Z" fill="#F0C52E"/>
<path d="M119.896 74.6908C119.896 74.6908 124.741 73.4677 127.843 73.5564C129.521 73.6095 127.293 73.8872 124.735 74.2477C122.566 74.549 119.949 74.8917 119.896 74.6908Z" fill="#F0C52E"/>
<path d="M113.938 72.3507C113.938 72.3507 118.931 72.1143 121.951 72.8175C123.588 73.2016 121.36 73.0302 118.766 72.8766C116.58 72.7407 113.95 72.5575 113.938 72.3507Z" fill="#F0C52E"/>
<path d="M106.896 73.462C106.896 73.462 111.888 73.2257 114.908 73.9288C116.545 74.3129 114.317 74.1474 111.729 73.9879C109.543 73.8579 106.913 73.6688 106.896 73.462Z" fill="#F0C52E"/>
<path d="M105.418 75.6836C105.418 75.6836 110.405 75.4531 113.43 76.1563C115.067 76.5345 112.839 76.369 110.245 76.2095C108.059 76.0795 105.43 75.8963 105.418 75.6836Z" fill="#F0C52E"/>
</svg>
