<svg width="203" height="196" viewBox="0 0 203 196" fill="none" xmlns="http://www.w3.org/2000/svg">
<path d="M104.95 104.847C108.704 104.847 111.747 101.807 111.747 98.0579C111.747 94.3085 108.704 91.269 104.95 91.269C101.196 91.269 98.1533 94.3085 98.1533 98.0579C98.1533 101.807 101.196 104.847 104.95 104.847Z" fill="#505056"/>
<path d="M104.949 60.7192V91.2691" stroke="#505056" stroke-width="5" stroke-linecap="round" stroke-linejoin="round"/>
<path d="M128.739 121.819L109.742 102.844" stroke="#505056" stroke-width="7" stroke-linecap="round" stroke-linejoin="round"/>
<path d="M104.95 162.552C140.61 162.552 169.518 133.677 169.518 98.0576C169.518 62.4385 140.61 33.5635 104.95 33.5635C69.29 33.5635 40.3818 62.4385 40.3818 98.0576C40.3818 133.677 69.29 162.552 104.95 162.552Z" stroke="#505056" stroke-width="5" stroke-linecap="round" stroke-linejoin="round"/>
<path d="M60.771 13.197C74.4427 6.24777 89.6113 2.75135 104.949 3.01375C125.871 3.02485 146.205 9.92673 162.802 22.6502C179.399 35.3737 191.331 53.2087 196.752 73.3925C202.173 93.5763 200.78 114.983 192.788 134.295C184.795 153.608 170.65 169.749 152.544 180.219C134.437 190.688 113.38 194.902 92.6336 192.206C71.8868 189.511 52.609 180.058 37.7859 165.31C22.9628 150.563 13.4215 131.345 10.6408 110.632C7.86012 89.9202 11.9943 68.8701 22.4038 50.7428" stroke="#505056" stroke-width="5" stroke-linecap="round" stroke-linejoin="round"/>
<path d="M3 57.3246L22.4142 50.7495L26.7882 70.9023" stroke="#505056" stroke-width="6" stroke-linecap="round" stroke-linejoin="round"/>
<path d="M104.949 43.7471V50.5359" stroke="#505056" stroke-width="5" stroke-linecap="round" stroke-linejoin="round"/>
<path d="M50.5762 98.0576H57.3728" stroke="#505056" stroke-width="5" stroke-linecap="round" stroke-linejoin="round"/>
<path d="M104.949 152.365V145.576" stroke="#505056" stroke-width="5" stroke-linecap="round" stroke-linejoin="round"/>
<path d="M159.323 98.0576H152.526" stroke="#505056" stroke-width="5" stroke-linecap="round" stroke-linejoin="round"/>
<path d="M82.4033 52.2671C82.067 51.6858 81.5644 51.2172 80.9614 50.9206C80.3584 50.6239 79.6814 50.5126 79.015 50.6006C78.3486 50.6886 77.723 50.9721 77.2179 51.4151C76.7128 51.8581 76.351 52.4409 76.1775 53.0895C76.004 53.7382 76.0274 54.4237 76.2439 55.0593C76.4604 55.6949 76.8602 56.2521 77.3938 56.6604C77.9274 57.0687 78.5699 57.3097 79.2407 57.3531C79.9114 57.3964 80.5803 57.2402 81.1622 56.9039C81.9421 56.4532 82.5109 55.7116 82.7435 54.8421C82.9761 53.9726 82.8543 53.0464 82.4033 52.2671V52.2671Z" fill="#505056"/>
<path d="M62.4976 69.6632C61.9152 69.3277 61.2469 69.1721 60.5761 69.2164C59.9052 69.2606 59.2623 69.5025 58.7292 69.9116C58.1961 70.3208 57.7966 70.8787 57.581 71.5147C57.3653 72.1507 57.3433 72.8363 57.5179 73.4848C57.6924 74.1332 58.0557 74.7155 58.5616 75.1577C59.0675 75.6 59.6937 75.8824 60.3603 75.9693C61.027 76.0562 61.7042 75.9437 62.3067 75.646C62.9093 75.3482 63.41 74.8786 63.7454 74.2966C64.1947 73.5169 64.3161 72.5909 64.0822 71.7221C63.8484 70.8533 63.2777 70.1128 62.4976 69.6632V69.6632Z" fill="#505056"/>
<path d="M59.0982 120.586C58.5167 120.923 58.049 121.424 57.7525 122.026C57.4561 122.629 57.3455 123.305 57.4339 123.971C57.5224 124.636 57.8051 125.26 58.2487 125.764C58.6922 126.269 59.2753 126.63 59.9246 126.803C60.5738 126.977 61.2614 126.954 61.8975 126.737C62.5337 126.521 63.0901 126.121 63.4988 125.588C63.9075 125.056 64.1488 124.414 64.1924 123.744C64.236 123.074 64.0806 122.407 63.7444 121.825C63.521 121.439 63.2227 121.101 62.8682 120.83C62.5138 120.558 62.1099 120.359 61.6785 120.244C61.2471 120.129 60.797 120.1 60.3544 120.159C59.9117 120.218 59.4847 120.363 59.0982 120.586V120.586Z" fill="#505056"/>
<path d="M76.5143 140.468C76.1796 141.05 76.026 141.718 76.0712 142.387C76.1165 143.057 76.3599 143.698 76.7698 144.23C77.1797 144.761 77.7379 145.16 78.3744 145.374C79.0109 145.589 79.6969 145.611 80.3457 145.436C80.9944 145.262 81.5758 144.899 82.0183 144.394C82.4608 143.889 82.7441 143.265 82.8314 142.599C82.9186 141.934 82.8068 141.258 82.5094 140.656C82.2121 140.054 81.7423 139.554 81.1604 139.219C80.7734 138.996 80.3457 138.851 79.9026 138.793C79.4595 138.735 79.01 138.765 78.5785 138.881C78.147 138.997 77.7428 139.197 77.3887 139.469C77.0347 139.741 76.7368 140.081 76.5143 140.468V140.468Z" fill="#505056"/>
<path d="M127.497 143.862C127.834 144.443 128.338 144.91 128.941 145.206C129.544 145.501 130.22 145.612 130.885 145.523C131.551 145.435 132.176 145.151 132.681 144.708C133.185 144.264 133.548 143.682 133.721 143.034C133.894 142.385 133.871 141.7 133.655 141.065C133.438 140.43 133.038 139.873 132.505 139.465C131.972 139.056 131.328 138.815 130.658 138.771C129.988 138.728 129.32 138.883 128.738 139.219C128.351 139.442 128.011 139.739 127.739 140.094C127.467 140.448 127.269 140.852 127.154 141.284C127.038 141.715 127.01 142.165 127.069 142.607C127.128 143.05 127.273 143.476 127.497 143.862V143.862Z" fill="#505056"/>
<path d="M147.402 126.466C147.984 126.8 148.651 126.955 149.322 126.911C149.992 126.866 150.634 126.624 151.167 126.215C151.699 125.806 152.1 125.248 152.315 124.613C152.531 123.977 152.552 123.292 152.378 122.644C152.204 121.995 151.841 121.413 151.336 120.971C150.831 120.529 150.205 120.246 149.539 120.158C148.873 120.071 148.197 120.182 147.594 120.479C146.992 120.776 146.49 121.245 146.154 121.826C145.93 122.212 145.786 122.639 145.728 123.081C145.669 123.523 145.698 123.973 145.814 124.404C145.93 124.835 146.131 125.239 146.403 125.593C146.675 125.946 147.015 126.243 147.402 126.466Z" fill="#505056"/>
<path d="M150.8 75.5425C151.381 75.2068 151.85 74.7062 152.147 74.1043C152.444 73.5023 152.555 72.826 152.467 72.1606C152.38 71.4953 152.097 70.8707 151.654 70.366C151.211 69.8614 150.629 69.4991 149.98 69.3251C149.331 69.1511 148.645 69.1731 148.009 69.3884C147.372 69.6036 146.813 70.0025 146.404 70.5346C145.994 71.0666 145.753 71.708 145.709 72.3777C145.664 73.0473 145.818 73.7151 146.153 74.2968C146.376 74.6835 146.674 75.0226 147.028 75.2945C147.382 75.5665 147.786 75.7661 148.218 75.8818C148.649 75.9975 149.099 76.0271 149.542 75.9689C149.985 75.9107 150.413 75.7658 150.8 75.5425V75.5425Z" fill="#505056"/>
<path d="M133.383 55.6616C133.719 55.0802 133.874 54.4124 133.829 53.7427C133.785 53.073 133.543 52.4313 133.134 51.8989C132.725 51.3665 132.168 50.9672 131.531 50.7514C130.895 50.5357 130.209 50.5132 129.56 50.6868C128.911 50.8604 128.327 51.2223 127.884 51.7267C127.441 52.2312 127.157 52.8555 127.069 53.5209C126.981 54.1863 127.093 54.8627 127.39 55.4649C127.686 56.067 128.155 56.5679 128.737 56.9039C129.124 57.1273 129.55 57.2724 129.993 57.3308C130.436 57.3893 130.886 57.36 131.317 57.2446C131.749 57.1293 132.153 56.9301 132.507 56.6584C132.861 56.3868 133.16 56.0481 133.383 55.6616V55.6616Z" fill="#505056"/>
</svg>
