<svg width="150" height="208" viewBox="0 0 150 208" fill="none" xmlns="http://www.w3.org/2000/svg">
<path d="M100.949 136.082C100.949 136.082 126.326 149.979 136.194 157.99C138.533 159.908 140.538 162.208 142.124 164.796C145.039 169.638 146.549 175.21 146.481 180.877V204.13H4.00222V180.877C3.93383 175.21 5.44358 169.638 8.35928 164.796C9.94537 162.208 11.9499 159.908 14.2895 157.99C24.1552 149.979 49.5343 136.082 49.5343 136.082" stroke="black" stroke-width="7" stroke-miterlimit="10" stroke-linecap="round"/>
<path d="M109.48 91.9829C110.447 96.1396 110.933 100.396 110.927 104.666C110.927 129.473 94.8993 149.581 75.1232 149.581C55.3471 149.581 39.3184 129.473 39.3184 104.666C39.313 100.396 39.7986 96.1403 40.7657 91.9839" stroke="black" stroke-width="7" stroke-miterlimit="10" stroke-linecap="round"/>
<path d="M37.8822 22.4927C30.3664 23.1614 23.7397 29.1868 21.5483 36.4784C20.5088 40.1555 20.55 44.0585 21.6669 47.7125C22.7838 51.3664 24.9282 54.6136 27.8391 57.0589C31.8474 60.2229 36.5427 62.3796 41.5381 63.3512V82.576L41.6907 82.625C63.4421 89.5881 86.793 89.5881 108.544 82.625L108.698 82.576V63.3512C113.693 62.3794 118.389 60.2227 122.397 57.0589C125.308 54.6134 127.452 51.3662 128.569 47.7123C129.686 44.0585 129.727 40.1556 128.688 36.4784C126.494 29.1868 119.869 23.1614 112.353 22.4927" stroke="black" stroke-width="7" stroke-miterlimit="10" stroke-linecap="round"/>
<path d="M43.4991 35.5271C41.8039 33.9264 40.4468 31.996 39.5095 29.8518C38.5722 27.7076 38.074 25.3941 38.0449 23.0504C38.0449 12.5288 48.0393 4 60.3692 4C72.6991 4 82.6935 12.5288 82.6935 23.0504" stroke="black" stroke-width="7" stroke-miterlimit="10" stroke-linecap="round"/>
<path d="M106.738 35.5271C108.434 33.9265 109.791 31.996 110.729 29.8518C111.666 27.7076 112.164 25.3941 112.194 23.0504C112.194 12.5288 102.198 4 89.8693 4C88.2494 3.99922 86.6328 4.14888 85.04 4.4471" stroke="black" stroke-width="7" stroke-miterlimit="10" stroke-linecap="round"/>
<path d="M75.1186 178.669C75.7477 178.669 76.2577 178.154 76.2577 177.519C76.2577 176.883 75.7477 176.368 75.1186 176.368C74.4895 176.368 73.9795 176.883 73.9795 177.519C73.9795 178.154 74.4895 178.669 75.1186 178.669Z" stroke="black" stroke-width="7" stroke-miterlimit="10" stroke-linecap="round"/>
<path d="M75.1186 192.356C75.7477 192.356 76.2577 191.841 76.2577 191.206C76.2577 190.57 75.7477 190.055 75.1186 190.055C74.4895 190.055 73.9795 190.57 73.9795 191.206C73.9795 191.841 74.4895 192.356 75.1186 192.356Z" stroke="black" stroke-width="7" stroke-miterlimit="10" stroke-linecap="round"/>
<path d="M96.333 157.496L85.9798 167.953L75.1191 159.324L64.2594 167.954L53.9062 157.497" stroke="black" stroke-width="7" stroke-linecap="round" stroke-linejoin="round"/>
</svg>
