<svg width="317" height="183" viewBox="0 0 317 183" fill="none" xmlns="http://www.w3.org/2000/svg">
<path d="M86.3534 179C100.567 179 112.089 167.478 112.089 153.265C112.089 139.052 100.567 127.53 86.3534 127.53C72.1402 127.53 60.6182 139.052 60.6182 153.265C60.6182 167.478 72.1402 179 86.3534 179Z" stroke="black" stroke-width="7" stroke-linecap="round" stroke-linejoin="round"/>
<path d="M261.352 179C275.566 179 287.088 167.478 287.088 153.265C287.088 139.052 275.566 127.53 261.352 127.53C247.139 127.53 235.617 139.052 235.617 153.265C235.617 167.478 247.139 179 261.352 179Z" stroke="black" stroke-width="7" stroke-linecap="round" stroke-linejoin="round"/>
<path d="M261.354 163.559C267.039 163.559 271.648 158.95 271.648 153.265C271.648 147.58 267.039 142.971 261.354 142.971C255.668 142.971 251.06 147.58 251.06 153.265C251.06 158.95 255.668 163.559 261.354 163.559Z" fill="#464747"/>
<path d="M86.3527 163.559C92.038 163.559 96.6468 158.95 96.6468 153.265C96.6468 147.58 92.038 142.971 86.3527 142.971C80.6674 142.971 76.0586 147.58 76.0586 153.265C76.0586 158.95 80.6674 163.559 86.3527 163.559Z" fill="#464747"/>
<path d="M302.529 148.118C305.259 148.118 307.877 147.033 309.807 145.103C311.738 143.172 312.823 140.554 312.823 137.824V85.8023C312.823 82.8321 311.796 79.9534 309.916 77.6545L270.36 29.3082C269.153 27.833 267.634 26.6443 265.912 25.828C264.189 25.0118 262.306 24.5884 260.4 24.5884H215.029V148.118H220.176" stroke="black" stroke-width="7" stroke-linecap="round" stroke-linejoin="round"/>
<path d="M235.617 86.3527H290.433L256.716 45.1763H235.617V86.3527Z" stroke="black" stroke-width="7" stroke-linecap="round" stroke-linejoin="round"/>
<path d="M312.824 106.941H292.235V127.53H312.824" stroke="black" stroke-width="7" stroke-linecap="round" stroke-linejoin="round"/>
<path d="M215.03 148.118H132.677" stroke="black" stroke-width="7" stroke-linecap="round" stroke-linejoin="round"/>
<path d="M29.7354 86.353V148.118H40.0295" stroke="black" stroke-width="7" stroke-linecap="round" stroke-linejoin="round"/>
<path d="M215.029 24.5882V4H29.7354V19.4412" stroke="black" stroke-width="7" stroke-linecap="round" stroke-linejoin="round"/>
<path d="M122.382 112.088L86.3525 76.0587L101.794 60.6175L122.382 81.2057L163.558 40.0293L179 55.4705L122.382 112.088Z" stroke="black" stroke-width="7" stroke-linecap="round" stroke-linejoin="round"/>
<path d="M4 65.7642H65.7647" stroke="black" stroke-width="7" stroke-linecap="round" stroke-linejoin="round"/>
<path d="M19.4404 40.0293H81.2051" stroke="black" stroke-width="7" stroke-linecap="round" stroke-linejoin="round"/>
</svg>
