<svg width="296" height="208" viewBox="0 0 296 208" fill="none" xmlns="http://www.w3.org/2000/svg">
<path d="M51.0005 135.621C50.988 136.796 51.2088 137.962 51.6499 139.052C52.091 140.141 52.7437 141.132 53.5703 141.967C54.3969 142.803 55.381 143.466 56.4656 143.919C57.5502 144.371 58.7137 144.604 59.8889 144.604C61.0642 144.604 62.2279 144.371 63.3125 143.919C64.3971 143.466 65.3812 142.803 66.2078 141.967C67.0344 141.132 67.6871 140.141 68.1282 139.052C68.5693 137.962 68.7901 136.796 68.7776 135.621C68.7776 130.712 65.1334 128.444 59.8894 126.732C55.2224 125.209 51.0005 122.753 51.0005 117.843C51.0253 115.502 51.9728 113.265 53.637 111.619C55.3012 109.972 57.5477 109.048 59.8889 109.048C62.2301 109.048 64.4769 109.972 66.1411 111.619C67.8053 113.265 68.7528 115.502 68.7776 117.843" stroke="black" stroke-width="4.552" stroke-linecap="round" stroke-linejoin="round"/>
<path d="M59.8896 104V109.015" stroke="black" stroke-width="4.552" stroke-linecap="round" stroke-linejoin="round"/>
<path d="M59.8896 144.51V149.525" stroke="black" stroke-width="4.552" stroke-linecap="round" stroke-linejoin="round"/>
<path d="M291.67 122.827H285.417C282.099 122.827 278.918 121.509 276.573 119.164C274.227 116.818 272.909 113.636 272.909 110.319V16.5081C272.909 13.1908 274.227 10.0093 276.573 7.66354C278.918 5.31781 282.099 4 285.417 4H291.67" stroke="black" stroke-width="7" stroke-linecap="round" stroke-linejoin="round"/>
<path d="M272.909 16.5083H182.856C177.134 16.512 171.485 17.791 166.319 20.2521C161.154 22.7133 156.602 26.2948 152.994 30.7363L144.208 41.5245" stroke="black" stroke-width="7" stroke-linecap="round" stroke-linejoin="round"/>
<path d="M180.542 47.7783L152.513 76.2655C149.512 79.3492 147.833 83.4824 147.833 87.7855C147.833 92.0886 149.512 96.2218 152.513 99.3055C153.997 100.812 155.765 102.009 157.715 102.826C159.665 103.643 161.759 104.063 163.873 104.063C165.988 104.063 168.081 103.643 170.031 102.826C171.981 102.009 173.75 100.812 175.233 99.3055L196.302 77.9041C201.065 82.3472 207.053 85.2587 213.489 86.2622C219.925 87.2657 226.514 86.3148 232.404 83.5327C235.687 82.0132 238.786 80.1248 241.641 77.9041" stroke="black" stroke-width="7" stroke-linecap="round" stroke-linejoin="round"/>
<path d="M272.909 110.319H261.165C256.951 118.897 250.112 125.908 241.641 130.332" stroke="black" stroke-width="7" stroke-linecap="round" stroke-linejoin="round"/>
<path d="M85.2979 160.352H4" stroke="black" stroke-width="7" stroke-linecap="round" stroke-linejoin="round"/>
<path d="M147.835 129.081H72.791" stroke="black" stroke-width="7" stroke-linecap="round" stroke-linejoin="round"/>
<path d="M47.7756 129.081H22.7607" stroke="black" stroke-width="7" stroke-linecap="round" stroke-linejoin="round"/>
<path d="M4 97.811H85.2979" stroke="black" stroke-width="7" stroke-linecap="round" stroke-linejoin="round"/>
<path d="M18.7607 72.7947V54.0325C18.7607 50.7152 20.0785 47.5337 22.4241 45.1879C24.7697 42.8422 27.951 41.5244 31.2681 41.5244H156.342" stroke="black" stroke-width="7" stroke-linecap="round" stroke-linejoin="round"/>
<path d="M241.64 104.065V191.622C241.64 194.939 240.323 198.121 237.977 200.466C235.631 202.812 232.45 204.13 229.133 204.13H35.2682C31.951 204.13 28.7697 202.812 26.4241 200.466C24.0785 198.121 22.7607 194.939 22.7607 191.622V160.352" stroke="black" stroke-width="7" stroke-linecap="round" stroke-linejoin="round"/>
<path d="M101 151.009H108.413C110.186 150.921 111.928 151.496 113.299 152.624C113.914 153.178 114.399 153.862 114.717 154.627C115.035 155.392 115.178 156.218 115.137 157.045C115.191 157.874 115.055 158.705 114.738 159.474C114.422 160.242 113.933 160.928 113.31 161.478C111.904 162.551 110.16 163.087 108.394 162.991H104.37V169.507H101.008L101 151.009ZM107.989 160.218C110.51 160.218 111.771 159.161 111.771 157.045C111.771 154.872 110.51 153.785 107.989 153.785H104.362V160.215L107.989 160.218Z" fill="black"/>
<path d="M121.494 151.009H124.747L132.133 169.515H128.729L127.038 165.252H119.198L117.508 169.515H114.066L121.494 151.009ZM126.097 162.473L123.105 154.609L120.114 162.473H126.097Z" fill="black"/>
<path d="M137.401 162.473L130.673 151.009H134.251L139.012 159.243L143.91 151.009H147.461L140.6 162.473V169.515H137.401V162.473Z" fill="black"/>
<path d="M149.182 151.009H152.464L158.659 164.56L164.854 151.009H168.141V169.515H164.96V157.491L159.457 169.515H157.865L152.358 157.491V169.515H149.182V151.009Z" fill="black"/>
<path d="M171.314 151.009H183.837V153.785H174.677V158.872H181.484V161.648H174.677V166.735H183.837V169.515H171.314V151.009Z" fill="black"/>
<path d="M186.219 151.009H189.396L198.052 163.902V151.009H201.415V169.515H198.241L189.585 156.591V169.515H186.219V151.009Z" fill="black"/>
<path d="M209.122 153.785H203.532V151.009H218.066V153.785H212.48V169.515H209.122V153.785Z" fill="black"/>
</svg>
