<svg width="180" height="180" viewBox="0 0 180 180" fill="none" xmlns="http://www.w3.org/2000/svg">
<g clip-path="url(#clip0_227_1175)">
<path d="M31.9961 89.9045C31.9961 89.7755 31.9961 89.6481 31.9961 89.522C31.9961 87.3723 33.0628 85.3018 35.0316 83.3675H35.0933C35.5325 83.3435 35.9712 83.423 36.3784 83.6005C36.5295 83.6752 36.66 83.7902 36.7573 83.9346C36.8746 84.1171 36.9377 84.3331 36.9385 84.5544C36.9879 85.9436 35.5176 88.3966 35.1675 91.1486C35.1675 91.2277 35.1469 91.3069 35.1386 91.3904C35.1091 91.6824 35.0939 91.9759 35.0933 92.2696C35.1357 93.623 35.4151 94.956 35.9171 96.1997L36.0612 96.5822L35.8759 96.4239C35.7894 96.3536 35.707 96.2789 35.6246 96.2041L35.3816 95.9843L35.151 95.7645C34.9986 95.6195 34.8462 95.47 34.7062 95.3249C34.5661 95.1798 34.4549 95.0524 34.3355 94.9161C33.8935 94.4213 33.495 93.8842 33.1452 93.3115L33.0422 93.1356C32.8891 92.8725 32.7515 92.5994 32.6304 92.318C32.5686 92.1773 32.5109 92.0366 32.4574 91.8784C32.4286 91.7992 32.3997 91.7201 32.375 91.641C32.3503 91.5618 32.3215 91.4783 32.2968 91.3992C32.1935 91.0475 32.1177 90.6872 32.0702 90.3221C32.0702 90.2562 32.0702 90.1946 32.0702 90.1287C32.0702 90.0628 32.0702 90.0012 32.0702 89.9397C32.072 89.928 32.072 89.9161 32.0702 89.9045H31.9961Z" fill="#BF4E49"/>
<path d="M36.6916 98.3316C37.1529 99.7032 37.9272 103.167 35.9049 103.167C35.3159 103.167 34.5705 103.167 33.7303 103.167C28.6684 103.093 19.3149 99.101 20.0398 91.7375V91.2979C20.6988 96.9381 27.9394 98.6614 32.5935 98.7713C33.5614 98.7713 34.4181 98.7713 35.0647 98.7713C35.9296 98.7537 36.4321 98.6086 36.6916 98.3316Z" fill="#353535"/>
<path d="M149.353 89.9043C149.353 89.9043 149.353 89.9438 149.353 89.9614C149.353 89.979 149.353 90.0889 149.353 90.1505C149.353 90.212 149.353 90.2779 149.353 90.3439C149.306 90.709 149.23 91.0692 149.127 91.4209C149.102 91.5001 149.077 91.5792 149.049 91.6627C149.02 91.7462 148.995 91.821 148.966 91.9001C148.913 92.0452 148.855 92.1859 148.793 92.3397C148.672 92.6212 148.535 92.8943 148.381 93.1574L148.278 93.3332C147.929 93.9059 147.53 94.4431 147.088 94.9378C146.967 95.0756 146.844 95.2119 146.717 95.3467C146.577 95.4961 146.425 95.6456 146.273 95.7863L146.042 96.0061L145.799 96.2259C145.717 96.3006 145.634 96.3754 145.548 96.4457L145.247 96.7007L144.979 96.9161C144.712 97.1315 144.427 97.3557 144.135 97.5579L143.637 97.9052C143.114 98.2657 142.558 98.6218 141.989 98.9647L141.643 99.1669C138.181 101.063 134.544 102.573 130.791 103.673C130.259 103.836 129.72 103.994 129.168 104.152L128.781 104.262L128.031 104.469C127.549 104.601 127.059 104.728 126.565 104.855C125.477 105.128 124.365 105.392 123.22 105.647L122.751 105.744C121.738 105.963 120.703 106.171 119.645 106.368C119.114 106.469 118.583 106.566 118.043 106.658L117.129 106.812C116.717 106.882 116.305 106.944 115.893 107.01C115.119 107.133 114.336 107.248 113.546 107.357C112.063 107.565 110.553 107.751 109.015 107.915C108.381 107.986 107.742 108.051 107.096 108.113C105.012 108.311 102.878 108.473 100.708 108.597C99.4269 108.667 98.1295 108.728 96.8198 108.772H96.548C95.6295 108.799 94.7028 108.825 93.772 108.838C92.767 108.856 91.7552 108.865 90.7365 108.865C89.7178 108.865 88.706 108.856 87.7011 108.838C86.7702 108.838 85.8435 108.799 84.9251 108.772H84.6532C83.3435 108.728 82.0461 108.667 80.7652 108.597L79.0436 108.491L78.5906 108.46L77.6556 108.39L76.8566 108.328L76.2841 108.28L74.3977 108.113C73.7511 108.051 73.1127 107.986 72.4785 107.915L71.8195 107.845L70.8351 107.731L70.2091 107.656H70.1143L69.5295 107.581H69.4183L68.3721 107.44L67.8738 107.374L66.807 107.221L65.5261 107.027L64.9413 106.935L64.307 106.829L63.3927 106.675C62.8531 106.583 62.3218 106.486 61.7905 106.385C60.7306 106.189 59.6955 105.981 58.685 105.761L58.2155 105.664C57.0705 105.409 55.9585 105.146 54.8711 104.873C54.3769 104.746 53.8868 104.618 53.4049 104.486L52.6553 104.28L52.2681 104.17C51.7162 104.011 51.1767 103.853 50.6454 103.691C46.8814 102.585 43.2348 101.066 39.7639 99.1581L39.4179 98.9559C38.8289 98.613 38.2729 98.2569 37.7704 97.8964L37.2721 97.5491L36.8973 97.2766C36.7366 97.1579 36.5801 97.0348 36.4277 96.9117L36.16 96.6963L36.0447 96.5996L35.8594 96.4413C35.7729 96.371 35.6905 96.2962 35.6081 96.2215L35.3651 96.0017L35.1345 95.7819C34.9821 95.6368 34.8297 95.4873 34.6897 95.3423C34.5496 95.1972 34.4384 95.0697 34.319 94.9334C33.877 94.4387 33.4785 93.9015 33.1287 93.3288L33.0257 93.153C32.8726 92.8899 32.735 92.6168 32.6138 92.3353C32.5521 92.1946 32.4944 92.054 32.4409 91.8957C32.412 91.8166 32.3832 91.7375 32.3585 91.6583C32.3338 91.5792 32.3049 91.4957 32.2802 91.4165C32.177 91.0648 32.1012 90.7046 32.0537 90.3395C32.0537 90.2735 32.0537 90.212 32.0537 90.1461C32.0537 90.0801 32.0537 90.0186 32.0537 89.957C32.0555 89.9454 32.0555 89.9335 32.0537 89.9219V89.9219C32.2061 86.8929 33.7424 84.8971 36.4236 83.6178C36.5884 83.5431 36.7572 83.4639 36.9343 83.3936C37.5878 83.1114 38.2578 82.875 38.9401 82.6858C48.8249 80.013 68.298 82.9364 90.6871 82.9364C113.076 82.9364 132.529 80.0042 142.422 82.6858C146.676 83.8288 149.16 86.0137 149.353 89.9043Z" fill="#353535"/>
<path d="M149.366 89.5218C149.366 89.6507 149.366 89.7782 149.366 89.9042C149.366 89.9042 149.366 89.9438 149.366 89.9614H146.483C146.504 89.7585 146.515 89.5545 146.516 89.3503C146.516 86.9896 145.074 84.7388 142.455 82.677C134.176 76.1575 114.127 71.5592 90.708 71.5592C67.2892 71.5592 47.2066 76.1575 38.9404 82.6858C38.2199 83.2436 37.5497 83.872 36.9388 84.5629C36.6976 84.828 36.4733 85.11 36.2674 85.407C35.4033 86.5231 34.9147 87.9161 34.8794 89.3635C34.88 89.5677 34.891 89.7717 34.9124 89.9746H32.0293C32.0311 89.9629 32.0311 89.951 32.0293 89.9394V89.9394C32.0293 89.8104 32.0293 89.6829 32.0293 89.5569C32.0293 87.4072 33.096 85.3366 35.0648 83.4023C35.5628 82.9148 36.0867 82.4583 36.634 82.0351C45.5385 75.0893 66.4037 70.214 90.7203 70.214C123.089 70.1788 149.366 78.8392 149.366 89.5218Z" fill="#444444"/>
<path d="M89.4398 137C117.532 137 140.305 131.981 140.305 125.79C140.305 119.599 117.532 114.58 89.4398 114.58C61.3475 114.58 38.5742 119.599 38.5742 125.79C38.5742 131.981 61.3475 137 89.4398 137Z" fill="#CECECE"/>
<path d="M90.6752 107.133C121.497 107.133 146.483 99.1696 146.483 89.3463C146.483 79.523 121.497 71.5596 90.6752 71.5596C59.8533 71.5596 34.8672 79.523 34.8672 89.3463C34.8672 99.1696 59.8533 107.133 90.6752 107.133Z" fill="#C6C6C6"/>
<path d="M34.9004 89.9617C34.9004 89.9617 57.3801 82.0179 62.8744 81.1695C68.3687 80.321 89.1186 81.7893 92.117 80.7299C95.1153 79.6704 109.807 81.0772 121.36 82.9279C125.696 83.6225 146.483 84.3391 146.483 89.3463C146.483 94.3535 143.889 111.745 89.1886 107.445C34.4885 103.146 37.4045 103.15 34.9004 89.9617Z" fill="#47201A"/>
<path d="M76.7989 85.4859C76.7989 87.8203 71.1152 89.9612 65.3943 89.9612C59.6735 89.9612 56.082 87.8203 56.082 85.4859C56.082 83.7275 58.7592 80.6194 62.5566 79.2346C63.4048 78.9207 64.2835 78.7098 65.1761 78.606C65.5398 78.561 65.9055 78.536 66.2716 78.5313H66.4405C66.9141 78.5307 67.3873 78.5615 67.8573 78.6236C72.9109 79.2918 76.7989 83.3494 76.7989 85.4859Z" fill="#4F2518"/>
<path d="M67.8575 78.6236C67.7459 79.1537 67.5887 79.6717 67.388 80.171C67.0831 80.9403 66.7294 81.6864 66.3295 82.4043C65.0197 84.7606 63.3228 86.6685 62.8327 85.2398C62.4497 84.11 63.2157 82.5142 64.2495 81.0283C64.7473 80.3224 65.2822 79.6472 65.8517 79.0061C65.9917 78.839 66.129 78.6807 66.2636 78.5313H66.4324C66.9088 78.5303 67.3847 78.5611 67.8575 78.6236V78.6236Z" fill="#F4F4F4"/>
<path d="M70.5756 83.429C69.999 84.0445 68.1291 83.429 66.3293 82.4047C65.6123 82.0003 64.924 81.5404 64.2699 81.0287C63.597 80.5603 63.0209 79.9499 62.5771 79.2351C63.4254 78.9211 64.3041 78.7102 65.1966 78.6064C65.4281 78.7272 65.6536 78.8607 65.8721 79.0065C66.4066 79.36 66.9197 79.7491 67.4083 80.1715C68.538 81.1723 69.5967 82.2611 70.5756 83.429V83.429Z" fill="#F4F4F4"/>
<path d="M91.6591 48.8709C90.337 55.2585 85.1022 52.8802 84.6986 58.4501C84.2949 64.0199 78.2076 58.3841 78.5782 64.2793C78.9489 70.1745 75.9958 68.1039 76.2347 71.5593C76.4736 75.0147 77.2438 79.2481 77.2438 79.2481C77.2438 79.2481 73.5699 87.5744 73.99 90.5242C74.4101 93.474 73.6853 97.1184 73.018 99.7033C72.3508 102.288 74.1424 104.434 74.1424 104.434C74.1424 104.434 76.6466 98.3713 78.8253 93.0651C81.0041 87.759 79.2372 78.4788 84.8551 75.8675C90.4729 73.2562 97.7877 73.4057 97.0134 65.6377C96.2391 57.8698 101.186 51.7152 102.421 49.5171C103.657 47.3191 99.7523 44 99.7523 44C99.7523 44 92.4211 45.1474 91.6591 48.8709Z" fill="#0E5110"/>
<path d="M93.6488 55.0166C93.6488 55.0166 80.5884 70.3107 80.1725 77.938C79.7565 85.5653 79.0439 90.2471 79.0439 90.2471C79.0439 90.2471 83.5745 73.2605 86.0004 69.093C88.4263 64.9255 93.6488 55.0166 93.6488 55.0166Z" fill="#377C37"/>
<path d="M96.7582 57.7688C96.3463 64.2927 90.8273 62.7628 91.198 68.3195C91.5687 73.8762 84.7687 69.2735 85.9467 75.05C87.1246 80.8265 83.9244 79.2351 84.6369 82.6157C85.3495 85.9963 86.6963 90.0627 86.6963 90.0627C86.6963 90.0627 84.2251 98.877 85.0488 101.73C85.8725 104.583 85.6584 108.324 85.3536 110.962C85.0488 113.6 87.1205 115.464 87.1205 115.464C87.1205 115.464 88.768 109.072 90.1807 103.484C91.5934 97.8966 88.5744 88.9769 93.7721 85.5215C98.9699 82.0662 106.223 81.0551 104.386 73.4894C102.549 65.9236 106.589 59.0613 107.508 56.6962C108.426 54.331 104.118 51.6582 104.118 51.6582C104.118 51.6582 97.0135 53.9662 96.7582 57.7688Z" fill="#0E5110"/>
<path d="M99.584 63.5322C99.584 63.5322 88.7766 80.7123 89.4192 88.322C90.0617 95.9317 90.0122 100.653 90.0122 100.653C90.0122 100.653 92.154 83.1258 93.962 78.6373C95.7701 74.1489 99.584 63.5322 99.584 63.5322Z" fill="#377C37"/>
<path d="M103.916 65.2201C103.566 70.6097 99.0193 69.348 99.3282 73.9508C99.6371 78.5535 94.0192 74.7377 94.9912 79.5075C95.9632 84.2773 93.3067 82.9628 93.908 85.7632C94.5093 88.5635 95.6049 91.9177 95.6049 91.9177C95.6049 91.9177 93.5456 99.1933 94.2375 101.55C94.9294 103.906 94.74 106.992 94.4887 109.173C94.2375 111.353 95.9426 112.892 95.9426 112.892C95.9426 112.892 97.2977 107.616 98.4756 102.996C99.6536 98.3756 97.1453 91.0297 101.437 88.1678C105.729 85.306 111.734 84.4795 110.201 78.2326C108.669 71.9857 112.022 66.3191 112.78 64.3628C113.538 62.4066 109.979 60.2041 109.979 60.2041C109.979 60.2041 104.122 62.0812 103.916 65.2201Z" fill="#0E5110"/>
<path d="M106.252 69.9854C106.252 69.9854 97.3265 84.1672 97.8578 90.4493C98.3891 96.7314 98.3355 100.635 98.3355 100.635C98.3355 100.635 100.115 86.1719 101.606 82.4528C103.097 78.7336 106.252 69.9854 106.252 69.9854Z" fill="#377C37"/>
<path d="M111.997 56.01C111.586 62.5339 106.067 61.004 106.437 66.5607C106.808 72.1174 100.008 67.5147 101.186 73.2912C102.364 79.0677 99.1637 77.4763 99.8762 80.8569C100.589 84.2375 101.936 88.304 101.936 88.304C101.936 88.304 99.4643 97.1182 100.288 99.9713C101.112 102.824 100.898 106.565 100.593 109.203C100.288 111.841 102.36 113.705 102.36 113.705C102.36 113.705 104.007 107.313 105.42 101.725C106.833 96.1378 103.814 87.2181 109.011 83.7628C114.209 80.3074 121.462 79.2963 119.625 71.7306C117.788 64.1648 121.829 57.3025 122.747 54.9374C123.666 52.5723 119.358 49.8994 119.358 49.8994C119.358 49.8994 112.253 52.2074 111.997 56.01Z" fill="#0E5110"/>
<path d="M114.822 61.7734C114.822 61.7734 104.015 78.9535 104.657 86.5632C105.3 94.1729 105.251 98.8943 105.251 98.8943C105.251 98.8943 107.392 81.367 109.2 76.8785C111.008 72.3901 114.822 61.7734 114.822 61.7734Z" fill="#377C37"/>
<path d="M119.156 63.4613C118.806 68.8509 114.259 67.5892 114.567 72.192C114.876 76.7947 109.258 72.9789 110.23 77.7487C111.202 82.5185 108.546 81.204 109.147 84.0044C109.749 86.8047 110.844 90.159 110.844 90.159C110.844 90.159 108.785 97.4345 109.477 99.7909C110.169 102.147 109.979 105.233 109.728 107.414C109.477 109.594 111.182 111.133 111.182 111.133C111.182 111.133 112.537 105.858 113.715 101.237C114.893 96.6169 112.385 89.2709 116.676 86.4091C120.968 83.5472 126.973 82.7207 125.441 76.4738C123.909 70.2269 127.261 64.5603 128.019 62.604C128.777 60.6478 125.218 58.4453 125.218 58.4453C125.218 58.4453 119.362 60.3225 119.156 63.4613Z" fill="#0E5110"/>
<path d="M121.491 68.2266C121.491 68.2266 112.566 82.4085 113.097 88.6905C113.628 94.9726 113.575 98.8763 113.575 98.8763C113.575 98.8763 115.354 84.4131 116.845 80.694C118.336 76.9748 121.491 68.2266 121.491 68.2266Z" fill="#377C37"/>
<path d="M77.3631 60.5381C77.6555 66.2839 82.5114 65.0266 82.1078 69.937C81.7042 74.8475 87.7462 70.8778 86.6383 75.9377C85.5304 80.9977 88.3599 79.6525 87.6845 82.6155C87.009 85.5784 85.7734 89.1349 85.7734 89.1349C85.7734 89.1349 87.8327 96.9248 87.0708 99.4174C86.3088 101.91 86.4447 105.203 86.6589 107.533C86.8731 109.863 85.0444 111.489 85.0444 111.489C85.0444 111.489 83.6894 105.84 82.5155 100.903C81.3417 95.9665 84.1301 88.181 79.6078 85.0509C75.0855 81.9209 68.7303 80.8834 70.4478 74.2628C72.1653 67.6423 68.7139 61.536 67.9354 59.4391C67.157 57.3421 70.9874 55.043 70.9874 55.043C70.9874 55.043 77.1942 57.1883 77.3631 60.5381Z" fill="#0E5110"/>
<path d="M74.7979 65.5625C74.7979 65.5625 84.0649 80.8434 83.3935 87.5431C82.7222 94.2428 82.7181 98.3796 82.7181 98.3796C82.7181 98.3796 81.0706 82.9404 79.5343 78.9531C77.9981 74.9658 74.7979 65.5625 74.7979 65.5625Z" fill="#377C37"/>
<path d="M86.9805 108.184C86.9805 108.184 96.5317 85.2051 99.7483 82.4707" stroke="#EFE6DA" stroke-width="2" stroke-miterlimit="10"/>
<path d="M100.749 83.4064C100.51 83.9559 99.8183 83.6746 98.9946 83.2657C98.1709 82.8569 97.5201 82.4744 97.759 81.9469C97.9979 81.4194 98.8628 81.2831 99.6906 81.6919C100.518 82.1008 100.988 82.8569 100.749 83.4064Z" fill="#EFE6DA"/>
<path d="M89.3369 112.399C89.3369 112.399 96.7505 88.546 99.716 85.4863" stroke="#EFE6DA" stroke-width="2" stroke-miterlimit="10"/>
<path d="M100.791 86.3306C100.601 86.9065 99.8887 86.6911 99.032 86.3702C98.1753 86.0492 97.4957 85.7371 97.6811 85.1656C97.8664 84.5941 98.719 84.3919 99.5798 84.726C100.441 85.0601 100.98 85.7635 100.791 86.3306Z" fill="#EFE6DA"/>
<path d="M84.584 110.821C84.584 110.821 91.9976 86.9679 94.9589 83.9082" stroke="#EFE6DA" stroke-width="2" stroke-miterlimit="10"/>
<path d="M96.0379 84.7564C95.8484 85.3322 95.1359 85.1212 94.2792 84.7959C93.4225 84.4706 92.7388 84.1673 92.9283 83.5914C93.1177 83.0155 93.9662 82.8177 94.8229 83.1518C95.6795 83.4859 96.2273 84.1849 96.0379 84.7564Z" fill="#EFE6DA"/>
<path d="M89.4434 116.817C89.4434 116.817 96.857 92.9596 99.8224 89.9043" stroke="#EFE6DA" stroke-width="2" stroke-miterlimit="10"/>
<path d="M100.901 90.7486C100.712 91.3201 99.9995 91.109 99.1387 90.7881C98.2779 90.4672 97.6024 90.1551 97.7918 89.5836C97.9813 89.0121 98.8298 88.8055 99.6864 89.144C100.543 89.4825 101.087 90.1595 100.901 90.7486Z" fill="#EFE6DA"/>
<path d="M91.2803 114.777C91.2803 114.777 98.6939 90.924 101.659 87.8643" stroke="#EFE6DA" stroke-width="2" stroke-miterlimit="10"/>
<path d="M102.734 88.7261C102.549 89.302 101.836 89.0866 100.976 88.7657C100.115 88.4448 99.4393 88.1326 99.6288 87.5611C99.8182 86.9896 100.663 86.7874 101.523 87.1215C102.384 87.4556 102.924 88.1546 102.734 88.7261Z" fill="#EFE6DA"/>
<path d="M83.4551 108.319C83.4551 108.319 90.8687 84.466 93.8341 81.4062" stroke="#EFE6DA" stroke-width="2" stroke-miterlimit="10"/>
<path d="M94.909 82.2466C94.7236 82.8225 94.0111 82.6071 93.1503 82.2862C92.2895 81.9652 91.614 81.6575 91.7994 81.0816C91.9847 80.5057 92.8373 80.3079 93.6981 80.642C94.5589 80.9761 95.0984 81.6795 94.909 82.2466Z" fill="#EFE6DA"/>
<path d="M90.7695 111.129C90.7695 111.129 100.321 88.1548 103.537 85.416" stroke="#EFE6DA" stroke-width="2" stroke-miterlimit="10"/>
<path d="M104.538 86.3703C104.299 86.9198 103.607 86.6385 102.784 86.2296C101.96 85.8208 101.309 85.4383 101.548 84.9108C101.787 84.3832 102.652 84.247 103.476 84.6558C104.299 85.0646 104.777 85.8208 104.538 86.3703Z" fill="#EFE6DA"/>
<path d="M86.4248 109.999C86.4248 109.999 94.1391 86.2604 97.1333 83.2314" stroke="#EFE6DA" stroke-width="2" stroke-miterlimit="10"/>
<path d="M98.1999 84.0928C98.0063 84.6643 97.2938 84.4401 96.4412 84.0928C95.5886 83.7455 94.9091 83.4422 95.1068 82.8707C95.3045 82.2992 96.1529 82.1102 97.0055 82.4311C97.858 82.752 98.3935 83.5213 98.1999 84.0928Z" fill="#EFE6DA"/>
<path d="M90.4238 112.61C90.4238 112.61 98.1381 88.8707 101.132 85.8418" stroke="#EFE6DA" stroke-width="2" stroke-miterlimit="10"/>
<path d="M102.208 86.7041C102.014 87.2756 101.302 87.0514 100.449 86.7041C99.5965 86.3569 98.9169 86.0535 99.1146 85.482C99.3123 84.9105 100.161 84.7215 101.013 85.0424C101.866 85.3633 102.405 86.1327 102.208 86.7041Z" fill="#EFE6DA"/>
<path d="M87.0381 114.039C87.0381 114.039 94.4517 90.1857 97.4171 87.126" stroke="#EFE6DA" stroke-width="2" stroke-miterlimit="10"/>
<path d="M98.4962 87.9615C98.3067 88.5373 97.5942 88.3219 96.7334 88.001C95.8726 87.6801 95.1971 87.368 95.3866 86.7965C95.576 86.225 96.4245 86.0228 97.2812 86.3569C98.1378 86.691 98.6815 87.3987 98.4962 87.9615Z" fill="#EFE6DA"/>
<path d="M86.0332 114.4C86.0332 114.4 91.1815 89.9529 93.8587 86.5811" stroke="#EFE6DA" stroke-width="2" stroke-miterlimit="10"/>
<path d="M95.0248 87.289C94.8889 87.8781 94.1558 87.755 93.2579 87.5352C92.36 87.3154 91.6516 87.0956 91.7834 86.5065C91.9152 85.9175 92.7513 85.6273 93.6492 85.8339C94.547 86.0405 95.1607 86.7044 95.0248 87.289Z" fill="#EFE6DA"/>
<path d="M82.3389 112.905C82.3389 112.905 89.7525 89.047 92.7138 85.9873" stroke="#EFE6DA" stroke-width="2" stroke-miterlimit="10"/>
<path d="M93.7927 86.8355C93.6033 87.407 92.8908 87.196 92.0341 86.875C91.1774 86.5541 90.4937 86.242 90.6832 85.6705C90.8726 85.099 91.7211 84.8924 92.5777 85.2309C93.4344 85.5694 93.9822 86.2596 93.7927 86.8355Z" fill="#EFE6DA"/>
<path d="M84.126 113.533C84.126 113.533 89.2743 89.0862 91.9514 85.7188" stroke="#EFE6DA" stroke-width="2" stroke-miterlimit="10"/>
<path d="M93.1172 86.4267C92.9854 87.0114 92.2481 86.8664 91.3544 86.6729C90.4606 86.4795 89.744 86.2333 89.8799 85.6398C90.0158 85.0464 90.8478 84.7606 91.7415 84.9672C92.6353 85.1739 93.2531 85.8377 93.1172 86.4267Z" fill="#EFE6DA"/>
<path d="M84.3359 115.736C84.3359 115.736 91.7495 91.8785 94.7109 88.8232" stroke="#EFE6DA" stroke-width="2" stroke-miterlimit="10"/>
<path d="M95.7781 89.6665C95.5886 90.238 94.8761 90.027 94.0194 89.7061C93.1627 89.3852 92.479 89.0731 92.6685 88.5016C92.858 87.9301 93.7064 87.7234 94.5631 88.0619C95.4198 88.4004 95.9799 89.095 95.7781 89.6665Z" fill="#EFE6DA"/>
<path d="M83.3145 114.167C83.3145 114.167 86.8277 89.3155 85.4891 85.1523" stroke="#EFE6DA" stroke-width="2" stroke-miterlimit="10"/>
<path d="M84.1712 85.3891C84.0971 85.9913 84.822 86.1452 85.724 86.2683C86.626 86.3914 87.3714 86.4485 87.4373 85.8287C87.5032 85.2088 86.8401 84.6373 85.9381 84.5099C85.0362 84.3824 84.2454 84.7868 84.1712 85.3891Z" fill="#EFE6DA"/>
<path d="M84.3857 112.694C84.3857 112.694 87.899 87.8384 86.5604 83.6797" stroke="#EFE6DA" stroke-width="2" stroke-miterlimit="10"/>
<path d="M85.2426 83.9125C85.1684 84.5148 85.8892 84.673 86.7912 84.7917C87.6932 84.9104 88.4386 84.972 88.5087 84.3521C88.5787 83.7323 87.9115 83.1608 87.0095 83.0333C86.1075 82.9058 85.3167 83.3102 85.2426 83.9125Z" fill="#EFE6DA"/>
<path d="M86.3301 115.09C86.3301 115.09 89.8433 90.2339 88.5047 86.0752" stroke="#EFE6DA" stroke-width="2" stroke-miterlimit="10"/>
<path d="M87.1869 86.308C87.1127 86.9103 87.8376 87.0686 88.7396 87.1872C89.6416 87.3059 90.3871 87.3675 90.453 86.7476C90.5189 86.1278 89.8599 85.5563 88.9579 85.4288C88.0559 85.3013 87.261 85.7058 87.1869 86.308Z" fill="#EFE6DA"/>
<path d="M83.0107 111.028C83.0107 111.028 88.155 86.5808 90.8362 83.209" stroke="#EFE6DA" stroke-width="2" stroke-miterlimit="10"/>
<path d="M91.9934 83.9209C91.8574 84.5056 91.1202 84.3605 90.2264 84.1671C89.3327 83.9736 88.616 83.7275 88.752 83.134C88.8879 82.5405 89.7199 82.2548 90.6136 82.4614C91.5074 82.668 92.1252 83.3318 91.9934 83.9209Z" fill="#EFE6DA"/>
<path d="M78.3311 101.589C78.3311 101.589 87.8823 78.6104 91.0989 75.876" stroke="#EFE6DA" stroke-width="2" stroke-miterlimit="10"/>
<path d="M92.0997 76.8127C91.8608 77.3622 91.1689 77.0808 90.3452 76.672C89.5214 76.2632 88.8707 75.8807 89.1096 75.3532C89.3485 74.8256 90.2134 74.6893 91.0412 75.0982C91.8691 75.507 92.3386 76.2632 92.0997 76.8127Z" fill="#EFE6DA"/>
<path d="M80.6875 105.805C80.6875 105.805 88.1011 81.9513 91.0665 78.8916" stroke="#EFE6DA" stroke-width="2" stroke-miterlimit="10"/>
<path d="M92.1413 79.7359C91.9518 80.3118 91.2393 80.0963 90.3826 79.7754C89.5259 79.4545 88.8463 79.1424 89.0317 78.5709C89.217 77.9994 90.0696 77.7972 90.9304 78.1313C91.7912 78.4654 92.3307 79.1688 92.1413 79.7359Z" fill="#EFE6DA"/>
<path d="M75.9346 104.227C75.9346 104.227 83.3482 80.3732 86.3095 77.3135" stroke="#EFE6DA" stroke-width="2" stroke-miterlimit="10"/>
<path d="M87.3885 78.1626C87.199 78.7385 86.4865 78.5275 85.6298 78.2022C84.7731 77.8769 84.0894 77.5735 84.2789 76.9976C84.4683 76.4217 85.3168 76.2239 86.1734 76.558C87.0301 76.8921 87.5779 77.5911 87.3885 78.1626Z" fill="#EFE6DA"/>
<path d="M80.7949 110.224C80.7949 110.224 88.2085 86.3659 91.174 83.3105" stroke="#EFE6DA" stroke-width="2" stroke-miterlimit="10"/>
<path d="M92.253 84.1538C92.0635 84.7253 91.351 84.5143 90.4902 84.1934C89.6294 83.8725 88.954 83.5604 89.1434 82.9889C89.3329 82.4174 90.1813 82.2107 91.038 82.5492C91.8947 82.8878 92.4383 83.5648 92.253 84.1538Z" fill="#EFE6DA"/>
<path d="M82.6318 108.184C82.6318 108.184 90.0454 84.3302 93.0109 81.2705" stroke="#EFE6DA" stroke-width="2" stroke-miterlimit="10"/>
<path d="M94.0858 82.1324C93.9005 82.7082 93.1879 82.4928 92.3271 82.1719C91.4663 81.851 90.7909 81.5389 90.9803 80.9674C91.1698 80.3959 92.0141 80.1937 92.8749 80.5278C93.7357 80.8619 94.2753 81.5609 94.0858 82.1324Z" fill="#EFE6DA"/>
<path d="M74.8057 101.726C74.8057 101.726 82.2193 77.8722 85.1847 74.8125" stroke="#EFE6DA" stroke-width="2" stroke-miterlimit="10"/>
<path d="M86.2596 75.6519C86.0742 76.2278 85.3617 76.0123 84.5009 75.6914C83.6401 75.3705 82.9646 75.0628 83.15 74.4869C83.3353 73.911 84.1879 73.7132 85.0487 74.0473C85.9095 74.3814 86.449 75.0848 86.2596 75.6519Z" fill="#EFE6DA"/>
<path d="M82.1211 104.534C82.1211 104.534 91.6723 81.5601 94.889 78.8213" stroke="#EFE6DA" stroke-width="2" stroke-miterlimit="10"/>
<path d="M95.8888 79.7756C95.6499 80.3251 94.958 80.0437 94.1342 79.6349C93.3105 79.226 92.6598 78.8436 92.8986 78.316C93.1375 77.7885 94.0024 77.6522 94.8262 78.0611C95.6499 78.4699 96.1277 79.226 95.8888 79.7756Z" fill="#EFE6DA"/>
<path d="M77.7754 103.405C77.7754 103.405 85.4897 79.6656 88.4839 76.6367" stroke="#EFE6DA" stroke-width="2" stroke-miterlimit="10"/>
<path d="M89.5505 77.4981C89.3569 78.0696 88.6444 77.8454 87.7918 77.4981C86.9392 77.1508 86.2597 76.8475 86.4573 76.276C86.655 75.7045 87.5035 75.5154 88.3561 75.8364C89.2086 76.1573 89.7441 76.9266 89.5505 77.4981Z" fill="#EFE6DA"/>
<path d="M81.7744 106.016C81.7744 106.016 89.4887 82.277 92.483 79.248" stroke="#EFE6DA" stroke-width="2" stroke-miterlimit="10"/>
<path d="M93.5583 80.1094C93.3647 80.6809 92.6522 80.4567 91.7996 80.1094C90.947 79.7621 90.2675 79.4588 90.4652 78.8873C90.6629 78.3158 91.5113 78.1268 92.3639 78.4477C93.2164 78.7686 93.756 79.5379 93.5583 80.1094Z" fill="#EFE6DA"/>
<path d="M78.3887 107.445C78.3887 107.445 85.8023 83.5919 88.7677 80.5322" stroke="#EFE6DA" stroke-width="2" stroke-miterlimit="10"/>
<path d="M89.8468 81.3667C89.6573 81.9426 88.9448 81.7272 88.084 81.4063C87.2232 81.0854 86.5477 80.7732 86.7372 80.2018C86.9266 79.6303 87.7751 79.428 88.6317 79.7621C89.4884 80.0962 90.0321 80.804 89.8468 81.3667Z" fill="#EFE6DA"/>
<path d="M77.3838 107.805C77.3838 107.805 82.5321 83.3582 85.2093 79.9863" stroke="#EFE6DA" stroke-width="2" stroke-miterlimit="10"/>
<path d="M86.3754 80.6943C86.2395 81.2834 85.5064 81.1603 84.6085 80.9405C83.7106 80.7207 83.0022 80.5009 83.134 79.9118C83.2658 79.3227 84.1019 79.0326 84.9998 79.2392C85.8976 79.4458 86.5113 80.1096 86.3754 80.6943Z" fill="#EFE6DA"/>
<path d="M73.6895 106.311C73.6895 106.311 81.1031 82.4533 84.0644 79.3936" stroke="#EFE6DA" stroke-width="2" stroke-miterlimit="10"/>
<path d="M85.1433 80.2417C84.9539 80.8132 84.2413 80.6022 83.3847 80.2813C82.528 79.9604 81.8443 79.6482 82.0337 79.0768C82.2232 78.5053 83.0716 78.2986 83.9283 78.6371C84.785 78.9756 85.3328 79.6658 85.1433 80.2417Z" fill="#EFE6DA"/>
<path d="M75.4775 106.939C75.4775 106.939 80.6259 82.4924 83.303 79.125" stroke="#EFE6DA" stroke-width="2" stroke-miterlimit="10"/>
<path d="M84.4687 79.833C84.3369 80.4177 83.5997 80.2726 82.7059 80.0792C81.8122 79.8858 81.0955 79.6396 81.2315 79.0461C81.3674 78.4526 82.1993 78.1669 83.0931 78.3735C83.9868 78.5801 84.6046 79.2439 84.4687 79.833Z" fill="#EFE6DA"/>
<path d="M75.6875 109.142C75.6875 109.142 83.1011 85.2838 86.0624 82.2285" stroke="#EFE6DA" stroke-width="2" stroke-miterlimit="10"/>
<path d="M87.1287 83.0728C86.9392 83.6443 86.2267 83.4333 85.37 83.1123C84.5133 82.7914 83.8296 82.4793 84.0191 81.9078C84.2086 81.3363 85.057 81.1297 85.9137 81.4682C86.7704 81.8067 87.3305 82.5013 87.1287 83.0728Z" fill="#EFE6DA"/>
<path d="M74.666 107.572C74.666 107.572 78.1792 82.7207 76.8407 78.5576" stroke="#EFE6DA" stroke-width="2" stroke-miterlimit="10"/>
<path d="M75.5228 78.7953C75.4487 79.3976 76.1735 79.5515 77.0755 79.6746C77.9775 79.7976 78.723 79.8548 78.7889 79.2349C78.8548 78.6151 78.1917 78.0436 77.2897 77.9161C76.3877 77.7886 75.5969 78.1931 75.5228 78.7953Z" fill="#EFE6DA"/>
<path d="M75.7363 106.099C75.7363 106.099 79.2496 81.2437 77.911 77.085" stroke="#EFE6DA" stroke-width="2" stroke-miterlimit="10"/>
<path d="M76.5931 77.3178C76.519 77.9201 77.2398 78.0783 78.1418 78.197C79.0437 78.3157 79.7892 78.3773 79.8592 77.7574C79.9293 77.1375 79.262 76.5661 78.3601 76.4386C77.4581 76.3111 76.6673 76.7155 76.5931 77.3178Z" fill="#EFE6DA"/>
<path d="M77.6807 108.496C77.6807 108.496 81.1939 83.6402 79.8553 79.4814" stroke="#EFE6DA" stroke-width="2" stroke-miterlimit="10"/>
<path d="M78.5374 79.7143C78.4633 80.3165 79.1882 80.4748 80.0902 80.5935C80.9922 80.7122 81.7377 80.7737 81.8036 80.1539C81.8695 79.534 81.2105 78.9625 80.3085 78.835C79.4065 78.7076 78.6116 79.112 78.5374 79.7143Z" fill="#EFE6DA"/>
<path d="M74.3613 104.434C74.3613 104.434 79.5055 79.9871 82.1868 76.6152" stroke="#EFE6DA" stroke-width="2" stroke-miterlimit="10"/>
<path d="M83.3439 77.3271C83.208 77.9118 82.4708 77.7668 81.577 77.5733C80.6833 77.3799 79.9666 77.1337 80.1025 76.5402C80.2385 75.9468 81.0704 75.661 81.9642 75.8676C82.8579 76.0742 83.4757 76.7381 83.3439 77.3271Z" fill="#EFE6DA"/>
<path d="M127.657 81.0546C127.776 80.4484 127.936 79.852 128.134 79.2698C128.925 76.9135 130.194 74.9352 130.902 74.7769C131.227 74.703 131.563 74.7122 131.884 74.8039C132.205 74.8956 132.501 75.0671 132.747 75.3045C132.047 76.5634 131.412 77.8621 130.845 79.195C129.197 82.9757 131.462 85.0243 133.386 86.0046C134.7 86.6729 138.295 86.3739 140.449 86.1145C140.66 86.8393 140.726 87.603 140.643 88.3566C140.453 90.115 139.951 90.9283 136.631 90.9635C136.396 90.9635 136.158 90.9635 135.919 90.9635C134.914 90.929 133.919 90.7531 132.957 90.4403C132.957 90.4403 132.957 90.4403 132.957 90.4403C132.277 90.2174 131.626 89.9011 131.022 89.4996C130.311 89.0298 129.681 88.4353 129.156 87.7411C128.717 87.1695 128.349 86.5401 128.06 85.8684C127.945 85.6046 127.834 85.3188 127.735 85.0243C127.549 84.459 127.45 83.8651 127.443 83.2659C127.431 82.5223 127.503 81.78 127.657 81.0546V81.0546Z" fill="#F4D3CE"/>
<path d="M134.753 87.5651C135.881 87.442 135.667 88.5323 135.819 90.1017C135.844 90.3962 135.881 90.6776 135.918 90.9501C134.914 90.9156 133.918 90.7397 132.957 90.427C132.957 90.427 132.957 90.427 132.957 90.427C132.891 88.9455 133.67 87.6838 134.753 87.5651Z" fill="#E88C80"/>
<path d="M129.14 87.7286C129.671 86.7703 130.614 86.2867 131.384 86.6296C132.245 87.0209 131.689 87.711 131.22 88.9068C131.141 89.1002 131.071 89.298 131.005 89.4827C130.295 89.0143 129.665 88.4213 129.14 87.7286V87.7286Z" fill="#E88C80"/>
<path d="M127.442 83.2619C127.741 83.0507 128.096 82.9475 128.454 82.9672C128.812 82.987 129.155 83.1288 129.432 83.3718C130.062 84.0356 129.345 84.44 128.538 85.3149C128.373 85.4907 128.213 85.6798 128.06 85.8556C127.945 85.5918 127.834 85.3061 127.735 85.0115C127.549 84.449 127.451 83.8581 127.442 83.2619V83.2619Z" fill="#E88C80"/>
<path d="M127.656 81.0546C127.776 80.4484 127.936 79.8519 128.134 79.2698C128.958 79.2082 129.654 79.7094 129.695 80.382C129.736 81.0546 129.176 80.9183 128.352 80.9799C128.109 80.9974 127.87 81.0326 127.656 81.0546Z" fill="#E88C80"/>
<path d="M130.844 79.1953C131.412 77.8624 132.047 76.5636 132.747 75.3047C132.899 75.4329 133.021 75.5977 133.103 75.7856C133.184 75.9734 133.223 76.1792 133.217 76.3861C133.122 77.2654 132.306 77.1599 131.837 81.5296C131.367 85.8993 136.878 84.8003 138.559 84.5629C139.539 84.4266 140.153 85.1476 140.449 86.1148C138.295 86.3741 134.683 86.6731 133.386 86.0049C131.462 85.0245 129.197 82.9759 130.844 79.1953Z" fill="#EAC8C5"/>
<path d="M133.217 76.3861C133.217 76.3861 137.369 72.4692 136.689 71.058C136.425 70.5085 134.09 72.1043 134 72.9439C134 72.9439 135.149 69.9853 134.737 69.937C134.325 69.8886 130.894 73.6605 130.902 74.7727L133.217 76.3861Z" fill="#D15F56"/>
<path d="M133.571 71.5635C133.571 71.5635 132.541 73.6824 132.496 74.8738Z" fill="#BF4E49"/>
<path d="M135.416 72.7725C135.416 72.7725 133.522 74.0385 132.912 75.0365Z" fill="#BF4E49"/>
<path d="M130.639 86.2024C130.761 85.6056 130.921 85.0181 131.117 84.444C131.908 82.0833 133.176 80.105 133.889 79.9512C134.21 79.8732 134.544 79.8772 134.864 79.9627C135.184 80.0483 135.481 80.213 135.73 80.4435C135.028 81.7021 134.391 83.0009 133.823 84.3341C132.175 88.1191 134.445 90.1633 136.364 91.1481C137.678 91.8163 141.278 91.5174 143.432 91.258C143.639 91.9819 143.703 92.7438 143.621 93.4956C143.436 95.2541 142.933 96.0673 139.609 96.1025C139.375 96.1025 139.14 96.1025 138.901 96.1025C137.896 96.069 136.9 95.8915 135.94 95.575C135.259 95.355 134.608 95.0402 134.004 94.6386C133.292 94.1693 132.66 93.5747 132.134 92.8802C131.698 92.3092 131.331 91.6814 131.043 91.0118C130.927 90.7436 130.816 90.4579 130.713 90.1633C130.528 89.5978 130.431 89.0039 130.425 88.4049C130.414 87.6643 130.486 86.925 130.639 86.2024V86.2024Z" fill="#F4D3CE"/>
<path d="M137.735 92.7093C138.863 92.5818 138.653 93.6721 138.802 95.2459C138.831 95.536 138.868 95.8174 138.905 96.0944C137.9 96.0608 136.904 95.8834 135.943 95.5668C135.943 95.5668 135.943 95.5668 135.943 95.5668C135.877 94.0853 136.656 92.8236 137.735 92.7093Z" fill="#E88C80"/>
<path d="M132.138 92.8676C132.673 91.9137 133.616 91.4257 134.382 91.773C135.243 92.1599 134.691 92.8545 134.218 94.0502C134.143 94.2436 134.073 94.4371 134.008 94.6261C133.296 94.1568 132.664 93.5622 132.138 92.8676V92.8676Z" fill="#E88C80"/>
<path d="M130.429 88.4011C130.727 88.1896 131.081 88.0861 131.438 88.1059C131.796 88.1257 132.138 88.2677 132.414 88.511C133.044 89.1704 132.332 89.5748 131.524 90.4497C131.36 90.6299 131.199 90.8145 131.047 90.9948C130.931 90.7266 130.82 90.4409 130.717 90.1463C130.533 89.585 130.436 88.9956 130.429 88.4011V88.4011Z" fill="#E88C80"/>
<path d="M130.639 86.2027C130.761 85.6059 130.921 85.0184 131.116 84.4443C131.94 84.3783 132.636 84.8839 132.682 85.5565C132.727 86.2291 132.158 86.0884 131.335 86.15L130.639 86.2027Z" fill="#E88C80"/>
<path d="M133.826 84.3349C134.393 83.0018 135.028 81.703 135.729 80.4443C135.881 80.5742 136.002 80.7399 136.083 80.9283C136.165 81.1167 136.204 81.3227 136.199 81.5302C136.104 82.4094 135.284 82.3039 134.819 86.6692C134.353 91.0346 139.848 89.94 141.545 89.7202C142.525 89.5839 143.134 90.3048 143.435 91.2764C141.281 91.5358 137.669 91.8347 136.367 91.1665C134.448 90.1598 132.179 88.12 133.826 84.3349Z" fill="#EAC8C5"/>
<path d="M136.203 81.5293C136.203 81.5293 140.351 77.6079 139.675 76.2011C139.408 75.6472 137.077 77.243 136.986 78.0827C136.986 78.0827 138.131 75.1285 137.723 75.0757C137.315 75.023 133.88 78.7993 133.889 79.9115L136.203 81.5293Z" fill="#D15F56"/>
<path d="M136.553 76.707C136.553 76.707 135.527 78.8216 135.478 80.0129Z" fill="#BF4E49"/>
<path d="M138.398 77.916C138.398 77.916 136.504 79.1777 135.898 80.18Z" fill="#BF4E49"/>
<path d="M122.422 83.3626C122.544 82.7583 122.703 82.1635 122.9 81.5822C123.691 79.2215 124.959 77.2432 125.668 77.0893C125.993 77.0147 126.33 77.0233 126.651 77.1142C126.973 77.2051 127.269 77.3758 127.517 77.6125C126.815 78.871 126.178 80.1698 125.61 81.503C123.963 85.2881 126.232 87.3323 128.151 88.317C129.465 88.9852 133.061 88.6863 135.219 88.4269C135.426 89.1508 135.491 89.9127 135.408 90.6646C135.223 92.423 134.717 93.2363 131.397 93.2715C131.162 93.2715 130.927 93.2715 130.684 93.2715C129.68 93.2375 128.684 93.0601 127.723 92.7439C127.723 92.7439 127.723 92.7439 127.723 92.7439C127.042 92.524 126.391 92.2091 125.787 91.8076C125.075 91.3382 124.443 90.7437 123.917 90.0491C123.481 89.4782 123.114 88.8504 122.826 88.1808C122.706 87.9126 122.599 87.6268 122.496 87.3323C122.311 86.7668 122.214 86.1728 122.208 85.5739C122.197 84.8303 122.269 84.088 122.422 83.3626Z" fill="#F4D3CE"/>
<path d="M129.518 89.8783C130.646 89.7508 130.436 90.841 130.585 92.4148C130.614 92.705 130.651 92.9863 130.684 93.2633C129.679 93.2294 128.683 93.052 127.722 92.7358C127.722 92.7358 127.722 92.7358 127.722 92.7358C127.66 91.2543 128.435 89.9926 129.518 89.8783Z" fill="#E88C80"/>
<path d="M123.921 90.0366C124.456 89.0826 125.399 88.5947 126.166 88.9419C127.026 89.3288 126.474 90.0234 126.001 91.2191C125.927 91.4126 125.857 91.606 125.791 91.795C125.079 91.3257 124.447 90.7312 123.921 90.0366V90.0366Z" fill="#E88C80"/>
<path d="M122.212 85.5739C122.51 85.3625 122.864 85.259 123.222 85.2788C123.579 85.2985 123.921 85.4406 124.197 85.6838C124.827 86.3432 124.111 86.7477 123.307 87.6225C123.143 87.8028 122.982 87.9874 122.83 88.1676C122.71 87.8995 122.603 87.6137 122.5 87.3192C122.317 86.7579 122.219 86.1685 122.212 85.5739V85.5739Z" fill="#E88C80"/>
<path d="M122.422 83.3624C122.543 82.7581 122.703 82.1633 122.9 81.582C123.723 81.516 124.419 82.0216 124.465 82.6942C124.51 83.3668 123.942 83.2261 123.118 83.2877L122.422 83.3624Z" fill="#E88C80"/>
<path d="M125.609 81.5029C126.178 80.1697 126.814 78.8709 127.516 77.6123C127.668 77.7422 127.789 77.9078 127.871 78.0963C127.952 78.2847 127.992 78.4907 127.986 78.6981C127.891 79.5774 127.072 79.4719 126.606 83.8372C126.141 88.2026 131.643 87.1079 133.328 86.8705C134.308 86.7343 134.918 87.4552 135.218 88.4268C133.06 88.6861 129.452 88.9851 128.151 88.3169C126.231 87.3321 123.962 85.2879 125.609 81.5029Z" fill="#EAC8C5"/>
<path d="M127.986 78.6982C127.986 78.6982 132.133 74.7769 131.458 73.3701C131.19 72.8162 128.859 74.412 128.768 75.2516C128.768 75.2516 129.913 72.2974 129.506 72.2447C129.098 72.1919 125.659 75.9682 125.667 77.0804L127.986 78.6982Z" fill="#D15F56"/>
<path d="M128.369 73.9248C128.369 73.9248 127.343 76.0393 127.294 77.2307Z" fill="#BF4E49"/>
<path d="M130.215 75.1338C130.215 75.1338 128.316 76.3999 127.715 77.411Z" fill="#BF4E49"/>
<path d="M112.298 90.6212C112.298 91.0094 112.254 91.3963 112.166 91.773C111.965 92.5526 111.598 93.2716 111.091 93.8729C110.585 94.4743 109.955 94.9414 109.25 95.2371C108.583 95.5286 107.87 95.6779 107.149 95.6768C104.307 95.6768 102.001 93.4127 102.001 90.6212C102.001 87.944 103.138 84.1369 106.861 84.2161C107.018 84.2161 107.186 84.2161 107.355 84.2468C108.02 84.3167 108.676 84.4641 109.312 84.6864C112.281 85.7151 112.298 88.2649 112.298 90.6212Z" fill="#CEBFBE"/>
<path d="M114.357 90.1815C114.356 90.8636 114.216 91.5373 113.945 92.1554C113.335 92.134 112.732 92.0048 112.162 91.7729C112.25 91.3962 112.294 91.0094 112.294 90.6211C112.294 88.2648 112.294 85.715 109.308 84.6644C109.38 84.3801 109.47 84.1012 109.575 83.8291C114.332 84.4006 114.357 87.4207 114.357 90.1815Z" fill="#B2A4A4"/>
<path d="M112.298 92.3796C112.298 92.7678 112.254 93.1547 112.166 93.5314C111.258 93.1869 110.469 92.556 109.904 91.7223C109.339 90.8886 109.025 89.8913 109.003 88.8627C109.002 88.0383 109.106 87.2175 109.312 86.4229C112.281 87.4735 112.298 90.0233 112.298 92.3796Z" fill="#CEBFBE"/>
<path d="M119.3 87.1036C119.3 89.8951 116.993 92.1591 114.152 92.1591H113.95C114.22 91.5411 114.361 90.8674 114.362 90.1852C114.362 87.4245 114.337 84.4043 109.584 83.8328C110.297 81.9733 111.746 80.4566 114.362 80.7556C119.275 81.2523 119.3 84.312 119.3 87.1036Z" fill="#CEBFBE"/>
<path d="M123.006 91.4999C123.005 92.182 122.865 92.8557 122.594 93.4737C121.984 93.4524 121.382 93.3232 120.811 93.0913C120.899 92.7145 120.943 92.3277 120.943 91.9395C120.943 89.5832 120.943 87.0334 117.957 85.9827C117.994 85.8377 115.864 85.6003 116 85.5431C117.648 85.1035 117.236 85.1035 118.224 85.1035C122.982 85.719 123.006 88.7391 123.006 91.4999Z" fill="#D1CBCB"/>
<path d="M117.961 85.9833C117.326 85.761 116.67 85.6135 116.005 85.5437C115.836 85.5437 115.667 85.5129 115.51 85.5129C111.804 85.4338 110.65 89.2408 110.65 91.9181C110.65 94.7096 112.957 96.9736 115.799 96.9736C116.519 96.9748 117.233 96.8255 117.899 96.534C118.604 96.2382 119.235 95.7711 119.741 95.1698C120.247 94.5685 120.615 93.8495 120.815 93.0699C120.903 92.6931 120.947 92.3063 120.947 91.9181C120.947 89.5837 120.931 87.034 117.961 85.9833Z" fill="#8C8585"/>
<path d="M127.949 88.4229C127.949 91.2144 125.643 93.4784 122.801 93.4784H122.599C122.87 92.8604 123.01 92.1867 123.011 91.5046C123.011 88.7438 122.986 85.7237 118.233 85.1522C118.946 83.2926 120.396 81.776 123.011 82.0749C127.925 82.5717 127.949 85.6314 127.949 88.4229Z" fill="#E8E6E6"/>
<path opacity="0.53" d="M125.746 91.5881C115.4 89.9219 110.239 90.4011 103.237 93.4784C95.7413 96.7711 85.2469 102.104 85.527 104.908C85.807 107.713 89.1514 103.484 90.527 104.539C91.9027 105.594 113.476 98.2306 119.592 98.9208C125.709 99.611 136.751 93.3641 125.746 91.5881Z" fill="#994633"/>
<path d="M128.394 92.3574C118.048 90.6737 114.073 90.5989 106.977 95.039C99.8803 99.4791 90.7615 100.081 91.0251 103.014C91.2887 105.946 91.7294 105.023 93.0845 106.122C94.4395 107.221 116.083 99.3912 122.199 100.064C128.316 100.736 139.395 94.1466 128.394 92.3574Z" fill="#BC5C3F"/>
<path d="M112.286 94.657C112.105 94.38 116.277 93.3381 120.523 93.1579C124.127 92.9909 127.834 93.5448 128.291 94.2525C125.576 93.7074 122.816 93.4585 120.054 93.5096C116.12 93.6767 112.447 94.912 112.286 94.657Z" fill="#EFDBD3"/>
<path d="M97.9161 100.49C97.8543 100.674 100.429 100.09 102.908 99.0917C105.025 98.2389 107.088 96.9992 107.245 96.5332C105.757 97.5058 104.196 98.3454 102.578 99.0434C100.309 99.9754 97.9697 100.323 97.9161 100.49Z" fill="#EFDBD3"/>
<path d="M116.874 95.9973C116.895 96.3621 117.9 96.1555 119.148 96.0808C120.396 96.0061 121.397 95.6412 121.376 95.2851C121.355 94.929 120.35 95.1268 119.102 95.2016C117.854 95.2763 116.858 95.6324 116.874 95.9973Z" fill="#EFDBD3"/>
<path d="M111.87 96.2653C111.891 96.6302 112.632 96.4411 113.554 96.3884C114.477 96.3356 115.202 95.9927 115.202 95.6278C115.202 95.263 114.44 95.452 113.517 95.5091C112.595 95.5663 111.841 95.9048 111.87 96.2653Z" fill="#EFDBD3"/>
<path d="M113.682 98.7008C113.703 99.0657 114.444 98.8767 115.367 98.8195C116.289 98.7624 117.014 98.4283 117.014 98.0634C117.014 97.6985 116.256 97.8875 115.334 97.9447C114.411 98.0018 113.661 98.3403 113.682 98.7008Z" fill="#EFDBD3"/>
<path d="M107.994 98.7715C108.081 99.1232 108.773 98.7715 109.671 98.5429C110.568 98.3143 111.223 97.8131 111.141 97.4615C111.059 97.1098 110.363 97.4614 109.465 97.69C108.567 97.9186 107.912 98.4198 107.994 98.7715Z" fill="#EFDBD3"/>
<path d="M103.344 100.71C103.455 101.053 104.048 100.684 104.831 100.398C105.613 100.112 106.161 99.598 106.067 99.2551C105.972 98.9122 105.362 99.2551 104.58 99.5672C103.797 99.8794 103.233 100.359 103.344 100.71Z" fill="#EFDBD3"/>
<path d="M95.1153 103.049C95.1853 103.405 95.8154 103.124 96.6268 102.948C97.4382 102.772 98.0436 102.341 97.9777 101.985C97.9118 101.629 97.2776 101.91 96.4662 102.086C95.6548 102.262 95.0494 102.693 95.1153 103.049Z" fill="#EFDBD3"/>
<path d="M99.3489 102.24C99.4148 102.596 99.8432 102.359 100.399 102.24C100.955 102.121 101.359 101.73 101.289 101.361C101.219 100.992 100.795 101.242 100.239 101.361C99.6825 101.479 99.283 101.884 99.3489 102.24Z" fill="#EFDBD3"/>
<path d="M101.779 103.031C101.861 103.383 102.277 103.123 102.829 102.969C103.381 102.816 103.76 102.416 103.678 102.059C103.595 101.703 103.179 101.967 102.627 102.121C102.075 102.275 101.696 102.679 101.779 103.031Z" fill="#EFDBD3"/>
<path d="M121.615 98.3976C121.561 98.7581 122.026 98.6922 122.599 98.7889C123.171 98.8856 123.662 98.6746 123.715 98.3141C123.769 97.9536 123.303 98.0196 122.731 97.9229C122.158 97.8262 121.668 98.0372 121.615 98.3976Z" fill="#EFDBD3"/>
<path d="M106.898 101.36C106.956 101.716 107.594 101.452 108.41 101.299C109.225 101.145 109.843 100.731 109.781 100.371C109.72 100.011 109.085 100.279 108.27 100.433C107.454 100.586 106.832 101 106.898 101.36Z" fill="#EFDBD3"/>
<path d="M124.609 96.7141C124.481 97.4658 125.597 97.3691 126.915 97.6197C128.233 97.8703 129.386 97.4614 129.522 96.7141C129.658 95.9668 129.193 95.3601 127.875 95.1095C126.557 94.8589 124.736 95.9624 124.609 96.7141Z" fill="#EFDBD3"/>
<path d="M118.098 93.9001C107.669 92.9154 103.703 93.1132 96.8658 98.0193C90.0288 102.925 80.9801 104.147 81.4208 107.053C81.8615 109.959 82.2445 109.014 83.6737 110.016C85.1029 111.019 106.223 101.738 112.373 102.015C118.522 102.292 129.181 94.9508 118.098 93.9001Z" fill="#BC5C3F"/>
<path d="M102.158 97.2855C101.964 97.0217 106.062 95.7204 110.272 95.2369C113.859 94.8236 117.595 95.1314 118.097 95.804C115.352 95.4414 112.58 95.3796 109.823 95.6193C105.927 96.0458 102.335 97.5272 102.158 97.2855Z" fill="#EFDBD3"/>
<path d="M88.1589 104.077C88.1095 104.262 90.6301 103.51 93.0643 102.341C95.1236 101.347 97.1088 99.9758 97.2365 99.501C95.8095 100.573 94.3009 101.516 92.7265 102.319C90.5024 103.405 88.2042 103.906 88.1589 104.077Z" fill="#EFDBD3"/>
<path d="M106.816 98.3145C106.858 98.675 107.85 98.4024 109.09 98.2442C110.33 98.0859 111.31 97.6639 111.269 97.3034C111.228 96.9429 110.235 97.2111 108.995 97.3694C107.756 97.5276 106.779 97.954 106.816 98.3145Z" fill="#EFDBD3"/>
<path d="M101.841 98.9209C101.882 99.2814 102.607 99.044 103.525 98.9209C104.444 98.7978 105.173 98.4153 105.115 98.0417C105.057 97.668 104.349 97.9186 103.43 98.0417C102.512 98.1648 101.799 98.5604 101.841 98.9209Z" fill="#EFDBD3"/>
<path d="M103.789 101.229C103.83 101.589 104.559 101.352 105.477 101.229C106.396 101.105 107.125 100.723 107.067 100.349C107.009 99.9756 106.297 100.226 105.378 100.349C104.46 100.472 103.751 100.868 103.789 101.229Z" fill="#EFDBD3"/>
<path d="M98.1175 101.682C98.2246 102.029 98.8959 101.642 99.7649 101.339C100.634 101.035 101.272 100.508 101.165 100.16C101.058 99.8131 100.391 100.2 99.5178 100.503C98.6447 100.807 98.0145 101.334 98.1175 101.682Z" fill="#EFDBD3"/>
<path d="M93.5908 103.923C93.7226 104.262 94.291 103.853 95.0571 103.515C95.8232 103.176 96.3339 102.635 96.2062 102.288C96.0785 101.941 95.506 102.363 94.7399 102.701C93.9739 103.04 93.4632 103.589 93.5908 103.923Z" fill="#EFDBD3"/>
<path d="M85.5184 106.816C85.609 107.168 86.2226 106.842 87.0217 106.614C87.8207 106.385 88.3973 105.915 88.3108 105.563C88.2243 105.212 87.6065 105.537 86.8075 105.765C86.0085 105.994 85.4319 106.464 85.5184 106.816Z" fill="#EFDBD3"/>
<path d="M89.6946 105.726C89.7852 106.078 90.193 105.81 90.7449 105.652C91.2968 105.493 91.6674 105.084 91.5686 104.733C91.4697 104.381 91.0702 104.645 90.5183 104.803C89.9664 104.961 89.5999 105.375 89.6946 105.726Z" fill="#EFDBD3"/>
<path d="M92.1661 106.35C92.2732 106.697 92.6686 106.407 93.2123 106.222C93.7559 106.038 94.1101 105.602 94.003 105.255C93.896 104.908 93.5006 105.198 92.9569 105.383C92.4132 105.567 92.0714 105.985 92.1661 106.35Z" fill="#EFDBD3"/>
<path d="M111.688 100.389C111.655 100.754 112.129 100.657 112.693 100.714C113.257 100.771 113.747 100.529 113.78 100.165C113.813 99.7997 113.34 99.8964 112.775 99.8393C112.211 99.7821 111.721 100.028 111.688 100.389Z" fill="#EFDBD3"/>
<path d="M97.1698 104.337C97.248 104.693 97.8699 104.386 98.6772 104.175C99.4844 103.964 100.069 103.515 99.991 103.159C99.9128 102.803 99.2867 103.115 98.4836 103.322C97.6805 103.528 97.0874 103.986 97.1698 104.337Z" fill="#EFDBD3"/>
<path d="M114.58 98.5122C114.502 99.2727 115.61 99.1013 116.936 99.2639C118.262 99.4266 119.407 98.9386 119.485 98.1781C119.564 97.4176 119.074 96.8593 117.747 96.6922C116.421 96.5252 114.662 97.7517 114.58 98.5122Z" fill="#EFDBD3"/>
<path d="M133.748 95.2194C123.319 94.2347 119.353 94.4325 112.516 99.3386C105.679 104.245 96.6305 105.467 97.0712 108.373C97.5119 111.278 97.8949 110.333 99.3241 111.336C100.753 112.338 121.874 103.058 128.023 103.335C134.172 103.612 144.831 96.2701 133.748 95.2194Z" fill="#BC5C3F"/>
<path d="M117.809 98.6038C117.616 98.3401 121.714 97.0388 125.923 96.5552C129.51 96.142 133.246 96.4497 133.749 97.1223C131.004 96.7598 128.231 96.6979 125.474 96.9377C121.578 97.3641 117.986 98.8456 117.809 98.6038Z" fill="#EFDBD3"/>
<path d="M103.809 105.397C103.76 105.581 106.281 104.83 108.715 103.66C110.774 102.667 112.759 101.295 112.887 100.82C111.46 101.892 109.951 102.835 108.377 103.638C106.153 104.724 103.855 105.225 103.809 105.397Z" fill="#EFDBD3"/>
<path d="M122.467 99.6329C122.508 99.9934 123.501 99.7208 124.74 99.5625C125.98 99.4043 126.96 98.9823 126.919 98.6218C126.878 98.2613 125.885 98.5295 124.646 98.6877C123.406 98.846 122.43 99.2724 122.467 99.6329Z" fill="#EFDBD3"/>
<path d="M117.491 100.239C117.532 100.6 118.257 100.362 119.175 100.239C120.094 100.116 120.823 99.7337 120.765 99.36C120.708 98.9864 119.999 99.2369 119.081 99.36C118.162 99.4831 117.45 99.8788 117.491 100.239Z" fill="#EFDBD3"/>
<path d="M119.44 102.548C119.481 102.908 120.21 102.671 121.129 102.548C122.047 102.425 122.776 102.042 122.718 101.669C122.661 101.295 121.948 101.546 121.03 101.669C120.111 101.792 119.403 102.187 119.44 102.548Z" fill="#EFDBD3"/>
<path d="M113.769 103.001C113.876 103.348 114.547 102.961 115.416 102.658C116.285 102.355 116.924 101.827 116.817 101.48C116.71 101.132 116.042 101.519 115.169 101.823C114.296 102.126 113.666 102.654 113.769 103.001Z" fill="#EFDBD3"/>
<path d="M109.242 105.243C109.374 105.581 109.942 105.172 110.708 104.834C111.475 104.495 111.985 103.955 111.858 103.607C111.73 103.26 111.157 103.682 110.391 104.021C109.625 104.359 109.115 104.909 109.242 105.243Z" fill="#EFDBD3"/>
<path d="M101.17 108.135C101.26 108.487 101.874 108.162 102.673 107.933C103.472 107.705 104.049 107.234 103.962 106.883C103.876 106.531 103.258 106.856 102.459 107.085C101.66 107.313 101.083 107.784 101.17 108.135Z" fill="#EFDBD3"/>
<path d="M105.346 107.045C105.437 107.396 105.844 107.128 106.396 106.97C106.948 106.812 107.319 106.403 107.22 106.051C107.121 105.699 106.722 105.963 106.17 106.121C105.618 106.28 105.251 106.693 105.346 107.045Z" fill="#EFDBD3"/>
<path d="M107.817 107.669C107.925 108.016 108.32 107.726 108.864 107.542C109.407 107.357 109.762 106.922 109.654 106.574C109.547 106.227 109.152 106.517 108.608 106.702C108.065 106.887 107.723 107.304 107.817 107.669Z" fill="#EFDBD3"/>
<path d="M127.34 101.708C127.307 102.073 127.78 101.976 128.344 102.033C128.909 102.091 129.399 101.849 129.432 101.484C129.465 101.119 128.991 101.216 128.427 101.159C127.863 101.101 127.372 101.348 127.34 101.708Z" fill="#EFDBD3"/>
<path d="M112.821 105.656C112.899 106.012 113.521 105.704 114.329 105.493C115.136 105.282 115.721 104.834 115.642 104.477C115.564 104.121 114.938 104.433 114.135 104.64C113.332 104.847 112.739 105.304 112.821 105.656Z" fill="#EFDBD3"/>
<path d="M130.23 99.8306C130.152 100.591 131.26 100.42 132.586 100.582C133.913 100.745 135.058 100.257 135.136 99.4965C135.214 98.7359 134.724 98.1776 133.398 98.0106C132.072 97.8435 130.313 99.07 130.23 99.8306Z" fill="#EFDBD3"/>
<path opacity="0.53" d="M124.609 97.8086C114.259 96.1248 110.288 96.0501 103.192 100.49C96.0954 104.93 86.9519 105.546 87.2155 108.465C87.4791 111.384 87.9198 110.474 89.2749 111.573C90.6299 112.672 112.269 104.834 118.39 105.519C124.51 106.205 135.602 99.6022 124.609 97.8086Z" fill="#994633"/>
<path d="M127.158 99.3916C116.812 97.7079 112.838 97.6331 105.741 102.073C98.6449 106.513 89.5262 107.116 89.7898 110.048C90.0534 112.98 90.4941 112.057 91.8491 113.156C93.2041 114.255 114.848 106.425 120.964 107.098C127.08 107.771 138.159 101.181 127.158 99.3916Z" fill="#BC5C3F"/>
<path d="M111.05 101.69C110.868 101.413 115.041 100.393 119.287 100.191C122.891 100.024 126.598 100.578 127.055 101.286C124.34 100.741 121.58 100.492 118.817 100.543C114.884 100.71 111.21 101.945 111.05 101.69Z" fill="#EFDBD3"/>
<path d="M96.6798 107.524C96.618 107.709 99.1922 107.124 101.672 106.126C103.789 105.273 105.852 104.033 106.009 103.567C104.521 104.54 102.96 105.38 101.342 106.078C99.0727 107.01 96.7333 107.357 96.6798 107.524Z" fill="#EFDBD3"/>
<path d="M115.638 103.031C115.658 103.396 116.663 103.19 117.911 103.115C119.159 103.04 120.16 102.675 120.14 102.319C120.119 101.963 119.114 102.161 117.866 102.236C116.618 102.31 115.621 102.667 115.638 103.031Z" fill="#EFDBD3"/>
<path d="M110.634 103.299C110.654 103.664 111.396 103.475 112.318 103.423C113.241 103.37 113.966 103.027 113.966 102.662C113.966 102.297 113.204 102.486 112.281 102.543C111.358 102.6 110.605 102.939 110.634 103.299Z" fill="#EFDBD3"/>
<path d="M112.447 105.735C112.467 106.1 113.209 105.911 114.131 105.854C115.054 105.797 115.779 105.462 115.779 105.098C115.779 104.733 115.021 104.922 114.098 104.979C113.176 105.036 112.426 105.375 112.447 105.735Z" fill="#EFDBD3"/>
<path d="M106.758 105.805C106.844 106.156 107.536 105.805 108.434 105.576C109.332 105.348 109.987 104.846 109.905 104.495C109.822 104.143 109.126 104.495 108.228 104.723C107.33 104.952 106.676 105.453 106.758 105.805Z" fill="#EFDBD3"/>
<path d="M102.109 107.743C102.22 108.086 102.813 107.717 103.596 107.431C104.378 107.146 104.926 106.631 104.831 106.288C104.736 105.945 104.127 106.288 103.344 106.6C102.562 106.913 101.998 107.392 102.109 107.743Z" fill="#EFDBD3"/>
<path d="M93.8799 110.083C93.9499 110.439 94.5801 110.158 95.3915 109.982C96.2028 109.806 96.8083 109.375 96.7424 109.019C96.6765 108.663 96.0422 108.944 95.2308 109.12C94.4195 109.296 93.814 109.727 93.8799 110.083Z" fill="#EFDBD3"/>
<path d="M98.1136 109.273C98.1795 109.629 98.6078 109.392 99.1638 109.273C99.7198 109.155 100.123 108.763 100.053 108.394C99.9834 108.025 99.5592 108.275 99.0032 108.394C98.4472 108.513 98.0477 108.917 98.1136 109.273Z" fill="#EFDBD3"/>
<path d="M100.543 110.065C100.626 110.417 101.042 110.158 101.594 110.004C102.146 109.85 102.525 109.45 102.442 109.094C102.36 108.738 101.944 109.001 101.392 109.155C100.84 109.309 100.461 109.714 100.543 110.065Z" fill="#EFDBD3"/>
<path d="M120.379 105.432C120.326 105.792 120.791 105.726 121.364 105.823C121.936 105.92 122.426 105.709 122.48 105.348C122.533 104.988 122.068 105.054 121.495 104.957C120.923 104.86 120.433 105.071 120.379 105.432Z" fill="#EFDBD3"/>
<path d="M105.663 108.394C105.721 108.75 106.359 108.487 107.175 108.333C107.99 108.179 108.608 107.766 108.546 107.405C108.484 107.045 107.85 107.313 107.035 107.467C106.219 107.621 105.597 108.034 105.663 108.394Z" fill="#EFDBD3"/>
<path d="M123.373 103.747C123.246 104.499 124.362 104.402 125.68 104.653C126.998 104.903 128.151 104.495 128.287 103.747C128.423 103 127.957 102.393 126.639 102.143C125.321 101.892 123.501 102.996 123.373 103.747Z" fill="#EFDBD3"/>
<path d="M79.6412 96.6787C79.6412 101.514 73.908 107.986 67.2852 106.728C60.9671 105.528 54.6367 102.794 54.6367 97.936C54.6367 93.0782 61.7497 86.0049 68.183 86.0049C74.6164 86.0049 79.6412 91.8254 79.6412 96.6787Z" fill="#68321F"/>
<path d="M68.1827 87.5742C68.1827 87.5742 60.8268 94.4805 62.0047 97.9359C63.1826 101.391 69.9331 89.4558 68.1827 87.5742Z" fill="#F4F4F4"/>
<path d="M71.7788 94.7709C71.7788 94.7709 64.8842 88.5723 61.4369 89.5658C57.9895 90.5594 69.9007 96.2611 71.7788 94.7709Z" fill="#F4F4F4"/>
<path opacity="0.15" d="M33.7588 90.2783C33.7588 90.2783 56.2385 82.3345 61.7328 81.486C67.2271 80.6376 87.977 82.1015 90.9754 81.0464C93.9737 79.9913 108.665 81.3937 120.218 83.2445C124.555 83.9391 145.342 84.6556 145.342 89.6628C145.342 94.67 142.731 112.061 88.0305 107.744C33.3304 103.427 36.2629 103.467 33.7588 90.2783Z" fill="#47201A"/>
<path d="M46.5519 106.112C45.9547 106.112 39.6161 101.672 38.8953 100.397C38.1745 99.1226 36.9719 88.8796 37.5732 88.2378C38.1745 87.596 45.9424 94.6078 45.9424 94.6078C45.9424 94.6078 47.1532 106.112 46.5519 106.112Z" fill="#E2E2E2"/>
<path d="M60.1312 99.8306C60.1312 99.8306 47.1533 106.099 46.5396 106.099C45.9259 106.099 45.9424 94.608 45.9424 94.608C45.9424 94.608 59.7441 87.5215 60.3578 88.1721C60.9714 88.8227 60.3578 99.4394 60.3578 99.4394C60.3545 99.5198 60.332 99.598 60.2924 99.6666C60.2527 99.7351 60.1972 99.7915 60.1312 99.8306V99.8306Z" fill="#E8EAE9"/>
<path d="M60.3577 88.199L52.0751 82.9984C51.941 82.9163 51.789 82.873 51.6344 82.873C51.4797 82.873 51.3278 82.9163 51.1937 82.9984C51.1937 82.9984 37.5732 87.5924 37.5732 88.2298C37.5732 88.8672 45.9424 94.6086 45.9424 94.6086L60.3577 88.199Z" fill="#EFEFEF"/>
<path d="M41.626 88.2685C41.626 88.2685 50.3411 84.2461 51.3419 84.2461C51.3419 84.2461 41.799 88.7785 41.626 88.2685Z" fill="#D8D8D8"/>
<path d="M43.2734 90.0316C43.2734 90.0316 51.622 86.4443 52.5775 86.4443C52.5775 86.4443 43.4382 90.4844 43.2734 90.0316Z" fill="#D8D8D8"/>
<path d="M46.5684 91.3467C46.5684 91.3467 55.2835 87.3242 56.2843 87.3242C56.2843 87.3242 46.7413 91.8566 46.5684 91.3467Z" fill="#D8D8D8"/>
<path d="M149.366 90.4016C149.366 103.999 142.776 132.165 90.6752 132.165C46.9926 132.165 35.7363 114.642 32.9068 100.513C32.7873 99.9192 32.6844 99.3301 32.5938 98.7542C33.5617 98.7542 34.4183 98.7542 35.065 98.7542C35.9134 98.7542 37.4744 98.1519 37.7339 97.875C37.9933 97.598 36.9513 97.7255 36.8689 97.2771C36.7083 97.1584 36.5518 97.0353 36.3994 96.9122L36.1317 96.6968L36.0164 96.6001L35.831 96.4418C35.7445 96.3715 35.6622 96.2968 35.5798 96.222L35.3368 96.0022L35.1062 95.7824C34.9538 95.6373 34.8014 95.4879 34.6613 95.3428C34.5213 95.1977 34.4101 95.0702 34.2907 94.934C33.8486 94.4392 33.4502 93.9021 33.1004 93.3294L32.9974 93.1535C32.8442 92.8904 32.7067 92.6173 32.5855 92.3358C32.5237 92.1952 32.4661 92.0545 32.4125 91.8962C32.3837 91.8171 32.3549 91.738 32.3302 91.6588C32.3055 91.5797 32.2766 91.4962 32.2519 91.4171C32.1487 91.0653 32.0729 90.7051 32.0254 90.34C32.0254 90.2741 32.0254 90.2125 32.0254 90.1466C32.0254 90.0806 32.0254 90.0191 32.0254 89.9575C32.0272 89.9459 32.0272 89.934 32.0254 89.9224C32.0583 89.8916 32.1366 89.9224 32.219 89.9575C32.3013 89.9927 32.4208 90.0367 32.4249 89.9575C32.5526 92.1556 33.7717 94.257 35.9175 96.2088C36.21 96.477 36.523 96.7452 36.8566 97.0089C42.2109 101.264 51.9803 104.742 64.3569 106.803C65.0242 106.913 65.7079 107.019 66.4163 107.124L67.9031 107.344L68.4015 107.41L69.4476 107.551H69.497L70.0819 107.626H70.1766L70.8027 107.7L71.787 107.815L72.446 107.885C73.0803 107.955 73.7187 108.021 74.3653 108.083L76.2517 108.25L76.8242 108.298C77.4063 108.345 77.9911 108.389 78.5787 108.43L79.0318 108.461L80.7534 108.566C82.0343 108.637 83.3317 108.698 84.6414 108.742H84.9132C85.8317 108.769 86.7584 108.795 87.6892 108.808C88.6942 108.826 89.706 108.834 90.7247 108.834C91.7433 108.834 92.7552 108.826 93.7601 108.808C94.691 108.808 95.6177 108.769 96.5361 108.742H96.8079C98.1177 108.698 99.4151 108.637 100.696 108.566C102.867 108.443 105 108.281 107.084 108.083C107.731 108.021 108.369 107.955 109.003 107.885C110.549 107.721 112.059 107.535 113.534 107.327C114.325 107.218 115.107 107.102 115.882 106.979C116.293 106.913 116.705 106.852 117.117 106.782L118.031 106.628C118.571 106.535 119.102 106.439 119.634 106.338C120.693 106.141 121.729 105.933 122.739 105.713L123.209 105.617C124.351 105.362 125.466 105.098 126.553 104.825C127.047 104.698 127.537 104.57 128.019 104.438L128.769 104.232L129.156 104.122C129.708 103.964 130.247 103.805 130.779 103.643C134.532 102.543 138.169 101.033 141.631 99.1367L141.907 98.952C142.496 98.6091 143.052 98.253 143.555 97.8925L144.053 97.5453C144.346 97.3342 144.63 97.1056 144.898 96.9034C144.988 96.8331 145.079 96.7627 145.165 96.688L145.466 96.433C145.552 96.3627 145.635 96.288 145.717 96.2132L145.96 95.9934L146.191 95.7736C146.343 95.6285 146.496 95.4791 146.636 95.334C146.776 95.1889 146.887 95.0614 147.006 94.9252C147.448 94.4304 147.847 93.8933 148.197 93.3206L148.3 93.1447C148.453 92.8816 148.59 92.6085 148.711 92.3271C148.773 92.1864 148.831 92.0457 148.884 91.8874C148.913 91.8083 148.942 91.7292 148.967 91.6501C148.991 91.5709 149.02 91.4874 149.045 91.4083C149.148 91.0565 149.224 90.6963 149.272 90.3312C149.272 90.2653 149.272 90.2037 149.272 90.1378C149.272 90.0718 149.272 90.0103 149.272 89.9487C149.272 89.8872 149.272 89.9092 149.272 89.8916C149.362 90.0674 149.366 90.2345 149.366 90.4016Z" fill="#353535"/>
<path d="M146.438 89.9614C145.425 99.501 120.84 107.137 90.663 107.137C61.7581 107.137 37.9852 100.13 35.1433 91.1572C35.1184 91.0899 35.0978 91.0208 35.0815 90.9506C34.9887 90.6279 34.9239 90.2968 34.888 89.9614H32.0049C32.0049 90.023 32.0049 90.0889 32.0049 90.1505C32.0049 90.212 32.0049 90.278 32.0049 90.3439C32.0524 90.709 32.1281 91.0692 32.2314 91.4209C32.2561 91.5001 32.2808 91.5792 32.3097 91.6627C32.3385 91.7463 32.3632 91.821 32.392 91.9001C32.4456 92.0452 32.5032 92.1859 32.565 92.3397C32.6862 92.6212 32.8237 92.8943 32.9769 93.1574L33.0799 93.3333C33.4297 93.9059 33.8281 94.4431 34.2702 94.9378C34.391 95.0756 34.5145 95.2119 34.6408 95.3467C34.7809 95.4962 34.9333 95.6456 35.0856 95.7863L35.3163 96.0061L35.5593 96.2259C35.6417 96.3006 35.724 96.3754 35.8105 96.4457L35.9959 96.604L36.1112 96.7007L36.3789 96.9161C36.5313 97.0392 36.6878 97.1623 36.8484 97.281L37.2232 97.5535C37.3839 97.6722 37.5527 97.7865 37.7216 97.9008C38.2447 98.2613 38.8007 98.6174 39.3691 98.9603L39.715 99.1625C43.1777 101.059 46.8146 102.569 50.5677 103.669C51.099 103.831 51.6386 103.989 52.1905 104.148L52.5776 104.258L53.3272 104.464C53.8091 104.596 54.2992 104.724 54.7935 104.851C55.8808 105.124 56.9928 105.387 58.1378 105.642L58.6074 105.739C59.6206 105.959 60.6557 106.167 61.7128 106.363C62.2442 106.464 62.7755 106.561 63.315 106.654L64.2294 106.807H64.2705L64.8636 106.908L65.4485 107.001L66.7294 107.194L67.7961 107.348L68.2945 107.414L69.3406 107.555H69.4189L70.0243 107.629H70.119L70.7451 107.704L71.7294 107.818L72.3884 107.889C73.0227 107.959 73.6652 108.025 74.3077 108.087L76.1941 108.254L77.5656 108.364L78.9536 108.465L80.6752 108.57C81.9561 108.641 83.2535 108.702 84.5632 108.746H84.835C85.7535 108.772 86.6802 108.799 87.611 108.812C88.616 108.83 89.6278 108.838 90.6465 108.838C91.6652 108.838 92.677 108.83 93.682 108.812C94.6128 108.812 95.5395 108.772 96.4579 108.746H96.7298C98.0395 108.702 99.3369 108.641 100.618 108.57C102.788 108.447 104.922 108.284 107.006 108.087C107.648 108.025 108.291 107.959 108.925 107.889C110.471 107.725 111.981 107.539 113.456 107.331C114.246 107.222 115.029 107.106 115.803 106.983C116.215 106.917 116.627 106.856 117.039 106.785L117.953 106.632C118.493 106.539 119.024 106.442 119.555 106.341C120.615 106.145 121.65 105.937 122.661 105.717L123.13 105.62C124.275 105.365 125.387 105.102 126.475 104.829C126.969 104.702 127.459 104.574 127.941 104.442L128.691 104.236L129.078 104.126C129.63 103.967 130.169 103.809 130.701 103.647C134.454 102.547 138.091 101.037 141.553 99.1405L141.907 98.9515C142.496 98.6086 143.052 98.2525 143.555 97.892L144.053 97.5447C144.346 97.3337 144.63 97.1051 144.898 96.9029L145.165 96.6875L145.466 96.4325C145.552 96.3622 145.635 96.2875 145.717 96.2127L145.96 95.9929L146.191 95.7731C146.343 95.628 146.496 95.4786 146.636 95.3335C146.776 95.1884 146.887 95.0609 147.006 94.9247C147.448 94.4299 147.847 93.8928 148.197 93.3201L148.3 93.1442C148.453 92.8811 148.59 92.608 148.711 92.3265C148.773 92.1859 148.831 92.0452 148.884 91.8869C148.913 91.8078 148.942 91.7287 148.967 91.6495C148.992 91.5704 149.02 91.4869 149.045 91.4078C149.148 91.056 149.224 90.6958 149.272 90.3307C149.272 90.2648 149.272 90.2032 149.272 90.1373C149.272 90.0713 149.272 90.0098 149.272 89.9482L146.438 89.9614Z" fill="#444444"/>
<path d="M37.7498 97.8741C37.4904 98.1511 35.9294 98.7533 35.0809 98.7533C34.4178 98.7533 33.5612 98.7533 32.6097 98.7533C27.9557 98.6566 20.7191 97.8741 20.0602 92.2515C19.9982 91.6819 19.9982 91.1065 20.0602 90.537C20.505 85.8023 30.9252 81.6084 35.0809 81.6084C35.6106 81.551 36.1426 81.6891 36.5884 81.9997C36.0411 82.4228 35.5172 82.8793 35.0192 83.3669C33.0504 85.3012 31.9837 87.3718 31.9837 89.5215C31.9837 89.6504 31.9837 89.7779 31.9837 89.9039C31.9855 89.9156 31.9855 89.9274 31.9837 89.9391C31.9837 90.0006 31.9837 90.0666 31.9837 90.1281C31.9837 90.1897 31.9837 90.2556 31.9837 90.3216C32.0312 90.6866 32.107 91.0469 32.2102 91.3986C32.2349 91.4777 32.2597 91.5613 32.2885 91.6404C32.3173 91.7195 32.342 91.7987 32.3709 91.8778C32.4244 92.0229 32.4821 92.1635 32.5438 92.3174C32.665 92.5989 32.8026 92.872 32.9557 93.1351L33.0587 93.3109C33.4085 93.8836 33.807 94.4207 34.249 94.9155C34.3698 95.0532 34.4934 95.1895 34.6197 95.3243C34.7597 95.4738 34.9121 95.6233 35.0645 95.764L35.2951 95.9838L35.5381 96.2036C35.6205 96.2783 35.7029 96.353 35.7894 96.4234L35.9747 96.5816L36.09 96.6784C36.1765 96.7531 36.2671 96.8234 36.3577 96.8938C36.5101 97.0169 37.5316 97.3026 37.6922 97.4213C37.7306 97.4407 37.7639 97.47 37.7891 97.5067C37.8142 97.5433 37.8304 97.586 37.8361 97.631C37.8418 97.676 37.8369 97.7218 37.8219 97.7642C37.8068 97.8067 37.7821 97.8444 37.7498 97.8741V97.8741Z" fill="#444444"/>
<path d="M144.309 98.3316C143.847 99.7032 143.094 103.167 145.095 103.167C145.684 103.167 146.43 103.167 147.27 103.167C152.332 103.093 161.685 99.101 160.96 91.7375V91.2979C160.301 96.9381 153.061 98.6614 148.407 98.7713C147.439 98.7713 146.582 98.7713 145.936 98.7713C145.071 98.7537 144.568 98.6086 144.309 98.3316Z" fill="#353535"/>
<path d="M143.25 97.8746C143.509 98.1515 145.07 98.7538 145.919 98.7538C146.582 98.7538 147.438 98.7538 148.39 98.7538C153.044 98.6571 160.28 97.8746 160.939 92.2519C161.001 91.6824 161.001 91.107 160.939 90.5374C160.474 85.816 150.054 81.6221 145.898 81.6221C145.368 81.5647 144.836 81.7027 144.391 82.0134C144.938 82.4365 145.462 82.893 145.96 83.3806C147.929 85.3149 148.995 87.3854 148.995 89.5351C148.995 89.6641 148.995 89.7916 148.995 89.9176C148.994 89.9292 148.994 89.9411 148.995 89.9528C148.995 90.0143 148.995 90.0803 148.995 90.1418C148.995 90.2033 148.995 90.2693 148.975 90.3352C148.927 90.7003 148.851 91.0606 148.748 91.4123C148.723 91.4914 148.699 91.5749 148.67 91.6541C148.641 91.7332 148.616 91.8123 148.588 91.8915C148.534 92.0365 148.476 92.1772 148.415 92.3311C148.293 92.6125 148.156 92.8856 148.003 93.1487L147.9 93.3246C147.55 93.8973 147.151 94.4344 146.709 94.9292C146.589 95.0669 146.465 95.2032 146.339 95.338C146.199 95.4875 146.046 95.637 145.894 95.7776L145.663 95.9974L145.42 96.2172C145.338 96.292 145.256 96.3667 145.169 96.437L144.984 96.5953L144.868 96.692C144.782 96.7668 144.691 96.8371 144.601 96.9074C144.51 96.9778 143.427 97.3163 143.266 97.435C143.233 97.4589 143.205 97.4908 143.186 97.5282C143.166 97.5657 143.155 97.6075 143.154 97.6503C143.152 97.6931 143.16 97.7358 143.177 97.7747C143.193 97.8137 143.218 97.8479 143.25 97.8746V97.8746Z" fill="#444444"/>
<path d="M36.8279 97.0132C36.8485 97.1012 36.8691 97.1891 36.8855 97.2726C36.7249 97.1539 36.5684 97.0308 36.416 96.9077L36.1483 96.6923L36.033 96.5956L35.8476 96.4374C35.7612 96.367 35.6788 96.2923 35.5964 96.2175L35.3534 95.9977L35.1228 95.7779C34.9704 95.6329 34.818 95.4834 34.6779 95.3383C34.5379 95.1932 34.4267 95.0658 34.3073 94.9295C33.8652 94.4347 33.4668 93.8976 33.117 93.3249L33.014 93.1491C32.8608 92.8859 32.7233 92.6129 32.6021 92.3314C32.5404 92.1907 32.4827 92.05 32.4291 91.8918C32.4003 91.8126 32.3715 91.7335 32.3468 91.6544C32.3221 91.5752 32.2932 91.4917 32.2685 91.4126C32.1653 91.0609 32.0895 90.7006 32.042 90.3355C32.042 90.2696 32.042 90.208 32.042 90.1421C32.042 90.0762 32.042 90.0146 32.042 89.9531C32.0438 89.9414 32.0438 89.9295 32.042 89.9179V89.9179C32.042 89.7889 32.042 89.6615 32.042 89.5354C32.042 87.3857 33.1087 85.3152 35.0775 83.3809C35.5754 82.8933 36.0994 82.4368 36.6467 82.0137C36.9885 82.3126 37.0585 82.783 36.935 83.3897C36.902 83.5611 36.8567 83.7501 36.8032 83.948C36.6796 84.3876 36.5025 84.8799 36.3131 85.4119C35.7859 86.8846 35.1392 88.6694 35.1392 90.5378C35.1392 90.6828 35.1392 90.8235 35.1392 90.9774C35.1392 91.1312 35.1392 91.2763 35.1722 91.417C35.3699 93.7293 36.4696 95.6988 36.8279 97.0132Z" fill="#444444"/>
</g>
<defs>
<clipPath id="clip0_227_1175">
<rect width="180" height="180" fill="white"/>
</clipPath>
</defs>
</svg>
