<svg width="1226" height="370" viewBox="0 0 1226 370" fill="none" xmlns="http://www.w3.org/2000/svg">
<g clip-path="url(#clip0_375_578)">
<path d="M10.8811 368.539C96.6376 303.947 181.487 238.765 275.115 189.788C363.67 143.466 460.182 115.676 555.634 95.2116C653.803 74.881 753.592 66.7054 853.283 70.8255C961.74 74.5319 1067.46 101.543 1175.2 109.817C1183.58 110.463 1187.59 95.1193 1179.06 91.9153C1077.21 53.6676 962.991 44.6144 856.386 40.4313C754.464 36.4594 652.469 45.2674 552.215 66.6988C454.621 87.5579 357.01 118.316 266.644 165.843C172.475 215.368 83.4684 281.698 2.69615 355.856C1.30473 357.132 0.39867 358.976 0.168385 361.002C-0.0619 363.028 0.401504 365.077 1.46124 366.719C2.52097 368.361 4.0945 369.468 5.85113 369.807C7.60776 370.147 9.41071 369.692 10.8811 368.539V368.539Z" fill="#1D1D1B"/>
<path d="M1039.55 11.4319C1083.32 65.1612 1153.4 77.8746 1206.35 115.107L1223.42 93.8073C1204.3 69.5545 1149.09 88.7271 1125.97 94.7916C1095.64 102.748 1052.82 113.375 1032.34 142.82C1022.83 156.492 1039.44 178.546 1051.34 165.464C1071.16 143.666 1104.33 135.679 1130.01 128.456C1145.95 123.95 1162.11 120.557 1178.41 118.296C1190.13 116.686 1204.57 121.192 1215.55 117.855C1226.28 114.59 1231.1 94.202 1218.46 89.2756C1194.25 79.8431 1170.54 66.7196 1147.02 55.1853C1113.35 38.663 1081.1 13.062 1046.44 0.333262C1041.14 -1.61988 1035.23 6.12091 1039.57 11.4575L1039.55 11.4319Z" fill="#1D1D1B"/>
</g>
<defs>
<clipPath id="clip0_375_578">
<rect width="1226" height="370" fill="white" transform="translate(0.000610352)"/>
</clipPath>
</defs>
</svg>
