<svg width="461" height="441" viewBox="0 0 461 441" fill="none" xmlns="http://www.w3.org/2000/svg">
<path d="M456 181.489C456 203.148 435.813 220.708 410.9 220.708C385.997 220.708 365.8 203.148 365.8 181.489C365.8 203.148 345.603 220.708 320.7 220.708C295.787 220.708 275.6 203.148 275.6 181.489C275.6 203.148 255.403 220.708 230.5 220.708C205.587 220.708 185.4 203.148 185.4 181.489C185.4 203.148 165.203 220.708 140.3 220.708C115.387 220.708 95.2001 203.148 95.2001 181.489C95.2001 203.148 75.0028 220.708 50.0998 220.708C25.1869 220.708 5 203.148 5 181.489" stroke="#505056" stroke-width="9" stroke-linecap="round" stroke-linejoin="round"/>
<path d="M456 152.074H15.177C7.19624 152.074 2.33301 141.484 6.55868 133.317L41.668 65.5452C43.1995 62.2183 45.6229 59.3807 48.6688 57.3471C51.7147 55.3135 55.2641 54.1634 58.9238 54.0244H132.456" stroke="#505056" stroke-width="9" stroke-linecap="round" stroke-linejoin="round"/>
<path d="M181.478 54.0244H402.076C405.732 54.1669 409.278 55.3187 412.32 57.3521C415.362 59.3855 417.782 62.2212 419.312 65.5452L443.823 112.854" stroke="#505056" stroke-width="9" stroke-linecap="round" stroke-linejoin="round"/>
<path d="M73.6299 54.0246V14.8049C73.6299 12.2045 74.663 9.71057 76.5017 7.87179C78.3403 6.03301 80.834 5 83.4342 5H377.565C380.165 5 382.659 6.03301 384.497 7.87179C386.336 9.71057 387.369 12.2045 387.369 14.8049V54.0246" stroke="#505056" stroke-width="9" stroke-linecap="round" stroke-linejoin="round"/>
<path d="M436.392 250.123V397.197" stroke="#505056" stroke-width="9" stroke-linecap="round" stroke-linejoin="round"/>
<path d="M24.6074 250.123V436.416" stroke="#505056" stroke-width="9" stroke-linecap="round" stroke-linejoin="round"/>
<path d="M73.6299 397.197V279.538H171.674V397.197" stroke="#505056" stroke-width="9" stroke-linecap="round" stroke-linejoin="round"/>
<path d="M377.566 279.538H240.305C234.891 279.538 230.501 283.928 230.501 289.343V357.977C230.501 363.393 234.891 367.782 240.305 367.782H377.566C382.98 367.782 387.37 363.393 387.37 357.977V289.343C387.37 283.928 382.98 279.538 377.566 279.538Z" stroke="#505056" stroke-width="9" stroke-linecap="round" stroke-linejoin="round"/>
<path d="M5 436.417H456" stroke="#505056" stroke-width="9" stroke-linecap="round" stroke-linejoin="round"/>
</svg>
