<svg width="502" height="312" viewBox="0 0 502 312" fill="none" xmlns="http://www.w3.org/2000/svg">
<path d="M0 312H443.001V61.6143H0V312ZM29.3091 125.758C37.5909 123.419 45.1353 118.992 51.2197 112.898C57.3042 106.805 61.7255 99.2495 64.0605 90.9555H378.942C381.277 99.2495 385.698 106.805 391.782 112.898C397.867 118.992 405.411 123.419 413.692 125.758V247.845C405.411 250.184 397.867 254.611 391.782 260.705C385.698 266.798 381.277 274.353 378.942 282.647H64.0155C61.6805 274.353 57.2592 266.798 51.1747 260.705C45.0903 254.611 37.5465 250.184 29.2647 247.845L29.3091 125.758Z" fill="#808080"/>
<path d="M468.255 0L132.579 45.8022H349.689L408.743 37.7451C409.982 40.5627 411.478 43.2599 413.212 45.8022H459.539V152.984L464.367 188.491C462.717 189.221 461.106 190.035 459.539 190.931V253.888L502 248.092L468.255 0Z" fill="#808080"/>
<path d="M221.501 111.355C206.599 111.355 192.031 115.781 179.641 124.072C167.25 132.364 157.594 144.148 151.891 157.936C146.188 171.724 144.696 186.896 147.603 201.533C150.51 216.171 157.686 229.616 168.223 240.169C178.761 250.722 192.186 257.908 206.802 260.82C221.417 263.731 236.567 262.237 250.334 256.526C264.102 250.814 275.87 241.143 284.149 228.734C292.428 216.325 296.847 201.737 296.847 186.813C296.847 166.8 288.909 147.607 274.779 133.456C260.649 119.306 241.484 111.355 221.501 111.355ZM228.831 234.875V247.588H214.171V236.196C205.906 236.007 197.788 233.977 190.404 230.254L194.248 215.706C201.318 219.671 209.275 221.78 217.378 221.838C228.608 221.838 234.854 216.568 234.854 208.757C234.854 201.494 230.016 197.231 217.814 192.811C202.047 187.126 191.968 178.744 191.968 164.946C192.074 158.685 194.345 152.654 198.394 147.881C202.442 143.109 208.018 139.889 214.171 138.772V126.843H228.831V137.463C235.741 137.614 242.54 139.235 248.777 142.219L244.508 156.307C238.644 153.256 232.121 151.692 225.512 151.753C214.45 151.753 209.612 157.717 209.612 163.279C209.612 170.665 215.143 174.078 227.926 179.058C244.541 185.313 252.643 193.706 252.643 207.504C252.613 214.168 250.192 220.6 245.82 225.625C241.449 230.65 235.419 233.933 228.831 234.875V234.875Z" fill="#808080"/>
</svg>
