<svg width="1176" height="366" viewBox="0 0 1176 366" fill="none" xmlns="http://www.w3.org/2000/svg">
<path d="M1101.55 139.243C1027.74 238.399 920.722 286.811 815.247 310.428C717.352 332.333 614.103 340.066 515.107 322.638C420.204 305.921 328.62 265.714 242.735 213.476C198.928 186.577 156.58 156.177 115.966 122.472C78.9741 92.0199 44.8852 55.008 6.87857 26.7439C2.76891 23.6983 -1.47551 30.9377 1.49583 35.1779C31.5625 78.1685 73.383 111.65 111.445 142.915C151.665 175.838 193.499 205.645 236.7 232.163C325.741 287.804 421.441 325.238 520.012 342.982C622.778 360.64 731.283 349.349 832.159 323.529C937.124 296.656 1033.52 242.115 1105.8 143.382C1107.99 140.394 1103.75 136.312 1101.55 139.257L1101.55 139.243Z" fill="#1D1D1B"/>
<path d="M1069.34 275.094C1094.52 259.782 1110.13 218.937 1123.63 190.744C1140.97 154.513 1160.78 114.258 1169.31 73.0549C1169.75 71.3798 1169.76 69.5755 1169.33 67.8851C1168.91 66.1947 1168.08 64.6996 1166.95 63.6014C1165.82 62.5033 1164.44 61.8548 1163.01 61.7436C1161.58 61.6324 1160.16 62.0636 1158.94 62.9793C1129.73 85.5219 1098.56 104.027 1065.99 118.161C1049.23 124.957 1032.07 130.165 1014.64 133.737C999.714 136.98 984.361 137.043 970.037 143.304C965.883 145.123 967.42 152.215 971.275 153.096C1002.92 160.317 1041.4 145.412 1071.39 133.644C1105.37 120.311 1137.04 99.3072 1167.21 76.3348L1156.83 66.2597C1149.34 103.374 1132.1 138.751 1117.47 172.025C1108.2 193.165 1098.35 213.901 1087.93 234.236C1082.29 245.211 1075.65 262.021 1066.42 268.928C1063.67 270.986 1066.6 276.777 1069.35 275.094L1069.34 275.094Z" fill="#1D1D1B"/>
</svg>
