<svg width="488" height="483" viewBox="0 0 488 483" fill="none" xmlns="http://www.w3.org/2000/svg">
<path d="M134.074 181.627C134.074 189.185 137.046 196.433 142.338 201.778C147.629 207.122 154.805 210.124 162.287 210.124C169.77 210.124 176.946 207.122 182.237 201.778C187.528 196.433 190.501 189.185 190.501 181.627C190.501 165.887 178.934 158.616 162.286 153.129C147.474 148.248 134.074 140.363 134.074 124.631C134.074 117.073 137.046 109.825 142.338 104.481C147.629 99.1367 154.805 96.1343 162.287 96.1343C169.77 96.1343 176.946 99.1367 182.237 104.481C187.528 109.825 190.501 117.073 190.501 124.631" stroke="#464747" stroke-width="9" stroke-linecap="round" stroke-linejoin="round"/>
<path d="M162.287 80.2495V96.3297" stroke="#464747" stroke-width="9" stroke-linecap="round" stroke-linejoin="round"/>
<path d="M162.287 210.125V226.205" stroke="#464747" stroke-width="9" stroke-linecap="round" stroke-linejoin="round"/>
<path d="M238.09 229.693C279.955 187.408 279.955 118.85 238.09 76.5645C196.224 34.2792 128.347 34.2792 86.4818 76.5645C44.6164 118.85 44.6164 187.408 86.4818 229.693C128.347 271.979 196.224 271.979 238.09 229.693Z" stroke="#464747" stroke-width="9" stroke-linecap="round" stroke-linejoin="round"/>
<path d="M356.219 429.342C317.645 418.935 277.675 414.798 237.813 417.088C211.524 418.619 185.344 422.921 159.045 421.841C132.746 420.761 102.761 410.822 83.5929 392.606L8.89997 320.842C6.4665 318.473 5.06425 315.224 5.00215 311.811C4.94005 308.397 6.22292 305.099 8.56857 302.641V302.641C12.3639 298.664 16.8979 295.481 21.911 293.274C26.9242 291.068 32.3184 289.88 37.7862 289.779C43.2539 289.677 48.6875 290.665 53.7773 292.684C58.8672 294.704 63.5134 297.717 67.4505 301.551L97.0254 329.811" stroke="#464747" stroke-width="9" stroke-miterlimit="10" stroke-linecap="round"/>
<path d="M265.86 349.252L218.433 359.511C203.488 362.744 188.248 364.376 172.964 364.377H147.299C144.176 364.377 141.084 363.756 138.198 362.549C135.313 361.343 132.691 359.574 130.482 357.343C128.274 355.113 126.522 352.466 125.326 349.552C124.131 346.637 123.516 343.514 123.516 340.36V340.36C123.516 333.99 126.021 327.881 130.48 323.376C134.939 318.871 140.988 316.34 147.294 316.34H169.857C190.655 316.336 211.233 312.047 230.334 303.735C243.731 297.903 257.06 291.85 271.38 288.232C310.533 278.342 365.962 289.157 404.212 336.264" stroke="#464747" stroke-width="9" stroke-miterlimit="10" stroke-linecap="round"/>
<path d="M483 304.318H435.041C432.114 304.318 429.243 305.129 426.74 306.663C424.238 308.198 422.201 310.396 420.85 313.019L347.876 454.697C346.608 457.16 345.989 459.912 346.08 462.686C346.171 465.461 346.968 468.165 348.394 470.538C349.821 472.911 351.828 474.873 354.224 476.235C356.619 477.596 359.321 478.311 362.069 478.311H482.998" stroke="#464747" stroke-width="9" stroke-linecap="round" stroke-linejoin="round"/>
</svg>
