<svg width="180" height="180" viewBox="0 0 180 180" fill="none" xmlns="http://www.w3.org/2000/svg">
<path d="M153.241 75.8084C153.254 76.7636 153.153 77.7171 152.94 78.6483C153.035 77.6855 153.152 76.749 153.241 75.8084Z" fill="#5E422B"/>
<path d="M150.997 83.2367C143.48 95.2801 117.898 104.754 87.2444 105.644C56.5911 106.535 30.4556 98.686 22.2118 87.1152C25.1145 82.4685 30.7013 78.2002 38.2625 74.6624C50.2574 69.0355 67.1661 65.2388 86.0125 64.6917C101.638 64.2161 116.087 66.0345 127.589 69.4639C138.628 72.7694 146.961 77.5607 150.997 83.2367Z" fill="#4C371D"/>
<path d="M153.242 75.6068C153.247 75.6799 153.249 75.7533 153.246 75.8265C153.158 76.7672 153.063 77.7098 152.946 78.6664C152.56 80.294 151.903 81.8452 151.003 83.2549C146.973 77.577 138.634 72.7877 127.571 69.4901C116.069 66.0606 101.62 64.2423 85.9944 64.7179C67.154 65.2831 50.2393 69.0617 38.2444 74.6886C30.6832 78.2264 25.1145 82.4887 22.1937 87.1414C20.5905 85.0065 19.6551 82.4449 19.5052 79.7793C19.4914 79.7368 19.4775 79.6944 19.4657 79.6581C18.9993 64.164 48.5662 50.7299 85.4873 49.5923C122.144 48.4873 152.283 59.9583 153.176 75.2798C153.229 75.3628 153.233 75.4757 153.242 75.6068Z" fill="#5E422B"/>
<path d="M153.275 76.7555C153.278 76.8293 153.278 76.9034 153.273 76.9772C153.188 77.9098 153.089 78.8604 152.976 79.809C152.593 81.4392 151.937 82.9927 151.035 84.4036C147.006 78.7257 138.665 73.9303 127.595 70.6347C116.101 67.2093 101.652 65.391 86.0251 65.8605C67.1805 66.4338 50.2658 70.2124 38.2709 75.8392C30.7097 79.377 25.1411 83.6394 22.2203 88.2921C20.6143 86.1587 19.6786 83.5962 19.5317 80.9299C19.5151 80.8907 19.5019 80.8502 19.4922 80.8088C19.0259 65.3147 48.5867 51.8825 85.5139 50.743C122.165 49.6399 152.309 61.109 153.196 76.4325C153.229 76.5385 153.255 76.6463 153.275 76.7555V76.7555Z" fill="#AC5226"/>
<path d="M153.241 75.7677C153.241 75.7677 153.241 75.7677 153.253 75.8041C153.255 75.7308 153.254 75.6575 153.248 75.5844C153.215 75.4814 153.242 75.3586 153.23 75.2417C153.261 75.4154 153.265 75.5929 153.241 75.7677V75.7677Z" fill="#5E422B"/>
<path d="M58.8848 80.5681C58.7375 76.9292 85.1981 75.8034 87.4999 69.3549C89.8017 62.9064 106.045 61.5521 108.946 65.842C117.01 77.7461 129.738 68.857 130.577 70.9364C131.415 73.0159 120.655 87.652 114.859 83.857C109.064 80.062 89.8989 92.2363 92.4377 84.9933C94.9765 77.7502 78.9186 91.0031 76.2602 85.4813C73.6019 79.9595 59.4473 94.0131 58.8848 80.5681Z" stroke="#E5CA76" stroke-width="2.83" stroke-miterlimit="10"/>
<path d="M51.4333 88.1657C51.2622 83.5289 77.7193 82.3306 79.9659 74.1705C82.2124 66.0105 99.6626 61.7155 102.176 67.5326C104.689 73.3497 123.985 75.9074 124.844 78.5433C125.704 81.1792 113.28 97.6647 107.451 92.8012C101.622 87.9378 82.554 103.225 85.0046 94.0865C87.4551 84.9483 71.534 101.602 68.8331 94.5726C66.1323 87.5429 52.0787 105.237 51.4333 88.1657Z" stroke="#E5CA76" stroke-width="3.19" stroke-miterlimit="10"/>
<path d="M104.251 88.3082C104.094 91.939 82.323 90.9593 79.9118 97.1954C77.5005 103.432 62.8987 105.504 61.2631 100.775C59.6274 96.0461 44.0401 92.6079 43.5241 90.4701C43.0081 88.3323 54.3698 76.3223 58.782 80.5617C63.1942 84.8011 79.8997 74.2128 77.2355 81.2152C74.5713 88.2176 88.7883 76.309 90.4961 82.02C92.204 87.731 104.938 74.8714 104.251 88.3082Z" stroke="#E5CA76" stroke-width="1.71" stroke-miterlimit="10"/>
<path d="M134.946 81.0491C134.789 84.68 108.304 83.4072 105.437 89.6243C102.57 95.8413 84.8401 97.7139 82.7953 92.9842C80.7505 88.2545 61.7222 84.584 61.0692 82.4372C60.4162 80.2905 74.0767 68.4226 79.5083 72.7251C84.94 77.0276 105.125 66.6457 101.975 73.6187C98.8254 80.5917 115.976 68.8596 118.123 74.6017C120.27 80.3438 135.605 67.6082 134.946 81.0491Z" stroke="#E5CA76" stroke-width="2.83" stroke-miterlimit="10"/>
<path d="M130.239 89.4544C130.082 93.0853 103.605 91.8166 100.73 98.0296C97.8555 104.243 80.1352 106.125 78.0944 101.387C76.0537 96.6498 57.0133 92.9832 56.3684 90.8405C55.7234 88.6979 69.3739 76.8198 74.7994 81.1243C80.225 85.4288 100.416 75.0449 97.2682 82.024C94.1204 89.003 111.269 77.2648 113.414 83.0009C115.559 88.737 130.898 76.0135 130.239 89.4544Z" stroke="#E5CA76" stroke-width="2.83" stroke-miterlimit="10"/>
<path d="M139.694 90.0794C139.537 93.7103 113.052 92.4375 110.185 98.6545C107.318 104.872 89.5779 106.714 87.543 102.014C85.5081 97.315 66.468 93.6082 65.817 91.4675C65.1659 89.3268 78.8245 77.4528 84.2561 81.7553C89.6877 86.0578 109.873 75.6759 106.723 82.6489C103.573 89.6219 120.724 77.8898 122.871 83.632C125.017 89.3741 140.356 76.6506 139.694 90.0794Z" stroke="#E5CA76" stroke-width="2.83" stroke-miterlimit="10"/>
<path d="M141.167 85.0804C141.01 88.7112 114.525 87.4385 111.652 93.6575C108.78 99.8765 91.0455 101.717 89.0166 97.0154C86.9878 92.314 67.9416 88.6092 67.2906 86.4685C66.6396 84.3278 80.2981 72.4537 85.7237 76.7583C91.1493 81.0628 111.346 70.6769 108.19 77.6519C105.035 84.6269 122.197 72.8908 124.344 78.633C126.491 84.3751 141.826 71.6394 141.167 85.0804Z" stroke="#E5CA76" stroke-width="2.83" stroke-miterlimit="10"/>
<path d="M145.15 94.173C144.995 97.8099 118.51 96.5371 115.644 102.754C112.777 108.971 95.0366 110.813 93.0016 106.114C90.9667 101.415 71.9266 97.7078 71.2756 95.5671C70.6246 93.4264 84.2811 81.5464 89.7127 85.8489C95.1443 90.1514 115.329 79.7695 112.175 86.7506C109.022 93.7316 126.182 81.9895 128.327 87.7256C130.472 93.4616 145.803 80.7138 145.15 94.173Z" stroke="#E5CA76" stroke-width="2.83" stroke-miterlimit="10"/>
<path d="M113.369 82.1243C113.212 85.7552 86.7331 84.4805 83.8604 90.6995C80.9878 96.9185 63.2633 98.7891 61.2246 94.0574C59.1858 89.3258 40.1436 85.6531 39.4986 83.5104C38.8537 81.3678 52.5061 69.4958 57.9316 73.8003C63.3572 78.1048 83.5481 67.7209 80.3984 74.6939C77.2486 81.6669 94.4051 69.9328 96.5521 75.675C98.6991 81.4171 114.028 68.6834 113.369 82.1243Z" stroke="#E5CA76" stroke-width="2.83" stroke-miterlimit="10"/>
<path d="M128.42 96.1283C128.263 99.7591 101.777 98.4864 98.9108 104.703C96.0441 110.92 78.3038 112.763 76.2688 108.063C74.2339 103.364 55.1959 99.6631 54.5429 97.5164C53.8899 95.3696 67.5503 83.5017 72.9759 87.8062C78.4015 92.1107 98.5985 81.7248 95.4426 88.6998C92.2868 95.6748 109.449 83.9387 111.596 89.6809C113.743 95.423 129.078 82.6873 128.42 96.1283Z" stroke="#E5CA76" stroke-width="2.83" stroke-miterlimit="10"/>
<path d="M137.023 95.1126C136.866 98.7435 110.383 97.4768 107.515 103.688C104.646 109.899 86.9195 111.783 84.8727 107.048C82.8259 102.312 63.7977 98.6414 63.1467 96.5007C62.4957 94.36 76.1522 82.48 81.5838 86.7825C87.0154 91.085 107.2 80.7031 104.053 87.6822C100.905 94.6613 118.053 82.9231 120.198 88.6592C122.343 94.3952 137.682 81.6717 137.023 95.1126Z" stroke="#E5CA76" stroke-width="2.83" stroke-miterlimit="10"/>
<path d="M145.519 89.0316C145.363 92.6625 118.879 91.3958 116.011 97.6067C113.142 103.818 95.4156 105.702 93.3688 100.967C91.322 96.2309 72.2938 92.5604 71.6428 90.4197C70.9918 88.279 84.6483 76.3989 90.0799 80.7015C95.5115 85.004 115.696 74.6221 112.549 81.6012C109.401 88.5802 126.549 76.842 128.694 82.5781C130.839 88.3142 146.178 75.5906 145.519 89.0316Z" stroke="#E5CA76" stroke-width="1.88" stroke-miterlimit="10"/>
<path d="M106.002 90.224C105.845 93.8548 79.3595 92.5821 76.4868 98.8011C73.6141 105.02 55.8917 106.897 53.8509 102.159C51.8102 97.4213 32.7779 93.7588 32.1249 91.612C31.4719 89.4653 45.1324 77.5974 50.5579 81.9019C55.9835 86.2064 76.1806 75.8205 73.0248 82.7955C69.8689 89.7705 87.0315 78.0344 89.1785 83.7766C91.3254 89.5187 106.66 76.783 106.002 90.224Z" stroke="#E5CA76" stroke-width="1.88" stroke-miterlimit="10"/>
<path d="M120.865 80.4847C120.71 84.1216 94.225 82.8488 91.3564 89.0598C88.4877 95.2708 70.7613 97.1555 68.7145 92.4197C66.6677 87.684 47.6395 84.0135 46.9885 81.8728C46.3375 79.7321 59.994 67.852 65.4256 72.1546C70.8572 76.4571 91.0421 66.0752 87.8882 73.0562C84.7344 80.0373 101.895 68.2951 104.04 74.0312C106.185 79.7673 121.524 67.0438 120.865 80.4847Z" stroke="#E5CA76" stroke-width="2.83" stroke-miterlimit="10"/>
<path d="M104.917 72.8139C105.347 77.2387 78.9871 79.9272 77.1914 87.8866C75.3956 95.846 58.1959 100.971 55.3736 95.563C52.5512 90.155 33.155 88.81 32.1515 86.3284C31.148 83.8468 42.6644 67.315 48.7449 71.6339C54.8255 75.9528 73.0365 60.1745 71.0872 69.1024C69.1379 78.0303 84.1256 61.1041 87.2022 67.6827C90.2789 74.2614 103.327 56.4861 104.917 72.8139Z" stroke="#E5CA76" stroke-width="2.08" stroke-miterlimit="10"/>
<path d="M123.074 89.0284C122.848 93.4126 93.7973 92.0444 90.6017 99.5552C87.406 107.066 67.9289 109.441 65.7092 103.723C63.4895 98.0042 42.609 93.7309 41.9105 91.1566C41.2119 88.5823 56.2899 74.1741 62.1895 79.3363C68.0891 84.4985 90.3689 71.8448 86.8629 80.2746C83.3569 88.7045 102.277 74.4446 104.594 81.3447C106.911 88.2449 123.884 72.8232 123.074 89.0284Z" stroke="#E5CA76" stroke-width="3.25" stroke-miterlimit="10"/>
<path d="M100.338 87.2043C100.183 90.8412 73.7035 89.5664 70.8308 95.7855C67.9581 102.004 50.2338 103.875 48.195 99.1434C46.1563 94.4117 27.1139 90.7391 26.469 88.5964C25.824 86.4537 39.4745 74.5757 44.9 78.8802C50.3256 83.1847 70.5165 72.8008 67.3688 79.7799C64.221 86.7589 81.3755 75.0188 83.5205 80.7549C85.6656 86.4909 100.996 73.7633 100.338 87.2043Z" stroke="#E5CA76" stroke-width="2.83" stroke-miterlimit="10"/>
<path d="M93.1069 74.6736L92.082 73.0068L90.8931 73.7379L91.918 75.4047L93.1069 74.6736Z" fill="#43B549"/>
<path d="M91.9008 75.3952C92.0687 75.292 91.9761 74.8364 91.694 74.3777C91.4119 73.9189 91.0472 73.6307 90.8793 73.7339C90.7113 73.8372 90.8039 74.2928 91.086 74.7516C91.3681 75.2103 91.7329 75.4985 91.9008 75.3952Z" fill="#43B549"/>
<path d="M93.0902 74.6628C93.2581 74.5596 93.1656 74.104 92.8835 73.6452C92.6014 73.1865 92.2366 72.8983 92.0686 73.0015C91.9007 73.1048 91.9933 73.5604 92.2754 74.0191C92.5575 74.4779 92.9223 74.7661 93.0902 74.6628Z" fill="#389B47"/>
<path d="M87.9227 75.3794L86.7676 73.501L85.432 74.3222L86.5871 76.2007L87.9227 75.3794Z" fill="#43B549"/>
<path d="M86.5641 76.199C86.756 76.081 86.653 75.5648 86.334 75.0461C86.015 74.5274 85.6009 74.2025 85.409 74.3205C85.2171 74.4385 85.3201 74.9547 85.6391 75.4734C85.958 75.9921 86.3722 76.317 86.5641 76.199Z" fill="#43B549"/>
<path d="M87.9039 75.3767C88.0958 75.2587 87.9927 74.7426 87.6738 74.2239C87.3548 73.7051 86.9407 73.3803 86.7488 73.4983C86.5569 73.6163 86.6599 74.1324 86.9789 74.6511C87.2979 75.1699 87.712 75.4947 87.9039 75.3767Z" fill="#389B47"/>
<path d="M87.521 79.1736L86.4961 77.5068L85.3071 78.2379L86.332 79.9047L87.521 79.1736Z" fill="#43B549"/>
<path d="M86.3178 79.8903C86.4857 79.7871 86.3931 79.3315 86.111 78.8727C85.8289 78.414 85.4642 78.1258 85.2962 78.229C85.1283 78.3323 85.2209 78.7879 85.503 79.2466C85.785 79.7054 86.1499 79.9936 86.3178 79.8903Z" fill="#43B549"/>
<path d="M87.5014 79.1618C87.6693 79.0586 87.5767 78.603 87.2946 78.1442C87.0125 77.6855 86.6478 77.3973 86.4798 77.5005C86.3119 77.6038 86.4045 78.0594 86.6865 78.5181C86.9686 78.9769 87.3335 79.2651 87.5014 79.1618Z" fill="#389B47"/>
<path d="M93.5258 82.4792L92.501 80.8125L91.312 81.5436L92.3369 83.2103L93.5258 82.4792Z" fill="#43B549"/>
<path d="M92.3276 83.1872C92.4955 83.084 92.4029 82.6284 92.1208 82.1696C91.8387 81.7109 91.4739 81.4227 91.306 81.5259C91.1381 81.6292 91.2306 82.0848 91.5127 82.5435C91.7948 83.0023 92.1597 83.2905 92.3276 83.1872Z" fill="#43B549"/>
<path d="M93.5141 82.4636C93.682 82.3603 93.5894 81.9048 93.3073 81.446C93.0252 80.9873 92.6604 80.699 92.4925 80.8023C92.3246 80.9055 92.4172 81.3612 92.6993 81.8199C92.9814 82.2787 93.3462 82.5668 93.5141 82.4636Z" fill="#389B47"/>
<path d="M90.9494 74.8222L89.0801 74.2441L88.6678 75.5776L90.5371 76.1556L90.9494 74.8222Z" fill="#43B549"/>
<path d="M90.6483 76.1424C90.7066 75.9541 90.3367 75.6724 89.8221 75.5133C89.3076 75.3542 88.8433 75.378 88.7851 75.5663C88.7269 75.7546 89.0968 76.0362 89.6113 76.1953C90.1258 76.3544 90.5901 76.3307 90.6483 76.1424Z" fill="#43B549"/>
<path d="M91.0546 74.8084C91.1128 74.6201 90.7429 74.3384 90.2284 74.1794C89.7139 74.0203 89.2496 74.044 89.1914 74.2323C89.1331 74.4206 89.5031 74.7022 90.0176 74.8613C90.5321 75.0204 90.9963 74.9967 91.0546 74.8084Z" fill="#389B47"/>
<path d="M93.3002 76.4735L91.6992 75.3486L90.8968 76.4907L92.4977 77.6155L93.3002 76.4735Z" fill="#43B549"/>
<path d="M92.5255 77.6183C92.6388 77.457 92.3735 77.0752 91.9329 76.7656C91.4922 76.456 91.0431 76.3358 90.9298 76.4971C90.8165 76.6583 91.0818 77.0401 91.5225 77.3497C91.9632 77.6593 92.4122 77.7795 92.5255 77.6183Z" fill="#43B549"/>
<path d="M93.3185 76.4796C93.4318 76.3183 93.1665 75.9365 92.7258 75.6269C92.2852 75.3173 91.8361 75.1971 91.7227 75.3584C91.6094 75.5197 91.8748 75.9014 92.3155 76.211C92.7561 76.5206 93.2052 76.6409 93.3185 76.4796Z" fill="#389B47"/>
<path d="M91.9298 77.217L89.9736 77.1719L89.9414 78.5673L91.8976 78.6124L91.9298 77.217Z" fill="#43B549"/>
<path d="M91.8437 78.6306C91.8483 78.4335 91.4155 78.2637 90.8771 78.2513C90.3387 78.2388 89.8985 78.3885 89.894 78.5856C89.8894 78.7827 90.3222 78.9525 90.8606 78.9649C91.399 78.9773 91.8392 78.8277 91.8437 78.6306Z" fill="#43B549"/>
<path d="M91.8779 77.2439C91.8824 77.0468 91.4496 76.877 90.9112 76.8645C90.3728 76.8521 89.9327 77.0018 89.9282 77.1989C89.9236 77.396 90.3564 77.5657 90.8948 77.5782C91.4332 77.5906 91.8733 77.441 91.8779 77.2439Z" fill="#389B47"/>
<path d="M94.7534 78.7527L93.7285 77.0859L92.5395 77.817L93.5645 79.4838L94.7534 78.7527Z" fill="#43B549"/>
<path d="M93.5541 79.4665C93.722 79.3633 93.6295 78.9077 93.3474 78.449C93.0653 77.9902 92.7005 77.702 92.5326 77.8052C92.3647 77.9085 92.4572 78.3641 92.7393 78.8229C93.0214 79.2816 93.3862 79.5698 93.5541 79.4665Z" fill="#43B549"/>
<path d="M94.7387 78.7371C94.9066 78.6338 94.814 78.1782 94.5319 77.7195C94.2498 77.2607 93.8851 76.9725 93.7171 77.0757C93.5492 77.179 93.6418 77.6346 93.9239 78.0934C94.206 78.5521 94.5708 78.8403 94.7387 78.7371Z" fill="#389B47"/>
<path d="M95.2724 81.2022L95.4297 79.252L94.0384 79.1397L93.8811 81.09L95.2724 81.2022Z" fill="#43B549"/>
<path d="M94.4755 80.2163C94.5188 79.6795 94.3946 79.2315 94.1981 79.2157C94.0016 79.1998 93.8073 79.6221 93.764 80.1589C93.7207 80.6957 93.8448 81.1437 94.0413 81.1596C94.2378 81.1754 94.4322 80.7531 94.4755 80.2163Z" fill="#43B549"/>
<path d="M95.8612 80.3344C95.9045 79.7976 95.7803 79.3497 95.5839 79.3338C95.3874 79.318 95.193 79.7402 95.1497 80.277C95.1064 80.8138 95.2306 81.2619 95.427 81.2777C95.6235 81.2936 95.8179 80.8712 95.8612 80.3344Z" fill="#389B47"/>
<path d="M96.8953 78.4561L96.9404 76.5L95.545 76.4678L95.4999 78.4239L96.8953 78.4561Z" fill="#43B549"/>
<path d="M95.8064 77.4244C95.8189 76.886 95.6692 76.4458 95.4721 76.4413C95.2751 76.4367 95.1052 76.8695 95.0928 77.4079C95.0804 77.9463 95.2301 78.3865 95.4271 78.391C95.6242 78.3956 95.794 77.9628 95.8064 77.4244Z" fill="#43B549"/>
<path d="M97.201 77.4587C97.2134 76.9202 97.0637 76.4801 96.8667 76.4755C96.6696 76.471 96.4998 76.9038 96.4873 77.4422C96.4749 77.9806 96.6246 78.4207 96.8217 78.4252C97.0187 78.4298 97.1885 77.9971 97.201 77.4587Z" fill="#389B47"/>
<path d="M96.5532 76.0847L95.5283 74.418L94.3393 75.1491L95.3642 76.8158L96.5532 76.0847Z" fill="#43B549"/>
<path d="M95.3481 76.7995C95.516 76.6963 95.4234 76.2407 95.1413 75.7819C94.8592 75.3232 94.4944 75.035 94.3265 75.1382C94.1586 75.2415 94.2511 75.6971 94.5332 76.1558C94.8153 76.6146 95.1802 76.9028 95.3481 76.7995Z" fill="#43B549"/>
<path d="M96.5346 76.0769C96.7025 75.9736 96.6099 75.5181 96.3278 75.0593C96.0457 74.6006 95.681 74.3123 95.513 74.4156C95.3451 74.5188 95.4377 74.9745 95.7198 75.4332C96.0019 75.892 96.3667 76.1801 96.5346 76.0769Z" fill="#389B47"/>
<path d="M84.7939 75.1944L83.2607 73.6094L82.1338 74.6994L83.667 76.2844L84.7939 75.1944Z" fill="#43B549"/>
<path d="M83.634 76.2789C83.7959 76.1223 83.5839 75.6405 83.1606 75.2028C82.7372 74.7651 82.2627 74.5373 82.1008 74.6939C81.9389 74.8506 82.1508 75.3323 82.5742 75.77C82.9976 76.2077 83.472 76.4355 83.634 76.2789Z" fill="#43B549"/>
<path d="M84.7658 75.1832C84.9277 75.0266 84.7158 74.5448 84.2924 74.1071C83.869 73.6694 83.3946 73.4416 83.2326 73.5982C83.0707 73.7549 83.2827 74.2366 83.706 74.6743C84.1294 75.112 84.6039 75.3399 84.7658 75.1832Z" fill="#389B47"/>
<path d="M81.395 78.8426L80.3701 77.1758L79.1811 77.9069L80.2061 79.5737L81.395 78.8426Z" fill="#43B549"/>
<path d="M80.1937 79.5574C80.3616 79.4541 80.2691 78.9985 79.987 78.5398C79.7049 78.081 79.3401 77.7928 79.1722 77.8961C79.0042 77.9993 79.0969 78.4549 79.379 78.9137C79.661 79.3724 80.0258 79.6606 80.1937 79.5574Z" fill="#43B549"/>
<path d="M81.3783 78.8279C81.5462 78.7246 81.4537 78.269 81.1716 77.8103C80.8895 77.3515 80.5246 77.0633 80.3567 77.1666C80.1888 77.2698 80.2814 77.7254 80.5635 78.1842C80.8456 78.6429 81.2104 78.9311 81.3783 78.8279Z" fill="#389B47"/>
<path d="M81.9028 81.5075L80.8779 79.8408L79.689 80.5719L80.7138 82.2386L81.9028 81.5075Z" fill="#43B549"/>
<path d="M80.6957 82.2243C80.8636 82.1211 80.771 81.6655 80.4889 81.2067C80.2068 80.748 79.8421 80.4598 79.6742 80.563C79.5063 80.6663 79.5988 81.1219 79.8809 81.5806C80.163 82.0394 80.5278 82.3276 80.6957 82.2243Z" fill="#43B549"/>
<path d="M81.8862 81.4909C82.0541 81.3877 81.9615 80.9321 81.6794 80.4733C81.3973 80.0146 81.0325 79.7264 80.8646 79.8296C80.6967 79.9329 80.7892 80.3885 81.0713 80.8472C81.3534 81.306 81.7182 81.5942 81.8862 81.4909Z" fill="#389B47"/>
<path d="M86.2124 83.3826L85.1875 81.7158L83.9985 82.4469L85.0234 84.1137L86.2124 83.3826Z" fill="#43B549"/>
<path d="M85.017 84.1003C85.1849 83.9971 85.0923 83.5415 84.8102 83.0827C84.5282 82.624 84.1634 82.3358 83.9955 82.439C83.8276 82.5423 83.9201 82.9979 84.2022 83.4566C84.4843 83.9154 84.8491 84.2036 85.017 84.1003Z" fill="#43B549"/>
<path d="M86.1957 83.3728C86.3636 83.2695 86.2711 82.814 85.989 82.3552C85.7069 81.8964 85.3421 81.6082 85.1742 81.7115C85.0063 81.8147 85.0988 82.2703 85.3809 82.7291C85.663 83.1879 86.0278 83.476 86.1957 83.3728Z" fill="#389B47"/>
<path d="M84.9984 76.9512L82.8916 76.2998L82.4284 77.7977L84.5352 78.4491L84.9984 76.9512Z" fill="#43B549"/>
<path d="M84.654 78.4336C84.7206 78.2184 84.3029 77.8981 83.7211 77.7182C83.1394 77.5383 82.6138 77.567 82.5473 77.7822C82.4807 77.9974 82.8984 78.3177 83.4801 78.4976C84.0619 78.6775 84.5875 78.6488 84.654 78.4336Z" fill="#43B549"/>
<path d="M85.1101 76.9346C85.1766 76.7194 84.7589 76.3991 84.1772 76.2192C83.5954 76.0393 83.0699 76.0679 83.0033 76.2832C82.9368 76.4984 83.3544 76.8187 83.9362 76.9986C84.518 77.1785 85.0435 77.1498 85.1101 76.9346Z" fill="#389B47"/>
<path d="M82.4371 76.3195L80.6328 75.0518L79.7315 76.3346L81.5358 77.6024L82.4371 76.3195Z" fill="#43B549"/>
<path d="M81.5701 77.6108C81.6996 77.4264 81.4007 76.9932 80.9025 76.6431C80.4042 76.293 79.8953 76.1587 79.7658 76.343C79.6362 76.5273 79.9352 76.9606 80.4334 77.3106C80.9317 77.6607 81.4406 77.7951 81.5701 77.6108Z" fill="#43B549"/>
<path d="M82.4715 76.3276C82.601 76.1432 82.302 75.71 81.8038 75.3599C81.3055 75.0098 80.7966 74.8755 80.6671 75.0598C80.5376 75.2441 80.8365 75.6773 81.3348 76.0274C81.833 76.3775 82.342 76.5119 82.4715 76.3276Z" fill="#389B47"/>
<path d="M84.6641 79.4905L82.708 79.4453L82.6758 80.8407L84.6319 80.8859L84.6641 79.4905Z" fill="#43B549"/>
<path d="M84.582 80.902C84.5865 80.705 84.1537 80.5352 83.6153 80.5227C83.0769 80.5103 82.6368 80.66 82.6323 80.857C82.6277 81.0541 83.0605 81.2239 83.5989 81.2364C84.1373 81.2488 84.5774 81.0991 84.582 80.902Z" fill="#43B549"/>
<path d="M84.6162 79.5085C84.6207 79.3114 84.1879 79.1416 83.6495 79.1292C83.1111 79.1168 82.671 79.2664 82.6664 79.4635C82.6619 79.6605 83.0946 79.8304 83.6331 79.8428C84.1715 79.8552 84.6116 79.7055 84.6162 79.5085Z" fill="#389B47"/>
<path d="M89.285 81.3882L88.1299 79.5098L86.7943 80.331L87.9494 82.2094L89.285 81.3882Z" fill="#43B549"/>
<path d="M87.9391 82.197C88.131 82.079 88.028 81.5628 87.709 81.0441C87.39 80.5254 86.9759 80.2006 86.784 80.3186C86.5921 80.4366 86.6951 80.9527 87.0141 81.4714C87.333 81.9902 87.7472 82.315 87.9391 82.197Z" fill="#43B549"/>
<path d="M89.2711 81.3728C89.463 81.2548 89.36 80.7387 89.041 80.22C88.722 79.7013 88.3079 79.3763 88.116 79.4943C87.9241 79.6123 88.0271 80.1285 88.3461 80.6473C88.6651 81.166 89.0792 81.4908 89.2711 81.3728Z" fill="#389B47"/>
<path d="M89.6571 83.5391L89.8145 81.5889L88.4232 81.4766L88.2659 83.4269L89.6571 83.5391Z" fill="#43B549"/>
<path d="M88.8573 82.5532C88.9006 82.0164 88.7764 81.5683 88.58 81.5525C88.3835 81.5366 88.1891 81.959 88.1458 82.4958C88.1025 83.0326 88.2267 83.4806 88.4231 83.4965C88.6196 83.5123 88.814 83.09 88.8573 82.5532Z" fill="#43B549"/>
<path d="M90.2499 82.6655C90.2932 82.1287 90.169 81.6807 89.9725 81.6649C89.7761 81.649 89.5817 82.0713 89.5384 82.6081C89.4951 83.1449 89.6192 83.5929 89.8157 83.6088C90.0122 83.6246 90.2066 83.2023 90.2499 82.6655Z" fill="#389B47"/>
<path d="M93.939 77.3731L93.9883 75.1768L92.4267 75.1417L92.3774 77.338L93.939 77.3731Z" fill="#43B549"/>
<path d="M90.4914 79.897C90.5054 79.2882 90.3343 78.7904 90.1091 78.7852C89.8839 78.78 89.6899 79.2694 89.6758 79.8782C89.6618 80.487 89.833 80.9847 90.0582 80.9899C90.2834 80.9951 90.4773 80.5058 90.4914 79.897Z" fill="#43B549"/>
<path d="M92.0549 79.9361C92.0689 79.3273 91.8978 78.8296 91.6725 78.8244C91.4473 78.8192 91.2534 79.3085 91.2393 79.9172C91.2253 80.526 91.3964 81.0237 91.6217 81.0289C91.8469 81.0341 92.0408 80.5449 92.0549 79.9361Z" fill="#389B47"/>
<path d="M89.0805 77.823L88.0557 76.1562L86.8667 76.8874L87.8916 78.5541L89.0805 77.823Z" fill="#43B549"/>
<path d="M87.8725 78.5437C88.0404 78.4404 87.9478 77.9848 87.6657 77.5261C87.3836 77.0673 87.0188 76.7791 86.8509 76.8824C86.683 76.9856 86.7755 77.4412 87.0576 77.9C87.3397 78.3587 87.7046 78.6469 87.8725 78.5437Z" fill="#43B549"/>
<path d="M89.0629 77.8112C89.2308 77.708 89.1382 77.2524 88.8561 76.7936C88.574 76.3349 88.2093 76.0467 88.0414 76.1499C87.8735 76.2532 87.966 76.7088 88.2481 77.1675C88.5302 77.6263 88.895 77.9145 89.0629 77.8112Z" fill="#389B47"/>
<path d="M75.8487 73.2815C74.8368 78.8134 70.9597 79.9367 66.5813 79.1319C62.2029 78.3271 58.9719 75.9014 59.9858 70.3755C60.9997 64.8497 65.8358 59.2039 70.2182 60.0007C74.6007 60.7974 76.8424 67.7555 75.8487 73.2815Z" fill="#FCEFCE"/>
<path d="M69.4092 78.1226C72.0362 77.2661 73.4715 74.4422 72.615 71.8151C71.7585 69.1881 68.9346 67.7528 66.3075 68.6093C63.6805 69.4658 62.2451 72.2898 63.1016 74.9168C63.9581 77.5439 66.7822 78.9791 69.4092 78.1226Z" fill="#F6C048"/>
<path d="M57.6799 72.5754C59.4224 77.9199 56.5116 80.7526 52.2681 82.1093C48.0246 83.4661 44.036 82.8493 42.3238 77.4949C40.6116 72.1406 42.2315 64.8754 46.481 63.5167C50.7306 62.158 55.9757 67.2454 57.6799 72.5754Z" fill="#FCEFCE"/>
<path d="M52.249 81.1901C54.876 80.3335 56.3114 77.5095 55.4549 74.8825C54.5984 72.2555 51.7743 70.8202 49.1473 71.6767C46.5202 72.5332 45.085 75.3572 45.9415 77.9842C46.798 80.6112 49.6219 82.0466 52.249 81.1901Z" fill="#F6C048"/>
<path d="M125.903 78.212C122.35 77.6406 118.708 78.0271 115.354 79.3317C105.419 83.1945 99.7407 92.4666 102.676 100.07C103.164 101.483 104.003 102.748 105.114 103.747C106.226 104.746 107.573 105.446 109.029 105.782C105.517 105.291 102.792 103.471 101.375 99.8238C98.4262 92.2383 104.094 82.956 114.054 79.0853C117.828 77.6175 121.955 77.3133 125.903 78.212V78.212Z" fill="#896929"/>
<path d="M122.778 103.23C117.627 105.237 112.86 106.282 109.06 105.771C107.603 105.436 106.256 104.736 105.145 103.737C104.033 102.738 103.194 101.473 102.706 100.06C99.7572 92.4746 105.431 83.1903 115.385 79.3216C118.739 78.017 122.38 77.6305 125.933 78.2019C131.51 79.454 136.157 82.9733 137.923 87.5258C140.842 95.1213 132.713 99.3668 122.778 103.23Z" fill="#E0B762"/>
<path d="M107.381 92.0873C108.918 85.144 116.086 80.4004 123.373 81.5105C129.216 82.3874 132.96 87.6019 131.735 93.1566C130.75 97.6003 126.133 100.648 121.49 99.9357C117.747 99.373 115.346 96.0397 116.137 92.4835C116.494 91.0741 117.363 89.8482 118.575 89.0452C119.787 88.2422 121.255 87.9199 122.692 88.141C123.242 88.2036 123.773 88.3807 124.251 88.661C124.728 88.9413 125.142 89.3185 125.465 89.7684C125.788 90.2182 126.013 90.7307 126.125 91.2729C126.238 91.815 126.236 92.3748 126.119 92.9161C125.89 93.8177 125.333 94.6015 124.557 95.1148C123.781 95.628 122.842 95.8338 121.923 95.692C121.572 95.6503 121.233 95.536 120.929 95.3564C120.624 95.1769 120.36 94.9359 120.154 94.6489C119.948 94.362 119.803 94.0352 119.73 93.6894C119.656 93.3436 119.656 92.9862 119.728 92.6402C119.873 92.0622 120.229 91.5594 120.725 91.2301C121.222 90.9008 121.823 90.7688 122.412 90.86C122.638 90.8854 122.855 90.9576 123.051 91.0722C123.247 91.1867 123.417 91.3409 123.549 91.525C123.682 91.7091 123.775 91.9189 123.821 92.141C123.868 92.363 123.868 92.5923 123.82 92.8142" stroke="#E5CA76" stroke-width="0.68" stroke-miterlimit="10" stroke-linecap="round"/>
<path d="M103.926 83.3263C100.373 82.7549 96.7319 83.1414 93.3779 84.446C83.4363 88.3107 77.7642 97.5809 80.6991 105.184C81.1875 106.597 82.0275 107.861 83.1397 108.859C84.252 109.857 85.6 110.555 87.0567 110.888C83.5469 110.403 80.8218 108.583 79.3987 104.938C76.4496 97.3525 82.1178 88.0702 92.0776 84.1996C95.8513 82.7317 99.9781 82.4276 103.926 83.3263V83.3263Z" fill="#896929"/>
<path d="M100.795 108.345C96.3698 110.07 92.2294 111.084 88.739 111.009C88.1845 110.994 87.6311 110.951 87.0811 110.879V110.879C85.6241 110.544 84.2761 109.845 83.1637 108.846C82.0513 107.848 81.2109 106.582 80.7216 105.17C77.7785 97.5823 83.4487 88.3061 93.4024 84.4374C96.7554 83.1317 100.396 82.7431 103.949 83.3116C105.415 83.637 106.838 84.1314 108.19 84.7847C111.808 86.5277 114.644 89.3035 115.932 92.6376C118.861 100.223 110.737 104.481 100.795 108.345Z" fill="#E0B762"/>
<path opacity="0.58" d="M105.621 109.903C100.47 111.91 95.7028 112.955 91.9029 112.445C90.773 112.177 89.7051 111.695 88.7581 111.023C92.2484 111.098 96.3888 110.084 100.814 108.359C110.756 104.495 118.882 100.243 115.927 92.6595C114.639 89.3255 111.803 86.5496 108.185 84.8066L108.758 84.881C114.337 86.1391 118.984 89.6584 120.75 94.2109C123.681 101.782 115.553 106.028 105.621 109.903Z" fill="#C0964B"/>
<path d="M85.4035 97.2018C86.9326 90.2544 94.1027 85.5168 101.395 86.625C107.245 87.4999 110.989 92.7144 109.758 98.2711C108.779 102.713 104.192 105.75 99.5126 105.05C98.6533 104.952 97.8241 104.675 97.0782 104.238C96.3324 103.8 95.6865 103.211 95.1821 102.508C94.6778 101.805 94.3261 101.005 94.1497 100.158C93.9734 99.3117 93.9763 98.4375 94.1582 97.592C94.5175 96.184 95.3878 94.9601 96.5998 94.1585C97.8118 93.357 99.2787 93.0351 100.715 93.2555C101.265 93.3175 101.795 93.494 102.273 93.7738C102.75 94.0535 103.163 94.4303 103.486 94.8797C103.809 95.329 104.034 95.8411 104.146 96.3828C104.259 96.9245 104.257 97.4837 104.14 98.0245C103.912 98.9269 103.356 99.7117 102.579 100.225C101.803 100.739 100.863 100.944 99.9437 100.8C99.593 100.758 99.2549 100.643 98.951 100.463C98.647 100.283 98.3838 100.042 98.178 99.7548C97.9722 99.4676 97.8282 99.1409 97.7554 98.7952C97.6826 98.4495 97.6824 98.0924 97.7549 97.7467C97.9024 97.1702 98.2592 96.6693 98.7557 96.3414C99.2522 96.0135 99.853 95.882 100.441 95.9726C100.666 95.9987 100.883 96.0715 101.079 96.1865C101.274 96.3015 101.443 96.4561 101.575 96.6403C101.707 96.8245 101.799 97.0343 101.845 97.2562C101.892 97.4781 101.891 97.7072 101.843 97.9288" stroke="#E5CA76" stroke-width="0.68" stroke-miterlimit="10" stroke-linecap="round"/>
<path d="M152.939 78.6482C150.819 96.6748 145.664 115.591 124.809 125.869C104.224 136.013 74.6544 138.581 48.719 124.828C26.0936 112.818 19.6947 86.7561 19.4824 79.8134L19.4686 79.771C19.6185 82.4366 20.554 84.9982 22.1572 87.1331C30.3828 98.7098 56.502 106.591 87.1898 105.662C117.878 104.734 143.468 95.2841 150.942 83.2545C151.863 81.843 152.539 80.2855 152.939 78.6482V78.6482Z" fill="#5E422B"/>
<path d="M39.3672 92.1337L39.3164 93.7256C39.3164 93.7256 41.1579 93.2057 45.0825 92.516C49.0072 91.8263 54.7114 92.3798 54.7114 92.3798C54.7114 92.3798 55.9319 91.5998 55.6554 90.7313C55.379 89.8629 42.6288 90.5206 39.3672 92.1337Z" fill="#D2A432"/>
<path d="M39.3452 92.7439L38.9024 94.5106C38.9024 94.5106 40.7459 93.9967 44.6685 93.301C48.5912 92.6053 54.2974 93.1648 54.2974 93.1648L55.5437 91.5183C55.5437 91.5183 42.6088 91.1369 39.3452 92.7439Z" fill="#E2B73C"/>
<path d="M42.4467 95.8827L42.2932 97.4679C42.2932 97.4679 44.1762 97.0752 48.1254 96.6457C52.0745 96.2162 57.7377 97.1785 57.7377 97.1785C57.7377 97.1785 59.006 96.4835 58.7902 95.5751C58.5745 94.6667 45.8116 94.5041 42.4467 95.8827Z" fill="#D2A432"/>
<path d="M42.3836 96.493L41.8159 98.2266C41.8159 98.2266 43.6989 97.8339 47.6481 97.4044C51.5972 96.9749 57.2666 97.9353 57.2666 97.9353L58.6211 96.3742C58.6211 96.3742 45.7485 95.1144 42.3836 96.493Z" fill="#E2B73C"/>
<path d="M47.8294 92.451L47.4159 94.0204C47.4159 94.0204 49.3109 93.9522 53.3081 94.1841C57.3053 94.416 62.7165 96.3119 62.7165 96.3119C62.7165 96.3119 64.092 95.8635 64.0217 94.9077C63.9514 93.9519 51.3778 91.6561 47.8294 92.451Z" fill="#D2A432"/>
<path d="M47.6689 93.0473L46.8522 94.6543C46.8522 94.6543 48.7472 94.5861 52.7383 94.82C56.7295 95.0539 62.1467 96.9478 62.1467 96.9478L63.7314 95.6401C63.7314 95.6401 51.1992 92.2583 47.6689 93.0473Z" fill="#E2B73C"/>
<path d="M46.886 96.5262L46.4627 98.0653C46.4627 98.0653 48.3578 97.9971 52.3489 98.231C56.34 98.4648 61.7553 100.353 61.7553 100.353C61.7553 100.353 63.1308 99.9042 63.0564 98.9565C62.982 98.0087 50.4305 95.7191 46.886 96.5262Z" fill="#D2A432"/>
<path d="M46.747 97.1078L45.9303 98.7148C45.9303 98.7148 47.8252 98.6467 51.8164 98.8805C55.8075 99.1144 61.2228 101.002 61.2228 101.002L62.8095 99.7007C62.8095 99.7007 50.2713 96.3208 46.747 97.1078Z" fill="#E2B73C"/>
<path d="M44.1702 88.0946L43.7469 89.6336C43.7469 89.6336 45.6419 89.5655 49.633 89.7994C53.6241 90.0332 59.0414 91.9272 59.0414 91.9272C59.0414 91.9272 60.4169 91.4787 60.3405 90.5249C60.2642 89.571 47.7186 87.2996 44.1702 88.0946Z" fill="#D2A432"/>
<path d="M44.0029 88.6918L43.1861 90.2988C43.1861 90.2988 45.0811 90.2307 49.0722 90.4645C53.0634 90.6984 58.4806 92.5923 58.4806 92.5923L60.0653 91.2846C60.0653 91.2846 47.5574 87.8949 44.0029 88.6918Z" fill="#E2B73C"/>
<path d="M37.6194 93.0858L37.1961 94.6248C37.1961 94.6248 39.0911 94.5566 43.0823 94.7905C47.0734 95.0244 52.4907 96.9183 52.4907 96.9183C52.4907 96.9183 53.8662 96.4699 53.7898 95.516C53.7135 94.5622 41.1557 92.2948 37.6194 93.0858Z" fill="#D2A432"/>
<path d="M37.456 93.6752L36.6393 95.2822C36.6393 95.2822 38.5342 95.2141 42.5254 95.4479C46.5165 95.6818 51.9338 97.5757 51.9338 97.5757L53.5185 96.268C53.5185 96.268 40.9984 92.8822 37.456 93.6752Z" fill="#E2B73C"/>
</svg>
