<svg width="1096" height="881" viewBox="0 0 1096 881" fill="none" xmlns="http://www.w3.org/2000/svg">
<path d="M119.801 709.04C225.543 730.039 333.487 699.32 428.408 653.588C516.5 611.132 602.097 556.495 672.348 488.172C739.691 422.668 793.222 344.012 836.509 260.928C858.466 218.387 877.601 174.442 893.787 129.377C908.647 88.4905 918.083 45.0714 934.789 5.00247C936.601 0.676546 943.413 2.87048 943.073 7.30557C939.673 52.2381 922.423 97.8554 907.101 139.881C890.855 184.216 871.847 227.485 850.188 269.432C806.017 356.521 747.9 435.774 678.136 504.054C605.004 574.699 513.543 630.089 421.223 671.754C325.157 715.104 222.727 735.758 118.404 714.145C115.246 713.491 116.666 708.426 119.808 709.049L119.801 709.04Z" fill="#1D1D1B"/>
<path d="M210.002 777.588C182.734 782.304 150.914 765.113 126.792 754.819C95.7929 741.589 60.9277 727.197 34.5512 705.693C33.4076 704.871 32.5431 703.717 32.074 702.389C31.605 701.061 31.5541 699.621 31.9281 698.265C32.3022 696.908 33.0832 695.699 34.166 694.802C35.2487 693.904 36.581 693.361 37.9832 693.245C71.8898 690.841 105.424 684.719 137.984 674.99C154.515 669.676 170.615 663.106 186.143 655.337C199.526 648.804 211.736 639.982 226.08 635.73C230.242 634.499 232.396 639.936 229.757 642.726C208.083 665.626 170.467 678.272 141.071 688.037C107.766 699.099 72.6461 703.905 37.7752 706.587L41.2229 694.128C64.8235 713.613 95.3355 726.354 122.772 739.256C140.188 747.464 157.866 755.083 175.806 762.113C185.505 765.896 198.771 772.847 209.379 771.952C212.542 771.683 212.974 777.087 209.989 777.597L210.002 777.588Z" fill="#1D1D1B"/>
</svg>
