<svg width="700" height="210" viewBox="0 0 700 210" fill="none" xmlns="http://www.w3.org/2000/svg">
<path d="M7.34087 154.18C15.7821 157.186 25.4294 155.643 34.4736 155.643C108.351 150.91 182.181 145.423 256.242 143.282C363.665 140.201 470.856 132.951 578.234 129.832C554.562 144.522 529.646 158.274 508.881 175.746C495.636 185.741 501.082 206.968 519.815 209.449C537.444 212.869 549.116 199.567 561.39 191.864C598.675 167.405 636.974 143.359 680.49 126.602C692.439 122.393 702.592 112.211 699.409 101.052C696.317 88.5408 680.352 83.2446 668.63 76.8932C617.825 50.3288 562.775 29.4012 512.939 1.63638C498.312 -3.85025 479.485 5.16723 479.163 18.3919C477.824 30.3029 490.885 38.0429 501.403 44.242C531.583 61.0375 564.528 74.1489 596.275 88.8404C510.402 89.9315 424.803 96.0173 339.07 99.2846C289.879 101.841 240.411 101.728 191.453 106.613C140.51 111.384 89.7074 117.059 39.5002 125.55C28.1045 127.729 16.2437 129.568 6.09324 134.491C-2.57938 138.961 -1.84364 150.459 7.34087 154.18Z" fill="black"/>
</svg>
