<svg width="426" height="472" viewBox="0 0 426 472" fill="none" xmlns="http://www.w3.org/2000/svg">
<path d="M343.8 205.2C343.8 213.368 340.556 221.202 334.78 226.979C329.004 232.755 321.168 236 313 236H309.15C306.086 236 303.149 234.783 300.983 232.617C298.817 230.451 297.6 227.513 297.6 224.45V155.15C297.6 152.086 298.817 149.149 300.983 146.982C303.149 144.816 306.086 143.6 309.15 143.6H313C321.168 143.6 329.004 146.845 334.78 152.621C340.556 158.397 343.8 166.231 343.8 174.4V205.2Z" stroke="#464747" stroke-width="9" stroke-linecap="round" stroke-linejoin="round"/>
<path d="M82 205.2C82 213.368 85.2436 221.202 91.0197 226.979C96.7958 232.755 104.631 236 112.8 236H116.65C119.713 236 122.65 234.783 124.816 232.617C126.982 230.451 128.2 227.513 128.2 224.45V155.15C128.2 152.086 126.982 149.149 124.816 146.982C122.65 144.816 119.713 143.6 116.65 143.6H112.8C104.631 143.6 96.7958 146.845 91.0197 152.621C85.2436 158.397 82 166.231 82 174.4V205.2Z" stroke="#464747" stroke-width="9" stroke-linecap="round" stroke-linejoin="round"/>
<path d="M128.2 228.3C135.9 266.8 170.55 305.3 212.9 305.3C255.25 305.3 289.9 266.8 297.6 228.3" stroke="#464747" stroke-width="9" stroke-linecap="round" stroke-linejoin="round"/>
<path d="M120.5 120.5C120.5 72.3748 155.797 35.7998 212.9 35.7998C270.003 35.7998 305.3 72.3748 305.3 120.5" stroke="#464747" stroke-width="9" stroke-linecap="round" stroke-linejoin="round"/>
<path d="M97.1143 147.935C97.1143 39.1725 135.9 5 212.9 5C289.9 5 328.701 39.1725 328.701 147.935" stroke="#464747" stroke-width="9" stroke-linecap="round" stroke-linejoin="round"/>
<path d="M149.436 144.1C159.679 133.589 165.807 119.749 166.7 105.1C171.153 109.853 176.513 113.665 182.465 116.31C188.417 118.955 194.839 120.38 201.35 120.5H251.4C261.316 120.573 270.942 123.843 278.85 129.824" stroke="#464747" stroke-width="9" stroke-linecap="round" stroke-linejoin="round"/>
<path d="M313.662 360.347C328.415 366.484 343.645 371.406 359.2 375.061C420.993 389.999 420.8 427.722 420.8 466.999" stroke="#464747" stroke-width="9" stroke-linecap="round" stroke-linejoin="round"/>
<path d="M266.8 282.584V305.299" stroke="#464747" stroke-width="9" stroke-linecap="round" stroke-linejoin="round"/>
<path d="M159 313C159 346.726 103.298 366.192 66.6 375.062C4.82291 390 5.00001 427.722 5.00001 467" stroke="#464747" stroke-width="9" stroke-linecap="round" stroke-linejoin="round"/>
<path d="M281.982 349.392C282.547 352.398 281.979 355.507 280.387 358.119C278.796 360.731 276.295 362.661 273.364 363.537L241.542 373.547C238.654 374.459 235.609 374.767 232.597 374.453C229.585 374.139 226.666 373.21 224.029 371.722C221.438 370.276 219.19 368.29 217.434 365.899C215.678 363.508 214.455 360.767 213.851 357.862L213.313 355.144C212.73 352.259 212.787 349.282 213.486 346.423C214.185 343.564 215.507 340.895 217.355 338.604C219.245 336.262 221.601 334.339 224.277 332.958C226.952 331.578 229.889 330.771 232.894 330.589L266.281 328.41C269.359 328.167 272.422 329.047 274.902 330.887C277.382 332.727 279.111 335.403 279.771 338.42L281.982 349.392Z" stroke="#464747" stroke-width="9" stroke-linecap="round" stroke-linejoin="round"/>
<path d="M320.703 235V317.775C320.7 322.989 318.931 328.048 315.688 332.13C312.444 336.212 307.919 339.077 302.841 340.259L281.132 345.264" stroke="#464747" stroke-width="9" stroke-linecap="round" stroke-linejoin="round"/>
<path d="M328.701 366.129C316.066 385.291 298.871 401.017 278.662 411.899C258.453 422.78 235.86 428.476 212.908 428.476C189.955 428.476 167.362 422.78 147.153 411.899C126.944 401.017 109.749 385.291 97.1143 366.129" stroke="#464747" stroke-width="9" stroke-linecap="round" stroke-linejoin="round"/>
</svg>
