<svg width="180" height="180" viewBox="0 0 180 180" fill="none" xmlns="http://www.w3.org/2000/svg">
<g id="taco">
<g id="Group 16">
<path id="Vector" d="M82.8545 50.109C82.8545 50.109 33.186 56.87 31.1828 106.96C29.1796 157.051 142.321 111.664 145.301 96.1368C148.281 80.6098 134.064 38.8332 82.8545 50.109Z" fill="#EED776"/>
<path id="Vector_2" d="M108.092 48.6258C105.318 50.4857 91.8475 47.2982 91.6305 49.808C91.4135 52.3179 76.826 44.9312 79.1966 50.6829C81.5673 56.4347 70.8361 50.9629 69.2866 50.3639C67.7371 49.7649 67.3826 52.3612 65.8289 54.93C64.2751 57.4988 61.885 63.4947 58.8885 62.5761C55.892 61.6575 43.6113 61.231 47.6236 67.3634C51.636 73.4957 35.8157 69.8328 37.984 77.0962C40.1524 84.3596 32.8357 82.1705 35.1006 86.9359C37.3654 91.7013 27.2862 99.1791 32.4282 101.679C37.5701 104.178 27.7367 111.074 32.607 112.572C37.4774 114.07 36.1945 125.851 39.2332 121.907C42.2719 117.964 35.5997 110.07 38.5647 105.997C41.5297 101.925 36.4545 87.4808 40.6483 88.6505C44.8422 89.8202 57.0137 96.2891 54.8609 88.0206C52.7081 79.7521 48.43 74.7173 54.8284 74.7273C61.2268 74.7372 64.453 72.2664 64.3752 69.2415C64.2974 66.2166 66.7801 63.919 69.6868 64.7766C72.5936 65.6342 74.244 65.0088 75.3756 61.0476C76.5072 57.0864 74.7069 57.9436 81.0606 57.3461C87.4144 56.7486 86.2611 51.5165 93.5435 53.701C100.826 55.8856 104.117 61.0331 107.101 55.879C110.084 50.7249 117.349 65.2169 121.153 62.9282C124.956 60.6396 128.475 64.1879 132.503 67.4827C136.532 70.7776 140.784 76.8931 139.887 71.8351C138.991 66.7772 134.365 60.8356 130.667 60.4595C126.968 60.0835 123.551 57.6539 122.357 54.6124C121.162 51.5709 121.627 39.5751 108.092 48.6258Z" fill="#86B240"/>
<path id="Vector_3" d="M69.8748 75.6502C69.8748 75.6502 76.4188 68.1958 73.7139 65.6726C71.0091 63.1494 55.4056 66.0202 45.6979 75.3732C35.9902 84.7263 33.6497 99.0799 36.378 102.264C39.1063 105.448 69.8748 75.6502 69.8748 75.6502Z" fill="#E35325"/>
<path id="Vector_4" d="M91.5422 71.4227C91.5422 71.4227 97.5518 69.1635 96.712 65.561C95.8722 61.9585 85.9345 55.3129 77.5351 57.2943C69.1357 59.2757 63.5487 69.5089 64.2041 73.6533C64.8595 77.7976 91.5422 71.4227 91.5422 71.4227Z" fill="#E35325"/>
<path id="Vector_5" d="M132.358 70.4497C132.358 70.4497 135.939 65.1169 133.167 62.6756C130.396 60.2344 118.436 60.5992 112.74 67.097C107.045 73.5948 108.454 85.17 111.397 88.1587C114.341 91.1475 132.358 70.4497 132.358 70.4497Z" fill="#E35325"/>
<path id="Vector_6" d="M97.6793 64.7668C97.4333 66.6056 96.4668 68.2712 94.9926 69.3974C93.5184 70.5236 91.6572 71.0181 89.8185 70.772C85.9913 70.2598 76.775 69.4601 77.2918 65.5985C77.8086 61.7369 87.8359 56.3714 91.6632 56.8836C92.5768 57.004 93.4575 57.3037 94.2549 57.7655C95.0523 58.2274 95.7506 58.8423 96.3097 59.5748C96.8687 60.3074 97.2775 61.1431 97.5125 62.0341C97.7476 62.9251 97.8043 63.8538 97.6793 64.7668V64.7668Z" fill="#664328"/>
<path id="Vector_7" d="M78.7106 73.7551C78.4646 75.5939 77.4982 77.2595 76.024 78.3857C74.5498 79.5119 72.6886 80.0064 70.8499 79.7603C67.0158 79.2472 57.8063 78.4484 58.3231 74.5868C58.8399 70.7252 68.8751 65.3537 72.7092 65.8668C73.6219 65.989 74.5016 66.2902 75.2977 66.7531C76.0938 67.2161 76.7906 67.8316 77.3482 68.5645C77.9058 69.2974 78.3132 70.1333 78.547 71.024C78.7808 71.9147 78.8364 72.8428 78.7106 73.7551V73.7551Z" fill="#664328"/>
<path id="Vector_8" d="M60.2488 80.4259C60.3904 81.3339 60.3516 82.261 60.1347 83.154C59.9178 84.047 59.527 84.8886 58.9847 85.6305C58.4425 86.3725 57.7593 87.0003 56.9743 87.4781C56.1893 87.9559 55.3177 88.2744 54.4096 88.4152C50.5951 89.0098 41.5366 90.847 40.942 87.0326C40.3474 83.2181 48.4451 75.1813 52.2701 74.5601C53.1793 74.4204 54.1071 74.4613 55.0004 74.6806C55.8937 74.8998 56.7351 75.2932 57.4762 75.838C58.2173 76.3829 58.8437 77.0686 59.3194 77.8558C59.7952 78.6431 60.111 79.5164 60.2488 80.4259V80.4259Z" fill="#664328"/>
<path id="Vector_9" d="M33.043 100.796C32.8583 99.8961 32.8528 98.9686 33.0267 98.0664C33.2006 97.1642 33.5505 96.3052 34.0565 95.5383C34.5625 94.7714 35.2146 94.1116 35.9756 93.5968C36.7365 93.082 37.5915 92.7221 38.4916 92.5378C42.2809 91.765 51.2444 89.4884 52.0173 93.2777C52.7901 97.0671 45.0839 105.471 41.3014 106.245C39.4839 106.616 37.5934 106.25 36.0451 105.229C34.4967 104.207 33.417 102.613 33.043 100.796V100.796Z" fill="#664328"/>
<path id="Vector_10" d="M119.044 61.9048C118.793 63.7357 117.828 65.393 116.36 66.5148C114.891 67.6366 113.039 68.1318 111.206 67.8921C107.379 67.3799 98.1628 66.5802 98.6796 62.7186C99.1964 58.857 109.238 53.4865 113.066 53.9987C113.978 54.1235 114.857 54.4273 115.652 54.8926C116.446 55.3579 117.141 55.9755 117.697 56.7101C118.252 57.4447 118.657 58.2817 118.888 59.1731C119.119 60.0646 119.172 60.9929 119.044 61.9048V61.9048Z" fill="#664328"/>
<path id="Vector_11" d="M141.152 76.2845C141.03 77.1949 140.73 78.0725 140.269 78.867C139.808 79.6615 139.195 80.3575 138.465 80.9151C137.735 81.4727 136.903 81.8811 136.015 82.1169C135.127 82.3528 134.202 82.4115 133.291 82.2896C129.464 81.7775 120.256 80.9718 120.771 77.1171C121.287 73.2623 131.323 67.884 135.151 68.3962C136.064 68.5175 136.944 68.8181 137.74 69.2807C138.537 69.7434 139.234 70.359 139.792 71.0921C140.35 71.8252 140.757 72.6614 140.99 73.5525C141.224 74.4436 141.279 75.3721 141.152 76.2845V76.2845Z" fill="#664328"/>
<path id="Vector_12" d="M111.399 70.8479C111.399 70.8479 117.408 68.5887 116.574 64.994C115.741 61.3993 105.798 54.7391 97.3984 56.7204C88.999 58.7018 83.4042 68.941 84.0605 73.0785C84.7168 77.2159 111.399 70.8479 111.399 70.8479Z" fill="#E35325"/>
<path id="Vector_13" d="M82.2864 64.1754C82.2864 64.1754 33.4762 73.1985 36.1672 115.755C38.8582 158.311 147.221 112.362 148.742 99.0103C150.263 85.6591 132.18 51.2337 82.2864 64.1754Z" fill="#FEE784"/>
<path id="Vector_14" d="M57.2079 107.324C57.7772 107.4 58.3004 107.001 58.3765 106.432C58.4527 105.862 58.053 105.339 57.4838 105.263C56.9146 105.187 56.3914 105.586 56.3152 106.156C56.239 106.725 56.6387 107.248 57.2079 107.324Z" fill="#D3BD61"/>
<path id="Vector_15" d="M55.7509 126.105C56.3201 126.181 56.8433 125.781 56.9195 125.212C56.9957 124.643 56.596 124.119 56.0268 124.043C55.4575 123.967 54.9343 124.367 54.8582 124.936C54.782 125.505 55.1817 126.028 55.7509 126.105Z" fill="#D3BD61"/>
<path id="Vector_16" d="M66.4111 111.521C66.9803 111.597 67.5035 111.197 67.5797 110.628C67.6558 110.059 67.2561 109.535 66.6869 109.459C66.1177 109.383 65.5945 109.783 65.5183 110.352C65.4421 110.921 65.8418 111.444 66.4111 111.521Z" fill="#D3BD61"/>
<path id="Vector_17" d="M72.1962 102.308C72.7654 102.384 73.2886 101.984 73.3648 101.415C73.441 100.846 73.0413 100.323 72.4721 100.246C71.9029 100.17 71.3797 100.57 71.3035 101.139C71.2273 101.708 71.627 102.231 72.1962 102.308Z" fill="#D3BD61"/>
<path id="Vector_18" d="M54.5156 95.9825C55.0848 96.0587 55.608 95.659 55.6842 95.0897C55.7603 94.5205 55.3606 93.9973 54.7914 93.9211C54.2222 93.845 53.699 94.2447 53.6228 94.8139C53.5466 95.3831 53.9463 95.9063 54.5156 95.9825Z" fill="#D3BD61"/>
<path id="Vector_19" d="M47.1083 104.657C47.6776 104.733 48.2008 104.334 48.2769 103.765C48.3531 103.195 47.9534 102.672 47.3842 102.596C46.815 102.52 46.2918 102.919 46.2156 103.489C46.1394 104.058 46.5391 104.581 47.1083 104.657Z" fill="#D3BD61"/>
<path id="Vector_20" d="M48.7118 116.874C49.2811 116.95 49.8043 116.551 49.8804 115.981C49.9566 115.412 49.5569 114.889 48.9877 114.813C48.4185 114.737 47.8953 115.136 47.8191 115.705C47.7429 116.275 48.1426 116.798 48.7118 116.874Z" fill="#D3BD61"/>
<path id="Vector_21" d="M68.6308 124.723C69.2 124.799 69.7232 124.399 69.7994 123.83C69.8756 123.261 69.4759 122.738 68.9066 122.661C68.3374 122.585 67.8142 122.985 67.738 123.554C67.6619 124.123 68.0616 124.647 68.6308 124.723Z" fill="#D3BD61"/>
<path id="Vector_22" d="M60.1484 118.118C60.7176 118.194 61.2408 117.795 61.317 117.225C61.3931 116.656 60.9935 116.133 60.4242 116.057C59.855 115.981 59.3318 116.38 59.2556 116.95C59.1794 117.519 59.5791 118.042 60.1484 118.118Z" fill="#D3BD61"/>
<path id="Vector_23" d="M81.954 115.839C82.5233 115.915 83.0465 115.515 83.1226 114.946C83.1988 114.377 82.7991 113.854 82.2299 113.778C81.6607 113.701 81.1375 114.101 81.0613 114.67C80.9851 115.24 81.3848 115.763 81.954 115.839Z" fill="#D3BD61"/>
<path id="Vector_24" d="M85.6298 122.864C86.199 122.94 86.7222 122.541 86.7984 121.972C86.8746 121.402 86.4749 120.879 85.9057 120.803C85.3364 120.727 84.8132 121.126 84.7371 121.696C84.6609 122.265 85.0606 122.788 85.6298 122.864Z" fill="#D3BD61"/>
<path id="Vector_25" d="M107.404 108.068C107.973 108.145 108.497 107.745 108.573 107.176C108.649 106.606 108.249 106.083 107.68 106.007C107.111 105.931 106.588 106.331 106.511 106.9C106.435 107.469 106.835 107.992 107.404 108.068Z" fill="#D3BD61"/>
<path id="Vector_26" d="M105.357 94.4073C105.927 94.4835 106.45 94.0838 106.526 93.5145C106.602 92.9453 106.202 92.4221 105.633 92.3459C105.064 92.2698 104.541 92.6695 104.465 93.2387C104.388 93.8079 104.788 94.3311 105.357 94.4073Z" fill="#D3BD61"/>
<path id="Vector_27" d="M85.7822 87.2344C86.3514 87.3106 86.8746 86.9109 86.9508 86.3417C87.0269 85.7725 86.6272 85.2493 86.058 85.1731C85.4888 85.0969 84.9656 85.4966 84.8894 86.0658C84.8132 86.6351 85.2129 87.1583 85.7822 87.2344Z" fill="#D3BD61"/>
<path id="Vector_28" d="M72.4511 86.5001C73.0203 86.5762 73.5435 86.1765 73.6197 85.6073C73.6959 85.0381 73.2962 84.5149 72.727 84.4387C72.1577 84.3625 71.6345 84.7622 71.5584 85.3315C71.4822 85.9007 71.8819 86.4239 72.4511 86.5001Z" fill="#D3BD61"/>
<path id="Vector_29" d="M95.037 70.1348C95.6063 70.211 96.1295 69.8113 96.2056 69.2421C96.2818 68.6729 95.8821 68.1497 95.3129 68.0735C94.7437 67.9973 94.2205 68.397 94.1443 68.9662C94.0681 69.5354 94.4678 70.0586 95.037 70.1348Z" fill="#D3BD61"/>
<path id="Vector_30" d="M94.4013 111.525C94.9705 111.602 95.4937 111.202 95.5699 110.633C95.6461 110.063 95.2464 109.54 94.6772 109.464C94.1079 109.388 93.5847 109.788 93.5086 110.357C93.4324 110.926 93.8321 111.449 94.4013 111.525Z" fill="#D3BD61"/>
<path id="Vector_31" d="M104.188 72.4083C104.758 72.4844 105.281 72.0847 105.357 71.5155C105.433 70.9463 105.033 70.4231 104.464 70.3469C103.895 70.2707 103.372 70.6704 103.296 71.2397C103.219 71.8089 103.619 72.3321 104.188 72.4083Z" fill="#D3BD61"/>
<path id="Vector_32" d="M88.8661 98.6846C89.4354 98.7608 89.9586 98.3611 90.0347 97.7919C90.1109 97.2227 89.7112 96.6995 89.142 96.6233C88.5728 96.5471 88.0496 96.9468 87.9734 97.516C87.8972 98.0852 88.2969 98.6085 88.8661 98.6846Z" fill="#D3BD61"/>
<path id="Vector_33" d="M99.9413 100.537C100.511 100.613 101.034 100.214 101.11 99.6444C101.186 99.0752 100.786 98.552 100.217 98.4758C99.648 98.3996 99.1248 98.7993 99.0486 99.3686C98.9724 99.9378 99.3721 100.461 99.9413 100.537Z" fill="#D3BD61"/>
<path id="Vector_34" d="M111.191 100.099C111.761 100.175 112.284 99.7752 112.36 99.2059C112.436 98.6367 112.036 98.1135 111.467 98.0373C110.898 97.9612 110.375 98.3609 110.299 98.9301C110.222 99.4993 110.622 100.023 111.191 100.099Z" fill="#D3BD61"/>
<path id="Vector_35" d="M120.343 102.372C120.912 102.448 121.435 102.049 121.511 101.479C121.587 100.91 121.188 100.387 120.619 100.311C120.049 100.235 119.526 100.634 119.45 101.204C119.374 101.773 119.773 102.296 120.343 102.372Z" fill="#D3BD61"/>
<path id="Vector_36" d="M113.478 72.6026C114.048 72.6788 114.571 72.2791 114.647 71.7099C114.723 71.1406 114.324 70.6174 113.754 70.5413C113.185 70.4651 112.662 70.8648 112.586 71.434C112.51 72.0032 112.909 72.5264 113.478 72.6026Z" fill="#D3BD61"/>
<path id="Vector_37" d="M122.624 74.8751C123.193 74.9512 123.716 74.5515 123.793 73.9823C123.869 73.4131 123.469 72.8899 122.9 72.8137C122.331 72.7375 121.807 73.1372 121.731 73.7065C121.655 74.2757 122.055 74.7989 122.624 74.8751Z" fill="#D3BD61"/>
<path id="Vector_38" d="M87.9804 77.8633C88.5496 77.9395 89.0728 77.5398 89.149 76.9706C89.2252 76.4014 88.8255 75.8782 88.2563 75.802C87.687 75.7258 87.1638 76.1255 87.0877 76.6947C87.0115 77.264 87.4112 77.7872 87.9804 77.8633Z" fill="#D3BD61"/>
<path id="Vector_39" d="M97.1259 80.1358C97.6951 80.212 98.2183 79.8123 98.2945 79.2431C98.3707 78.6738 97.971 78.1506 97.4018 78.0745C96.8325 77.9983 96.3093 78.398 96.2332 78.9672C96.157 79.5364 96.5567 80.0596 97.1259 80.1358Z" fill="#D3BD61"/>
<path id="Vector_40" d="M109.194 81.4639C109.763 81.5401 110.287 81.1404 110.363 80.5712C110.439 80.002 110.039 79.4788 109.47 79.4026C108.901 79.3264 108.378 79.7261 108.302 80.2953C108.225 80.8645 108.625 81.3877 109.194 81.4639Z" fill="#D3BD61"/>
<path id="Vector_41" d="M58.83 89.6641C59.3992 89.7403 59.9224 89.3406 59.9986 88.7714C60.0748 88.2022 59.6751 87.679 59.1059 87.6028C58.5366 87.5266 58.0134 87.9263 57.9373 88.4955C57.8611 89.0647 58.2608 89.5879 58.83 89.6641Z" fill="#D3BD61"/>
<path id="Vector_42" d="M67.9755 91.9366C68.5447 92.0128 69.0679 91.6131 69.1441 91.0438C69.2203 90.4746 68.8206 89.9514 68.2514 89.8752C67.6822 89.7991 67.1589 90.1988 67.0828 90.768C67.0066 91.3372 67.4063 91.8604 67.9755 91.9366Z" fill="#D3BD61"/>
<path id="Vector_43" d="M81.6806 102.15C82.2498 102.227 82.773 101.827 82.8492 101.258C82.9254 100.688 82.5257 100.165 81.9565 100.089C81.3872 100.013 80.864 100.413 80.7879 100.982C80.7117 101.551 81.1114 102.074 81.6806 102.15Z" fill="#D3BD61"/>
<path id="Vector_44" d="M133.348 94.4112C133.917 94.4874 134.44 94.0877 134.516 93.5184C134.592 92.9492 134.193 92.426 133.623 92.3498C133.054 92.2737 132.531 92.6734 132.455 93.2426C132.379 93.8118 132.778 94.335 133.348 94.4112Z" fill="#D3BD61"/>
<path id="Vector_45" d="M113.772 87.2383C114.342 87.3145 114.865 86.9148 114.941 86.3456C115.017 85.7764 114.617 85.2532 114.048 85.177C113.479 85.1008 112.956 85.5005 112.88 86.0697C112.803 86.639 113.203 87.1622 113.772 87.2383Z" fill="#D3BD61"/>
<path id="Vector_46" d="M63.788 77.6534C64.3572 77.7296 64.8804 77.3299 64.9566 76.7606C65.0328 76.1914 64.6331 75.6682 64.0639 75.592C63.4947 75.5159 62.9714 75.9155 62.8953 76.4848C62.8191 77.054 63.2188 77.5772 63.788 77.6534Z" fill="#D3BD61"/>
<path id="Vector_47" d="M75.8486 78.9883C76.4178 79.0645 76.941 78.6648 77.0172 78.0956C77.0933 77.5264 76.6936 77.0032 76.1244 76.927C75.5552 76.8508 75.032 77.2505 74.9558 77.8197C74.8796 78.389 75.2793 78.9122 75.8486 78.9883Z" fill="#D3BD61"/>
<path id="Vector_48" d="M80.4345 84.7569C81.0037 84.8331 81.5269 84.4334 81.6031 83.8642C81.6793 83.2949 81.2796 82.7717 80.7104 82.6955C80.1411 82.6194 79.6179 83.0191 79.5418 83.5883C79.4656 84.1575 79.8653 84.6807 80.4345 84.7569Z" fill="#D3BD61"/>
<path id="Vector_49" d="M100.442 86.504C101.012 86.5801 101.535 86.1804 101.611 85.6112C101.687 85.042 101.287 84.5188 100.718 84.4426C100.149 84.3664 99.6257 84.7661 99.5496 85.3354C99.4734 85.9046 99.8731 86.4278 100.442 86.504Z" fill="#D3BD61"/>
<path id="Vector_50" d="M129.597 79.4805C130.166 79.5567 130.689 79.157 130.765 78.5878C130.841 78.0186 130.442 77.4954 129.872 77.4192C129.303 77.343 128.78 77.7427 128.704 78.3119C128.628 78.8811 129.027 79.4043 129.597 79.4805Z" fill="#D3BD61"/>
<path id="Vector_51" d="M119.835 82.126C120.404 82.2022 120.927 81.8025 121.003 81.2333C121.08 80.6641 120.68 80.1409 120.111 80.0647C119.542 79.9885 119.018 80.3882 118.942 80.9574C118.866 81.5267 119.266 82.0499 119.835 82.126Z" fill="#D3BD61"/>
<path id="Vector_52" d="M121.268 92.9073C121.837 92.9835 122.36 92.5838 122.436 92.0145C122.512 91.4453 122.113 90.9221 121.543 90.8459C120.974 90.7698 120.451 91.1695 120.375 91.7387C120.299 92.3079 120.698 92.8311 121.268 92.9073Z" fill="#D3BD61"/>
<path id="Vector_53" d="M138.911 86.4971C139.48 86.5733 140.003 86.1736 140.08 85.6044C140.156 85.0352 139.756 84.512 139.187 84.4358C138.618 84.3596 138.094 84.7593 138.018 85.3285C137.942 85.8977 138.342 86.421 138.911 86.4971Z" fill="#D3BD61"/>
<path id="Vector_54" d="M100.771 120.155C101.341 120.232 101.864 119.832 101.94 119.263C102.016 118.693 101.616 118.17 101.047 118.094C100.478 118.018 99.9548 118.418 99.8787 118.987C99.8025 119.556 100.202 120.079 100.771 120.155Z" fill="#D3BD61"/>
<path id="Vector_55" d="M120.429 113.183C120.998 113.259 121.521 112.859 121.597 112.29C121.673 111.721 121.274 111.198 120.705 111.121C120.135 111.045 119.612 111.445 119.536 112.014C119.46 112.583 119.859 113.106 120.429 113.183Z" fill="#D3BD61"/>
<path id="Vector_56" d="M131.157 105.239C131.726 105.315 132.25 104.916 132.326 104.347C132.402 103.777 132.002 103.254 131.433 103.178C130.864 103.102 130.341 103.501 130.264 104.071C130.188 104.64 130.588 105.163 131.157 105.239Z" fill="#D3BD61"/>
</g>
</g>
</svg>
