<svg width="12179" height="3215" viewBox="0 0 12179 3215" fill="none" xmlns="http://www.w3.org/2000/svg">
<path fill-rule="evenodd" clip-rule="evenodd" d="M0 291.534L406 595.534C812 900.534 1624 1509.53 2436 1448.53C3248 1387.53 4060 656.534 4872 839.534C5684 1022.53 6495 2118.53 7307 2057.53C8119 1996.53 8931 778.534 9743 291.534C10555 -195.466 11367 47.5341 11773 169.534L12179 291.534V3214.53H11773C11367 3214.53 10555 3214.53 9743 3214.53C8931 3214.53 8119 3214.53 7307 3214.53C6495 3214.53 5684 3214.53 4872 3214.53C4060 3214.53 3248 3214.53 2436 3214.53C1624 3214.53 812 3214.53 406 3214.53H0V291.534Z" fill="#2DBF90"/>
<path fill-rule="evenodd" clip-rule="evenodd" d="M0 291.534L406 595.534C812 900.534 1624 1509.53 2436 1448.53C3248 1387.53 4060 656.534 4872 839.534C5684 1022.53 6495 2118.53 7307 2057.53C8119 1996.53 8931 778.534 9743 291.534C10555 -195.466 11367 47.5341 11773 169.534L12179 291.534V3214.53H11773C11367 3214.53 10555 3214.53 9743 3214.53C8931 3214.53 8119 3214.53 7307 3214.53C6495 3214.53 5684 3214.53 4872 3214.53C4060 3214.53 3248 3214.53 2436 3214.53C1624 3214.53 812 3214.53 406 3214.53H0V291.534Z" fill="white" fill-opacity="0.44"/>
<path fill-rule="evenodd" clip-rule="evenodd" d="M0 291.534L406 595.534C812 900.534 1624 1509.53 2436 1448.53C3248 1387.53 4060 656.534 4872 839.534C5684 1022.53 6495 2118.53 7307 2057.53C8119 1996.53 8931 778.534 9743 291.534C10555 -195.466 11367 47.5341 11773 169.534L12179 291.534V3214.53H11773C11367 3214.53 10555 3214.53 9743 3214.53C8931 3214.53 8119 3214.53 7307 3214.53C6495 3214.53 5684 3214.53 4872 3214.53C4060 3214.53 3248 3214.53 2436 3214.53C1624 3214.53 812 3214.53 406 3214.53H0V291.534Z" stroke="black"/>
</svg>
